<?xml version="1.0" encoding="UTF-8"?>
<svg xmlns="http://www.w3.org/2000/svg" width="800.000" height="600.000" viewBox="0.0 0.0 800.000 600.000" version="1.1">
  <title>Produce by Acme CAD Converter</title>
  <desc>Produce by Acme CAD Converter</desc>
<path d="M66.05 247.53L66.05 302.7"
fill="none" stroke="black" stroke-width="0.5"/>
<path d="M352.93 302.7L587.4 302.7"
fill="none" stroke="black" stroke-width="0.5"/>
<path d="M66.05 302.7L341.9 302.7"
fill="none" stroke="black" stroke-width="0.5"/>
<path d="M587.4 302.7L587.4 247.53"
fill="none" stroke="black" stroke-width="0.5"/>
<path d="M587.4 247.53L441.2 247.53"
fill="none" stroke="black" stroke-width="0.5"/>
<path d="M441.2 247.53L408.1 247.53"
fill="none" stroke="black" stroke-width="0.5"/>
<path d="M408.1 247.53L352.93 247.53"
fill="none" stroke="black" stroke-width="0.5"/>
<path d="M341.9 247.53L66.05 247.53"
fill="none" stroke="black" stroke-width="0.5"/>
<path d="M85.36 275.12L85.56 273.34M85.56 273.34L86.13 271.64M86.13 271.64L87.05 270.11M87.05 270.11L88.28 268.81M88.28 268.81L89.76 267.8M89.76 267.8L91.42 267.14M91.42 267.14L93.19 266.85M93.19 266.85L94.98 266.95M94.98 266.95L96.7 267.43M96.7 267.43L98.28 268.27M98.28 268.27L99.65 269.43M99.65 269.43L100.73 270.85M100.73 270.85L101.48 272.47M101.48 272.47L101.86 274.22M101.86 274.22L101.86 276.01M101.86 276.01L101.48 277.76M101.48 277.76L100.73 279.38M100.73 279.38L99.65 280.81M99.65 280.81L98.28 281.97M98.28 281.97L96.7 282.8M96.7 282.8L94.98 283.28M94.98 283.28L93.19 283.38M93.19 283.38L91.42 283.09M91.42 283.09L89.76 282.43M89.76 282.43L88.28 281.42M88.28 281.42L87.05 280.12M87.05 280.12L86.13 278.59M86.13 278.59L85.56 276.9M85.56 276.9L85.36 275.12"
fill="none" stroke="black" stroke-width="0.5"/>
<path d="M195.7 275.12L195.89 273.34M195.89 273.34L196.47 271.64M196.47 271.64L197.39 270.11M197.39 270.11L198.62 268.81M198.62 268.81L200.1 267.8M200.1 267.8L201.76 267.14M201.76 267.14L203.53 266.85M203.53 266.85L205.32 266.95M205.32 266.95L207.04 267.43M207.04 267.43L208.62 268.27M208.62 268.27L209.98 269.43M209.98 269.43L211.07 270.85M211.07 270.85L211.82 272.47M211.82 272.47L212.2 274.22M212.2 274.22L212.2 276.01M212.2 276.01L211.82 277.76M211.82 277.76L211.07 279.38M211.07 279.38L209.98 280.81M209.98 280.81L208.62 281.97M208.62 281.97L207.04 282.8M207.04 282.8L205.32 283.28M205.32 283.28L203.53 283.38M203.53 283.38L201.76 283.09M201.76 283.09L200.1 282.43M200.1 282.43L198.62 281.42M198.62 281.42L197.39 280.12M197.39 280.12L196.47 278.59M196.47 278.59L195.89 276.9M195.89 276.9L195.7 275.12"
fill="none" stroke="black" stroke-width="0.5"/>
<path d="M559.82 313.73L559.82 225.19"
fill="none" stroke="black" stroke-width="0.5"/>
<path d="M449.48 313.73L449.48 225.19"
fill="none" stroke="black" stroke-width="0.5"/>
<path d="M587.4 255.81L441.2 255.81"
fill="none" stroke="black" stroke-width="0.5"/>
<path d="M441.2 255.81L408.1 255.81"
fill="none" stroke="black" stroke-width="0.5"/>
<path d="M408.1 294.43L587.4 294.43"
fill="none" stroke="black" stroke-width="0.5"/>
<path d="M568.09 255.81L568.09 247.53"
fill="none" stroke="black" stroke-width="0.5"/>
<path d="M551.54 255.81L551.54 247.53"
fill="none" stroke="black" stroke-width="0.5"/>
<path d="M568.09 302.7L568.09 294.43"
fill="none" stroke="black" stroke-width="0.5"/>
<path d="M551.54 302.7L551.54 294.43"
fill="none" stroke="black" stroke-width="0.5"/>
<path d="M457.76 302.7L457.76 294.43"
fill="none" stroke="black" stroke-width="0.5"/>
<path d="M441.2 302.7L441.2 294.43"
fill="none" stroke="black" stroke-width="0.5"/>
<path d="M457.76 255.81L457.76 247.53"
fill="none" stroke="black" stroke-width="0.5"/>
<path d="M441.2 255.81L441.2 247.53"
fill="none" stroke="black" stroke-width="0.5"/>
<path d="M408.1 251.72L412.29 247.53M410.21 255.81L418.48 247.53M416.4 255.81L424.68 247.53M422.59 255.81L430.87 247.53M428.79 255.81L437.06 247.53M434.98 255.81L441.2 249.58M441.17 255.81L441.2 255.78"
fill="none" stroke="black" stroke-width="0.5"/>
<path d="M457.76 251.61L461.83 247.53M459.75 255.81L468.03 247.53M465.94 255.81L474.22 247.53M472.14 255.81L480.41 247.53M478.33 255.81L486.61 247.53M484.52 255.81L492.8 247.53M490.72 255.81L498.99 247.53M496.91 255.81L505.18 247.53M503.1 255.81L511.38 247.53M509.29 255.81L517.57 247.53M515.49 255.81L523.76 247.53M521.68 255.81L529.96 247.53M527.87 255.81L536.15 247.53M534.07 255.81L542.34 247.53M540.26 255.81L548.53 247.53M546.45 255.81L551.54 250.72"
fill="none" stroke="black" stroke-width="0.5"/>
<path d="M568.09 252.74L573.31 247.53M571.22 255.81L579.5 247.53M577.42 255.81L585.69 247.53M583.61 255.81L587.4 252.01"
fill="none" stroke="black" stroke-width="0.5"/>
<path d="M408.1 295.07L408.75 294.43M408.1 301.26L414.94 294.43M412.86 302.7L421.13 294.43M419.05 302.7L427.33 294.43M425.24 302.7L433.52 294.43M431.44 302.7L439.71 294.43M437.63 302.7L441.2 299.13"
fill="none" stroke="black" stroke-width="0.5"/>
<path d="M457.76 294.96L458.29 294.43M457.76 301.15L464.48 294.43M462.4 302.7L470.68 294.43M468.59 302.7L476.87 294.43M474.79 302.7L483.06 294.43M480.98 302.7L489.26 294.43M487.17 302.7L495.45 294.43M493.37 302.7L501.64 294.43M499.56 302.7L507.83 294.43M505.75 302.7L514.03 294.43M511.94 302.7L520.22 294.43M518.14 302.7L526.41 294.43M524.33 302.7L532.61 294.43M530.52 302.7L538.8 294.43M536.72 302.7L544.99 294.43M542.91 302.7L551.18 294.43M549.1 302.7L551.54 300.26"
fill="none" stroke="black" stroke-width="0.5"/>
<path d="M568.09 296.09L569.76 294.43M568.09 302.29L575.96 294.43M573.87 302.7L582.15 294.43M580.07 302.7L587.4 295.36M586.26 302.7L587.4 301.56"
fill="none" stroke="black" stroke-width="0.5"/>
<path d="M407.86 248.17L407.86 248.17"
fill="none" stroke="black" stroke-width="0.5"/>
<path d="M408.02 247.53L408.02 247.53"
fill="none" stroke="black" stroke-width="0.5"/>
<path d="M408.02 247.53L408.02 247.69"
fill="none" stroke="black" stroke-width="0.5"/>
<path d="M408.02 247.69L408.02 247.85"
fill="none" stroke="black" stroke-width="0.5"/>
<path d="M408.02 247.85L408.02 248.01"
fill="none" stroke="black" stroke-width="0.5"/>
<path d="M408.02 248.01L408.02 248.17"
fill="none" stroke="black" stroke-width="0.5"/>
<path d="M408.02 248.17L408.02 248.49"
fill="none" stroke="black" stroke-width="0.5"/>
<path d="M408.02 248.49L407.86 248.49"
fill="none" stroke="black" stroke-width="0.5"/>
<path d="M407.86 248.49L407.86 248.65"
fill="none" stroke="black" stroke-width="0.5"/>
<path d="M407.86 248.65L407.86 248.81"
fill="none" stroke="black" stroke-width="0.5"/>
<path d="M407.86 248.81L407.86 248.97"
fill="none" stroke="black" stroke-width="0.5"/>
<path d="M407.86 248.97L407.86 248.97"
fill="none" stroke="black" stroke-width="0.5"/>
<path d="M407.86 248.97L407.86 249.13"
fill="none" stroke="black" stroke-width="0.5"/>
<path d="M407.86 249.13L407.86 249.29"
fill="none" stroke="black" stroke-width="0.5"/>
<path d="M407.86 249.29L407.86 249.45"
fill="none" stroke="black" stroke-width="0.5"/>
<path d="M407.86 249.45L407.7 249.61"
fill="none" stroke="black" stroke-width="0.5"/>
<path d="M407.7 249.61L407.7 249.93"
fill="none" stroke="black" stroke-width="0.5"/>
<path d="M407.7 249.93L407.7 249.93"
fill="none" stroke="black" stroke-width="0.5"/>
<path d="M407.7 249.93L407.7 250.08"
fill="none" stroke="black" stroke-width="0.5"/>
<path d="M407.7 250.08L407.54 250.4"
fill="none" stroke="black" stroke-width="0.5"/>
<path d="M407.54 250.4L407.54 250.56"
fill="none" stroke="black" stroke-width="0.5"/>
<path d="M407.54 250.56L407.54 250.72"
fill="none" stroke="black" stroke-width="0.5"/>
<path d="M407.54 250.72L407.54 250.88"
fill="none" stroke="black" stroke-width="0.5"/>
<path d="M407.54 250.88L407.54 251.04"
fill="none" stroke="black" stroke-width="0.5"/>
<path d="M407.54 251.04L407.54 251.2"
fill="none" stroke="black" stroke-width="0.5"/>
<path d="M407.54 251.2L407.54 251.36"
fill="none" stroke="black" stroke-width="0.5"/>
<path d="M407.54 251.36L407.54 251.36"
fill="none" stroke="black" stroke-width="0.5"/>
<path d="M407.54 251.36L407.54 251.52"
fill="none" stroke="black" stroke-width="0.5"/>
<path d="M407.54 251.52L407.54 251.68"
fill="none" stroke="black" stroke-width="0.5"/>
<path d="M407.54 251.68L407.54 251.84"
fill="none" stroke="black" stroke-width="0.5"/>
<path d="M407.54 251.84L407.54 252"
fill="none" stroke="black" stroke-width="0.5"/>
<path d="M407.54 252L407.54 252.16"
fill="none" stroke="black" stroke-width="0.5"/>
<path d="M407.54 252.16L407.54 252.32"
fill="none" stroke="black" stroke-width="0.5"/>
<path d="M407.54 252.32L407.54 252.32"
fill="none" stroke="black" stroke-width="0.5"/>
<path d="M407.54 252.32L407.54 252.48"
fill="none" stroke="black" stroke-width="0.5"/>
<path d="M407.54 252.48L407.54 252.64"
fill="none" stroke="black" stroke-width="0.5"/>
<path d="M407.54 252.64L407.54 252.8"
fill="none" stroke="black" stroke-width="0.5"/>
<path d="M407.54 252.8L407.54 252.8"
fill="none" stroke="black" stroke-width="0.5"/>
<path d="M407.54 252.8L407.54 252.96"
fill="none" stroke="black" stroke-width="0.5"/>
<path d="M407.54 252.96L407.54 253.12"
fill="none" stroke="black" stroke-width="0.5"/>
<path d="M407.54 253.12L407.54 253.28"
fill="none" stroke="black" stroke-width="0.5"/>
<path d="M407.54 253.28L407.54 253.44"
fill="none" stroke="black" stroke-width="0.5"/>
<path d="M407.54 253.44L407.54 253.6"
fill="none" stroke="black" stroke-width="0.5"/>
<path d="M407.54 253.6L407.54 253.76"
fill="none" stroke="black" stroke-width="0.5"/>
<path d="M407.54 253.76L407.54 253.92"
fill="none" stroke="black" stroke-width="0.5"/>
<path d="M407.54 253.92L407.54 254.08"
fill="none" stroke="black" stroke-width="0.5"/>
<path d="M407.54 254.08L407.54 254.24"
fill="none" stroke="black" stroke-width="0.5"/>
<path d="M407.54 254.24L407.54 254.24"
fill="none" stroke="black" stroke-width="0.5"/>
<path d="M407.54 254.24L407.54 254.39"
fill="none" stroke="black" stroke-width="0.5"/>
<path d="M407.54 254.39L407.54 254.55"
fill="none" stroke="black" stroke-width="0.5"/>
<path d="M407.54 254.55L407.7 254.71"
fill="none" stroke="black" stroke-width="0.5"/>
<path d="M407.7 254.71L407.7 254.71"
fill="none" stroke="black" stroke-width="0.5"/>
<path d="M407.7 254.71L407.7 254.87"
fill="none" stroke="black" stroke-width="0.5"/>
<path d="M407.7 254.87L407.7 255.03"
fill="none" stroke="black" stroke-width="0.5"/>
<path d="M407.7 255.03L407.7 255.19"
fill="none" stroke="black" stroke-width="0.5"/>
<path d="M407.7 255.19L407.7 255.19"
fill="none" stroke="black" stroke-width="0.5"/>
<path d="M407.7 255.19L407.7 255.35"
fill="none" stroke="black" stroke-width="0.5"/>
<path d="M407.7 255.35L407.7 255.51"
fill="none" stroke="black" stroke-width="0.5"/>
<path d="M407.7 255.51L407.7 255.67"
fill="none" stroke="black" stroke-width="0.5"/>
<path d="M407.7 255.67L407.86 255.67"
fill="none" stroke="black" stroke-width="0.5"/>
<path d="M407.86 255.67L407.86 255.67"
fill="none" stroke="black" stroke-width="0.5"/>
<path d="M407.86 255.67L407.86 255.83"
fill="none" stroke="black" stroke-width="0.5"/>
<path d="M407.86 255.83L407.86 255.99"
fill="none" stroke="black" stroke-width="0.5"/>
<path d="M407.86 255.99L408.02 255.99"
fill="none" stroke="black" stroke-width="0.5"/>
<path d="M408.02 255.99L408.02 256.15"
fill="none" stroke="black" stroke-width="0.5"/>
<path d="M408.02 256.15L408.02 256.15"
fill="none" stroke="black" stroke-width="0.5"/>
<path d="M408.02 256.15L408.02 256.31"
fill="none" stroke="black" stroke-width="0.5"/>
<path d="M408.02 256.31L408.02 256.47"
fill="none" stroke="black" stroke-width="0.5"/>
<path d="M408.02 256.47L408.02 256.63"
fill="none" stroke="black" stroke-width="0.5"/>
<path d="M408.02 256.63L408.18 256.63"
fill="none" stroke="black" stroke-width="0.5"/>
<path d="M408.18 256.63L408.18 256.95"
fill="none" stroke="black" stroke-width="0.5"/>
<path d="M408.18 256.95L408.18 257.11"
fill="none" stroke="black" stroke-width="0.5"/>
<path d="M408.18 257.11L408.18 257.11"
fill="none" stroke="black" stroke-width="0.5"/>
<path d="M408.18 257.11L408.18 257.27"
fill="none" stroke="black" stroke-width="0.5"/>
<path d="M408.18 257.27L408.18 257.59"
fill="none" stroke="black" stroke-width="0.5"/>
<path d="M408.18 257.59L408.18 257.59"
fill="none" stroke="black" stroke-width="0.5"/>
<path d="M408.18 257.59L408.18 257.75"
fill="none" stroke="black" stroke-width="0.5"/>
<path d="M408.18 257.75L408.34 257.91"
fill="none" stroke="black" stroke-width="0.5"/>
<path d="M408.34 257.91L408.34 258.07"
fill="none" stroke="black" stroke-width="0.5"/>
<path d="M408.34 258.07L408.34 258.07"
fill="none" stroke="black" stroke-width="0.5"/>
<path d="M408.34 258.07L408.34 258.23"
fill="none" stroke="black" stroke-width="0.5"/>
<path d="M408.34 258.23L408.34 258.39"
fill="none" stroke="black" stroke-width="0.5"/>
<path d="M408.34 258.39L408.34 258.55"
fill="none" stroke="black" stroke-width="0.5"/>
<path d="M408.34 258.55L408.5 258.55"
fill="none" stroke="black" stroke-width="0.5"/>
<path d="M408.5 258.55L408.66 258.7"
fill="none" stroke="black" stroke-width="0.5"/>
<path d="M408.66 258.7L408.66 258.86"
fill="none" stroke="black" stroke-width="0.5"/>
<path d="M408.66 258.86L408.66 259.02"
fill="none" stroke="black" stroke-width="0.5"/>
<path d="M408.66 259.02L408.66 259.02"
fill="none" stroke="black" stroke-width="0.5"/>
<path d="M408.66 259.02L408.66 259.18"
fill="none" stroke="black" stroke-width="0.5"/>
<path d="M408.66 259.18L408.66 259.34"
fill="none" stroke="black" stroke-width="0.5"/>
<path d="M408.66 259.34L408.66 259.5"
fill="none" stroke="black" stroke-width="0.5"/>
<path d="M408.66 259.5L408.82 259.82"
fill="none" stroke="black" stroke-width="0.5"/>
<path d="M408.82 259.82L408.98 259.98"
fill="none" stroke="black" stroke-width="0.5"/>
<path d="M408.98 259.98L408.98 259.98"
fill="none" stroke="black" stroke-width="0.5"/>
<path d="M408.98 259.98L409.14 260.14"
fill="none" stroke="black" stroke-width="0.5"/>
<path d="M409.14 260.14L409.14 260.3"
fill="none" stroke="black" stroke-width="0.5"/>
<path d="M409.14 260.3L409.14 260.46"
fill="none" stroke="black" stroke-width="0.5"/>
<path d="M409.14 260.46L409.14 260.46"
fill="none" stroke="black" stroke-width="0.5"/>
<path d="M409.14 260.46L409.3 260.62"
fill="none" stroke="black" stroke-width="0.5"/>
<path d="M409.3 260.62L409.3 260.78"
fill="none" stroke="black" stroke-width="0.5"/>
<path d="M409.3 260.78L409.3 260.94"
fill="none" stroke="black" stroke-width="0.5"/>
<path d="M409.3 260.94L409.46 261.1"
fill="none" stroke="black" stroke-width="0.5"/>
<path d="M409.46 261.1L409.62 261.26"
fill="none" stroke="black" stroke-width="0.5"/>
<path d="M409.62 261.26L409.62 261.42"
fill="none" stroke="black" stroke-width="0.5"/>
<path d="M409.62 261.42L409.78 261.58"
fill="none" stroke="black" stroke-width="0.5"/>
<path d="M409.78 261.58L409.78 261.74"
fill="none" stroke="black" stroke-width="0.5"/>
<path d="M409.78 261.74L409.93 261.9"
fill="none" stroke="black" stroke-width="0.5"/>
<path d="M409.93 261.9L410.09 261.9"
fill="none" stroke="black" stroke-width="0.5"/>
<path d="M410.09 261.9L410.09 262.06"
fill="none" stroke="black" stroke-width="0.5"/>
<path d="M410.09 262.06L410.09 262.22"
fill="none" stroke="black" stroke-width="0.5"/>
<path d="M410.09 262.22L410.25 262.38"
fill="none" stroke="black" stroke-width="0.5"/>
<path d="M410.25 262.38L410.25 262.54"
fill="none" stroke="black" stroke-width="0.5"/>
<path d="M410.25 262.54L410.41 262.7"
fill="none" stroke="black" stroke-width="0.5"/>
<path d="M410.41 262.7L410.41 262.86"
fill="none" stroke="black" stroke-width="0.5"/>
<path d="M410.41 262.86L410.57 262.86"
fill="none" stroke="black" stroke-width="0.5"/>
<path d="M410.57 262.86L410.57 263.17"
fill="none" stroke="black" stroke-width="0.5"/>
<path d="M410.57 263.17L410.57 263.33"
fill="none" stroke="black" stroke-width="0.5"/>
<path d="M410.57 263.33L410.73 263.65"
fill="none" stroke="black" stroke-width="0.5"/>
<path d="M410.73 263.65L410.73 263.81"
fill="none" stroke="black" stroke-width="0.5"/>
<path d="M410.73 263.81L410.89 264.13"
fill="none" stroke="black" stroke-width="0.5"/>
<path d="M410.89 264.13L410.89 264.29"
fill="none" stroke="black" stroke-width="0.5"/>
<path d="M410.89 264.29L411.05 264.45"
fill="none" stroke="black" stroke-width="0.5"/>
<path d="M411.05 264.45L411.05 265.09"
fill="none" stroke="black" stroke-width="0.5"/>
<path d="M411.05 265.09L411.21 265.41"
fill="none" stroke="black" stroke-width="0.5"/>
<path d="M411.21 265.41L411.21 265.73"
fill="none" stroke="black" stroke-width="0.5"/>
<path d="M411.21 265.73L411.37 265.73"
fill="none" stroke="black" stroke-width="0.5"/>
<path d="M411.37 265.73L411.53 266.21"
fill="none" stroke="black" stroke-width="0.5"/>
<path d="M411.53 266.21L411.53 266.37"
fill="none" stroke="black" stroke-width="0.5"/>
<path d="M411.53 266.37L411.53 266.53"
fill="none" stroke="black" stroke-width="0.5"/>
<path d="M411.53 266.53L411.53 266.85"
fill="none" stroke="black" stroke-width="0.5"/>
<path d="M411.53 266.85L411.53 267.01"
fill="none" stroke="black" stroke-width="0.5"/>
<path d="M411.53 267.01L411.69 267.48"
fill="none" stroke="black" stroke-width="0.5"/>
<path d="M411.69 267.48L411.85 267.96"
fill="none" stroke="black" stroke-width="0.5"/>
<path d="M411.85 267.96L411.85 268.28"
fill="none" stroke="black" stroke-width="0.5"/>
<path d="M411.85 268.28L411.85 268.6"
fill="none" stroke="black" stroke-width="0.5"/>
<path d="M411.85 268.6L411.85 268.76"
fill="none" stroke="black" stroke-width="0.5"/>
<path d="M411.85 268.76L412.01 269.08"
fill="none" stroke="black" stroke-width="0.5"/>
<path d="M412.01 269.08L412.01 269.24"
fill="none" stroke="black" stroke-width="0.5"/>
<path d="M412.01 269.24L412.01 269.56"
fill="none" stroke="black" stroke-width="0.5"/>
<path d="M412.01 269.56L412.17 270.2"
fill="none" stroke="black" stroke-width="0.5"/>
<path d="M412.17 270.2L412.17 270.52"
fill="none" stroke="black" stroke-width="0.5"/>
<path d="M412.17 270.52L412.17 271"
fill="none" stroke="black" stroke-width="0.5"/>
<path d="M412.17 271L412.17 271.48"
fill="none" stroke="black" stroke-width="0.5"/>
<path d="M412.17 271.48L412.17 271.95"
fill="none" stroke="black" stroke-width="0.5"/>
<path d="M412.17 271.95L412.17 272.27"
fill="none" stroke="black" stroke-width="0.5"/>
<path d="M412.17 272.27L412.17 272.59"
fill="none" stroke="black" stroke-width="0.5"/>
<path d="M412.17 272.59L412.33 273.23"
fill="none" stroke="black" stroke-width="0.5"/>
<path d="M412.33 273.23L412.33 273.55"
fill="none" stroke="black" stroke-width="0.5"/>
<path d="M412.33 273.55L412.49 274.03"
fill="none" stroke="black" stroke-width="0.5"/>
<path d="M412.49 274.03L412.49 274.35"
fill="none" stroke="black" stroke-width="0.5"/>
<path d="M412.49 274.35L412.49 274.83"
fill="none" stroke="black" stroke-width="0.5"/>
<path d="M412.49 274.83L412.49 275.31"
fill="none" stroke="black" stroke-width="0.5"/>
<path d="M412.49 275.31L412.49 275.79"
fill="none" stroke="black" stroke-width="0.5"/>
<path d="M412.49 275.79L412.49 276.26"
fill="none" stroke="black" stroke-width="0.5"/>
<path d="M412.49 276.26L412.49 276.74"
fill="none" stroke="black" stroke-width="0.5"/>
<path d="M412.49 276.74L412.49 277.22"
fill="none" stroke="black" stroke-width="0.5"/>
<path d="M412.49 277.22L412.49 277.7"
fill="none" stroke="black" stroke-width="0.5"/>
<path d="M412.49 277.7L412.49 278.18"
fill="none" stroke="black" stroke-width="0.5"/>
<path d="M412.49 278.18L412.49 278.5"
fill="none" stroke="black" stroke-width="0.5"/>
<path d="M412.49 278.5L412.49 278.98"
fill="none" stroke="black" stroke-width="0.5"/>
<path d="M412.49 278.98L412.49 279.62"
fill="none" stroke="black" stroke-width="0.5"/>
<path d="M412.49 279.62L412.49 280.1"
fill="none" stroke="black" stroke-width="0.5"/>
<path d="M412.49 280.1L412.49 280.57"
fill="none" stroke="black" stroke-width="0.5"/>
<path d="M412.49 280.57L412.33 281.37"
fill="none" stroke="black" stroke-width="0.5"/>
<path d="M412.33 281.37L412.33 281.69"
fill="none" stroke="black" stroke-width="0.5"/>
<path d="M412.33 281.69L412.33 282.17"
fill="none" stroke="black" stroke-width="0.5"/>
<path d="M412.33 282.17L412.33 282.65"
fill="none" stroke="black" stroke-width="0.5"/>
<path d="M412.33 282.65L412.17 283.13"
fill="none" stroke="black" stroke-width="0.5"/>
<path d="M412.17 283.13L412.17 283.45"
fill="none" stroke="black" stroke-width="0.5"/>
<path d="M412.17 283.45L412.17 283.93"
fill="none" stroke="black" stroke-width="0.5"/>
<path d="M412.17 283.93L412.17 284.41"
fill="none" stroke="black" stroke-width="0.5"/>
<path d="M412.17 284.41L412.17 284.73"
fill="none" stroke="black" stroke-width="0.5"/>
<path d="M412.17 284.73L412.01 285.2"
fill="none" stroke="black" stroke-width="0.5"/>
<path d="M412.01 285.2L412.01 285.36"
fill="none" stroke="black" stroke-width="0.5"/>
<path d="M412.01 285.36L412.01 285.52"
fill="none" stroke="black" stroke-width="0.5"/>
<path d="M412.01 285.52L412.01 286.16"
fill="none" stroke="black" stroke-width="0.5"/>
<path d="M412.01 286.16L411.85 286.32"
fill="none" stroke="black" stroke-width="0.5"/>
<path d="M411.85 286.32L411.85 286.64"
fill="none" stroke="black" stroke-width="0.5"/>
<path d="M411.85 286.64L411.69 287.28"
fill="none" stroke="black" stroke-width="0.5"/>
<path d="M411.69 287.28L411.53 287.76"
fill="none" stroke="black" stroke-width="0.5"/>
<path d="M411.53 287.76L411.37 288.24"
fill="none" stroke="black" stroke-width="0.5"/>
<path d="M411.37 288.24L411.21 288.72"
fill="none" stroke="black" stroke-width="0.5"/>
<path d="M411.21 288.72L411.05 288.88"
fill="none" stroke="black" stroke-width="0.5"/>
<path d="M411.05 288.88L410.89 289.19"
fill="none" stroke="black" stroke-width="0.5"/>
<path d="M410.89 289.19L410.73 289.67"
fill="none" stroke="black" stroke-width="0.5"/>
<path d="M410.73 289.67L410.73 289.99"
fill="none" stroke="black" stroke-width="0.5"/>
<path d="M410.73 289.99L410.73 290.15"
fill="none" stroke="black" stroke-width="0.5"/>
<path d="M410.73 290.15L410.57 290.47"
fill="none" stroke="black" stroke-width="0.5"/>
<path d="M410.57 290.47L410.57 290.63"
fill="none" stroke="black" stroke-width="0.5"/>
<path d="M410.57 290.63L410.41 290.63"
fill="none" stroke="black" stroke-width="0.5"/>
<path d="M410.41 290.63L410.41 290.95"
fill="none" stroke="black" stroke-width="0.5"/>
<path d="M410.41 290.95L410.25 291.11"
fill="none" stroke="black" stroke-width="0.5"/>
<path d="M410.25 291.11L410.25 291.27"
fill="none" stroke="black" stroke-width="0.5"/>
<path d="M410.25 291.27L410.09 291.59"
fill="none" stroke="black" stroke-width="0.5"/>
<path d="M410.09 291.59L409.93 291.91"
fill="none" stroke="black" stroke-width="0.5"/>
<path d="M409.93 291.91L409.78 291.91"
fill="none" stroke="black" stroke-width="0.5"/>
<path d="M409.78 291.91L409.78 292.07"
fill="none" stroke="black" stroke-width="0.5"/>
<path d="M409.78 292.07L409.78 292.23"
fill="none" stroke="black" stroke-width="0.5"/>
<path d="M409.78 292.23L409.62 292.39"
fill="none" stroke="black" stroke-width="0.5"/>
<path d="M409.62 292.39L409.46 292.55"
fill="none" stroke="black" stroke-width="0.5"/>
<path d="M409.46 292.55L409.46 292.71"
fill="none" stroke="black" stroke-width="0.5"/>
<path d="M409.46 292.71L409.3 292.71"
fill="none" stroke="black" stroke-width="0.5"/>
<path d="M409.3 292.71L409.3 292.87"
fill="none" stroke="black" stroke-width="0.5"/>
<path d="M409.3 292.87L409.3 293.03"
fill="none" stroke="black" stroke-width="0.5"/>
<path d="M409.3 293.03L409.14 293.19"
fill="none" stroke="black" stroke-width="0.5"/>
<path d="M409.14 293.19L409.14 293.35"
fill="none" stroke="black" stroke-width="0.5"/>
<path d="M409.14 293.35L408.98 293.35"
fill="none" stroke="black" stroke-width="0.5"/>
<path d="M408.98 293.35L408.98 293.51"
fill="none" stroke="black" stroke-width="0.5"/>
<path d="M408.98 293.51L408.82 293.51"
fill="none" stroke="black" stroke-width="0.5"/>
<path d="M408.82 293.51L408.82 293.66"
fill="none" stroke="black" stroke-width="0.5"/>
<path d="M408.82 293.66L408.82 293.66"
fill="none" stroke="black" stroke-width="0.5"/>
<path d="M408.82 293.66L408.82 293.82"
fill="none" stroke="black" stroke-width="0.5"/>
<path d="M408.82 293.82L408.66 293.98"
fill="none" stroke="black" stroke-width="0.5"/>
<path d="M408.66 293.98L408.66 293.98"
fill="none" stroke="black" stroke-width="0.5"/>
<path d="M408.66 293.98L408.5 293.98"
fill="none" stroke="black" stroke-width="0.5"/>
<path d="M408.5 293.98L408.34 294.14"
fill="none" stroke="black" stroke-width="0.5"/>
<path d="M408.34 294.14L408.34 294.3"
fill="none" stroke="black" stroke-width="0.5"/>
<path d="M408.34 294.3L408.34 294.46"
fill="none" stroke="black" stroke-width="0.5"/>
<path d="M408.34 294.46L408.34 294.46"
fill="none" stroke="black" stroke-width="0.5"/>
<path d="M408.34 294.46L408.34 294.46"
fill="none" stroke="black" stroke-width="0.5"/>
<path d="M408.34 294.46L408.18 294.62"
fill="none" stroke="black" stroke-width="0.5"/>
<path d="M408.18 294.62L408.18 294.78"
fill="none" stroke="black" stroke-width="0.5"/>
<path d="M408.18 294.78L408.02 294.94"
fill="none" stroke="black" stroke-width="0.5"/>
<path d="M408.02 294.94L407.86 294.94"
fill="none" stroke="black" stroke-width="0.5"/>
<path d="M407.86 294.94L407.86 295.1"
fill="none" stroke="black" stroke-width="0.5"/>
<path d="M407.86 295.1L407.86 295.26"
fill="none" stroke="black" stroke-width="0.5"/>
<path d="M407.86 295.26L407.86 295.42"
fill="none" stroke="black" stroke-width="0.5"/>
<path d="M407.86 295.42L407.86 295.58"
fill="none" stroke="black" stroke-width="0.5"/>
<path d="M407.86 295.58L407.86 295.74"
fill="none" stroke="black" stroke-width="0.5"/>
<path d="M407.86 295.74L407.7 295.9"
fill="none" stroke="black" stroke-width="0.5"/>
<path d="M407.7 295.9L407.54 296.22"
fill="none" stroke="black" stroke-width="0.5"/>
<path d="M407.54 296.22L407.54 296.54"
fill="none" stroke="black" stroke-width="0.5"/>
<path d="M407.54 296.54L407.54 296.7"
fill="none" stroke="black" stroke-width="0.5"/>
<path d="M407.54 296.7L407.54 296.86"
fill="none" stroke="black" stroke-width="0.5"/>
<path d="M407.54 296.86L407.54 296.86"
fill="none" stroke="black" stroke-width="0.5"/>
<path d="M407.54 296.86L407.54 297.02"
fill="none" stroke="black" stroke-width="0.5"/>
<path d="M407.54 297.02L407.54 297.18"
fill="none" stroke="black" stroke-width="0.5"/>
<path d="M407.54 297.18L407.54 297.34"
fill="none" stroke="black" stroke-width="0.5"/>
<path d="M407.54 297.34L407.54 297.34"
fill="none" stroke="black" stroke-width="0.5"/>
<path d="M407.54 297.34L407.54 297.5"
fill="none" stroke="black" stroke-width="0.5"/>
<path d="M407.54 297.5L407.54 297.66"
fill="none" stroke="black" stroke-width="0.5"/>
<path d="M407.54 297.66L407.54 297.82"
fill="none" stroke="black" stroke-width="0.5"/>
<path d="M407.54 297.82L407.54 297.97"
fill="none" stroke="black" stroke-width="0.5"/>
<path d="M407.54 297.97L407.54 298.13"
fill="none" stroke="black" stroke-width="0.5"/>
<path d="M407.54 298.13L407.54 298.29"
fill="none" stroke="black" stroke-width="0.5"/>
<path d="M407.54 298.29L407.54 298.29"
fill="none" stroke="black" stroke-width="0.5"/>
<path d="M407.54 298.29L407.54 298.61"
fill="none" stroke="black" stroke-width="0.5"/>
<path d="M407.54 298.61L407.54 298.77"
fill="none" stroke="black" stroke-width="0.5"/>
<path d="M407.54 298.77L407.54 298.77"
fill="none" stroke="black" stroke-width="0.5"/>
<path d="M407.54 298.77L407.54 298.93"
fill="none" stroke="black" stroke-width="0.5"/>
<path d="M407.54 298.93L407.54 299.25"
fill="none" stroke="black" stroke-width="0.5"/>
<path d="M407.54 299.25L407.54 299.25"
fill="none" stroke="black" stroke-width="0.5"/>
<path d="M407.54 299.25L407.54 299.41"
fill="none" stroke="black" stroke-width="0.5"/>
<path d="M407.54 299.41L407.54 299.73"
fill="none" stroke="black" stroke-width="0.5"/>
<path d="M407.54 299.73L407.54 299.89"
fill="none" stroke="black" stroke-width="0.5"/>
<path d="M407.54 299.89L407.54 300.21"
fill="none" stroke="black" stroke-width="0.5"/>
<path d="M407.54 300.21L407.54 300.21"
fill="none" stroke="black" stroke-width="0.5"/>
<path d="M407.54 300.21L407.54 300.37"
fill="none" stroke="black" stroke-width="0.5"/>
<path d="M407.54 300.37L407.54 300.53"
fill="none" stroke="black" stroke-width="0.5"/>
<path d="M407.54 300.53L407.54 300.69"
fill="none" stroke="black" stroke-width="0.5"/>
<path d="M407.54 300.69L407.54 300.85"
fill="none" stroke="black" stroke-width="0.5"/>
<path d="M407.54 300.85L407.54 301.17"
fill="none" stroke="black" stroke-width="0.5"/>
<path d="M407.54 301.17L407.54 301.33"
fill="none" stroke="black" stroke-width="0.5"/>
<path d="M407.54 301.33L407.54 301.65"
fill="none" stroke="black" stroke-width="0.5"/>
<path d="M407.54 301.65L407.7 301.65"
fill="none" stroke="black" stroke-width="0.5"/>
<path d="M407.7 301.65L407.7 301.81"
fill="none" stroke="black" stroke-width="0.5"/>
<path d="M407.7 301.81L407.7 302.28"
fill="none" stroke="black" stroke-width="0.5"/>
<path d="M407.7 302.28L407.86 302.44"
fill="none" stroke="black" stroke-width="0.5"/>
<path d="M407.86 302.44L408.02 302.44"
fill="none" stroke="black" stroke-width="0.5"/>
<path d="M408.02 302.44L408.02 302.6"
fill="none" stroke="black" stroke-width="0.5"/>
<path d="M408.02 302.6L408.02 302.44"
fill="none" stroke="black" stroke-width="0.5"/>
<path d="M408.02 302.44L408.02 302.6"
fill="none" stroke="black" stroke-width="0.5"/>
<path d="M408.02 302.6L408.02 302.6"
fill="none" stroke="black" stroke-width="0.5"/>
<path d="M408.02 302.6L408.02 302.92"
fill="none" stroke="black" stroke-width="0.5"/>
<path d="M408.02 302.92L408.02 302.76"
fill="none" stroke="black" stroke-width="0.5"/>
<path d="M408.02 302.76L408.02 302.92"
fill="none" stroke="black" stroke-width="0.5"/>
<path d="M38.47 275.12L91.64 275.12M109.15 275.12L126.67 275.12M144.19 275.12L231.77 275.12M249.28 275.12L266.8 275.12M284.32 275.12L371.9 275.12M389.41 275.12L406.93 275.12M424.45 275.12L512.03 275.12M529.54 275.12L547.06 275.12M564.58 275.12L617.75 275.12"
fill="none" stroke="black" stroke-width="0.5"/>
<path d="M93.64 273.39L93.64 216.5"
fill="none" stroke="black" stroke-width="0.5"/>
<path d="M66.05 273.39L66.05 216.5"
fill="none" stroke="black" stroke-width="0.5"/>
<path d="M86.74 219.95L72.95 219.95"
fill="none" stroke="black" stroke-width="0.5"/>
<path d="M86.74 221.1L93.64 219.95 93.64 219.95 86.74 218.8 86.74 221.1Z"
fill-rule="evenodd" fill="black"/>
<path d="M72.95 218.8L66.05 219.95 66.05 219.95 72.95 221.1 72.95 218.8Z"
fill-rule="evenodd" fill="black"/>
<path d="M75.82 212.48L76.97 211.33M76.97 211.33L76.97 218.22M75.82 218.22L78.12 218.22M81.57 218.22L80.42 217.07M80.42 217.07L80.42 212.48M80.42 212.48L81.57 211.33M81.57 211.33L82.72 211.33M82.72 211.33L83.87 212.48M83.87 212.48L83.87 217.07M83.87 217.07L82.72 218.22M82.72 218.22L81.57 218.22"
fill="none" stroke="black" stroke-width="0.5"/>
<path d="M93.64 275.12L93.64 275.12"
fill="none" stroke="black" stroke-width="0.5"/>
<path d="M66.05 275.12L66.05 275.12"
fill="none" stroke="black" stroke-width="0.5"/>
<path d="M66.05 219.95L66.05 219.95"
fill="none" stroke="black" stroke-width="0.5"/>
<path d="M93.64 273.39L93.64 216.5"
fill="none" stroke="black" stroke-width="0.5"/>
<path d="M203.98 273.39L203.98 216.5"
fill="none" stroke="black" stroke-width="0.5"/>
<path d="M100.53 219.95L197.08 219.95"
fill="none" stroke="black" stroke-width="0.5"/>
<path d="M100.53 218.8L93.64 219.95 93.64 219.95 100.53 221.1 100.53 218.8Z"
fill-rule="evenodd" fill="black"/>
<path d="M197.08 221.1L203.98 219.95 203.98 219.95 197.08 218.8 197.08 221.1Z"
fill-rule="evenodd" fill="black"/>
<path d="M137.31 211.33L132.72 211.33M132.72 211.33L136.16 206.73M136.16 206.73L136.16 213.63M140.76 213.63L139.61 212.48M139.61 212.48L139.61 207.88M139.61 207.88L140.76 206.73M140.76 206.73L141.91 206.73M141.91 206.73L143.06 207.88M143.06 207.88L143.06 212.48M143.06 212.48L141.91 213.63M141.91 213.63L140.76 213.63M147.66 207.88L147.66 203.28M149.96 205.58L145.36 205.58M153.4 209.03L152.26 207.88M152.26 207.88L152.26 203.28M152.26 203.28L153.4 202.13M153.4 202.13L154.55 202.13M154.55 202.13L155.7 203.28M155.7 203.28L155.7 207.88M155.7 207.88L154.55 209.03M154.55 209.03L153.4 209.03M158 209.03L158 207.88M160.3 203.28L161.45 202.13M161.45 202.13L163.75 202.13M163.75 202.13L164.9 203.28M164.9 203.28L164.9 204.43M164.9 204.43L163.75 205.58M163.75 205.58L161.45 205.58M161.45 205.58L160.3 206.73M160.3 206.73L160.3 209.03M160.3 209.03L164.9 209.03M145.36 214.77L149.96 214.77M153.4 218.22L152.26 217.07M152.26 217.07L152.26 212.48M152.26 212.48L153.4 211.33M153.4 211.33L154.55 211.33M154.55 211.33L155.7 212.48M155.7 212.48L155.7 217.07M155.7 217.07L154.55 218.22M154.55 218.22L153.4 218.22M158 218.22L158 217.07M160.3 212.48L161.45 211.33M161.45 211.33L163.75 211.33M163.75 211.33L164.9 212.48M164.9 212.48L164.9 213.63M164.9 213.63L163.75 214.77M163.75 214.77L161.45 214.77M161.45 214.77L160.3 215.92M160.3 215.92L160.3 218.22M160.3 218.22L164.9 218.22"
fill="none" stroke="black" stroke-width="0.5"/>
<path d="M93.64 275.12L93.64 275.12"
fill="none" stroke="black" stroke-width="0.5"/>
<path d="M203.98 275.12L203.98 275.12"
fill="none" stroke="black" stroke-width="0.5"/>
<path d="M203.98 219.95L203.98 219.95"
fill="none" stroke="black" stroke-width="0.5"/>
<path d="M587.4 273.39L587.4 188.91"
fill="none" stroke="black" stroke-width="0.5"/>
<path d="M559.82 273.39L559.82 188.91"
fill="none" stroke="black" stroke-width="0.5"/>
<path d="M580.51 192.36L566.71 192.36"
fill="none" stroke="black" stroke-width="0.5"/>
<path d="M580.51 193.51L587.4 192.36 587.4 192.36 580.51 191.21 580.51 193.51Z"
fill-rule="evenodd" fill="black"/>
<path d="M566.71 191.21L559.82 192.36 559.82 192.36 566.71 193.51 566.71 191.21Z"
fill-rule="evenodd" fill="black"/>
<path d="M569.59 184.89L570.74 183.74M570.74 183.74L570.74 190.64M569.59 190.64L571.89 190.64M575.34 190.64L574.19 189.49M574.19 189.49L574.19 184.89M574.19 184.89L575.34 183.74M575.34 183.74L576.48 183.74M576.48 183.74L577.63 184.89M577.63 184.89L577.63 189.49M577.63 189.49L576.48 190.64M576.48 190.64L575.34 190.64"
fill="none" stroke="black" stroke-width="0.5"/>
<path d="M587.4 275.12L587.4 275.12"
fill="none" stroke="black" stroke-width="0.5"/>
<path d="M559.82 275.12L559.82 275.12"
fill="none" stroke="black" stroke-width="0.5"/>
<path d="M559.82 192.36L559.82 192.36"
fill="none" stroke="black" stroke-width="0.5"/>
<path d="M559.82 273.39L559.82 188.91"
fill="none" stroke="black" stroke-width="0.5"/>
<path d="M449.48 273.39L449.48 188.91"
fill="none" stroke="black" stroke-width="0.5"/>
<path d="M552.92 192.36L456.38 192.36"
fill="none" stroke="black" stroke-width="0.5"/>
<path d="M552.92 193.51L559.82 192.36 559.82 192.36 552.92 191.21 552.92 193.51Z"
fill-rule="evenodd" fill="black"/>
<path d="M456.38 191.21L449.48 192.36 449.48 192.36 456.38 193.51 456.38 191.21Z"
fill-rule="evenodd" fill="black"/>
<path d="M493.16 183.74L488.56 183.74M488.56 183.74L492.01 179.14M492.01 179.14L492.01 186.04M496.6 186.04L495.45 184.89M495.45 184.89L495.45 180.29M495.45 180.29L496.6 179.14M496.6 179.14L497.75 179.14M497.75 179.14L498.9 180.29M498.9 180.29L498.9 184.89M498.9 184.89L497.75 186.04M497.75 186.04L496.6 186.04M503.5 180.29L503.5 175.7M505.8 178L501.2 178M509.25 181.44L508.1 180.29M508.1 180.29L508.1 175.7M508.1 175.7L509.25 174.55M509.25 174.55L510.4 174.55M510.4 174.55L511.55 175.7M511.55 175.7L511.55 180.29M511.55 180.29L510.4 181.44M510.4 181.44L509.25 181.44M513.84 181.44L513.84 180.29M516.14 175.7L517.29 174.55M517.29 174.55L519.59 174.55M519.59 174.55L520.74 175.7M520.74 175.7L520.74 176.85M520.74 176.85L519.59 178M519.59 178L517.29 178M517.29 178L516.14 179.14M516.14 179.14L516.14 181.44M516.14 181.44L520.74 181.44M501.2 187.19L505.8 187.19M509.25 190.64L508.1 189.49M508.1 189.49L508.1 184.89M508.1 184.89L509.25 183.74M509.25 183.74L510.4 183.74M510.4 183.74L511.55 184.89M511.55 184.89L511.55 189.49M511.55 189.49L510.4 190.64M510.4 190.64L509.25 190.64M513.84 190.64L513.84 189.49M516.14 184.89L517.29 183.74M517.29 183.74L519.59 183.74M519.59 183.74L520.74 184.89M520.74 184.89L520.74 186.04M520.74 186.04L519.59 187.19M519.59 187.19L517.29 187.19M517.29 187.19L516.14 188.34M516.14 188.34L516.14 190.64M516.14 190.64L520.74 190.64"
fill="none" stroke="black" stroke-width="0.5"/>
<path d="M559.82 275.12L559.82 275.12"
fill="none" stroke="black" stroke-width="0.5"/>
<path d="M449.48 275.12L449.48 275.12"
fill="none" stroke="black" stroke-width="0.5"/>
<path d="M449.48 192.36L449.48 192.36"
fill="none" stroke="black" stroke-width="0.5"/>
<path d="M66.05 276.84L66.05 361.32"
fill="none" stroke="black" stroke-width="0.5"/>
<path d="M587.4 276.84L587.4 361.32"
fill="none" stroke="black" stroke-width="0.5"/>
<path d="M72.95 357.87L580.51 357.87"
fill="none" stroke="black" stroke-width="0.5"/>
<path d="M72.95 356.72L66.05 357.87 66.05 357.87 72.95 359.02 72.95 356.72Z"
fill-rule="evenodd" fill="black"/>
<path d="M580.51 359.02L587.4 357.87 587.4 357.87 580.51 356.72 580.51 359.02Z"
fill-rule="evenodd" fill="black"/>
<path d="M317.53 350.4L318.68 349.25M318.68 349.25L320.98 349.25M320.98 349.25L322.13 350.4M322.13 350.4L322.13 351.55M322.13 351.55L320.98 352.7M320.98 352.7L318.68 352.7M318.68 352.7L317.53 353.85M317.53 353.85L317.53 356.15M317.53 356.15L322.13 356.15M325.58 356.15L324.43 355M324.43 355L324.43 353.85M324.43 353.85L325.58 352.7M325.58 352.7L327.88 352.7M327.88 352.7L329.03 351.55M329.03 351.55L329.03 350.4M329.03 350.4L327.88 349.25M327.88 349.25L325.58 349.25M325.58 349.25L324.43 350.4M324.43 350.4L324.43 351.55M324.43 351.55L325.58 352.7M327.88 352.7L329.03 353.85M329.03 353.85L329.03 355M329.03 355L327.88 356.15M327.88 356.15L325.58 356.15M331.33 355L332.48 356.15M332.48 356.15L334.77 356.15M334.77 356.15L335.92 355M335.92 355L335.92 352.7M335.92 352.7L334.77 351.55M334.77 351.55L331.33 351.55M331.33 351.55L331.33 349.25M331.33 349.25L335.92 349.25"
fill="none" stroke="black" stroke-width="0.5"/>
<path d="M66.05 275.12L66.05 275.12"
fill="none" stroke="black" stroke-width="0.5"/>
<path d="M587.4 275.12L587.4 275.12"
fill="none" stroke="black" stroke-width="0.5"/>
<path d="M587.4 357.87L587.4 357.87"
fill="none" stroke="black" stroke-width="0.5"/>
<path d="M441.2 245.81L441.2 216.5"
fill="none" stroke="black" stroke-width="0.5"/>
<path d="M457.76 245.81L457.76 216.5"
fill="none" stroke="black" stroke-width="0.5"/>
<path d="M434.31 219.95L427.41 219.95"
fill="none" stroke="black" stroke-width="0.5"/>
<path d="M464.65 219.95L471.55 219.95"
fill="none" stroke="black" stroke-width="0.5"/>
<path d="M434.31 221.1L441.2 219.95 441.2 219.95 434.31 218.8 434.31 221.1Z"
fill-rule="evenodd" fill="black"/>
<path d="M464.65 218.8L457.76 219.95 457.76 219.95 464.65 221.1 464.65 218.8Z"
fill-rule="evenodd" fill="black"/>
<path d="M433.96 209.32L436.26 209.32M436.26 209.32L437.41 208.17M437.41 208.17L437.41 205.87M437.41 205.87L436.26 204.72M436.26 204.72L433.96 204.72M433.96 204.72L432.81 205.87M432.81 205.87L432.81 208.17M432.81 208.17L433.96 209.32M432.81 209.32L437.41 204.72M439.71 205.87L443.16 205.87M443.16 205.87L444.31 207.02M444.31 207.02L444.31 208.17M444.31 208.17L443.16 209.32M443.16 209.32L440.86 209.32M440.86 209.32L439.71 208.17M439.71 208.17L439.71 204.72M439.71 204.72L442.01 202.42M442.01 202.42L443.16 202.42M448.91 203.57L448.91 198.97M451.2 201.27L446.61 201.27M454.65 204.72L453.5 203.57M453.5 203.57L453.5 198.97M453.5 198.97L454.65 197.82M454.65 197.82L455.8 197.82M455.8 197.82L456.95 198.97M456.95 198.97L456.95 203.57M456.95 203.57L455.8 204.72M455.8 204.72L454.65 204.72M459.25 204.72L459.25 203.57M461.55 201.27L465 201.27M465 201.27L466.15 202.42M466.15 202.42L466.15 203.57M466.15 203.57L465 204.72M465 204.72L462.7 204.72M462.7 204.72L461.55 203.57M461.55 203.57L461.55 200.12M461.55 200.12L463.85 197.82M463.85 197.82L465 197.82M448.91 212.76L448.91 208.17M451.2 210.46L446.61 210.46M454.65 213.91L453.5 212.76M453.5 212.76L453.5 208.17M453.5 208.17L454.65 207.02M454.65 207.02L455.8 207.02M455.8 207.02L456.95 208.17M456.95 208.17L456.95 212.76M456.95 212.76L455.8 213.91M455.8 213.91L454.65 213.91M459.25 213.91L459.25 212.76M466.15 211.61L461.55 211.61M461.55 211.61L465 207.02M465 207.02L465 213.91"
fill="none" stroke="black" stroke-width="0.5"/>
<path d="M441.2 247.53L441.2 247.53"
fill="none" stroke="black" stroke-width="0.5"/>
<path d="M457.76 247.53L457.76 247.53"
fill="none" stroke="black" stroke-width="0.5"/>
<path d="M457.76 219.95L457.76 219.95"
fill="none" stroke="black" stroke-width="0.5"/>
<path d="M551.54 245.81L551.54 216.5"
fill="none" stroke="black" stroke-width="0.5"/>
<path d="M568.09 245.81L568.09 216.5"
fill="none" stroke="black" stroke-width="0.5"/>
<path d="M544.65 219.95L537.75 219.95"
fill="none" stroke="black" stroke-width="0.5"/>
<path d="M574.99 219.95L581.89 219.95"
fill="none" stroke="black" stroke-width="0.5"/>
<path d="M544.65 221.1L551.54 219.95 551.54 219.95 544.65 218.8 544.65 221.1Z"
fill-rule="evenodd" fill="black"/>
<path d="M574.99 218.8L568.09 219.95 568.09 219.95 574.99 221.1 574.99 218.8Z"
fill-rule="evenodd" fill="black"/>
<path d="M524.99 217.88L527.29 217.88M527.29 217.88L528.44 216.73M528.44 216.73L528.44 214.43M528.44 214.43L527.29 213.28M527.29 213.28L524.99 213.28M524.99 213.28L523.84 214.43M523.84 214.43L523.84 216.73M523.84 216.73L524.99 217.88M523.84 217.88L528.44 213.28M530.74 214.43L534.19 214.43M534.19 214.43L535.34 215.58M535.34 215.58L535.34 216.73M535.34 216.73L534.19 217.88M534.19 217.88L531.89 217.88M531.89 217.88L530.74 216.73M530.74 216.73L530.74 213.28M530.74 213.28L533.04 210.98M533.04 210.98L534.19 210.98M539.93 212.13L539.93 207.53M542.23 209.83L537.64 209.83M545.68 213.28L544.53 212.13M544.53 212.13L544.53 207.53M544.53 207.53L545.68 206.38M545.68 206.38L546.83 206.38M546.83 206.38L547.98 207.53M547.98 207.53L547.98 212.13M547.98 212.13L546.83 213.28M546.83 213.28L545.68 213.28M550.28 213.28L550.28 212.13M552.58 209.83L556.03 209.83M556.03 209.83L557.18 210.98M557.18 210.98L557.18 212.13M557.18 212.13L556.03 213.28M556.03 213.28L553.73 213.28M553.73 213.28L552.58 212.13M552.58 212.13L552.58 208.68M552.58 208.68L554.88 206.38M554.88 206.38L556.03 206.38M539.93 221.33L539.93 216.73M542.23 219.03L537.64 219.03M545.68 222.48L544.53 221.33M544.53 221.33L544.53 216.73M544.53 216.73L545.68 215.58M545.68 215.58L546.83 215.58M546.83 215.58L547.98 216.73M547.98 216.73L547.98 221.33M547.98 221.33L546.83 222.48M546.83 222.48L545.68 222.48M550.28 222.48L550.28 221.33M557.18 220.18L552.58 220.18M552.58 220.18L556.03 215.58M556.03 215.58L556.03 222.48"
fill="none" stroke="black" stroke-width="0.5"/>
<path d="M551.54 247.53L551.54 247.53"
fill="none" stroke="black" stroke-width="0.5"/>
<path d="M568.09 247.53L568.09 247.53"
fill="none" stroke="black" stroke-width="0.5"/>
<path d="M568.09 219.95L568.09 219.95"
fill="none" stroke="black" stroke-width="0.5"/>
<path d="M551.54 304.43L551.54 333.73"
fill="none" stroke="black" stroke-width="0.5"/>
<path d="M568.09 304.43L568.09 333.73"
fill="none" stroke="black" stroke-width="0.5"/>
<path d="M544.65 330.29L537.75 330.29"
fill="none" stroke="black" stroke-width="0.5"/>
<path d="M574.99 330.29L581.89 330.29"
fill="none" stroke="black" stroke-width="0.5"/>
<path d="M544.65 331.44L551.54 330.29 551.54 330.29 544.65 329.14 544.65 331.44Z"
fill-rule="evenodd" fill="black"/>
<path d="M574.99 329.14L568.09 330.29 568.09 330.29 574.99 331.44 574.99 329.14Z"
fill-rule="evenodd" fill="black"/>
<path d="M524.99 328.22L527.29 328.22M527.29 328.22L528.44 327.07M528.44 327.07L528.44 324.77M528.44 324.77L527.29 323.62M527.29 323.62L524.99 323.62M524.99 323.62L523.84 324.77M523.84 324.77L523.84 327.07M523.84 327.07L524.99 328.22M523.84 328.22L528.44 323.62M530.74 324.77L534.19 324.77M534.19 324.77L535.34 325.92M535.34 325.92L535.34 327.07M535.34 327.07L534.19 328.22M534.19 328.22L531.89 328.22M531.89 328.22L530.74 327.07M530.74 327.07L530.74 323.62M530.74 323.62L533.04 321.32M533.04 321.32L534.19 321.32M539.93 322.47L539.93 317.87M542.23 320.17L537.64 320.17M545.68 323.62L544.53 322.47M544.53 322.47L544.53 317.87M544.53 317.87L545.68 316.72M545.68 316.72L546.83 316.72M546.83 316.72L547.98 317.87M547.98 317.87L547.98 322.47M547.98 322.47L546.83 323.62M546.83 323.62L545.68 323.62M550.28 323.62L550.28 322.47M552.58 320.17L556.03 320.17M556.03 320.17L557.18 321.32M557.18 321.32L557.18 322.47M557.18 322.47L556.03 323.62M556.03 323.62L553.73 323.62M553.73 323.62L552.58 322.47M552.58 322.47L552.58 319.02M552.58 319.02L554.88 316.72M554.88 316.72L556.03 316.72M539.93 331.66L539.93 327.07M542.23 329.37L537.64 329.37M545.68 332.81L544.53 331.66M544.53 331.66L544.53 327.07M544.53 327.07L545.68 325.92M545.68 325.92L546.83 325.92M546.83 325.92L547.98 327.07M547.98 327.07L547.98 331.66M547.98 331.66L546.83 332.81M546.83 332.81L545.68 332.81M550.28 332.81L550.28 331.66M557.18 330.52L552.58 330.52M552.58 330.52L556.03 325.92M556.03 325.92L556.03 332.81"
fill="none" stroke="black" stroke-width="0.5"/>
<path d="M551.54 302.7L551.54 302.7"
fill="none" stroke="black" stroke-width="0.5"/>
<path d="M568.09 302.7L568.09 302.7"
fill="none" stroke="black" stroke-width="0.5"/>
<path d="M568.09 330.29L568.09 330.29"
fill="none" stroke="black" stroke-width="0.5"/>
<path d="M441.2 304.43L441.2 333.73"
fill="none" stroke="black" stroke-width="0.5"/>
<path d="M457.76 304.43L457.76 333.73"
fill="none" stroke="black" stroke-width="0.5"/>
<path d="M434.31 330.29L427.41 330.29"
fill="none" stroke="black" stroke-width="0.5"/>
<path d="M464.65 330.29L471.55 330.29"
fill="none" stroke="black" stroke-width="0.5"/>
<path d="M434.31 331.44L441.2 330.29 441.2 330.29 434.31 329.14 434.31 331.44Z"
fill-rule="evenodd" fill="black"/>
<path d="M464.65 329.14L457.76 330.29 457.76 330.29 464.65 331.44 464.65 329.14Z"
fill-rule="evenodd" fill="black"/>
<path d="M453.27 328.22L455.57 328.22M455.57 328.22L456.72 327.07M456.72 327.07L456.72 324.77M456.72 324.77L455.57 323.62M455.57 323.62L453.27 323.62M453.27 323.62L452.12 324.77M452.12 324.77L452.12 327.07M452.12 327.07L453.27 328.22M452.12 328.22L456.72 323.62M459.02 324.77L462.47 324.77M462.47 324.77L463.62 325.92M463.62 325.92L463.62 327.07M463.62 327.07L462.47 328.22M462.47 328.22L460.17 328.22M460.17 328.22L459.02 327.07M459.02 327.07L459.02 323.62M459.02 323.62L461.32 321.32M461.32 321.32L462.47 321.32M468.21 322.47L468.21 317.87M470.51 320.17L465.92 320.17M473.96 323.62L472.81 322.47M472.81 322.47L472.81 317.87M472.81 317.87L473.96 316.72M473.96 316.72L475.11 316.72M475.11 316.72L476.26 317.87M476.26 317.87L476.26 322.47M476.26 322.47L475.11 323.62M475.11 323.62L473.96 323.62M478.56 323.62L478.56 322.47M480.86 320.17L484.31 320.17M484.31 320.17L485.45 321.32M485.45 321.32L485.45 322.47M485.45 322.47L484.31 323.62M484.31 323.62L482.01 323.62M482.01 323.62L480.86 322.47M480.86 322.47L480.86 319.02M480.86 319.02L483.16 316.72M483.16 316.72L484.31 316.72M468.21 331.66L468.21 327.07M470.51 329.37L465.92 329.37M473.96 332.81L472.81 331.66M472.81 331.66L472.81 327.07M472.81 327.07L473.96 325.92M473.96 325.92L475.11 325.92M475.11 325.92L476.26 327.07M476.26 327.07L476.26 331.66M476.26 331.66L475.11 332.81M475.11 332.81L473.96 332.81M478.56 332.81L478.56 331.66M485.45 330.52L480.86 330.52M480.86 330.52L484.31 325.92M484.31 325.92L484.31 332.81"
fill="none" stroke="black" stroke-width="0.5"/>
<path d="M441.2 302.7L441.2 302.7"
fill="none" stroke="black" stroke-width="0.5"/>
<path d="M457.76 302.7L457.76 302.7"
fill="none" stroke="black" stroke-width="0.5"/>
<path d="M457.76 330.29L457.76 330.29"
fill="none" stroke="black" stroke-width="0.5"/>
<path d="M85.36 276.84L85.36 333.73"
fill="none" stroke="black" stroke-width="0.5"/>
<path d="M101.91 276.84L101.91 333.73"
fill="none" stroke="black" stroke-width="0.5"/>
<path d="M78.47 330.29L71.57 330.29"
fill="none" stroke="black" stroke-width="0.5"/>
<path d="M108.81 330.29L115.71 330.29"
fill="none" stroke="black" stroke-width="0.5"/>
<path d="M78.47 331.44L85.36 330.29 85.36 330.29 78.47 329.14 78.47 331.44Z"
fill-rule="evenodd" fill="black"/>
<path d="M108.81 329.14L101.91 330.29 101.91 330.29 108.81 331.44 108.81 329.14Z"
fill-rule="evenodd" fill="black"/>
<path d="M78.12 363.9L80.42 363.9M80.42 363.9L81.57 362.76M81.57 362.76L81.57 360.46M81.57 360.46L80.42 359.31M80.42 359.31L78.12 359.31M78.12 359.31L76.97 360.46M76.97 360.46L76.97 362.76M76.97 362.76L78.12 363.9M76.97 363.9L81.57 359.31M83.87 360.46L87.32 360.46M87.32 360.46L88.47 361.61M88.47 361.61L88.47 362.76M88.47 362.76L87.32 363.9M87.32 363.9L85.02 363.9M85.02 363.9L83.87 362.76M83.87 362.76L83.87 359.31M83.87 359.31L86.17 357.01M86.17 357.01L87.32 357.01M93.06 358.16L93.06 353.56M95.36 355.86L90.76 355.86M98.81 359.31L97.66 358.16M97.66 358.16L97.66 353.56M97.66 353.56L98.81 352.41M98.81 352.41L99.96 352.41M99.96 352.41L101.11 353.56M101.11 353.56L101.11 358.16M101.11 358.16L99.96 359.31M99.96 359.31L98.81 359.31M103.41 359.31L103.41 358.16M105.71 355.86L109.15 355.86M109.15 355.86L110.3 357.01M110.3 357.01L110.3 358.16M110.3 358.16L109.15 359.31M109.15 359.31L106.86 359.31M106.86 359.31L105.71 358.16M105.71 358.16L105.71 354.71M105.71 354.71L108 352.41M108 352.41L109.15 352.41M93.06 367.35L93.06 362.76M95.36 365.05L90.76 365.05M98.81 368.5L97.66 367.35M97.66 367.35L97.66 362.76M97.66 362.76L98.81 361.61M98.81 361.61L99.96 361.61M99.96 361.61L101.11 362.76M101.11 362.76L101.11 367.35M101.11 367.35L99.96 368.5M99.96 368.5L98.81 368.5M103.41 368.5L103.41 367.35M110.3 366.2L105.71 366.2M105.71 366.2L109.15 361.61M109.15 361.61L109.15 368.5"
fill="none" stroke="black" stroke-width="0.5"/>
<path d="M85.36 275.12L85.36 275.12"
fill="none" stroke="black" stroke-width="0.5"/>
<path d="M101.91 275.12L101.91 275.12"
fill="none" stroke="black" stroke-width="0.5"/>
<path d="M101.91 330.29L101.91 330.29"
fill="none" stroke="black" stroke-width="0.5"/>
<path d="M195.7 276.84L195.7 333.73"
fill="none" stroke="black" stroke-width="0.5"/>
<path d="M212.25 276.84L212.25 333.73"
fill="none" stroke="black" stroke-width="0.5"/>
<path d="M188.8 330.29L181.91 330.29"
fill="none" stroke="black" stroke-width="0.5"/>
<path d="M219.15 330.29L226.04 330.29"
fill="none" stroke="black" stroke-width="0.5"/>
<path d="M188.8 331.44L195.7 330.29 195.7 330.29 188.8 329.14 188.8 331.44Z"
fill-rule="evenodd" fill="black"/>
<path d="M219.15 329.14L212.25 330.29 212.25 330.29 219.15 331.44 219.15 329.14Z"
fill-rule="evenodd" fill="black"/>
<path d="M188.46 363.9L190.76 363.9M190.76 363.9L191.91 362.76M191.91 362.76L191.91 360.46M191.91 360.46L190.76 359.31M190.76 359.31L188.46 359.31M188.46 359.31L187.31 360.46M187.31 360.46L187.31 362.76M187.31 362.76L188.46 363.9M187.31 363.9L191.91 359.31M194.21 360.46L197.66 360.46M197.66 360.46L198.8 361.61M198.8 361.61L198.8 362.76M198.8 362.76L197.66 363.9M197.66 363.9L195.36 363.9M195.36 363.9L194.21 362.76M194.21 362.76L194.21 359.31M194.21 359.31L196.51 357.01M196.51 357.01L197.66 357.01M203.4 358.16L203.4 353.56M205.7 355.86L201.1 355.86M209.15 359.31L208 358.16M208 358.16L208 353.56M208 353.56L209.15 352.41M209.15 352.41L210.3 352.41M210.3 352.41L211.45 353.56M211.45 353.56L211.45 358.16M211.45 358.16L210.3 359.31M210.3 359.31L209.15 359.31M213.75 359.31L213.75 358.16M216.04 355.86L219.49 355.86M219.49 355.86L220.64 357.01M220.64 357.01L220.64 358.16M220.64 358.16L219.49 359.31M219.49 359.31L217.19 359.31M217.19 359.31L216.04 358.16M216.04 358.16L216.04 354.71M216.04 354.71L218.34 352.41M218.34 352.41L219.49 352.41M203.4 367.35L203.4 362.76M205.7 365.05L201.1 365.05M209.15 368.5L208 367.35M208 367.35L208 362.76M208 362.76L209.15 361.61M209.15 361.61L210.3 361.61M210.3 361.61L211.45 362.76M211.45 362.76L211.45 367.35M211.45 367.35L210.3 368.5M210.3 368.5L209.15 368.5M213.75 368.5L213.75 367.35M220.64 366.2L216.04 366.2M216.04 366.2L219.49 361.61M219.49 361.61L219.49 368.5"
fill="none" stroke="black" stroke-width="0.5"/>
<path d="M195.7 275.12L195.7 275.12"
fill="none" stroke="black" stroke-width="0.5"/>
<path d="M212.25 275.12L212.25 275.12"
fill="none" stroke="black" stroke-width="0.5"/>
<path d="M212.25 330.29L212.25 330.29"
fill="none" stroke="black" stroke-width="0.5"/>
<path d="M64.33 247.53L7.44 247.53"
fill="none" stroke="black" stroke-width="0.5"/>
<path d="M64.33 302.7L7.44 302.7"
fill="none" stroke="black" stroke-width="0.5"/>
<path d="M10.88 254.43L10.88 295.8"
fill="none" stroke="black" stroke-width="0.5"/>
<path d="M12.03 254.43L10.88 247.53 10.88 247.53 9.73 254.43 12.03 254.43Z"
fill-rule="evenodd" fill="black"/>
<path d="M9.73 295.8L10.88 302.7 10.88 302.7 12.03 295.8 9.73 295.8Z"
fill-rule="evenodd" fill="black"/>
<path d="M3.41 280.29L2.26 279.14M2.26 279.14L2.26 276.84M2.26 276.84L3.41 275.69M3.41 275.69L4.56 275.69M4.56 275.69L5.71 276.84M5.71 276.84L5.71 279.14M5.71 279.14L6.86 280.29M6.86 280.29L9.16 280.29M9.16 280.29L9.16 275.69M9.16 272.24L8.01 273.39M8.01 273.39L3.41 273.39M3.41 273.39L2.26 272.24M2.26 272.24L2.26 271.09M2.26 271.09L3.41 269.94M3.41 269.94L8.01 269.94M8.01 269.94L9.16 271.09M9.16 271.09L9.16 272.24"
fill="none" stroke="black" stroke-width="0.5"/>
<path d="M66.05 247.53L66.05 247.53"
fill="none" stroke="black" stroke-width="0.5"/>
<path d="M66.05 302.7L66.05 302.7"
fill="none" stroke="black" stroke-width="0.5"/>
<path d="M10.88 302.7L10.88 302.7"
fill="none" stroke="black" stroke-width="0.5"/>
<path d="M719.81 302.7L739.12 302.7"
fill="none" stroke="black" stroke-width="0.5"/>
<path d="M683.95 302.7L703.26 302.7"
fill="none" stroke="black" stroke-width="0.5"/>
<path d="M703.26 302.7L719.81 302.7"
fill="none" stroke="black" stroke-width="0.5"/>
<path d="M739.12 302.7L739.12 247.53"
fill="none" stroke="black" stroke-width="0.5"/>
<path d="M703.26 247.53L683.95 247.53"
fill="none" stroke="black" stroke-width="0.5"/>
<path d="M739.12 247.53L719.81 247.53"
fill="none" stroke="black" stroke-width="0.5"/>
<path d="M719.81 247.53L703.26 247.53"
fill="none" stroke="black" stroke-width="0.5"/>
<path d="M683.95 247.53L683.95 302.7"
fill="none" stroke="black" stroke-width="0.5"/>
<path d="M730.84 294.43L708.78 294.43"
fill="none" stroke="black" stroke-width="0.5"/>
<path d="M708.78 294.43L703.26 294.43"
fill="none" stroke="black" stroke-width="0.5"/>
<path d="M703.26 294.43L692.23 294.43"
fill="none" stroke="black" stroke-width="0.5"/>
<path d="M692.23 294.43L692.23 255.81"
fill="none" stroke="black" stroke-width="0.5"/>
<path d="M719.81 255.81L730.84 255.81"
fill="none" stroke="black" stroke-width="0.5"/>
<path d="M692.23 255.81L703.26 255.81"
fill="none" stroke="black" stroke-width="0.5"/>
<path d="M703.26 255.81L719.81 255.81"
fill="none" stroke="black" stroke-width="0.5"/>
<path d="M730.84 255.81L730.84 294.43"
fill="none" stroke="black" stroke-width="0.5"/>
<path d="M711.53 233.74L711.53 313.73"
fill="none" stroke="black" stroke-width="0.5"/>
<path d="M719.81 255.81L719.81 247.53"
fill="none" stroke="black" stroke-width="0.5"/>
<path d="M719.81 247.53L703.26 247.53"
fill="none" stroke="black" stroke-width="0.5"/>
<path d="M703.26 247.53L703.26 255.81"
fill="none" stroke="black" stroke-width="0.5"/>
<path d="M719.81 294.43L719.81 302.7"
fill="none" stroke="black" stroke-width="0.5"/>
<path d="M719.81 302.7L703.26 302.7"
fill="none" stroke="black" stroke-width="0.5"/>
<path d="M703.26 302.7L703.26 294.43"
fill="none" stroke="black" stroke-width="0.5"/>
<path d="M752.91 275.12L670.16 275.12"
fill="none" stroke="black" stroke-width="0.5"/>
<path d="M719.81 249.66L721.94 247.53M719.85 255.81L728.13 247.53M726.05 255.81L734.32 247.53M730.84 257.2L739.12 248.93M730.84 263.4L739.12 255.12M730.84 269.59L739.12 261.31M730.84 275.78L739.12 267.51M730.84 281.98L739.12 273.7M719.81 299.2L724.59 294.43M730.84 288.17L739.12 279.89M722.5 302.7L730.78 294.43M730.84 294.36L739.12 286.09M728.7 302.7L739.12 292.28M734.89 302.7L739.12 298.47"
fill="none" stroke="black" stroke-width="0.5"/>
<path d="M683.95 248.36L684.78 247.53M683.95 254.55L690.97 247.53M683.95 260.75L697.17 247.53M683.95 266.94L692.23 258.66M683.95 273.13L692.23 264.86M695.08 255.81L703.26 247.63M701.28 255.81L703.26 253.82M683.95 279.33L692.23 271.05M683.95 285.52L692.23 277.24M683.95 291.71L692.23 283.44M683.95 297.9L692.23 289.63M685.35 302.7L693.62 294.43M691.54 302.7L699.81 294.43M697.73 302.7L703.26 297.17"
fill="none" stroke="black" stroke-width="0.5"/>
<path d="M683.95 245.81L683.95 216.5"
fill="none" stroke="black" stroke-width="0.5"/>
<path d="M739.12 245.81L739.12 216.5"
fill="none" stroke="black" stroke-width="0.5"/>
<path d="M690.85 219.95L732.22 219.95"
fill="none" stroke="black" stroke-width="0.5"/>
<path d="M690.85 218.8L683.95 219.95 683.95 219.95 690.85 221.1 690.85 218.8Z"
fill-rule="evenodd" fill="black"/>
<path d="M732.22 221.1L739.12 219.95 739.12 219.95 732.22 218.8 732.22 221.1Z"
fill-rule="evenodd" fill="black"/>
<path d="M706.36 212.48L707.51 211.33M707.51 211.33L709.81 211.33M709.81 211.33L710.96 212.48M710.96 212.48L710.96 213.63M710.96 213.63L709.81 214.77M709.81 214.77L707.51 214.77M707.51 214.77L706.36 215.92M706.36 215.92L706.36 218.22M706.36 218.22L710.96 218.22M714.41 218.22L713.26 217.07M713.26 217.07L713.26 212.48M713.26 212.48L714.41 211.33M714.41 211.33L715.56 211.33M715.56 211.33L716.71 212.48M716.71 212.48L716.71 217.07M716.71 217.07L715.56 218.22M715.56 218.22L714.41 218.22"
fill="none" stroke="black" stroke-width="0.5"/>
<path d="M683.95 247.53L683.95 247.53"
fill="none" stroke="black" stroke-width="0.5"/>
<path d="M739.12 247.53L739.12 247.53"
fill="none" stroke="black" stroke-width="0.5"/>
<path d="M739.12 219.95L739.12 219.95"
fill="none" stroke="black" stroke-width="0.5"/>
<path d="M740.84 247.53L797.74 247.53"
fill="none" stroke="black" stroke-width="0.5"/>
<path d="M740.84 302.7L797.74 302.7"
fill="none" stroke="black" stroke-width="0.5"/>
<path d="M794.29 254.43L794.29 295.8"
fill="none" stroke="black" stroke-width="0.5"/>
<path d="M795.44 254.43L794.29 247.53 794.29 247.53 793.14 254.43 795.44 254.43Z"
fill-rule="evenodd" fill="black"/>
<path d="M793.14 295.8L794.29 302.7 794.29 302.7 795.44 295.8 793.14 295.8Z"
fill-rule="evenodd" fill="black"/>
<path d="M786.82 280.29L785.67 279.14M785.67 279.14L785.67 276.84M785.67 276.84L786.82 275.69M786.82 275.69L787.97 275.69M787.97 275.69L789.12 276.84M789.12 276.84L789.12 279.14M789.12 279.14L790.27 280.29M790.27 280.29L792.56 280.29M792.56 280.29L792.56 275.69M792.56 272.24L791.41 273.39M791.41 273.39L786.82 273.39M786.82 273.39L785.67 272.24M785.67 272.24L785.67 271.09M785.67 271.09L786.82 269.94M786.82 269.94L791.41 269.94M791.41 269.94L792.56 271.09M792.56 271.09L792.56 272.24"
fill="none" stroke="black" stroke-width="0.5"/>
<path d="M739.12 247.53L739.12 247.53"
fill="none" stroke="black" stroke-width="0.5"/>
<path d="M739.12 302.7L739.12 302.7"
fill="none" stroke="black" stroke-width="0.5"/>
<path d="M794.29 302.7L794.29 302.7"
fill="none" stroke="black" stroke-width="0.5"/>
<path d="M374.8 413.04L369.48 413.04M369.48 413.04L369.48 425.45M369.48 425.45L374.8 425.45M374.8 425.45L376.58 424.86M376.58 424.86L377.17 424.27M377.17 424.27L377.76 423.09M377.76 423.09L377.76 421.32M377.76 421.32L377.17 420.13M377.17 420.13L376.58 419.54M376.58 419.54L374.8 418.95M374.8 418.95L369.48 418.95M374.8 413.04L376.58 413.63M376.58 413.63L377.17 414.22M377.17 414.22L377.76 415.4M377.76 415.4L377.76 416.59M377.76 416.59L377.17 417.77M377.17 417.77L376.58 418.36M376.58 418.36L374.8 418.95M382.49 413.04L382.49 425.45M382.49 425.45L390.76 413.04M390.76 413.04L390.76 425.45M395.49 413.04L395.49 425.45M395.49 418.95L403.77 418.95M403.77 425.45L403.77 413.04M406.72 415.4L407.31 416M407.31 416L406.72 416.59M406.72 416.59L406.13 416M406.13 416L406.13 415.4M406.13 415.4L406.72 414.22M406.72 414.22L407.31 413.63M407.31 413.63L408.5 413.04M408.5 413.04L410.27 413.04M410.27 413.04L412.04 413.63M412.04 413.63L412.63 414.81M412.63 414.81L412.63 416M412.63 416L412.04 417.18M412.04 417.18L411.45 417.77M411.45 417.77L410.27 418.36M410.27 418.36L409.09 419.54M409.09 419.54L409.09 421.32M409.09 424.27L408.5 424.86M408.5 424.86L409.09 425.45M409.09 425.45L409.68 424.86M409.68 424.86L409.09 424.27M427.41 416L426.82 414.81M426.82 414.81L426.23 414.22M426.23 414.22L425.64 413.63M425.64 413.63L424.46 413.04M424.46 413.04L422.09 413.04M422.09 413.04L420.91 413.63M420.91 413.63L420.32 414.22M420.32 414.22L419.73 414.81M419.73 414.81L419.14 416M419.14 416L418.55 417.77M418.55 417.77L418.55 420.72M418.55 420.72L419.14 422.5M419.14 422.5L419.73 423.68M419.73 423.68L420.91 424.86M420.91 424.86L422.09 425.45M422.09 425.45L424.46 425.45M424.46 425.45L425.64 424.86M425.64 424.86L426.82 423.68M426.82 423.68L427.41 422.5M444.55 413.04L444.55 425.45M440.42 413.04L448.69 413.04M451.65 425.45L451.65 413.04M451.65 413.04L456.97 413.04M456.97 413.04L458.74 413.63M458.74 413.63L459.33 414.22M459.33 414.22L459.92 415.4M459.92 415.4L459.92 417.18M459.92 417.18L459.33 418.36M459.33 418.36L458.74 418.95M458.74 418.95L456.97 419.54M456.97 419.54L451.65 419.54M463.47 421.32L469.38 421.32M461.7 425.45L466.42 413.04M466.42 413.04L471.15 425.45M479.43 413.04L474.11 413.04M474.11 413.04L474.11 425.45M474.11 425.45L479.43 425.45M479.43 425.45L481.2 424.86M481.2 424.86L481.79 424.27M481.79 424.27L482.38 423.09M482.38 423.09L482.38 421.32M482.38 421.32L481.79 420.13M481.79 420.13L481.2 419.54M481.2 419.54L479.43 418.95M479.43 418.95L474.11 418.95M479.43 413.04L481.2 413.63M481.2 413.63L481.79 414.22M481.79 414.22L482.38 415.4M482.38 415.4L482.38 416.59M482.38 416.59L481.79 417.77M481.79 417.77L481.2 418.36M481.2 418.36L479.43 418.95M494.8 413.04L487.11 413.04M487.11 413.04L487.11 425.45M487.11 425.45L494.8 425.45M494.21 418.95L487.11 418.95M498.34 425.45L498.34 413.04M498.34 413.04L503.66 413.04M503.66 413.04L505.44 413.63M505.44 413.63L506.03 414.22M506.03 414.22L506.62 415.4M506.62 415.4L506.62 417.18M506.62 417.18L506.03 418.36M506.03 418.36L505.44 418.95M505.44 418.95L503.66 419.54M503.66 419.54L498.34 419.54M518.44 416L517.85 414.81M517.85 414.81L517.26 414.22M517.26 414.22L516.67 413.63M516.67 413.63L515.49 413.04M515.49 413.04L513.12 413.04M513.12 413.04L511.94 413.63M511.94 413.63L511.35 414.22M511.35 414.22L510.76 414.81M510.76 414.81L510.17 416M510.17 416L509.58 417.77M509.58 417.77L509.58 420.72M509.58 420.72L510.17 422.5M510.17 422.5L510.76 423.68M510.76 423.68L511.94 424.86M511.94 424.86L513.12 425.45M513.12 425.45L515.49 425.45M515.49 425.45L516.67 424.86M516.67 424.86L517.85 423.68M517.85 423.68L518.44 422.5M521.99 413.04L521.99 425.45M521.99 425.45L530.26 413.04M530.26 413.04L530.26 425.45"
fill="none" stroke="black" stroke-width="0.5"/>
<path d="M341.77 308.35L341.77 308.12"
fill="none" stroke="black" stroke-width="0.5"/>
<path d="M341.77 308.12L341.54 307.89"
fill="none" stroke="black" stroke-width="0.5"/>
<path d="M341.54 307.89L341.54 307.66"
fill="none" stroke="black" stroke-width="0.5"/>
<path d="M341.54 307.66L341.54 307.66"
fill="none" stroke="black" stroke-width="0.5"/>
<path d="M341.54 307.66L341.54 307.43"
fill="none" stroke="black" stroke-width="0.5"/>
<path d="M341.54 307.43L341.54 307.2"
fill="none" stroke="black" stroke-width="0.5"/>
<path d="M341.54 307.2L341.54 306.97"
fill="none" stroke="black" stroke-width="0.5"/>
<path d="M341.54 306.97L341.54 306.97"
fill="none" stroke="black" stroke-width="0.5"/>
<path d="M341.54 306.97L341.54 306.74"
fill="none" stroke="black" stroke-width="0.5"/>
<path d="M341.54 306.74L341.54 306.51"
fill="none" stroke="black" stroke-width="0.5"/>
<path d="M341.54 306.51L341.54 306.28"
fill="none" stroke="black" stroke-width="0.5"/>
<path d="M341.54 306.28L341.54 306.28"
fill="none" stroke="black" stroke-width="0.5"/>
<path d="M341.54 306.28L341.54 306.05"
fill="none" stroke="black" stroke-width="0.5"/>
<path d="M341.54 306.05L341.54 305.82"
fill="none" stroke="black" stroke-width="0.5"/>
<path d="M341.54 305.82L341.31 305.59"
fill="none" stroke="black" stroke-width="0.5"/>
<path d="M341.31 305.59L341.31 305.59"
fill="none" stroke="black" stroke-width="0.5"/>
<path d="M341.31 305.59L341.31 305.36"
fill="none" stroke="black" stroke-width="0.5"/>
<path d="M341.31 305.36L341.31 305.13"
fill="none" stroke="black" stroke-width="0.5"/>
<path d="M341.31 305.13L341.54 304.9"
fill="none" stroke="black" stroke-width="0.5"/>
<path d="M341.54 304.9L341.54 304.9"
fill="none" stroke="black" stroke-width="0.5"/>
<path d="M341.54 304.9L341.54 304.67"
fill="none" stroke="black" stroke-width="0.5"/>
<path d="M341.54 304.67L341.54 304.44"
fill="none" stroke="black" stroke-width="0.5"/>
<path d="M341.54 304.44L341.77 304.44"
fill="none" stroke="black" stroke-width="0.5"/>
<path d="M341.77 304.44L341.77 304.21"
fill="none" stroke="black" stroke-width="0.5"/>
<path d="M341.77 304.21L341.77 304.21"
fill="none" stroke="black" stroke-width="0.5"/>
<path d="M341.77 304.21L341.77 303.98"
fill="none" stroke="black" stroke-width="0.5"/>
<path d="M341.77 303.98L341.77 303.75"
fill="none" stroke="black" stroke-width="0.5"/>
<path d="M341.77 303.75L341.77 303.52"
fill="none" stroke="black" stroke-width="0.5"/>
<path d="M341.77 303.52L341.77 303.52"
fill="none" stroke="black" stroke-width="0.5"/>
<path d="M341.77 303.52L342 303.29"
fill="none" stroke="black" stroke-width="0.5"/>
<path d="M342 303.29L342 303.06"
fill="none" stroke="black" stroke-width="0.5"/>
<path d="M342 303.06L342 302.83"
fill="none" stroke="black" stroke-width="0.5"/>
<path d="M342 302.83L342 302.83"
fill="none" stroke="black" stroke-width="0.5"/>
<path d="M342 302.83L342 302.6"
fill="none" stroke="black" stroke-width="0.5"/>
<path d="M342 302.6L342.23 302.37"
fill="none" stroke="black" stroke-width="0.5"/>
<path d="M342.23 302.37L342.23 302.14"
fill="none" stroke="black" stroke-width="0.5"/>
<path d="M342.23 302.14L342.23 302.14"
fill="none" stroke="black" stroke-width="0.5"/>
<path d="M342.23 302.14L342.23 301.91"
fill="none" stroke="black" stroke-width="0.5"/>
<path d="M342.23 301.91L342.23 301.68"
fill="none" stroke="black" stroke-width="0.5"/>
<path d="M342.23 301.68L342.23 301.45"
fill="none" stroke="black" stroke-width="0.5"/>
<path d="M342.23 301.45L342.23 301.45"
fill="none" stroke="black" stroke-width="0.5"/>
<path d="M342.23 301.45L342.23 301.21"
fill="none" stroke="black" stroke-width="0.5"/>
<path d="M342.23 301.21L342.23 300.98"
fill="none" stroke="black" stroke-width="0.5"/>
<path d="M342.23 300.98L342.23 300.75"
fill="none" stroke="black" stroke-width="0.5"/>
<path d="M342.23 300.75L342.23 300.75"
fill="none" stroke="black" stroke-width="0.5"/>
<path d="M342.23 300.75L342.23 300.29"
fill="none" stroke="black" stroke-width="0.5"/>
<path d="M342.23 300.29L342.23 300.06"
fill="none" stroke="black" stroke-width="0.5"/>
<path d="M342.23 300.06L342.23 299.83"
fill="none" stroke="black" stroke-width="0.5"/>
<path d="M342.23 299.83L342.23 299.6"
fill="none" stroke="black" stroke-width="0.5"/>
<path d="M342.23 299.6L342.23 299.37"
fill="none" stroke="black" stroke-width="0.5"/>
<path d="M342.23 299.37L342.23 299.14"
fill="none" stroke="black" stroke-width="0.5"/>
<path d="M342.23 299.14L342.23 298.91"
fill="none" stroke="black" stroke-width="0.5"/>
<path d="M342.23 298.91L342.23 298.68"
fill="none" stroke="black" stroke-width="0.5"/>
<path d="M342.23 298.68L342.23 298.68"
fill="none" stroke="black" stroke-width="0.5"/>
<path d="M342.23 298.68L342.23 298.22"
fill="none" stroke="black" stroke-width="0.5"/>
<path d="M342.23 298.22L342.23 297.99"
fill="none" stroke="black" stroke-width="0.5"/>
<path d="M342.23 297.99L342.23 297.76"
fill="none" stroke="black" stroke-width="0.5"/>
<path d="M342.23 297.76L342.23 297.3"
fill="none" stroke="black" stroke-width="0.5"/>
<path d="M342.23 297.3L342.23 297.3"
fill="none" stroke="black" stroke-width="0.5"/>
<path d="M342.23 297.3L342.23 297.07"
fill="none" stroke="black" stroke-width="0.5"/>
<path d="M342.23 297.07L342.23 296.84"
fill="none" stroke="black" stroke-width="0.5"/>
<path d="M342.23 296.84L342.46 295.92"
fill="none" stroke="black" stroke-width="0.5"/>
<path d="M342.46 295.92L342.46 295.69"
fill="none" stroke="black" stroke-width="0.5"/>
<path d="M342.46 295.69L342.46 295.46"
fill="none" stroke="black" stroke-width="0.5"/>
<path d="M342.46 295.46L342.46 295.23"
fill="none" stroke="black" stroke-width="0.5"/>
<path d="M342.46 295.23L342.46 295"
fill="none" stroke="black" stroke-width="0.5"/>
<path d="M342.46 295L342.46 294.54"
fill="none" stroke="black" stroke-width="0.5"/>
<path d="M342.46 294.54L342.46 294.54"
fill="none" stroke="black" stroke-width="0.5"/>
<path d="M342.46 294.54L342.46 294.08"
fill="none" stroke="black" stroke-width="0.5"/>
<path d="M342.46 294.08L342.46 293.85"
fill="none" stroke="black" stroke-width="0.5"/>
<path d="M342.46 293.85L342.46 293.85"
fill="none" stroke="black" stroke-width="0.5"/>
<path d="M342.46 293.85L342.46 293.16"
fill="none" stroke="black" stroke-width="0.5"/>
<path d="M342.46 293.16L342.46 293.16"
fill="none" stroke="black" stroke-width="0.5"/>
<path d="M342.46 293.16L342.46 292.7"
fill="none" stroke="black" stroke-width="0.5"/>
<path d="M342.46 292.7L342.46 292.47"
fill="none" stroke="black" stroke-width="0.5"/>
<path d="M342.46 292.47L342.46 292.01"
fill="none" stroke="black" stroke-width="0.5"/>
<path d="M342.46 292.01L342.46 291.78"
fill="none" stroke="black" stroke-width="0.5"/>
<path d="M342.46 291.78L342.46 291.32"
fill="none" stroke="black" stroke-width="0.5"/>
<path d="M342.46 291.32L342.46 291.09"
fill="none" stroke="black" stroke-width="0.5"/>
<path d="M342.46 291.09L342.46 291.09"
fill="none" stroke="black" stroke-width="0.5"/>
<path d="M342.46 291.09L342.46 290.4"
fill="none" stroke="black" stroke-width="0.5"/>
<path d="M342.46 290.4L342.46 289.94"
fill="none" stroke="black" stroke-width="0.5"/>
<path d="M342.46 289.94L342.46 289.71"
fill="none" stroke="black" stroke-width="0.5"/>
<path d="M342.46 289.71L342.46 289.25"
fill="none" stroke="black" stroke-width="0.5"/>
<path d="M342.46 289.25L342.46 289.02"
fill="none" stroke="black" stroke-width="0.5"/>
<path d="M342.46 289.02L342.46 288.56"
fill="none" stroke="black" stroke-width="0.5"/>
<path d="M342.46 288.56L342.46 288.33"
fill="none" stroke="black" stroke-width="0.5"/>
<path d="M342.46 288.33L342.46 287.87"
fill="none" stroke="black" stroke-width="0.5"/>
<path d="M342.46 287.87L342.23 287.64"
fill="none" stroke="black" stroke-width="0.5"/>
<path d="M342.23 287.64L342.23 286.94"
fill="none" stroke="black" stroke-width="0.5"/>
<path d="M342.23 286.94L342.23 286.71"
fill="none" stroke="black" stroke-width="0.5"/>
<path d="M342.23 286.71L342.23 286.25"
fill="none" stroke="black" stroke-width="0.5"/>
<path d="M342.23 286.25L342.23 286.02"
fill="none" stroke="black" stroke-width="0.5"/>
<path d="M342.23 286.02L342.23 285.79"
fill="none" stroke="black" stroke-width="0.5"/>
<path d="M342.23 285.79L342.23 285.56"
fill="none" stroke="black" stroke-width="0.5"/>
<path d="M342.23 285.56L342.23 285.33"
fill="none" stroke="black" stroke-width="0.5"/>
<path d="M342.23 285.33L342.23 284.87"
fill="none" stroke="black" stroke-width="0.5"/>
<path d="M342.23 284.87L342.23 284.41"
fill="none" stroke="black" stroke-width="0.5"/>
<path d="M342.23 284.41L342.23 284.18"
fill="none" stroke="black" stroke-width="0.5"/>
<path d="M342.23 284.18L342 283.72"
fill="none" stroke="black" stroke-width="0.5"/>
<path d="M342 283.72L342 283.26"
fill="none" stroke="black" stroke-width="0.5"/>
<path d="M342 283.26L342 282.8"
fill="none" stroke="black" stroke-width="0.5"/>
<path d="M342 282.8L342 281.88"
fill="none" stroke="black" stroke-width="0.5"/>
<path d="M342 281.88L341.77 280.96"
fill="none" stroke="black" stroke-width="0.5"/>
<path d="M341.77 280.96L341.77 280.5"
fill="none" stroke="black" stroke-width="0.5"/>
<path d="M341.77 280.5L341.77 280.04"
fill="none" stroke="black" stroke-width="0.5"/>
<path d="M341.77 280.04L341.77 279.58"
fill="none" stroke="black" stroke-width="0.5"/>
<path d="M341.77 279.58L341.77 279.35"
fill="none" stroke="black" stroke-width="0.5"/>
<path d="M341.77 279.35L341.77 279.35"
fill="none" stroke="black" stroke-width="0.5"/>
<path d="M341.77 279.35L341.77 279.12"
fill="none" stroke="black" stroke-width="0.5"/>
<path d="M341.77 279.12L341.77 278.89"
fill="none" stroke="black" stroke-width="0.5"/>
<path d="M341.77 278.89L341.77 278.66"
fill="none" stroke="black" stroke-width="0.5"/>
<path d="M341.77 278.66L341.77 278.43"
fill="none" stroke="black" stroke-width="0.5"/>
<path d="M341.77 278.43L341.77 277.97"
fill="none" stroke="black" stroke-width="0.5"/>
<path d="M341.77 277.97L341.54 277.51"
fill="none" stroke="black" stroke-width="0.5"/>
<path d="M341.54 277.51L341.54 277.28"
fill="none" stroke="black" stroke-width="0.5"/>
<path d="M341.54 277.28L341.54 276.82"
fill="none" stroke="black" stroke-width="0.5"/>
<path d="M341.54 276.82L341.54 276.59"
fill="none" stroke="black" stroke-width="0.5"/>
<path d="M341.54 276.59L341.54 275.9"
fill="none" stroke="black" stroke-width="0.5"/>
<path d="M341.54 275.9L341.31 275.67"
fill="none" stroke="black" stroke-width="0.5"/>
<path d="M341.31 275.67L341.31 274.98"
fill="none" stroke="black" stroke-width="0.5"/>
<path d="M341.31 274.98L341.31 274.29"
fill="none" stroke="black" stroke-width="0.5"/>
<path d="M341.31 274.29L341.31 273.36"
fill="none" stroke="black" stroke-width="0.5"/>
<path d="M341.31 273.36L341.31 273.13"
fill="none" stroke="black" stroke-width="0.5"/>
<path d="M341.31 273.13L341.31 272.44"
fill="none" stroke="black" stroke-width="0.5"/>
<path d="M341.31 272.44L341.31 271.75"
fill="none" stroke="black" stroke-width="0.5"/>
<path d="M341.31 271.75L341.31 271.06"
fill="none" stroke="black" stroke-width="0.5"/>
<path d="M341.31 271.06L341.31 270.83"
fill="none" stroke="black" stroke-width="0.5"/>
<path d="M341.31 270.83L341.31 270.37"
fill="none" stroke="black" stroke-width="0.5"/>
<path d="M341.31 270.37L341.31 269.91"
fill="none" stroke="black" stroke-width="0.5"/>
<path d="M341.31 269.91L341.31 269.45"
fill="none" stroke="black" stroke-width="0.5"/>
<path d="M341.31 269.45L341.31 268.99"
fill="none" stroke="black" stroke-width="0.5"/>
<path d="M341.31 268.99L341.31 268.3"
fill="none" stroke="black" stroke-width="0.5"/>
<path d="M341.31 268.3L341.31 268.07"
fill="none" stroke="black" stroke-width="0.5"/>
<path d="M341.31 268.07L341.08 267.61"
fill="none" stroke="black" stroke-width="0.5"/>
<path d="M341.08 267.61L341.08 266.92"
fill="none" stroke="black" stroke-width="0.5"/>
<path d="M341.08 266.92L340.85 266.46"
fill="none" stroke="black" stroke-width="0.5"/>
<path d="M340.85 266.46L340.85 266"
fill="none" stroke="black" stroke-width="0.5"/>
<path d="M340.85 266L340.85 265.54"
fill="none" stroke="black" stroke-width="0.5"/>
<path d="M340.85 265.54L340.62 265.08"
fill="none" stroke="black" stroke-width="0.5"/>
<path d="M340.62 265.08L340.62 264.85"
fill="none" stroke="black" stroke-width="0.5"/>
<path d="M340.62 264.85L340.62 264.39"
fill="none" stroke="black" stroke-width="0.5"/>
<path d="M340.62 264.39L340.62 263.7"
fill="none" stroke="black" stroke-width="0.5"/>
<path d="M340.62 263.7L340.62 263.47"
fill="none" stroke="black" stroke-width="0.5"/>
<path d="M340.62 263.47L340.62 263.01"
fill="none" stroke="black" stroke-width="0.5"/>
<path d="M340.62 263.01L340.62 262.78"
fill="none" stroke="black" stroke-width="0.5"/>
<path d="M340.62 262.78L340.62 262.32"
fill="none" stroke="black" stroke-width="0.5"/>
<path d="M340.62 262.32L340.62 261.86"
fill="none" stroke="black" stroke-width="0.5"/>
<path d="M340.62 261.86L340.62 261.4"
fill="none" stroke="black" stroke-width="0.5"/>
<path d="M340.62 261.4L340.62 261.4"
fill="none" stroke="black" stroke-width="0.5"/>
<path d="M340.62 261.4L340.62 260.25"
fill="none" stroke="black" stroke-width="0.5"/>
<path d="M340.62 260.25L340.62 260.02"
fill="none" stroke="black" stroke-width="0.5"/>
<path d="M340.62 260.02L340.62 259.32"
fill="none" stroke="black" stroke-width="0.5"/>
<path d="M340.62 259.32L340.62 259.32"
fill="none" stroke="black" stroke-width="0.5"/>
<path d="M340.62 259.32L340.62 258.63"
fill="none" stroke="black" stroke-width="0.5"/>
<path d="M340.62 258.63L340.62 258.4"
fill="none" stroke="black" stroke-width="0.5"/>
<path d="M340.62 258.4L340.62 257.94"
fill="none" stroke="black" stroke-width="0.5"/>
<path d="M340.62 257.94L340.62 257.25"
fill="none" stroke="black" stroke-width="0.5"/>
<path d="M340.62 257.25L340.62 257.02"
fill="none" stroke="black" stroke-width="0.5"/>
<path d="M340.62 257.02L340.62 256.79"
fill="none" stroke="black" stroke-width="0.5"/>
<path d="M340.62 256.79L340.62 256.33"
fill="none" stroke="black" stroke-width="0.5"/>
<path d="M340.62 256.33L340.62 255.64"
fill="none" stroke="black" stroke-width="0.5"/>
<path d="M340.62 255.64L340.85 254.95"
fill="none" stroke="black" stroke-width="0.5"/>
<path d="M340.85 254.95L340.85 254.49"
fill="none" stroke="black" stroke-width="0.5"/>
<path d="M340.85 254.49L340.85 253.8"
fill="none" stroke="black" stroke-width="0.5"/>
<path d="M340.85 253.8L340.85 253.34"
fill="none" stroke="black" stroke-width="0.5"/>
<path d="M340.85 253.34L340.85 253.11"
fill="none" stroke="black" stroke-width="0.5"/>
<path d="M340.85 253.11L341.08 252.42"
fill="none" stroke="black" stroke-width="0.5"/>
<path d="M341.08 252.42L341.08 251.96"
fill="none" stroke="black" stroke-width="0.5"/>
<path d="M341.08 251.96L341.08 251.5"
fill="none" stroke="black" stroke-width="0.5"/>
<path d="M341.08 251.5L341.08 251.04"
fill="none" stroke="black" stroke-width="0.5"/>
<path d="M341.08 251.04L341.08 250.35"
fill="none" stroke="black" stroke-width="0.5"/>
<path d="M341.08 250.35L341.31 250.12"
fill="none" stroke="black" stroke-width="0.5"/>
<path d="M341.31 250.12L341.31 249.89"
fill="none" stroke="black" stroke-width="0.5"/>
<path d="M341.31 249.89L341.31 249.43"
fill="none" stroke="black" stroke-width="0.5"/>
<path d="M341.31 249.43L341.31 248.97"
fill="none" stroke="black" stroke-width="0.5"/>
<path d="M341.31 248.97L341.54 248.97"
fill="none" stroke="black" stroke-width="0.5"/>
<path d="M341.54 248.97L341.77 248.51"
fill="none" stroke="black" stroke-width="0.5"/>
<path d="M341.77 248.51L341.77 248.28"
fill="none" stroke="black" stroke-width="0.5"/>
<path d="M341.77 248.28L342 247.82"
fill="none" stroke="black" stroke-width="0.5"/>
<path d="M342 247.82L342 247.59"
fill="none" stroke="black" stroke-width="0.5"/>
<path d="M342 247.59L342.23 247.13"
fill="none" stroke="black" stroke-width="0.5"/>
<path d="M342.23 247.13L342.46 246.67"
fill="none" stroke="black" stroke-width="0.5"/>
<path d="M342.46 246.67L342.46 246.21"
fill="none" stroke="black" stroke-width="0.5"/>
<path d="M342.46 246.21L342.46 245.75"
fill="none" stroke="black" stroke-width="0.5"/>
<path d="M342.46 245.75L342.69 245.51"
fill="none" stroke="black" stroke-width="0.5"/>
<path d="M342.69 245.51L342.92 244.82"
fill="none" stroke="black" stroke-width="0.5"/>
<path d="M342.92 244.82L343.15 244.82"
fill="none" stroke="black" stroke-width="0.5"/>
<path d="M343.15 244.82L343.15 244.13"
fill="none" stroke="black" stroke-width="0.5"/>
<path d="M343.15 244.13L343.38 244.13"
fill="none" stroke="black" stroke-width="0.5"/>
<path d="M343.38 244.13L343.38 243.9"
fill="none" stroke="black" stroke-width="0.5"/>
<path d="M343.38 243.9L343.38 243.67"
fill="none" stroke="black" stroke-width="0.5"/>
<path d="M343.38 243.67L343.61 243.44"
fill="none" stroke="black" stroke-width="0.5"/>
<path d="M343.61 243.44L343.84 243.44"
fill="none" stroke="black" stroke-width="0.5"/>
<path d="M343.84 243.44L343.84 242.98"
fill="none" stroke="black" stroke-width="0.5"/>
<path d="M343.84 242.98L343.84 242.75"
fill="none" stroke="black" stroke-width="0.5"/>
<path d="M343.84 242.75L343.84 242.75"
fill="none" stroke="black" stroke-width="0.5"/>
<path d="M343.84 242.75L344.07 242.52"
fill="none" stroke="black" stroke-width="0.5"/>
<path d="M344.07 242.52L344.07 242.29"
fill="none" stroke="black" stroke-width="0.5"/>
<path d="M344.07 242.29L344.07 242.52"
fill="none" stroke="black" stroke-width="0.5"/>
<path d="M352.13 308.35L352.13 308.12"
fill="none" stroke="black" stroke-width="0.5"/>
<path d="M352.13 308.12L352.13 307.89"
fill="none" stroke="black" stroke-width="0.5"/>
<path d="M352.13 307.89L352.13 307.66"
fill="none" stroke="black" stroke-width="0.5"/>
<path d="M352.13 307.66L352.13 307.66"
fill="none" stroke="black" stroke-width="0.5"/>
<path d="M352.13 307.66L352.13 307.43"
fill="none" stroke="black" stroke-width="0.5"/>
<path d="M352.13 307.43L352.13 307.2"
fill="none" stroke="black" stroke-width="0.5"/>
<path d="M352.13 307.2L352.13 306.97"
fill="none" stroke="black" stroke-width="0.5"/>
<path d="M352.13 306.97L352.13 306.97"
fill="none" stroke="black" stroke-width="0.5"/>
<path d="M352.13 306.97L352.13 306.74"
fill="none" stroke="black" stroke-width="0.5"/>
<path d="M352.13 306.74L352.13 306.51"
fill="none" stroke="black" stroke-width="0.5"/>
<path d="M352.13 306.51L352.13 306.28"
fill="none" stroke="black" stroke-width="0.5"/>
<path d="M352.13 306.28L352.13 306.28"
fill="none" stroke="black" stroke-width="0.5"/>
<path d="M352.13 306.28L352.13 306.05"
fill="none" stroke="black" stroke-width="0.5"/>
<path d="M352.13 306.05L352.13 305.82"
fill="none" stroke="black" stroke-width="0.5"/>
<path d="M352.13 305.82L352.13 305.59"
fill="none" stroke="black" stroke-width="0.5"/>
<path d="M352.13 305.59L352.13 305.36"
fill="none" stroke="black" stroke-width="0.5"/>
<path d="M352.13 305.36L352.13 305.13"
fill="none" stroke="black" stroke-width="0.5"/>
<path d="M352.13 305.13L352.13 304.9"
fill="none" stroke="black" stroke-width="0.5"/>
<path d="M352.13 304.9L352.13 304.9"
fill="none" stroke="black" stroke-width="0.5"/>
<path d="M352.13 304.9L352.13 304.67"
fill="none" stroke="black" stroke-width="0.5"/>
<path d="M352.13 304.67L352.13 304.67"
fill="none" stroke="black" stroke-width="0.5"/>
<path d="M352.13 304.67L352.13 304.44"
fill="none" stroke="black" stroke-width="0.5"/>
<path d="M352.13 304.44L352.13 304.21"
fill="none" stroke="black" stroke-width="0.5"/>
<path d="M352.13 304.21L352.13 304.21"
fill="none" stroke="black" stroke-width="0.5"/>
<path d="M352.13 304.21L352.13 303.98"
fill="none" stroke="black" stroke-width="0.5"/>
<path d="M352.13 303.98L352.13 303.75"
fill="none" stroke="black" stroke-width="0.5"/>
<path d="M352.13 303.75L352.13 303.52"
fill="none" stroke="black" stroke-width="0.5"/>
<path d="M352.13 303.52L352.13 303.52"
fill="none" stroke="black" stroke-width="0.5"/>
<path d="M352.13 303.52L352.13 303.29"
fill="none" stroke="black" stroke-width="0.5"/>
<path d="M352.13 303.29L352.13 303.06"
fill="none" stroke="black" stroke-width="0.5"/>
<path d="M352.13 303.06L352.36 302.83"
fill="none" stroke="black" stroke-width="0.5"/>
<path d="M352.36 302.83L352.36 302.83"
fill="none" stroke="black" stroke-width="0.5"/>
<path d="M352.36 302.83L352.36 302.6"
fill="none" stroke="black" stroke-width="0.5"/>
<path d="M352.36 302.6L352.36 302.37"
fill="none" stroke="black" stroke-width="0.5"/>
<path d="M352.36 302.37L352.59 302.37"
fill="none" stroke="black" stroke-width="0.5"/>
<path d="M352.59 302.37L352.59 302.14"
fill="none" stroke="black" stroke-width="0.5"/>
<path d="M352.59 302.14L352.59 302.14"
fill="none" stroke="black" stroke-width="0.5"/>
<path d="M352.59 302.14L352.82 301.91"
fill="none" stroke="black" stroke-width="0.5"/>
<path d="M352.82 301.91L352.82 301.68"
fill="none" stroke="black" stroke-width="0.5"/>
<path d="M352.82 301.68L352.82 301.45"
fill="none" stroke="black" stroke-width="0.5"/>
<path d="M352.82 301.45L352.82 301.45"
fill="none" stroke="black" stroke-width="0.5"/>
<path d="M352.82 301.45L352.82 301.45"
fill="none" stroke="black" stroke-width="0.5"/>
<path d="M352.82 301.45L352.82 301.21"
fill="none" stroke="black" stroke-width="0.5"/>
<path d="M352.82 301.21L352.82 300.98"
fill="none" stroke="black" stroke-width="0.5"/>
<path d="M352.82 300.98L353.05 300.98"
fill="none" stroke="black" stroke-width="0.5"/>
<path d="M353.05 300.98L353.05 300.75"
fill="none" stroke="black" stroke-width="0.5"/>
<path d="M353.05 300.75L353.05 300.75"
fill="none" stroke="black" stroke-width="0.5"/>
<path d="M353.05 300.75L353.05 300.52"
fill="none" stroke="black" stroke-width="0.5"/>
<path d="M353.05 300.52L353.28 300.29"
fill="none" stroke="black" stroke-width="0.5"/>
<path d="M353.28 300.29L353.28 300.06"
fill="none" stroke="black" stroke-width="0.5"/>
<path d="M353.28 300.06L353.28 300.06"
fill="none" stroke="black" stroke-width="0.5"/>
<path d="M353.28 300.06L353.28 299.6"
fill="none" stroke="black" stroke-width="0.5"/>
<path d="M353.28 299.6L353.51 299.37"
fill="none" stroke="black" stroke-width="0.5"/>
<path d="M353.51 299.37L353.51 299.37"
fill="none" stroke="black" stroke-width="0.5"/>
<path d="M353.51 299.37L353.51 299.14"
fill="none" stroke="black" stroke-width="0.5"/>
<path d="M353.51 299.14L353.51 298.68"
fill="none" stroke="black" stroke-width="0.5"/>
<path d="M353.51 298.68L353.51 298.68"
fill="none" stroke="black" stroke-width="0.5"/>
<path d="M353.51 298.68L353.51 298.45"
fill="none" stroke="black" stroke-width="0.5"/>
<path d="M353.51 298.45L353.51 298.22"
fill="none" stroke="black" stroke-width="0.5"/>
<path d="M353.51 298.22L353.51 297.99"
fill="none" stroke="black" stroke-width="0.5"/>
<path d="M353.51 297.99L353.51 297.76"
fill="none" stroke="black" stroke-width="0.5"/>
<path d="M353.51 297.76L353.51 297.53"
fill="none" stroke="black" stroke-width="0.5"/>
<path d="M353.51 297.53L353.74 297.3"
fill="none" stroke="black" stroke-width="0.5"/>
<path d="M353.74 297.3L353.74 297.07"
fill="none" stroke="black" stroke-width="0.5"/>
<path d="M353.74 297.07L353.97 296.38"
fill="none" stroke="black" stroke-width="0.5"/>
<path d="M353.97 296.38L354.2 295.92"
fill="none" stroke="black" stroke-width="0.5"/>
<path d="M354.2 295.92L354.2 295.92"
fill="none" stroke="black" stroke-width="0.5"/>
<path d="M354.2 295.92L354.2 295.46"
fill="none" stroke="black" stroke-width="0.5"/>
<path d="M354.2 295.46L354.2 295.23"
fill="none" stroke="black" stroke-width="0.5"/>
<path d="M354.2 295.23L354.2 295"
fill="none" stroke="black" stroke-width="0.5"/>
<path d="M354.2 295L354.2 294.54"
fill="none" stroke="black" stroke-width="0.5"/>
<path d="M354.2 294.54L354.2 294.54"
fill="none" stroke="black" stroke-width="0.5"/>
<path d="M354.2 294.54L354.2 294.31"
fill="none" stroke="black" stroke-width="0.5"/>
<path d="M354.2 294.31L354.2 293.85"
fill="none" stroke="black" stroke-width="0.5"/>
<path d="M354.2 293.85L354.2 293.85"
fill="none" stroke="black" stroke-width="0.5"/>
<path d="M354.2 293.85L354.2 293.39"
fill="none" stroke="black" stroke-width="0.5"/>
<path d="M354.2 293.39L354.2 293.16"
fill="none" stroke="black" stroke-width="0.5"/>
<path d="M354.2 293.16L354.2 292.47"
fill="none" stroke="black" stroke-width="0.5"/>
<path d="M354.2 292.47L354.2 292.24"
fill="none" stroke="black" stroke-width="0.5"/>
<path d="M354.2 292.24L354.2 291.78"
fill="none" stroke="black" stroke-width="0.5"/>
<path d="M354.2 291.78L354.2 291.55"
fill="none" stroke="black" stroke-width="0.5"/>
<path d="M354.2 291.55L354.2 291.09"
fill="none" stroke="black" stroke-width="0.5"/>
<path d="M354.2 291.09L354.2 291.09"
fill="none" stroke="black" stroke-width="0.5"/>
<path d="M354.2 291.09L354.2 290.86"
fill="none" stroke="black" stroke-width="0.5"/>
<path d="M354.2 290.86L354.2 290.4"
fill="none" stroke="black" stroke-width="0.5"/>
<path d="M354.2 290.4L354.2 290.4"
fill="none" stroke="black" stroke-width="0.5"/>
<path d="M354.2 290.4L354.2 289.94"
fill="none" stroke="black" stroke-width="0.5"/>
<path d="M354.2 289.94L354.2 289.71"
fill="none" stroke="black" stroke-width="0.5"/>
<path d="M354.2 289.71L354.2 289.25"
fill="none" stroke="black" stroke-width="0.5"/>
<path d="M354.2 289.25L354.2 289.02"
fill="none" stroke="black" stroke-width="0.5"/>
<path d="M354.2 289.02L354.2 288.79"
fill="none" stroke="black" stroke-width="0.5"/>
<path d="M354.2 288.79L354.2 288.33"
fill="none" stroke="black" stroke-width="0.5"/>
<path d="M354.2 288.33L354.2 287.87"
fill="none" stroke="black" stroke-width="0.5"/>
<path d="M354.2 287.87L354.2 287.64"
fill="none" stroke="black" stroke-width="0.5"/>
<path d="M354.2 287.64L354.2 287.4"
fill="none" stroke="black" stroke-width="0.5"/>
<path d="M354.2 287.4L354.2 286.94"
fill="none" stroke="black" stroke-width="0.5"/>
<path d="M354.2 286.94L354.2 286.94"
fill="none" stroke="black" stroke-width="0.5"/>
<path d="M354.2 286.94L354.2 286.71"
fill="none" stroke="black" stroke-width="0.5"/>
<path d="M354.2 286.71L354.2 286.25"
fill="none" stroke="black" stroke-width="0.5"/>
<path d="M354.2 286.25L353.97 286.25"
fill="none" stroke="black" stroke-width="0.5"/>
<path d="M353.97 286.25L353.97 285.79"
fill="none" stroke="black" stroke-width="0.5"/>
<path d="M353.97 285.79L353.74 285.56"
fill="none" stroke="black" stroke-width="0.5"/>
<path d="M353.74 285.56L353.74 285.1"
fill="none" stroke="black" stroke-width="0.5"/>
<path d="M353.74 285.1L353.74 284.64"
fill="none" stroke="black" stroke-width="0.5"/>
<path d="M353.74 284.64L353.74 284.18"
fill="none" stroke="black" stroke-width="0.5"/>
<path d="M353.74 284.18L353.74 283.72"
fill="none" stroke="black" stroke-width="0.5"/>
<path d="M353.74 283.72L353.74 283.49"
fill="none" stroke="black" stroke-width="0.5"/>
<path d="M353.74 283.49L353.51 283.26"
fill="none" stroke="black" stroke-width="0.5"/>
<path d="M353.51 283.26L353.51 282.8"
fill="none" stroke="black" stroke-width="0.5"/>
<path d="M353.51 282.8L353.51 282.57"
fill="none" stroke="black" stroke-width="0.5"/>
<path d="M353.51 282.57L353.28 282.11"
fill="none" stroke="black" stroke-width="0.5"/>
<path d="M353.28 282.11L353.28 281.65"
fill="none" stroke="black" stroke-width="0.5"/>
<path d="M353.28 281.65L353.28 281.42"
fill="none" stroke="black" stroke-width="0.5"/>
<path d="M353.28 281.42L353.05 281.19"
fill="none" stroke="black" stroke-width="0.5"/>
<path d="M353.05 281.19L353.05 280.96"
fill="none" stroke="black" stroke-width="0.5"/>
<path d="M353.05 280.96L353.05 280.5"
fill="none" stroke="black" stroke-width="0.5"/>
<path d="M353.05 280.5L353.05 280.04"
fill="none" stroke="black" stroke-width="0.5"/>
<path d="M353.05 280.04L353.05 279.81"
fill="none" stroke="black" stroke-width="0.5"/>
<path d="M353.05 279.81L353.05 279.35"
fill="none" stroke="black" stroke-width="0.5"/>
<path d="M353.05 279.35L352.82 279.12"
fill="none" stroke="black" stroke-width="0.5"/>
<path d="M352.82 279.12L352.59 278.89"
fill="none" stroke="black" stroke-width="0.5"/>
<path d="M352.59 278.89L352.59 278.66"
fill="none" stroke="black" stroke-width="0.5"/>
<path d="M352.59 278.66L352.59 278.43"
fill="none" stroke="black" stroke-width="0.5"/>
<path d="M352.59 278.43L352.36 277.97"
fill="none" stroke="black" stroke-width="0.5"/>
<path d="M352.36 277.97L352.36 277.74"
fill="none" stroke="black" stroke-width="0.5"/>
<path d="M352.36 277.74L352.13 277.28"
fill="none" stroke="black" stroke-width="0.5"/>
<path d="M352.13 277.28L352.13 277.28"
fill="none" stroke="black" stroke-width="0.5"/>
<path d="M352.13 277.28L351.9 276.82"
fill="none" stroke="black" stroke-width="0.5"/>
<path d="M351.9 276.82L351.67 276.59"
fill="none" stroke="black" stroke-width="0.5"/>
<path d="M351.67 276.59L351.67 276.13"
fill="none" stroke="black" stroke-width="0.5"/>
<path d="M351.67 276.13L351.67 275.9"
fill="none" stroke="black" stroke-width="0.5"/>
<path d="M351.67 275.9L351.67 275.44"
fill="none" stroke="black" stroke-width="0.5"/>
<path d="M351.67 275.44L351.67 274.98"
fill="none" stroke="black" stroke-width="0.5"/>
<path d="M351.67 274.98L351.44 274.75"
fill="none" stroke="black" stroke-width="0.5"/>
<path d="M351.44 274.75L351.21 274.06"
fill="none" stroke="black" stroke-width="0.5"/>
<path d="M351.21 274.06L351.21 273.83"
fill="none" stroke="black" stroke-width="0.5"/>
<path d="M351.21 273.83L350.98 273.36"
fill="none" stroke="black" stroke-width="0.5"/>
<path d="M350.98 273.36L350.98 272.9"
fill="none" stroke="black" stroke-width="0.5"/>
<path d="M350.98 272.9L350.98 272.67"
fill="none" stroke="black" stroke-width="0.5"/>
<path d="M350.98 272.67L350.98 272.44"
fill="none" stroke="black" stroke-width="0.5"/>
<path d="M350.98 272.44L350.75 272.21"
fill="none" stroke="black" stroke-width="0.5"/>
<path d="M350.75 272.21L350.75 271.98"
fill="none" stroke="black" stroke-width="0.5"/>
<path d="M350.75 271.98L350.75 271.75"
fill="none" stroke="black" stroke-width="0.5"/>
<path d="M350.75 271.75L350.75 271.52"
fill="none" stroke="black" stroke-width="0.5"/>
<path d="M350.75 271.52L350.75 271.06"
fill="none" stroke="black" stroke-width="0.5"/>
<path d="M350.75 271.06L350.75 270.6"
fill="none" stroke="black" stroke-width="0.5"/>
<path d="M350.75 270.6L350.75 270.14"
fill="none" stroke="black" stroke-width="0.5"/>
<path d="M350.75 270.14L350.75 269.68"
fill="none" stroke="black" stroke-width="0.5"/>
<path d="M350.75 269.68L350.75 268.76"
fill="none" stroke="black" stroke-width="0.5"/>
<path d="M350.75 268.76L350.75 268.3"
fill="none" stroke="black" stroke-width="0.5"/>
<path d="M350.75 268.3L350.75 268.07"
fill="none" stroke="black" stroke-width="0.5"/>
<path d="M350.75 268.07L350.75 267.38"
fill="none" stroke="black" stroke-width="0.5"/>
<path d="M350.75 267.38L350.75 266.69"
fill="none" stroke="black" stroke-width="0.5"/>
<path d="M350.75 266.69L350.75 266.23"
fill="none" stroke="black" stroke-width="0.5"/>
<path d="M350.75 266.23L350.75 265.54"
fill="none" stroke="black" stroke-width="0.5"/>
<path d="M350.75 265.54L350.75 264.85"
fill="none" stroke="black" stroke-width="0.5"/>
<path d="M350.75 264.85L350.75 264.16"
fill="none" stroke="black" stroke-width="0.5"/>
<path d="M350.75 264.16L350.75 263.7"
fill="none" stroke="black" stroke-width="0.5"/>
<path d="M350.75 263.7L350.75 263.47"
fill="none" stroke="black" stroke-width="0.5"/>
<path d="M350.75 263.47L350.75 263.01"
fill="none" stroke="black" stroke-width="0.5"/>
<path d="M350.75 263.01L350.75 262.78"
fill="none" stroke="black" stroke-width="0.5"/>
<path d="M350.75 262.78L350.75 262.09"
fill="none" stroke="black" stroke-width="0.5"/>
<path d="M350.75 262.09L350.75 261.4"
fill="none" stroke="black" stroke-width="0.5"/>
<path d="M350.75 261.4L350.75 260.94"
fill="none" stroke="black" stroke-width="0.5"/>
<path d="M350.75 260.94L350.75 260.71"
fill="none" stroke="black" stroke-width="0.5"/>
<path d="M350.75 260.71L350.75 259.79"
fill="none" stroke="black" stroke-width="0.5"/>
<path d="M350.75 259.79L350.75 259.09"
fill="none" stroke="black" stroke-width="0.5"/>
<path d="M350.75 259.09L350.75 258.63"
fill="none" stroke="black" stroke-width="0.5"/>
<path d="M350.75 258.63L350.75 257.94"
fill="none" stroke="black" stroke-width="0.5"/>
<path d="M350.75 257.94L350.75 257.25"
fill="none" stroke="black" stroke-width="0.5"/>
<path d="M350.75 257.25L350.75 256.79"
fill="none" stroke="black" stroke-width="0.5"/>
<path d="M350.75 256.79L350.75 256.33"
fill="none" stroke="black" stroke-width="0.5"/>
<path d="M350.75 256.33L350.75 255.87"
fill="none" stroke="black" stroke-width="0.5"/>
<path d="M350.75 255.87L350.75 255.18"
fill="none" stroke="black" stroke-width="0.5"/>
<path d="M350.75 255.18L350.75 254.49"
fill="none" stroke="black" stroke-width="0.5"/>
<path d="M350.75 254.49L350.75 254.26"
fill="none" stroke="black" stroke-width="0.5"/>
<path d="M350.75 254.26L350.75 254.03"
fill="none" stroke="black" stroke-width="0.5"/>
<path d="M350.75 254.03L350.75 253.8"
fill="none" stroke="black" stroke-width="0.5"/>
<path d="M350.75 253.8L350.98 253.57"
fill="none" stroke="black" stroke-width="0.5"/>
<path d="M350.98 253.57L350.98 253.11"
fill="none" stroke="black" stroke-width="0.5"/>
<path d="M350.98 253.11L351.21 252.65"
fill="none" stroke="black" stroke-width="0.5"/>
<path d="M351.21 252.65L351.21 252.42"
fill="none" stroke="black" stroke-width="0.5"/>
<path d="M351.21 252.42L351.21 252.19"
fill="none" stroke="black" stroke-width="0.5"/>
<path d="M351.21 252.19L351.44 251.5"
fill="none" stroke="black" stroke-width="0.5"/>
<path d="M351.44 251.5L351.44 251.04"
fill="none" stroke="black" stroke-width="0.5"/>
<path d="M351.44 251.04L351.67 250.58"
fill="none" stroke="black" stroke-width="0.5"/>
<path d="M351.67 250.58L351.67 250.35"
fill="none" stroke="black" stroke-width="0.5"/>
<path d="M351.67 250.35L352.13 249.43"
fill="none" stroke="black" stroke-width="0.5"/>
<path d="M352.13 249.43L352.13 248.74"
fill="none" stroke="black" stroke-width="0.5"/>
<path d="M352.13 248.74L352.36 248.28"
fill="none" stroke="black" stroke-width="0.5"/>
<path d="M352.36 248.28L352.59 248.05"
fill="none" stroke="black" stroke-width="0.5"/>
<path d="M352.59 248.05L352.82 247.59"
fill="none" stroke="black" stroke-width="0.5"/>
<path d="M352.82 247.59L352.82 247.36"
fill="none" stroke="black" stroke-width="0.5"/>
<path d="M352.82 247.36L352.82 247.13"
fill="none" stroke="black" stroke-width="0.5"/>
<path d="M352.82 247.13L352.82 246.9"
fill="none" stroke="black" stroke-width="0.5"/>
<path d="M352.82 246.9L352.82 246.67"
fill="none" stroke="black" stroke-width="0.5"/>
<path d="M352.82 246.67L353.05 246.44"
fill="none" stroke="black" stroke-width="0.5"/>
<path d="M353.05 246.44L353.28 246.21"
fill="none" stroke="black" stroke-width="0.5"/>
<path d="M353.28 246.21L353.28 245.98"
fill="none" stroke="black" stroke-width="0.5"/>
<path d="M353.28 245.98L353.51 245.51"
fill="none" stroke="black" stroke-width="0.5"/>
<path d="M353.51 245.51L353.51 245.28"
fill="none" stroke="black" stroke-width="0.5"/>
<path d="M353.51 245.28L353.97 244.82"
fill="none" stroke="black" stroke-width="0.5"/>
<path d="M353.97 244.82L354.2 244.36"
fill="none" stroke="black" stroke-width="0.5"/>
<path d="M354.2 244.36L354.43 244.13"
fill="none" stroke="black" stroke-width="0.5"/>
<path d="M354.43 244.13L354.66 243.9"
fill="none" stroke="black" stroke-width="0.5"/>
<path d="M354.66 243.9L354.66 243.67"
fill="none" stroke="black" stroke-width="0.5"/>
<path d="M354.66 243.67L354.89 243.44"
fill="none" stroke="black" stroke-width="0.5"/>
<path d="M354.89 243.44L354.89 243.44"
fill="none" stroke="black" stroke-width="0.5"/>
<path d="M354.89 243.44L354.89 243.21"
fill="none" stroke="black" stroke-width="0.5"/>
<path d="M354.89 243.21L355.12 242.98"
fill="none" stroke="black" stroke-width="0.5"/>
<path d="M355.12 242.98L355.35 242.75"
fill="none" stroke="black" stroke-width="0.5"/>
<path d="M355.35 242.75L355.58 242.75"
fill="none" stroke="black" stroke-width="0.5"/>
<path d="M355.58 242.75L355.35 242.75"
fill="none" stroke="black" stroke-width="0.5"/>
<path d="M355.35 242.75L355.12 242.75"
fill="none" stroke="black" stroke-width="0.5"/>
<path d="M355.12 242.75L355.12 242.98"
fill="none" stroke="black" stroke-width="0.5"/>
</svg>
