<?xml version="1.0" encoding="UTF-8"?>
<svg xmlns="http://www.w3.org/2000/svg" width="800.000" height="600.000" viewBox="0.0 0.0 800.000 600.000" version="1.1">
  <title>Produce by Acme CAD Converter</title>
  <desc>Produce by Acme CAD Converter</desc>
<path d="M17.8 319.69L17.8 252.37"
fill="none" stroke="black" stroke-width="0.5"/>
<path d="M306.26 252.37L535.6 252.37"
fill="none" stroke="black" stroke-width="0.5"/>
<path d="M17.8 252.37L303.07 252.37"
fill="none" stroke="black" stroke-width="0.5"/>
<path d="M535.6 252.37L535.6 319.69"
fill="none" stroke="black" stroke-width="0.5"/>
<path d="M535.6 319.69L288.38 319.69"
fill="none" stroke="black" stroke-width="0.5"/>
<path d="M288.38 319.69L289.64 319.69"
fill="none" stroke="black" stroke-width="0.5"/>
<path d="M280.2 319.69L17.8 319.69"
fill="none" stroke="black" stroke-width="0.5"/>
<path d="M289.64 319.69L286.21 319.69"
fill="none" stroke="black" stroke-width="0.5"/>
<path d="M2.26 286.03L59.93 286.03M76.37 286.03L92.81 286.03M109.25 286.03L191.46 286.03M207.9 286.03L224.34 286.03M240.78 286.03L322.98 286.03M339.42 286.03L355.86 286.03M372.3 286.03L454.5 286.03M470.94 286.03L487.38 286.03M503.82 286.03L561.49 286.03"
fill="none" stroke="black" stroke-width="0.5"/>
<path d="M501.94 286.03L502.14 284.3M502.14 284.3L502.71 282.66M502.71 282.66L503.64 281.19M503.64 281.19L504.87 279.96M504.87 279.96L506.34 279.03M506.34 279.03L507.98 278.46M507.98 278.46L509.71 278.26M509.71 278.26L511.44 278.46M511.44 278.46L513.08 279.03M513.08 279.03L514.55 279.96M514.55 279.96L515.78 281.19M515.78 281.19L516.71 282.66M516.71 282.66L517.28 284.3M517.28 284.3L517.48 286.03M517.48 286.03L517.28 287.76M517.28 287.76L516.71 289.4M516.71 289.4L515.78 290.87M515.78 290.87L514.55 292.1M514.55 292.1L513.08 293.03M513.08 293.03L511.44 293.6M511.44 293.6L509.71 293.8M509.71 293.8L507.98 293.6M507.98 293.6L506.34 293.03M506.34 293.03L504.87 292.1M504.87 292.1L503.64 290.87M503.64 290.87L502.71 289.4M502.71 289.4L502.14 287.76M502.14 287.76L501.94 286.03"
fill="none" stroke="black" stroke-width="0.5"/>
<path d="M398.38 286.03L398.58 284.3M398.58 284.3L399.15 282.66M399.15 282.66L400.08 281.19M400.08 281.19L401.31 279.96M401.31 279.96L402.78 279.03M402.78 279.03L404.42 278.46M404.42 278.46L406.15 278.26M406.15 278.26L407.88 278.46M407.88 278.46L409.52 279.03M409.52 279.03L410.99 279.96M410.99 279.96L412.22 281.19M412.22 281.19L413.15 282.66M413.15 282.66L413.72 284.3M413.72 284.3L413.92 286.03M413.92 286.03L413.72 287.76M413.72 287.76L413.15 289.4M413.15 289.4L412.22 290.87M412.22 290.87L410.99 292.1M410.99 292.1L409.52 293.03M409.52 293.03L407.88 293.6M407.88 293.6L406.15 293.8M406.15 293.8L404.42 293.6M404.42 293.6L402.78 293.03M402.78 293.03L401.31 292.1M401.31 292.1L400.08 290.87M400.08 290.87L399.15 289.4M399.15 289.4L398.58 287.76M398.58 287.76L398.38 286.03"
fill="none" stroke="black" stroke-width="0.5"/>
<path d="M665.05 319.69L732.36 319.69"
fill="none" stroke="black" stroke-width="0.5"/>
<path d="M732.36 278.26L732.36 252.37"
fill="none" stroke="black" stroke-width="0.5"/>
<path d="M732.36 319.69L732.36 293.8"
fill="none" stroke="black" stroke-width="0.5"/>
<path d="M732.36 293.8L732.36 278.26"
fill="none" stroke="black" stroke-width="0.5"/>
<path d="M732.36 252.37L665.05 252.37"
fill="none" stroke="black" stroke-width="0.5"/>
<path d="M665.05 252.37L665.05 278.26"
fill="none" stroke="black" stroke-width="0.5"/>
<path d="M665.05 278.26L665.05 293.8"
fill="none" stroke="black" stroke-width="0.5"/>
<path d="M665.05 293.8L665.05 319.69"
fill="none" stroke="black" stroke-width="0.5"/>
<path d="M672.82 311.92L724.6 311.92"
fill="none" stroke="black" stroke-width="0.5"/>
<path d="M724.6 311.92L724.6 293.8"
fill="none" stroke="black" stroke-width="0.5"/>
<path d="M724.6 293.8L724.6 278.26"
fill="none" stroke="black" stroke-width="0.5"/>
<path d="M724.6 278.26L724.6 260.14"
fill="none" stroke="black" stroke-width="0.5"/>
<path d="M724.6 260.14L672.82 260.14"
fill="none" stroke="black" stroke-width="0.5"/>
<path d="M672.82 260.14L672.82 278.26"
fill="none" stroke="black" stroke-width="0.5"/>
<path d="M672.82 278.26L672.82 293.8"
fill="none" stroke="black" stroke-width="0.5"/>
<path d="M672.82 293.8L672.82 311.92"
fill="none" stroke="black" stroke-width="0.5"/>
<path d="M652.1 286.03L744.88 286.03"
fill="none" stroke="black" stroke-width="0.5"/>
<path d="M698.71 330.04L698.71 240.03"
fill="none" stroke="black" stroke-width="0.5"/>
<path d="M672.82 278.26L665.05 278.26"
fill="none" stroke="black" stroke-width="0.5"/>
<path d="M665.05 278.26L665.05 293.8"
fill="none" stroke="black" stroke-width="0.5"/>
<path d="M665.05 293.8L672.82 293.8"
fill="none" stroke="black" stroke-width="0.5"/>
<path d="M724.6 278.26L732.36 278.26"
fill="none" stroke="black" stroke-width="0.5"/>
<path d="M732.36 278.26L732.36 293.8"
fill="none" stroke="black" stroke-width="0.5"/>
<path d="M732.36 293.8L724.6 293.8"
fill="none" stroke="black" stroke-width="0.5"/>
<path d="M665.05 294.37L665.62 293.8M665.05 300.18L671.44 293.8M665.05 306L672.82 298.23M665.05 311.81L672.82 304.04M665.05 317.62L672.82 309.85M668.8 319.69L676.56 311.92M674.61 319.69L682.38 311.92M680.42 319.69L688.19 311.92M686.23 319.69L694 311.92M692.05 319.69L699.81 311.92M697.86 319.69L705.63 311.92M703.67 319.69L711.44 311.92M724.6 298.76L729.56 293.8M709.48 319.69L717.25 311.92M715.3 319.69L723.06 311.92M724.6 304.57L732.36 296.81M724.6 310.39L732.36 302.62M721.11 319.69L732.36 308.43M726.92 319.69L732.36 314.24"
fill="none" stroke="black" stroke-width="0.5"/>
<path d="M665.05 253.68L666.36 252.37M665.05 259.5L672.17 252.37M665.05 265.31L677.99 252.37M665.05 271.12L672.82 263.35M665.05 276.93L672.82 269.17M676.03 260.14L683.8 252.37M681.84 260.14L689.61 252.37M669.53 278.26L672.82 274.98M687.66 260.14L695.42 252.37M693.47 260.14L701.24 252.37M699.28 260.14L707.05 252.37M705.09 260.14L712.86 252.37M710.91 260.14L718.67 252.37M716.72 260.14L724.49 252.37M722.53 260.14L730.3 252.37M724.6 263.89L732.36 256.12M724.6 269.7L732.36 261.93M724.6 275.51L732.36 267.74M727.66 278.26L732.36 273.56"
fill="none" stroke="black" stroke-width="0.5"/>
<path d="M287.93 332.01L287.93 331.7"
fill="none" stroke="black" stroke-width="0.5"/>
<path d="M287.93 331.7L287.62 331.38"
fill="none" stroke="black" stroke-width="0.5"/>
<path d="M287.62 331.38L287.62 331.38"
fill="none" stroke="black" stroke-width="0.5"/>
<path d="M287.62 331.38L287.62 330.76"
fill="none" stroke="black" stroke-width="0.5"/>
<path d="M287.62 330.76L287.62 330.45"
fill="none" stroke="black" stroke-width="0.5"/>
<path d="M287.62 330.45L287.31 329.52"
fill="none" stroke="black" stroke-width="0.5"/>
<path d="M287.31 329.52L287.31 329.21"
fill="none" stroke="black" stroke-width="0.5"/>
<path d="M287.31 329.21L287 328.59"
fill="none" stroke="black" stroke-width="0.5"/>
<path d="M287 328.59L286.69 327.66"
fill="none" stroke="black" stroke-width="0.5"/>
<path d="M286.69 327.66L286.69 327.04"
fill="none" stroke="black" stroke-width="0.5"/>
<path d="M286.69 327.04L286.69 326.41"
fill="none" stroke="black" stroke-width="0.5"/>
<path d="M286.69 326.41L286.69 325.79"
fill="none" stroke="black" stroke-width="0.5"/>
<path d="M286.69 325.79L286.69 324.86"
fill="none" stroke="black" stroke-width="0.5"/>
<path d="M286.69 324.86L286.69 324.24"
fill="none" stroke="black" stroke-width="0.5"/>
<path d="M286.69 324.24L286.38 323.93"
fill="none" stroke="black" stroke-width="0.5"/>
<path d="M286.38 323.93L286.38 323"
fill="none" stroke="black" stroke-width="0.5"/>
<path d="M286.38 323L286.38 322.38"
fill="none" stroke="black" stroke-width="0.5"/>
<path d="M286.38 322.38L286.38 322.06"
fill="none" stroke="black" stroke-width="0.5"/>
<path d="M286.38 322.06L286.38 321.13"
fill="none" stroke="black" stroke-width="0.5"/>
<path d="M286.38 321.13L286.38 320.82"
fill="none" stroke="black" stroke-width="0.5"/>
<path d="M286.38 320.82L286.38 320.2"
fill="none" stroke="black" stroke-width="0.5"/>
<path d="M286.38 320.2L286.07 319.27"
fill="none" stroke="black" stroke-width="0.5"/>
<path d="M286.07 319.27L286.38 318.34"
fill="none" stroke="black" stroke-width="0.5"/>
<path d="M286.38 318.34L286.38 317.4"
fill="none" stroke="black" stroke-width="0.5"/>
<path d="M286.38 317.4L286.38 316.47"
fill="none" stroke="black" stroke-width="0.5"/>
<path d="M286.38 316.47L286.38 315.54"
fill="none" stroke="black" stroke-width="0.5"/>
<path d="M286.38 315.54L286.38 314.61"
fill="none" stroke="black" stroke-width="0.5"/>
<path d="M286.38 314.61L286.38 313.68"
fill="none" stroke="black" stroke-width="0.5"/>
<path d="M286.38 313.68L286.38 313.37"
fill="none" stroke="black" stroke-width="0.5"/>
<path d="M286.38 313.37L286.38 312.74"
fill="none" stroke="black" stroke-width="0.5"/>
<path d="M286.38 312.74L286.38 312.43"
fill="none" stroke="black" stroke-width="0.5"/>
<path d="M286.38 312.43L286.69 311.81"
fill="none" stroke="black" stroke-width="0.5"/>
<path d="M286.69 311.81L286.69 311.19"
fill="none" stroke="black" stroke-width="0.5"/>
<path d="M286.69 311.19L286.69 310.88"
fill="none" stroke="black" stroke-width="0.5"/>
<path d="M286.69 310.88L287 310.57"
fill="none" stroke="black" stroke-width="0.5"/>
<path d="M287 310.57L287 310.26"
fill="none" stroke="black" stroke-width="0.5"/>
<path d="M287 310.26L287 309.95"
fill="none" stroke="black" stroke-width="0.5"/>
<path d="M287 309.95L287 309.64"
fill="none" stroke="black" stroke-width="0.5"/>
<path d="M287 309.64L287.31 309.02"
fill="none" stroke="black" stroke-width="0.5"/>
<path d="M287.31 309.02L287.31 308.71"
fill="none" stroke="black" stroke-width="0.5"/>
<path d="M287.31 308.71L287.31 308.08"
fill="none" stroke="black" stroke-width="0.5"/>
<path d="M287.31 308.08L287.31 307.77"
fill="none" stroke="black" stroke-width="0.5"/>
<path d="M287.31 307.77L287.31 307.15"
fill="none" stroke="black" stroke-width="0.5"/>
<path d="M287.31 307.15L287.62 306.84"
fill="none" stroke="black" stroke-width="0.5"/>
<path d="M287.62 306.84L287.93 306.22"
fill="none" stroke="black" stroke-width="0.5"/>
<path d="M287.93 306.22L288.24 305.91"
fill="none" stroke="black" stroke-width="0.5"/>
<path d="M288.24 305.91L288.24 305.6"
fill="none" stroke="black" stroke-width="0.5"/>
<path d="M288.24 305.6L288.24 305.29"
fill="none" stroke="black" stroke-width="0.5"/>
<path d="M288.24 305.29L288.86 304.36"
fill="none" stroke="black" stroke-width="0.5"/>
<path d="M288.86 304.36L289.17 304.05"
fill="none" stroke="black" stroke-width="0.5"/>
<path d="M289.17 304.05L289.17 303.42"
fill="none" stroke="black" stroke-width="0.5"/>
<path d="M289.17 303.42L289.48 303.11"
fill="none" stroke="black" stroke-width="0.5"/>
<path d="M289.48 303.11L290.1 302.49"
fill="none" stroke="black" stroke-width="0.5"/>
<path d="M290.1 302.49L290.1 301.87"
fill="none" stroke="black" stroke-width="0.5"/>
<path d="M290.1 301.87L290.73 301.25"
fill="none" stroke="black" stroke-width="0.5"/>
<path d="M290.73 301.25L291.04 300.32"
fill="none" stroke="black" stroke-width="0.5"/>
<path d="M291.04 300.32L291.66 299.7"
fill="none" stroke="black" stroke-width="0.5"/>
<path d="M291.66 299.7L291.97 298.76"
fill="none" stroke="black" stroke-width="0.5"/>
<path d="M291.97 298.76L292.9 297.83"
fill="none" stroke="black" stroke-width="0.5"/>
<path d="M292.9 297.83L292.9 297.21"
fill="none" stroke="black" stroke-width="0.5"/>
<path d="M292.9 297.21L294.14 295.97"
fill="none" stroke="black" stroke-width="0.5"/>
<path d="M294.14 295.97L294.45 295.35"
fill="none" stroke="black" stroke-width="0.5"/>
<path d="M294.45 295.35L295.08 295.04"
fill="none" stroke="black" stroke-width="0.5"/>
<path d="M295.08 295.04L295.7 293.79"
fill="none" stroke="black" stroke-width="0.5"/>
<path d="M295.7 293.79L296.32 293.17"
fill="none" stroke="black" stroke-width="0.5"/>
<path d="M296.32 293.17L296.63 292.86"
fill="none" stroke="black" stroke-width="0.5"/>
<path d="M296.63 292.86L296.94 292.24"
fill="none" stroke="black" stroke-width="0.5"/>
<path d="M296.94 292.24L297.56 290.69"
fill="none" stroke="black" stroke-width="0.5"/>
<path d="M297.56 290.69L298.18 290.06"
fill="none" stroke="black" stroke-width="0.5"/>
<path d="M298.18 290.06L299.11 288.51"
fill="none" stroke="black" stroke-width="0.5"/>
<path d="M299.11 288.51L299.74 287.58"
fill="none" stroke="black" stroke-width="0.5"/>
<path d="M299.74 287.58L300.05 286.65"
fill="none" stroke="black" stroke-width="0.5"/>
<path d="M300.05 286.65L300.36 286.03"
fill="none" stroke="black" stroke-width="0.5"/>
<path d="M300.36 286.03L301.29 284.78"
fill="none" stroke="black" stroke-width="0.5"/>
<path d="M301.29 284.78L301.29 284.16"
fill="none" stroke="black" stroke-width="0.5"/>
<path d="M301.29 284.16L301.6 283.85"
fill="none" stroke="black" stroke-width="0.5"/>
<path d="M301.6 283.85L302.22 282.61"
fill="none" stroke="black" stroke-width="0.5"/>
<path d="M302.22 282.61L302.53 281.99"
fill="none" stroke="black" stroke-width="0.5"/>
<path d="M302.53 281.99L303.15 280.12"
fill="none" stroke="black" stroke-width="0.5"/>
<path d="M303.15 280.12L303.46 279.19"
fill="none" stroke="black" stroke-width="0.5"/>
<path d="M303.46 279.19L304.09 277.33"
fill="none" stroke="black" stroke-width="0.5"/>
<path d="M304.09 277.33L304.4 275.77"
fill="none" stroke="black" stroke-width="0.5"/>
<path d="M304.4 275.77L304.71 274.84"
fill="none" stroke="black" stroke-width="0.5"/>
<path d="M304.71 274.84L305.02 272.67"
fill="none" stroke="black" stroke-width="0.5"/>
<path d="M305.02 272.67L305.33 272.04"
fill="none" stroke="black" stroke-width="0.5"/>
<path d="M305.33 272.04L305.64 270.49"
fill="none" stroke="black" stroke-width="0.5"/>
<path d="M305.64 270.49L305.64 269.56"
fill="none" stroke="black" stroke-width="0.5"/>
<path d="M305.64 269.56L305.95 267.7"
fill="none" stroke="black" stroke-width="0.5"/>
<path d="M305.95 267.7L305.95 266.14"
fill="none" stroke="black" stroke-width="0.5"/>
<path d="M305.95 266.14L306.26 265.21"
fill="none" stroke="black" stroke-width="0.5"/>
<path d="M306.26 265.21L306.57 263.35"
fill="none" stroke="black" stroke-width="0.5"/>
<path d="M306.57 263.35L306.57 262.41"
fill="none" stroke="black" stroke-width="0.5"/>
<path d="M306.57 262.41L306.88 260.55"
fill="none" stroke="black" stroke-width="0.5"/>
<path d="M306.88 260.55L306.88 258.69"
fill="none" stroke="black" stroke-width="0.5"/>
<path d="M306.88 258.69L306.88 258.06"
fill="none" stroke="black" stroke-width="0.5"/>
<path d="M306.88 258.06L306.57 256.82"
fill="none" stroke="black" stroke-width="0.5"/>
<path d="M306.57 256.82L306.57 255.27"
fill="none" stroke="black" stroke-width="0.5"/>
<path d="M306.57 255.27L306.26 254.96"
fill="none" stroke="black" stroke-width="0.5"/>
<path d="M306.26 254.96L306.26 253.4"
fill="none" stroke="black" stroke-width="0.5"/>
<path d="M306.26 253.4L306.26 252.16"
fill="none" stroke="black" stroke-width="0.5"/>
<path d="M306.26 252.16L305.95 250.92"
fill="none" stroke="black" stroke-width="0.5"/>
<path d="M305.95 250.92L305.64 249.99"
fill="none" stroke="black" stroke-width="0.5"/>
<path d="M305.64 249.99L305.33 249.37"
fill="none" stroke="black" stroke-width="0.5"/>
<path d="M305.33 249.37L305.33 248.43"
fill="none" stroke="black" stroke-width="0.5"/>
<path d="M305.33 248.43L305.02 247.5"
fill="none" stroke="black" stroke-width="0.5"/>
<path d="M305.02 247.5L304.4 246.88"
fill="none" stroke="black" stroke-width="0.5"/>
<path d="M304.4 246.88L304.4 246.26"
fill="none" stroke="black" stroke-width="0.5"/>
<path d="M304.4 246.26L303.77 245.64"
fill="none" stroke="black" stroke-width="0.5"/>
<path d="M303.77 245.64L303.15 244.08"
fill="none" stroke="black" stroke-width="0.5"/>
<path d="M303.15 244.08L302.53 243.46"
fill="none" stroke="black" stroke-width="0.5"/>
<path d="M302.53 243.46L302.22 242.84"
fill="none" stroke="black" stroke-width="0.5"/>
<path d="M302.22 242.84L301.6 242.53"
fill="none" stroke="black" stroke-width="0.5"/>
<path d="M301.6 242.53L301.6 241.91"
fill="none" stroke="black" stroke-width="0.5"/>
<path d="M301.6 241.91L301.29 241.91"
fill="none" stroke="black" stroke-width="0.5"/>
<path d="M301.29 241.91L301.29 241.91"
fill="none" stroke="black" stroke-width="0.5"/>
<path d="M283.01 331.67L283.01 331.67"
fill="none" stroke="black" stroke-width="0.5"/>
<path d="M283.01 331.67L283.01 331.45"
fill="none" stroke="black" stroke-width="0.5"/>
<path d="M283.01 331.45L283.01 331.24"
fill="none" stroke="black" stroke-width="0.5"/>
<path d="M283.01 331.24L283.01 331.02"
fill="none" stroke="black" stroke-width="0.5"/>
<path d="M283.01 331.02L283.01 330.81"
fill="none" stroke="black" stroke-width="0.5"/>
<path d="M283.01 330.81L283.01 330.37"
fill="none" stroke="black" stroke-width="0.5"/>
<path d="M283.01 330.37L282.79 330.16"
fill="none" stroke="black" stroke-width="0.5"/>
<path d="M282.79 330.16L282.79 329.73"
fill="none" stroke="black" stroke-width="0.5"/>
<path d="M282.79 329.73L282.79 329.51"
fill="none" stroke="black" stroke-width="0.5"/>
<path d="M282.79 329.51L282.57 329.3"
fill="none" stroke="black" stroke-width="0.5"/>
<path d="M282.57 329.3L282.57 329.08"
fill="none" stroke="black" stroke-width="0.5"/>
<path d="M282.57 329.08L282.57 328.65"
fill="none" stroke="black" stroke-width="0.5"/>
<path d="M282.57 328.65L282.57 328.22"
fill="none" stroke="black" stroke-width="0.5"/>
<path d="M282.57 328.22L282.36 327.79"
fill="none" stroke="black" stroke-width="0.5"/>
<path d="M282.36 327.79L282.36 327.14"
fill="none" stroke="black" stroke-width="0.5"/>
<path d="M282.36 327.14L282.14 326.92"
fill="none" stroke="black" stroke-width="0.5"/>
<path d="M282.14 326.92L281.93 326.49"
fill="none" stroke="black" stroke-width="0.5"/>
<path d="M281.93 326.49L281.93 325.84"
fill="none" stroke="black" stroke-width="0.5"/>
<path d="M281.93 325.84L281.71 325.41"
fill="none" stroke="black" stroke-width="0.5"/>
<path d="M281.71 325.41L281.28 324.76"
fill="none" stroke="black" stroke-width="0.5"/>
<path d="M281.28 324.76L281.28 324.55"
fill="none" stroke="black" stroke-width="0.5"/>
<path d="M281.28 324.55L281.28 323.9"
fill="none" stroke="black" stroke-width="0.5"/>
<path d="M281.28 323.9L281.28 323.69"
fill="none" stroke="black" stroke-width="0.5"/>
<path d="M281.28 323.69L281.28 323.25"
fill="none" stroke="black" stroke-width="0.5"/>
<path d="M281.28 323.25L281.06 323.25"
fill="none" stroke="black" stroke-width="0.5"/>
<path d="M281.06 323.25L281.06 322.82"
fill="none" stroke="black" stroke-width="0.5"/>
<path d="M281.06 322.82L281.06 322.61"
fill="none" stroke="black" stroke-width="0.5"/>
<path d="M281.06 322.61L280.85 322.39"
fill="none" stroke="black" stroke-width="0.5"/>
<path d="M280.85 322.39L280.85 321.96"
fill="none" stroke="black" stroke-width="0.5"/>
<path d="M280.85 321.96L280.63 321.96"
fill="none" stroke="black" stroke-width="0.5"/>
<path d="M280.63 321.96L280.63 321.74"
fill="none" stroke="black" stroke-width="0.5"/>
<path d="M280.63 321.74L280.63 321.53"
fill="none" stroke="black" stroke-width="0.5"/>
<path d="M280.63 321.53L280.63 321.31"
fill="none" stroke="black" stroke-width="0.5"/>
<path d="M280.63 321.31L280.63 321.1"
fill="none" stroke="black" stroke-width="0.5"/>
<path d="M280.63 321.1L280.42 320.88"
fill="none" stroke="black" stroke-width="0.5"/>
<path d="M280.42 320.88L280.42 320.67"
fill="none" stroke="black" stroke-width="0.5"/>
<path d="M280.42 320.67L280.42 320.45"
fill="none" stroke="black" stroke-width="0.5"/>
<path d="M280.42 320.45L280.42 320.23"
fill="none" stroke="black" stroke-width="0.5"/>
<path d="M280.42 320.23L280.2 320.02"
fill="none" stroke="black" stroke-width="0.5"/>
<path d="M280.2 320.02L280.2 320.02"
fill="none" stroke="black" stroke-width="0.5"/>
<path d="M280.2 320.02L280.2 319.8"
fill="none" stroke="black" stroke-width="0.5"/>
<path d="M280.2 319.8L280.2 319.59"
fill="none" stroke="black" stroke-width="0.5"/>
<path d="M280.2 319.59L280.2 319.37"
fill="none" stroke="black" stroke-width="0.5"/>
<path d="M280.2 319.37L280.2 319.37"
fill="none" stroke="black" stroke-width="0.5"/>
<path d="M280.2 319.37L280.2 319.16"
fill="none" stroke="black" stroke-width="0.5"/>
<path d="M280.2 319.16L280.2 318.94"
fill="none" stroke="black" stroke-width="0.5"/>
<path d="M280.2 318.94L280.2 318.72"
fill="none" stroke="black" stroke-width="0.5"/>
<path d="M280.2 318.72L280.2 318.51"
fill="none" stroke="black" stroke-width="0.5"/>
<path d="M280.2 318.51L280.2 318.29"
fill="none" stroke="black" stroke-width="0.5"/>
<path d="M280.2 318.29L280.42 318.08"
fill="none" stroke="black" stroke-width="0.5"/>
<path d="M280.42 318.08L280.42 317.64"
fill="none" stroke="black" stroke-width="0.5"/>
<path d="M280.42 317.64L280.42 317.43"
fill="none" stroke="black" stroke-width="0.5"/>
<path d="M280.42 317.43L280.42 317.21"
fill="none" stroke="black" stroke-width="0.5"/>
<path d="M280.42 317.21L280.42 317"
fill="none" stroke="black" stroke-width="0.5"/>
<path d="M280.42 317L280.42 316.57"
fill="none" stroke="black" stroke-width="0.5"/>
<path d="M280.42 316.57L280.42 316.13"
fill="none" stroke="black" stroke-width="0.5"/>
<path d="M280.42 316.13L280.42 316.13"
fill="none" stroke="black" stroke-width="0.5"/>
<path d="M280.42 316.13L280.63 315.92"
fill="none" stroke="black" stroke-width="0.5"/>
<path d="M280.63 315.92L280.63 315.7"
fill="none" stroke="black" stroke-width="0.5"/>
<path d="M280.63 315.7L280.63 315.49"
fill="none" stroke="black" stroke-width="0.5"/>
<path d="M280.63 315.49L280.63 315.06"
fill="none" stroke="black" stroke-width="0.5"/>
<path d="M280.63 315.06L280.85 314.84"
fill="none" stroke="black" stroke-width="0.5"/>
<path d="M280.85 314.84L281.06 314.41"
fill="none" stroke="black" stroke-width="0.5"/>
<path d="M281.06 314.41L281.06 314.19"
fill="none" stroke="black" stroke-width="0.5"/>
<path d="M281.06 314.19L281.06 313.98"
fill="none" stroke="black" stroke-width="0.5"/>
<path d="M281.06 313.98L281.06 313.76"
fill="none" stroke="black" stroke-width="0.5"/>
<path d="M281.06 313.76L281.28 312.9"
fill="none" stroke="black" stroke-width="0.5"/>
<path d="M281.28 312.9L281.5 312.9"
fill="none" stroke="black" stroke-width="0.5"/>
<path d="M281.5 312.9L281.5 312.47"
fill="none" stroke="black" stroke-width="0.5"/>
<path d="M281.5 312.47L281.71 312.25"
fill="none" stroke="black" stroke-width="0.5"/>
<path d="M281.71 312.25L281.71 312.04"
fill="none" stroke="black" stroke-width="0.5"/>
<path d="M281.71 312.04L281.71 311.82"
fill="none" stroke="black" stroke-width="0.5"/>
<path d="M281.71 311.82L281.71 311.82"
fill="none" stroke="black" stroke-width="0.5"/>
<path d="M281.71 311.82L281.71 311.39"
fill="none" stroke="black" stroke-width="0.5"/>
<path d="M281.71 311.39L281.93 311.17"
fill="none" stroke="black" stroke-width="0.5"/>
<path d="M281.93 311.17L281.93 310.96"
fill="none" stroke="black" stroke-width="0.5"/>
<path d="M281.93 310.96L282.14 310.52"
fill="none" stroke="black" stroke-width="0.5"/>
<path d="M282.14 310.52L282.14 310.31"
fill="none" stroke="black" stroke-width="0.5"/>
<path d="M282.14 310.31L282.14 310.31"
fill="none" stroke="black" stroke-width="0.5"/>
<path d="M282.14 310.31L282.36 310.09"
fill="none" stroke="black" stroke-width="0.5"/>
<path d="M282.36 310.09L282.36 309.66"
fill="none" stroke="black" stroke-width="0.5"/>
<path d="M282.36 309.66L282.57 309.45"
fill="none" stroke="black" stroke-width="0.5"/>
<path d="M282.57 309.45L282.79 309.01"
fill="none" stroke="black" stroke-width="0.5"/>
<path d="M282.79 309.01L283.01 308.58"
fill="none" stroke="black" stroke-width="0.5"/>
<path d="M283.01 308.58L283.01 308.37"
fill="none" stroke="black" stroke-width="0.5"/>
<path d="M283.01 308.37L283.01 307.72"
fill="none" stroke="black" stroke-width="0.5"/>
<path d="M283.01 307.72L283.22 307.5"
fill="none" stroke="black" stroke-width="0.5"/>
<path d="M283.22 307.5L283.65 306.64"
fill="none" stroke="black" stroke-width="0.5"/>
<path d="M283.65 306.64L283.65 306.21"
fill="none" stroke="black" stroke-width="0.5"/>
<path d="M283.65 306.21L283.87 305.99"
fill="none" stroke="black" stroke-width="0.5"/>
<path d="M283.87 305.99L283.87 305.78"
fill="none" stroke="black" stroke-width="0.5"/>
<path d="M283.87 305.78L284.08 305.78"
fill="none" stroke="black" stroke-width="0.5"/>
<path d="M284.08 305.78L284.08 305.56"
fill="none" stroke="black" stroke-width="0.5"/>
<path d="M284.08 305.56L284.3 305.13"
fill="none" stroke="black" stroke-width="0.5"/>
<path d="M284.3 305.13L284.3 304.7"
fill="none" stroke="black" stroke-width="0.5"/>
<path d="M284.3 304.7L284.3 304.27"
fill="none" stroke="black" stroke-width="0.5"/>
<path d="M284.3 304.27L284.52 303.84"
fill="none" stroke="black" stroke-width="0.5"/>
<path d="M284.52 303.84L284.73 303.62"
fill="none" stroke="black" stroke-width="0.5"/>
<path d="M284.73 303.62L284.95 303.19"
fill="none" stroke="black" stroke-width="0.5"/>
<path d="M284.95 303.19L284.95 303.19"
fill="none" stroke="black" stroke-width="0.5"/>
<path d="M284.95 303.19L285.16 302.54"
fill="none" stroke="black" stroke-width="0.5"/>
<path d="M285.16 302.54L285.59 302.11"
fill="none" stroke="black" stroke-width="0.5"/>
<path d="M285.59 302.11L285.59 301.68"
fill="none" stroke="black" stroke-width="0.5"/>
<path d="M285.59 301.68L285.59 301.46"
fill="none" stroke="black" stroke-width="0.5"/>
<path d="M285.59 301.46L285.81 301.25"
fill="none" stroke="black" stroke-width="0.5"/>
<path d="M285.81 301.25L286.24 300.6"
fill="none" stroke="black" stroke-width="0.5"/>
<path d="M286.24 300.6L286.24 300.17"
fill="none" stroke="black" stroke-width="0.5"/>
<path d="M286.24 300.17L286.46 299.95"
fill="none" stroke="black" stroke-width="0.5"/>
<path d="M286.46 299.95L286.89 298.87"
fill="none" stroke="black" stroke-width="0.5"/>
<path d="M286.89 298.87L287.1 298.66"
fill="none" stroke="black" stroke-width="0.5"/>
<path d="M287.1 298.66L287.32 298.44"
fill="none" stroke="black" stroke-width="0.5"/>
<path d="M287.32 298.44L287.54 298.01"
fill="none" stroke="black" stroke-width="0.5"/>
<path d="M287.54 298.01L287.75 297.8"
fill="none" stroke="black" stroke-width="0.5"/>
<path d="M287.75 297.8L288.18 297.36"
fill="none" stroke="black" stroke-width="0.5"/>
<path d="M288.18 297.36L288.4 296.72"
fill="none" stroke="black" stroke-width="0.5"/>
<path d="M288.4 296.72L288.83 296.29"
fill="none" stroke="black" stroke-width="0.5"/>
<path d="M288.83 296.29L289.48 295.64"
fill="none" stroke="black" stroke-width="0.5"/>
<path d="M289.48 295.64L289.48 295.21"
fill="none" stroke="black" stroke-width="0.5"/>
<path d="M289.48 295.21L289.91 294.78"
fill="none" stroke="black" stroke-width="0.5"/>
<path d="M289.91 294.78L290.13 294.56"
fill="none" stroke="black" stroke-width="0.5"/>
<path d="M290.13 294.56L290.56 294.13"
fill="none" stroke="black" stroke-width="0.5"/>
<path d="M290.56 294.13L290.77 293.7"
fill="none" stroke="black" stroke-width="0.5"/>
<path d="M290.77 293.7L291.42 293.26"
fill="none" stroke="black" stroke-width="0.5"/>
<path d="M291.42 293.26L291.85 292.83"
fill="none" stroke="black" stroke-width="0.5"/>
<path d="M291.85 292.83L292.07 292.62"
fill="none" stroke="black" stroke-width="0.5"/>
<path d="M292.07 292.62L292.5 292.19"
fill="none" stroke="black" stroke-width="0.5"/>
<path d="M292.5 292.19L292.71 291.97"
fill="none" stroke="black" stroke-width="0.5"/>
<path d="M292.71 291.97L292.93 291.54"
fill="none" stroke="black" stroke-width="0.5"/>
<path d="M292.93 291.54L293.36 290.89"
fill="none" stroke="black" stroke-width="0.5"/>
<path d="M293.36 290.89L294.01 290.46"
fill="none" stroke="black" stroke-width="0.5"/>
<path d="M294.01 290.46L294.22 290.24"
fill="none" stroke="black" stroke-width="0.5"/>
<path d="M294.22 290.24L294.66 289.6"
fill="none" stroke="black" stroke-width="0.5"/>
<path d="M294.66 289.6L294.87 289.38"
fill="none" stroke="black" stroke-width="0.5"/>
<path d="M294.87 289.38L295.3 288.73"
fill="none" stroke="black" stroke-width="0.5"/>
<path d="M295.3 288.73L295.52 288.3"
fill="none" stroke="black" stroke-width="0.5"/>
<path d="M295.52 288.3L295.95 287.87"
fill="none" stroke="black" stroke-width="0.5"/>
<path d="M295.95 287.87L296.17 287.22"
fill="none" stroke="black" stroke-width="0.5"/>
<path d="M296.17 287.22L296.6 286.36"
fill="none" stroke="black" stroke-width="0.5"/>
<path d="M296.6 286.36L296.81 285.93"
fill="none" stroke="black" stroke-width="0.5"/>
<path d="M296.81 285.93L297.03 285.71"
fill="none" stroke="black" stroke-width="0.5"/>
<path d="M297.03 285.71L297.25 285.5"
fill="none" stroke="black" stroke-width="0.5"/>
<path d="M297.25 285.5L297.25 284.85"
fill="none" stroke="black" stroke-width="0.5"/>
<path d="M297.25 284.85L297.46 284.42"
fill="none" stroke="black" stroke-width="0.5"/>
<path d="M297.46 284.42L297.89 283.77"
fill="none" stroke="black" stroke-width="0.5"/>
<path d="M297.89 283.77L297.89 283.12"
fill="none" stroke="black" stroke-width="0.5"/>
<path d="M297.89 283.12L298.11 282.48"
fill="none" stroke="black" stroke-width="0.5"/>
<path d="M298.11 282.48L298.32 282.48"
fill="none" stroke="black" stroke-width="0.5"/>
<path d="M298.32 282.48L298.32 282.26"
fill="none" stroke="black" stroke-width="0.5"/>
<path d="M298.32 282.26L298.32 281.83"
fill="none" stroke="black" stroke-width="0.5"/>
<path d="M298.32 281.83L298.54 281.4"
fill="none" stroke="black" stroke-width="0.5"/>
<path d="M298.54 281.4L298.76 280.97"
fill="none" stroke="black" stroke-width="0.5"/>
<path d="M298.76 280.97L298.76 280.75"
fill="none" stroke="black" stroke-width="0.5"/>
<path d="M298.76 280.75L298.76 280.54"
fill="none" stroke="black" stroke-width="0.5"/>
<path d="M298.76 280.54L298.76 280.54"
fill="none" stroke="black" stroke-width="0.5"/>
<path d="M299.32 280.66L299.32 280.66"
fill="none" stroke="black" stroke-width="0.5"/>
<path d="M299.32 280.66L299.42 280.56"
fill="none" stroke="black" stroke-width="0.5"/>
<path d="M299.42 280.56L299.42 280.45"
fill="none" stroke="black" stroke-width="0.5"/>
<path d="M299.42 280.45L299.53 280.35"
fill="none" stroke="black" stroke-width="0.5"/>
<path d="M299.53 280.35L299.53 280.35"
fill="none" stroke="black" stroke-width="0.5"/>
<path d="M299.53 280.35L299.53 280.25"
fill="none" stroke="black" stroke-width="0.5"/>
<path d="M299.53 280.25L299.53 280.14"
fill="none" stroke="black" stroke-width="0.5"/>
<path d="M299.53 280.14L299.53 280.04"
fill="none" stroke="black" stroke-width="0.5"/>
<path d="M299.53 280.04L299.63 279.83"
fill="none" stroke="black" stroke-width="0.5"/>
<path d="M299.63 279.83L299.63 279.73"
fill="none" stroke="black" stroke-width="0.5"/>
<path d="M299.63 279.73L299.74 279.62"
fill="none" stroke="black" stroke-width="0.5"/>
<path d="M299.74 279.62L299.74 279.41"
fill="none" stroke="black" stroke-width="0.5"/>
<path d="M299.74 279.41L299.84 279.31"
fill="none" stroke="black" stroke-width="0.5"/>
<path d="M299.84 279.31L299.95 279.1"
fill="none" stroke="black" stroke-width="0.5"/>
<path d="M299.95 279.1L300.05 278.79"
fill="none" stroke="black" stroke-width="0.5"/>
<path d="M300.05 278.79L300.15 278.48"
fill="none" stroke="black" stroke-width="0.5"/>
<path d="M300.15 278.48L300.36 278.17"
fill="none" stroke="black" stroke-width="0.5"/>
<path d="M300.36 278.17L300.47 277.96"
fill="none" stroke="black" stroke-width="0.5"/>
<path d="M300.47 277.96L300.47 277.85"
fill="none" stroke="black" stroke-width="0.5"/>
<path d="M300.47 277.85L300.57 277.65"
fill="none" stroke="black" stroke-width="0.5"/>
<path d="M300.57 277.65L300.67 277.44"
fill="none" stroke="black" stroke-width="0.5"/>
<path d="M300.67 277.44L300.78 277.12"
fill="none" stroke="black" stroke-width="0.5"/>
<path d="M300.78 277.12L300.78 276.81"
fill="none" stroke="black" stroke-width="0.5"/>
<path d="M300.78 276.81L300.88 276.5"
fill="none" stroke="black" stroke-width="0.5"/>
<path d="M300.88 276.5L300.99 276.29"
fill="none" stroke="black" stroke-width="0.5"/>
<path d="M300.99 276.29L301.09 276.08"
fill="none" stroke="black" stroke-width="0.5"/>
<path d="M301.09 276.08L301.09 275.88"
fill="none" stroke="black" stroke-width="0.5"/>
<path d="M301.09 275.88L301.09 275.67"
fill="none" stroke="black" stroke-width="0.5"/>
<path d="M301.09 275.67L301.19 275.67"
fill="none" stroke="black" stroke-width="0.5"/>
<path d="M301.19 275.67L301.19 275.46"
fill="none" stroke="black" stroke-width="0.5"/>
<path d="M301.19 275.46L301.3 275.36"
fill="none" stroke="black" stroke-width="0.5"/>
<path d="M301.3 275.36L301.4 275.25"
fill="none" stroke="black" stroke-width="0.5"/>
<path d="M301.4 275.25L301.4 275.15"
fill="none" stroke="black" stroke-width="0.5"/>
<path d="M301.4 275.15L301.4 275.04"
fill="none" stroke="black" stroke-width="0.5"/>
<path d="M301.4 275.04L301.4 274.94"
fill="none" stroke="black" stroke-width="0.5"/>
<path d="M301.4 274.94L301.4 274.84"
fill="none" stroke="black" stroke-width="0.5"/>
<path d="M301.4 274.84L301.4 274.73"
fill="none" stroke="black" stroke-width="0.5"/>
<path d="M301.4 274.73L301.51 274.63"
fill="none" stroke="black" stroke-width="0.5"/>
<path d="M301.51 274.63L301.51 274.42"
fill="none" stroke="black" stroke-width="0.5"/>
<path d="M301.51 274.42L301.61 274.21"
fill="none" stroke="black" stroke-width="0.5"/>
<path d="M301.61 274.21L301.61 274"
fill="none" stroke="black" stroke-width="0.5"/>
<path d="M301.61 274L301.71 273.8"
fill="none" stroke="black" stroke-width="0.5"/>
<path d="M301.71 273.8L301.71 273.48"
fill="none" stroke="black" stroke-width="0.5"/>
<path d="M301.71 273.48L301.71 273.17"
fill="none" stroke="black" stroke-width="0.5"/>
<path d="M301.71 273.17L301.71 272.96"
fill="none" stroke="black" stroke-width="0.5"/>
<path d="M301.71 272.96L301.82 272.55"
fill="none" stroke="black" stroke-width="0.5"/>
<path d="M301.82 272.55L301.92 272.44"
fill="none" stroke="black" stroke-width="0.5"/>
<path d="M301.92 272.44L301.92 272.34"
fill="none" stroke="black" stroke-width="0.5"/>
<path d="M301.92 272.34L301.92 272.23"
fill="none" stroke="black" stroke-width="0.5"/>
<path d="M301.92 272.23L302.03 272.03"
fill="none" stroke="black" stroke-width="0.5"/>
<path d="M302.03 272.03L302.03 271.71"
fill="none" stroke="black" stroke-width="0.5"/>
<path d="M302.03 271.71L302.03 271.61"
fill="none" stroke="black" stroke-width="0.5"/>
<path d="M302.03 271.61L302.03 271.3"
fill="none" stroke="black" stroke-width="0.5"/>
<path d="M302.03 271.3L302.13 271.19"
fill="none" stroke="black" stroke-width="0.5"/>
<path d="M302.13 271.19L302.13 270.88"
fill="none" stroke="black" stroke-width="0.5"/>
<path d="M302.13 270.88L302.23 270.67"
fill="none" stroke="black" stroke-width="0.5"/>
<path d="M302.23 270.67L302.23 270.57"
fill="none" stroke="black" stroke-width="0.5"/>
<path d="M302.23 270.57L302.34 270.36"
fill="none" stroke="black" stroke-width="0.5"/>
<path d="M302.34 270.36L302.34 270.05"
fill="none" stroke="black" stroke-width="0.5"/>
<path d="M302.34 270.05L302.55 269.84"
fill="none" stroke="black" stroke-width="0.5"/>
<path d="M302.55 269.84L302.55 269.63"
fill="none" stroke="black" stroke-width="0.5"/>
<path d="M302.55 269.63L302.65 269.43"
fill="none" stroke="black" stroke-width="0.5"/>
<path d="M302.65 269.43L302.65 269.11"
fill="none" stroke="black" stroke-width="0.5"/>
<path d="M302.65 269.11L302.75 269.01"
fill="none" stroke="black" stroke-width="0.5"/>
<path d="M302.75 269.01L302.75 268.8"
fill="none" stroke="black" stroke-width="0.5"/>
<path d="M302.75 268.8L302.86 268.49"
fill="none" stroke="black" stroke-width="0.5"/>
<path d="M302.86 268.49L302.86 268.28"
fill="none" stroke="black" stroke-width="0.5"/>
<path d="M302.86 268.28L302.96 267.86"
fill="none" stroke="black" stroke-width="0.5"/>
<path d="M302.96 267.86L302.96 267.86"
fill="none" stroke="black" stroke-width="0.5"/>
<path d="M302.96 267.86L302.96 267.55"
fill="none" stroke="black" stroke-width="0.5"/>
<path d="M302.96 267.55L302.96 267.34"
fill="none" stroke="black" stroke-width="0.5"/>
<path d="M302.96 267.34L303.07 266.93"
fill="none" stroke="black" stroke-width="0.5"/>
<path d="M303.07 266.93L303.27 266.51"
fill="none" stroke="black" stroke-width="0.5"/>
<path d="M303.27 266.51L303.27 266.3"
fill="none" stroke="black" stroke-width="0.5"/>
<path d="M303.27 266.3L303.27 266.1"
fill="none" stroke="black" stroke-width="0.5"/>
<path d="M303.27 266.1L303.27 265.99"
fill="none" stroke="black" stroke-width="0.5"/>
<path d="M303.27 265.99L303.27 265.58"
fill="none" stroke="black" stroke-width="0.5"/>
<path d="M303.27 265.58L303.38 265.16"
fill="none" stroke="black" stroke-width="0.5"/>
<path d="M303.38 265.16L303.38 265.06"
fill="none" stroke="black" stroke-width="0.5"/>
<path d="M303.38 265.06L303.48 264.64"
fill="none" stroke="black" stroke-width="0.5"/>
<path d="M303.48 264.64L303.48 264.43"
fill="none" stroke="black" stroke-width="0.5"/>
<path d="M303.48 264.43L303.48 264.22"
fill="none" stroke="black" stroke-width="0.5"/>
<path d="M303.48 264.22L303.59 263.81"
fill="none" stroke="black" stroke-width="0.5"/>
<path d="M303.59 263.81L303.59 263.49"
fill="none" stroke="black" stroke-width="0.5"/>
<path d="M303.59 263.49L303.59 263.29"
fill="none" stroke="black" stroke-width="0.5"/>
<path d="M303.59 263.29L303.59 262.97"
fill="none" stroke="black" stroke-width="0.5"/>
<path d="M303.59 262.97L303.59 262.66"
fill="none" stroke="black" stroke-width="0.5"/>
<path d="M303.59 262.66L303.59 262.35"
fill="none" stroke="black" stroke-width="0.5"/>
<path d="M303.59 262.35L303.59 262.25"
fill="none" stroke="black" stroke-width="0.5"/>
<path d="M303.59 262.25L303.59 261.83"
fill="none" stroke="black" stroke-width="0.5"/>
<path d="M303.59 261.83L303.69 261.52"
fill="none" stroke="black" stroke-width="0.5"/>
<path d="M303.69 261.52L303.69 261.31"
fill="none" stroke="black" stroke-width="0.5"/>
<path d="M303.69 261.31L303.69 261"
fill="none" stroke="black" stroke-width="0.5"/>
<path d="M303.69 261L303.69 260.69"
fill="none" stroke="black" stroke-width="0.5"/>
<path d="M303.69 260.69L303.69 260.37"
fill="none" stroke="black" stroke-width="0.5"/>
<path d="M303.69 260.37L303.69 260.06"
fill="none" stroke="black" stroke-width="0.5"/>
<path d="M303.69 260.06L303.69 259.75"
fill="none" stroke="black" stroke-width="0.5"/>
<path d="M303.69 259.75L303.69 259.33"
fill="none" stroke="black" stroke-width="0.5"/>
<path d="M303.69 259.33L303.69 259.12"
fill="none" stroke="black" stroke-width="0.5"/>
<path d="M303.69 259.12L303.69 259.02"
fill="none" stroke="black" stroke-width="0.5"/>
<path d="M303.69 259.02L303.59 258.6"
fill="none" stroke="black" stroke-width="0.5"/>
<path d="M303.59 258.6L303.48 258.4"
fill="none" stroke="black" stroke-width="0.5"/>
<path d="M303.48 258.4L303.48 258.08"
fill="none" stroke="black" stroke-width="0.5"/>
<path d="M303.48 258.08L303.48 257.98"
fill="none" stroke="black" stroke-width="0.5"/>
<path d="M303.48 257.98L303.48 257.67"
fill="none" stroke="black" stroke-width="0.5"/>
<path d="M303.48 257.67L303.48 257.56"
fill="none" stroke="black" stroke-width="0.5"/>
<path d="M303.48 257.56L303.38 257.25"
fill="none" stroke="black" stroke-width="0.5"/>
<path d="M303.38 257.25L303.38 257.04"
fill="none" stroke="black" stroke-width="0.5"/>
<path d="M303.38 257.04L303.38 256.94"
fill="none" stroke="black" stroke-width="0.5"/>
<path d="M303.38 256.94L303.38 256.73"
fill="none" stroke="black" stroke-width="0.5"/>
<path d="M303.38 256.73L303.38 256.63"
fill="none" stroke="black" stroke-width="0.5"/>
<path d="M303.38 256.63L303.38 256.63"
fill="none" stroke="black" stroke-width="0.5"/>
<path d="M303.9 256.43L303.9 256.32"
fill="none" stroke="black" stroke-width="0.5"/>
<path d="M303.9 256.32L303.9 256.22"
fill="none" stroke="black" stroke-width="0.5"/>
<path d="M303.9 256.22L303.79 256.11"
fill="none" stroke="black" stroke-width="0.5"/>
<path d="M303.79 256.11L303.79 256.11"
fill="none" stroke="black" stroke-width="0.5"/>
<path d="M303.79 256.11L303.79 256.01"
fill="none" stroke="black" stroke-width="0.5"/>
<path d="M303.79 256.01L303.79 255.8"
fill="none" stroke="black" stroke-width="0.5"/>
<path d="M303.79 255.8L303.69 255.7"
fill="none" stroke="black" stroke-width="0.5"/>
<path d="M303.69 255.7L303.69 255.49"
fill="none" stroke="black" stroke-width="0.5"/>
<path d="M303.69 255.49L303.69 255.28"
fill="none" stroke="black" stroke-width="0.5"/>
<path d="M303.69 255.28L303.59 255.18"
fill="none" stroke="black" stroke-width="0.5"/>
<path d="M303.59 255.18L303.59 254.97"
fill="none" stroke="black" stroke-width="0.5"/>
<path d="M303.59 254.97L303.48 254.87"
fill="none" stroke="black" stroke-width="0.5"/>
<path d="M303.48 254.87L303.48 254.76"
fill="none" stroke="black" stroke-width="0.5"/>
<path d="M303.48 254.76L303.48 254.55"
fill="none" stroke="black" stroke-width="0.5"/>
<path d="M303.48 254.55L303.38 254.35"
fill="none" stroke="black" stroke-width="0.5"/>
<path d="M303.38 254.35L303.38 254.24"
fill="none" stroke="black" stroke-width="0.5"/>
<path d="M303.38 254.24L303.38 253.93"
fill="none" stroke="black" stroke-width="0.5"/>
<path d="M303.38 253.93L303.38 253.72"
fill="none" stroke="black" stroke-width="0.5"/>
<path d="M303.38 253.72L303.27 253.51"
fill="none" stroke="black" stroke-width="0.5"/>
<path d="M303.27 253.51L303.27 253.31"
fill="none" stroke="black" stroke-width="0.5"/>
<path d="M303.27 253.31L303.27 253.1"
fill="none" stroke="black" stroke-width="0.5"/>
<path d="M303.27 253.1L303.17 252.99"
fill="none" stroke="black" stroke-width="0.5"/>
<path d="M303.17 252.99L303.07 252.79"
fill="none" stroke="black" stroke-width="0.5"/>
<path d="M303.07 252.79L303.07 252.58"
fill="none" stroke="black" stroke-width="0.5"/>
<path d="M303.07 252.58L303.07 252.36"
fill="none" stroke="black" stroke-width="0.5"/>
<path d="M303.07 252.36L303.07 252.37"
fill="none" stroke="black" stroke-width="0.5"/>
<path d="M303.07 252.37L303.07 252.37"
fill="none" stroke="black" stroke-width="0.5"/>
<path d="M303.07 252.37L303.07 252.37"
fill="none" stroke="black" stroke-width="0.5"/>
<path d="M303.07 252.37L303.07 252.06"
fill="none" stroke="black" stroke-width="0.5"/>
<path d="M303.07 252.06L302.96 251.85"
fill="none" stroke="black" stroke-width="0.5"/>
<path d="M302.96 251.85L302.86 251.64"
fill="none" stroke="black" stroke-width="0.5"/>
<path d="M302.86 251.64L302.86 251.43"
fill="none" stroke="black" stroke-width="0.5"/>
<path d="M302.86 251.43L302.75 251.12"
fill="none" stroke="black" stroke-width="0.5"/>
<path d="M302.75 251.12L302.75 250.91"
fill="none" stroke="black" stroke-width="0.5"/>
<path d="M302.75 250.91L302.65 250.7"
fill="none" stroke="black" stroke-width="0.5"/>
<path d="M302.65 250.7L302.65 250.5"
fill="none" stroke="black" stroke-width="0.5"/>
<path d="M302.65 250.5L302.55 250.39"
fill="none" stroke="black" stroke-width="0.5"/>
<path d="M302.55 250.39L302.55 250.18"
fill="none" stroke="black" stroke-width="0.5"/>
<path d="M302.55 250.18L302.44 250.08"
fill="none" stroke="black" stroke-width="0.5"/>
<path d="M302.44 250.08L302.44 249.87"
fill="none" stroke="black" stroke-width="0.5"/>
<path d="M302.44 249.87L302.44 249.77"
fill="none" stroke="black" stroke-width="0.5"/>
<path d="M302.44 249.77L302.44 249.56"
fill="none" stroke="black" stroke-width="0.5"/>
<path d="M302.44 249.56L302.34 249.35"
fill="none" stroke="black" stroke-width="0.5"/>
<path d="M302.34 249.35L302.23 249.25"
fill="none" stroke="black" stroke-width="0.5"/>
<path d="M302.23 249.25L302.13 248.94"
fill="none" stroke="black" stroke-width="0.5"/>
<path d="M302.13 248.94L302.13 248.83"
fill="none" stroke="black" stroke-width="0.5"/>
<path d="M302.13 248.83L302.03 248.73"
fill="none" stroke="black" stroke-width="0.5"/>
<path d="M302.03 248.73L301.92 248.62"
fill="none" stroke="black" stroke-width="0.5"/>
<path d="M301.92 248.62L301.92 248.52"
fill="none" stroke="black" stroke-width="0.5"/>
<path d="M301.92 248.52L301.82 248.42"
fill="none" stroke="black" stroke-width="0.5"/>
<path d="M301.82 248.42L301.82 248.31"
fill="none" stroke="black" stroke-width="0.5"/>
<path d="M301.82 248.31L301.71 248.1"
fill="none" stroke="black" stroke-width="0.5"/>
<path d="M301.71 248.1L301.71 248"
fill="none" stroke="black" stroke-width="0.5"/>
<path d="M301.71 248L301.61 247.9"
fill="none" stroke="black" stroke-width="0.5"/>
<path d="M301.61 247.9L301.61 247.79"
fill="none" stroke="black" stroke-width="0.5"/>
<path d="M301.61 247.79L301.51 247.69"
fill="none" stroke="black" stroke-width="0.5"/>
<path d="M301.51 247.69L301.4 247.37"
fill="none" stroke="black" stroke-width="0.5"/>
<path d="M301.4 247.37L301.3 247.27"
fill="none" stroke="black" stroke-width="0.5"/>
<path d="M301.3 247.27L301.3 247.17"
fill="none" stroke="black" stroke-width="0.5"/>
<path d="M301.3 247.17L301.19 246.85"
fill="none" stroke="black" stroke-width="0.5"/>
<path d="M301.19 246.85L301.09 246.75"
fill="none" stroke="black" stroke-width="0.5"/>
<path d="M301.09 246.75L300.99 246.44"
fill="none" stroke="black" stroke-width="0.5"/>
<path d="M300.99 246.44L300.78 246.23"
fill="none" stroke="black" stroke-width="0.5"/>
<path d="M300.78 246.23L300.67 246.13"
fill="none" stroke="black" stroke-width="0.5"/>
<path d="M300.67 246.13L300.57 245.92"
fill="none" stroke="black" stroke-width="0.5"/>
<path d="M300.57 245.92L300.57 245.71"
fill="none" stroke="black" stroke-width="0.5"/>
<path d="M300.57 245.71L300.47 245.5"
fill="none" stroke="black" stroke-width="0.5"/>
<path d="M300.47 245.5L300.26 245.29"
fill="none" stroke="black" stroke-width="0.5"/>
<path d="M300.26 245.29L300.26 245.19"
fill="none" stroke="black" stroke-width="0.5"/>
<path d="M300.26 245.19L300.26 245.19"
fill="none" stroke="black" stroke-width="0.5"/>
<path d="M300.26 245.19L300.15 244.98"
fill="none" stroke="black" stroke-width="0.5"/>
<path d="M300.15 244.98L300.05 244.88"
fill="none" stroke="black" stroke-width="0.5"/>
<path d="M300.05 244.88L300.05 244.88"
fill="none" stroke="black" stroke-width="0.5"/>
<path d="M300.05 244.88L299.95 244.67"
fill="none" stroke="black" stroke-width="0.5"/>
<path d="M299.95 244.67L299.95 244.57"
fill="none" stroke="black" stroke-width="0.5"/>
<path d="M299.95 244.57L299.95 244.57"
fill="none" stroke="black" stroke-width="0.5"/>
<path d="M299.95 244.57L299.95 244.36"
fill="none" stroke="black" stroke-width="0.5"/>
<path d="M299.95 244.36L299.84 244.25"
fill="none" stroke="black" stroke-width="0.5"/>
<path d="M299.84 244.25L299.74 244.25"
fill="none" stroke="black" stroke-width="0.5"/>
<path d="M299.74 244.25L299.63 244.15"
fill="none" stroke="black" stroke-width="0.5"/>
<path d="M299.63 244.15L299.63 244.05"
fill="none" stroke="black" stroke-width="0.5"/>
<path d="M299.63 244.05L299.53 243.94"
fill="none" stroke="black" stroke-width="0.5"/>
<path d="M299.53 243.94L299.42 243.73"
fill="none" stroke="black" stroke-width="0.5"/>
<path d="M299.42 243.73L299.32 243.63"
fill="none" stroke="black" stroke-width="0.5"/>
<path d="M299.32 243.63L299.32 243.53"
fill="none" stroke="black" stroke-width="0.5"/>
<path d="M299.32 243.53L299.22 243.42"
fill="none" stroke="black" stroke-width="0.5"/>
<path d="M299.22 243.42L299.11 243.32"
fill="none" stroke="black" stroke-width="0.5"/>
<path d="M299.11 243.32L299.01 243.32"
fill="none" stroke="black" stroke-width="0.5"/>
<path d="M299.01 243.32L299.01 243.21"
fill="none" stroke="black" stroke-width="0.5"/>
<path d="M665.05 250.75L665.05 212.89"
fill="none" stroke="black" stroke-width="0.5"/>
<path d="M732.36 250.75L732.36 212.89"
fill="none" stroke="black" stroke-width="0.5"/>
<path d="M671.52 216.13L725.89 216.13"
fill="none" stroke="black" stroke-width="0.5"/>
<path d="M671.52 215.05L665.05 216.13 665.05 216.13 671.52 217.21 671.52 215.05Z"
fill-rule="evenodd" fill="black"/>
<path d="M725.89 217.21L732.36 216.13 732.36 216.13 725.89 215.05 725.89 217.21Z"
fill-rule="evenodd" fill="black"/>
<path d="M693.31 209.12L694.39 208.04M694.39 208.04L696.55 208.04M696.55 208.04L697.63 209.12M697.63 209.12L697.63 210.19M697.63 210.19L696.55 211.27M696.55 211.27L694.39 211.27M694.39 211.27L693.31 212.35M693.31 212.35L693.31 214.51M693.31 214.51L697.63 214.51M699.79 213.43L700.86 214.51M700.86 214.51L703.02 214.51M703.02 214.51L704.1 213.43M704.1 213.43L704.1 211.27M704.1 211.27L703.02 210.19M703.02 210.19L699.79 210.19M699.79 210.19L699.79 208.04M699.79 208.04L704.1 208.04"
fill="none" stroke="black" stroke-width="0.5"/>
<path d="M665.05 252.37L665.05 252.37"
fill="none" stroke="black" stroke-width="0.5"/>
<path d="M732.36 252.37L732.36 252.37"
fill="none" stroke="black" stroke-width="0.5"/>
<path d="M732.36 216.13L732.36 216.13"
fill="none" stroke="black" stroke-width="0.5"/>
<path d="M733.98 252.37L797.74 252.37"
fill="none" stroke="black" stroke-width="0.5"/>
<path d="M733.98 319.69L797.74 319.69"
fill="none" stroke="black" stroke-width="0.5"/>
<path d="M794.5 258.85L794.5 313.21"
fill="none" stroke="black" stroke-width="0.5"/>
<path d="M795.58 258.85L794.5 252.37 794.5 252.37 793.42 258.85 795.58 258.85Z"
fill-rule="evenodd" fill="black"/>
<path d="M793.42 313.21L794.5 319.69 794.5 319.69 795.58 313.21 793.42 313.21Z"
fill-rule="evenodd" fill="black"/>
<path d="M787.49 291.42L786.41 290.35M786.41 290.35L786.41 288.19M786.41 288.19L787.49 287.11M787.49 287.11L788.57 287.11M788.57 287.11L789.65 288.19M789.65 288.19L789.65 290.35M789.65 290.35L790.72 291.42M790.72 291.42L792.88 291.42M792.88 291.42L792.88 287.11M791.8 284.95L792.88 283.87M792.88 283.87L792.88 281.72M792.88 281.72L791.8 280.64M791.8 280.64L789.65 280.64M789.65 280.64L788.57 281.72M788.57 281.72L788.57 284.95M788.57 284.95L786.41 284.95M786.41 284.95L786.41 280.64"
fill="none" stroke="black" stroke-width="0.5"/>
<path d="M732.36 252.37L732.36 252.37"
fill="none" stroke="black" stroke-width="0.5"/>
<path d="M732.36 319.69L732.36 319.69"
fill="none" stroke="black" stroke-width="0.5"/>
<path d="M794.5 319.69L794.5 319.69"
fill="none" stroke="black" stroke-width="0.5"/>
<path d="M535.6 284.41L535.6 187"
fill="none" stroke="black" stroke-width="0.5"/>
<path d="M509.71 284.41L509.71 187"
fill="none" stroke="black" stroke-width="0.5"/>
<path d="M529.13 190.24L516.18 190.24"
fill="none" stroke="black" stroke-width="0.5"/>
<path d="M529.13 191.32L535.6 190.24 535.6 190.24 529.13 189.16 529.13 191.32Z"
fill-rule="evenodd" fill="black"/>
<path d="M516.18 189.16L509.71 190.24 509.71 190.24 516.18 191.32 516.18 189.16Z"
fill-rule="evenodd" fill="black"/>
<path d="M518.88 183.22L519.96 182.15M519.96 182.15L519.96 188.62M518.88 188.62L521.04 188.62M524.27 188.62L523.19 187.54M523.19 187.54L523.19 183.22M523.19 183.22L524.27 182.15M524.27 182.15L525.35 182.15M525.35 182.15L526.43 183.22M526.43 183.22L526.43 187.54M526.43 187.54L525.35 188.62M525.35 188.62L524.27 188.62"
fill="none" stroke="black" stroke-width="0.5"/>
<path d="M535.6 286.03L535.6 286.03"
fill="none" stroke="black" stroke-width="0.5"/>
<path d="M509.71 286.03L509.71 286.03"
fill="none" stroke="black" stroke-width="0.5"/>
<path d="M509.71 190.24L509.71 190.24"
fill="none" stroke="black" stroke-width="0.5"/>
<path d="M509.71 284.41L509.71 187"
fill="none" stroke="black" stroke-width="0.5"/>
<path d="M406.15 284.41L406.15 187"
fill="none" stroke="black" stroke-width="0.5"/>
<path d="M503.24 190.24L412.62 190.24"
fill="none" stroke="black" stroke-width="0.5"/>
<path d="M503.24 191.32L509.71 190.24 509.71 190.24 503.24 189.16 503.24 191.32Z"
fill-rule="evenodd" fill="black"/>
<path d="M412.62 189.16L406.15 190.24 406.15 190.24 412.62 191.32 412.62 189.16Z"
fill-rule="evenodd" fill="black"/>
<path d="M447.14 182.15L442.83 182.15M442.83 182.15L446.06 177.83M446.06 177.83L446.06 184.3M450.38 184.3L449.3 183.22M449.3 183.22L449.3 178.91M449.3 178.91L450.38 177.83M450.38 177.83L451.46 177.83M451.46 177.83L452.54 178.91M452.54 178.91L452.54 183.22M452.54 183.22L451.46 184.3M451.46 184.3L450.38 184.3M456.85 178.91L456.85 174.59M459.01 176.75L454.69 176.75M462.24 179.99L461.17 178.91M461.17 178.91L461.17 174.59M461.17 174.59L462.24 173.52M462.24 173.52L463.32 173.52M463.32 173.52L464.4 174.59M464.4 174.59L464.4 178.91M464.4 178.91L463.32 179.99M463.32 179.99L462.24 179.99M466.56 179.99L466.56 178.91M468.72 174.59L469.8 173.52M469.8 173.52L471.95 173.52M471.95 173.52L473.03 174.59M473.03 174.59L473.03 175.67M473.03 175.67L471.95 176.75M471.95 176.75L469.8 176.75M469.8 176.75L468.72 177.83M468.72 177.83L468.72 179.99M468.72 179.99L473.03 179.99M454.69 185.38L459.01 185.38M462.24 188.62L461.17 187.54M461.17 187.54L461.17 183.22M461.17 183.22L462.24 182.15M462.24 182.15L463.32 182.15M463.32 182.15L464.4 183.22M464.4 183.22L464.4 187.54M464.4 187.54L463.32 188.62M463.32 188.62L462.24 188.62M466.56 188.62L466.56 187.54M468.72 183.22L469.8 182.15M469.8 182.15L471.95 182.15M471.95 182.15L473.03 183.22M473.03 183.22L473.03 184.3M473.03 184.3L471.95 185.38M471.95 185.38L469.8 185.38M469.8 185.38L468.72 186.46M468.72 186.46L468.72 188.62M468.72 188.62L473.03 188.62"
fill="none" stroke="black" stroke-width="0.5"/>
<path d="M509.71 286.03L509.71 286.03"
fill="none" stroke="black" stroke-width="0.5"/>
<path d="M406.15 286.03L406.15 286.03"
fill="none" stroke="black" stroke-width="0.5"/>
<path d="M406.15 190.24L406.15 190.24"
fill="none" stroke="black" stroke-width="0.5"/>
<path d="M398.38 287.65L398.38 348.81"
fill="none" stroke="black" stroke-width="0.5"/>
<path d="M413.92 287.65L413.92 348.81"
fill="none" stroke="black" stroke-width="0.5"/>
<path d="M391.91 345.58L385.44 345.58"
fill="none" stroke="black" stroke-width="0.5"/>
<path d="M420.39 345.58L426.86 345.58"
fill="none" stroke="black" stroke-width="0.5"/>
<path d="M391.91 346.66L398.38 345.58 398.38 345.58 391.91 344.5 391.91 346.66Z"
fill-rule="evenodd" fill="black"/>
<path d="M420.39 344.5L413.92 345.58 413.92 345.58 420.39 346.66 420.39 344.5Z"
fill-rule="evenodd" fill="black"/>
<path d="M391.59 377.13L393.74 377.13M393.74 377.13L394.82 376.05M394.82 376.05L394.82 373.89M394.82 373.89L393.74 372.82M393.74 372.82L391.59 372.82M391.59 372.82L390.51 373.89M390.51 373.89L390.51 376.05M390.51 376.05L391.59 377.13M390.51 377.13L394.82 372.82M396.98 373.89L400.22 373.89M400.22 373.89L401.29 374.97M401.29 374.97L401.29 376.05M401.29 376.05L400.22 377.13M400.22 377.13L398.06 377.13M398.06 377.13L396.98 376.05M396.98 376.05L396.98 372.82M396.98 372.82L399.14 370.66M399.14 370.66L400.22 370.66M405.61 371.74L405.61 367.42M407.77 369.58L403.45 369.58M411 372.82L409.92 371.74M409.92 371.74L409.92 367.42M409.92 367.42L411 366.34M411 366.34L412.08 366.34M412.08 366.34L413.16 367.42M413.16 367.42L413.16 371.74M413.16 371.74L412.08 372.82M412.08 372.82L411 372.82M415.32 372.82L415.32 371.74M417.48 369.58L420.71 369.58M420.71 369.58L421.79 370.66M421.79 370.66L421.79 371.74M421.79 371.74L420.71 372.82M420.71 372.82L418.55 372.82M418.55 372.82L417.48 371.74M417.48 371.74L417.48 368.5M417.48 368.5L419.63 366.34M419.63 366.34L420.71 366.34M405.61 380.37L405.61 376.05M407.77 378.21L403.45 378.21M411 381.45L409.92 380.37M409.92 380.37L409.92 376.05M409.92 376.05L411 374.97M411 374.97L412.08 374.97M412.08 374.97L413.16 376.05M413.16 376.05L413.16 380.37M413.16 380.37L412.08 381.45M412.08 381.45L411 381.45M415.32 381.45L415.32 380.37M421.79 379.29L417.48 379.29M417.48 379.29L420.71 374.97M420.71 374.97L420.71 381.45"
fill="none" stroke="black" stroke-width="0.5"/>
<path d="M398.38 286.03L398.38 286.03"
fill="none" stroke="black" stroke-width="0.5"/>
<path d="M413.92 286.03L413.92 286.03"
fill="none" stroke="black" stroke-width="0.5"/>
<path d="M413.92 345.58L413.92 345.58"
fill="none" stroke="black" stroke-width="0.5"/>
<path d="M501.94 287.65L501.94 348.81"
fill="none" stroke="black" stroke-width="0.5"/>
<path d="M517.48 287.65L517.48 348.81"
fill="none" stroke="black" stroke-width="0.5"/>
<path d="M495.47 345.58L489 345.58"
fill="none" stroke="black" stroke-width="0.5"/>
<path d="M523.95 345.58L530.42 345.58"
fill="none" stroke="black" stroke-width="0.5"/>
<path d="M495.47 346.66L501.94 345.58 501.94 345.58 495.47 344.5 495.47 346.66Z"
fill-rule="evenodd" fill="black"/>
<path d="M523.95 344.5L517.48 345.58 517.48 345.58 523.95 346.66 523.95 344.5Z"
fill-rule="evenodd" fill="black"/>
<path d="M477.02 343.64L479.18 343.64M479.18 343.64L480.26 342.56M480.26 342.56L480.26 340.4M480.26 340.4L479.18 339.32M479.18 339.32L477.02 339.32M477.02 339.32L475.94 340.4M475.94 340.4L475.94 342.56M475.94 342.56L477.02 343.64M475.94 343.64L480.26 339.32M482.42 340.4L485.65 340.4M485.65 340.4L486.73 341.48M486.73 341.48L486.73 342.56M486.73 342.56L485.65 343.64M485.65 343.64L483.5 343.64M483.5 343.64L482.42 342.56M482.42 342.56L482.42 339.32M482.42 339.32L484.57 337.16M484.57 337.16L485.65 337.16M491.05 338.24L491.05 333.93M493.2 336.08L488.89 336.08M496.44 339.32L495.36 338.24M495.36 338.24L495.36 333.93M495.36 333.93L496.44 332.85M496.44 332.85L497.52 332.85M497.52 332.85L498.6 333.93M498.6 333.93L498.6 338.24M498.6 338.24L497.52 339.32M497.52 339.32L496.44 339.32M500.76 339.32L500.76 338.24M502.91 336.08L506.15 336.08M506.15 336.08L507.23 337.16M507.23 337.16L507.23 338.24M507.23 338.24L506.15 339.32M506.15 339.32L503.99 339.32M503.99 339.32L502.91 338.24M502.91 338.24L502.91 335.01M502.91 335.01L505.07 332.85M505.07 332.85L506.15 332.85M491.05 346.87L491.05 342.56M493.2 344.71L488.89 344.71M496.44 347.95L495.36 346.87M495.36 346.87L495.36 342.56M495.36 342.56L496.44 341.48M496.44 341.48L497.52 341.48M497.52 341.48L498.6 342.56M498.6 342.56L498.6 346.87M498.6 346.87L497.52 347.95M497.52 347.95L496.44 347.95M500.76 347.95L500.76 346.87M507.23 345.79L502.91 345.79M502.91 345.79L506.15 341.48M506.15 341.48L506.15 347.95"
fill="none" stroke="black" stroke-width="0.5"/>
<path d="M501.94 286.03L501.94 286.03"
fill="none" stroke="black" stroke-width="0.5"/>
<path d="M517.48 286.03L517.48 286.03"
fill="none" stroke="black" stroke-width="0.5"/>
<path d="M517.48 345.58L517.48 345.58"
fill="none" stroke="black" stroke-width="0.5"/>
<path d="M535.6 321.31L535.6 426.48"
fill="none" stroke="black" stroke-width="0.5"/>
<path d="M17.8 321.31L17.8 426.48"
fill="none" stroke="black" stroke-width="0.5"/>
<path d="M529.13 423.25L24.27 423.25"
fill="none" stroke="black" stroke-width="0.5"/>
<path d="M529.13 424.33L535.6 423.25 535.6 423.25 529.13 422.17 529.13 424.33Z"
fill-rule="evenodd" fill="black"/>
<path d="M24.27 422.17L17.8 423.25 17.8 423.25 24.27 424.33 24.27 422.17Z"
fill-rule="evenodd" fill="black"/>
<path d="M267.53 416.24L268.61 415.16M268.61 415.16L268.61 421.63M267.53 421.63L269.69 421.63M272.92 421.63L271.84 420.55M271.84 420.55L271.84 416.24M271.84 416.24L272.92 415.16M272.92 415.16L274 415.16M274 415.16L275.08 416.24M275.08 416.24L275.08 420.55M275.08 420.55L274 421.63M274 421.63L272.92 421.63M278.32 421.63L277.24 420.55M277.24 420.55L277.24 416.24M277.24 416.24L278.32 415.16M278.32 415.16L279.4 415.16M279.4 415.16L280.47 416.24M280.47 416.24L280.47 420.55M280.47 420.55L279.4 421.63M279.4 421.63L278.32 421.63M283.71 421.63L282.63 420.55M282.63 420.55L282.63 416.24M282.63 416.24L283.71 415.16M283.71 415.16L284.79 415.16M284.79 415.16L285.87 416.24M285.87 416.24L285.87 420.55M285.87 420.55L284.79 421.63M284.79 421.63L283.71 421.63"
fill="none" stroke="black" stroke-width="0.5"/>
<path d="M535.6 319.69L535.6 319.69"
fill="none" stroke="black" stroke-width="0.5"/>
<path d="M17.8 319.69L17.8 319.69"
fill="none" stroke="black" stroke-width="0.5"/>
<path d="M17.8 423.25L17.8 423.25"
fill="none" stroke="black" stroke-width="0.5"/>
</svg>
