  0
SECTION
  2
HEADER
  9
$ACADVER
  1
AC1027
  9
$ACADMAINTVER
 70
   105
  9
$DWGCODEPAGE
  3
ANSI_1252
  9
$LASTSAVEDBY
  1
alex
  9
$REQUIREDVERSIONS
160
                 0
  9
$INSBASE
 10
0.0
 20
0.0
 30
0.0
  9
$EXTMIN
 10
-6.0
 20
-41.25
 30
0.0
  9
$EXTMAX
 10
301.25
 20
53.12522283923217
 30
0.0
  9
$LIMMIN
 10
0.0
 20
0.0
  9
$LIMMAX
 10
12.0
 20
9.0
  9
$ORTHOMODE
 70
     0
  9
$REGENMODE
 70
     1
  9
$FILLMODE
 70
     1
  9
$QTEXTMODE
 70
     0
  9
$MIRRTEXT
 70
     0
  9
$LTSCALE
 40
1.0
  9
$ATTMODE
 70
     1
  9
$TEXTSIZE
 40
0.2
  9
$TRACEWID
 40
0.05
  9
$TEXTSTYLE
  7
Standard
  9
$CLAYER
  8
0
  9
$CELTYPE
  6
ByLayer
  9
$CECOLOR
 62
   256
  9
$CELTSCALE
 40
1.0
  9
$DISPSILH
 70
     0
  9
$DIMSCALE
 40
1.0
  9
$DIMASZ
 40
2.5
  9
$DIMEXO
 40
0.625
  9
$DIMDLI
 40
5.0
  9
$DIMRND
 40
0.0
  9
$DIMDLE
 40
0.0
  9
$DIMEXE
 40
1.25
  9
$DIMTP
 40
0.0
  9
$DIMTM
 40
0.0
  9
$DIMTXT
 40
2.5
  9
$DIMCEN
 40
0.09
  9
$DIMTSZ
 40
0.0
  9
$DIMTOL
 70
     0
  9
$DIMLIM
 70
     0
  9
$DIMTIH
 70
     0
  9
$DIMTOH
 70
     1
  9
$DIMSE1
 70
     0
  9
$DIMSE2
 70
     0
  9
$DIMTAD
 70
     1
  9
$DIMZIN
 70
     8
  9
$DIMBLK
  1

  9
$DIMASO
 70
     1
  9
$DIMSHO
 70
     1
  9
$DIMPOST
  1

  9
$DIMAPOST
  1

  9
$DIMALT
 70
     0
  9
$DIMALTD
 70
     2
  9
$DIMALTF
 40
25.4
  9
$DIMLFAC
 40
1.0
  9
$DIMTOFL
 70
     0
  9
$DIMTVP
 40
0.0
  9
$DIMTIX
 70
     0
  9
$DIMSOXD
 70
     0
  9
$DIMSAH
 70
     0
  9
$DIMBLK1
  1

  9
$DIMBLK2
  1

  9
$DIMSTYLE
  2
Standard
  9
$DIMCLRD
 70
     0
  9
$DIMCLRE
 70
     0
  9
$DIMCLRT
 70
     0
  9
$DIMTFAC
 40
1.0
  9
$DIMGAP
 40
0.625
  9
$DIMJUST
 70
     0
  9
$DIMSD1
 70
     0
  9
$DIMSD2
 70
     0
  9
$DIMTOLJ
 70
     1
  9
$DIMTZIN
 70
     0
  9
$DIMALTZ
 70
     0
  9
$DIMALTTZ
 70
     0
  9
$DIMUPT
 70
     0
  9
$DIMDEC
 70
     4
  9
$DIMTDEC
 70
     4
  9
$DIMALTU
 70
     2
  9
$DIMALTTD
 70
     2
  9
$DIMTXSTY
  7
Standard
  9
$DIMAUNIT
 70
     0
  9
$DIMADEC
 70
     0
  9
$DIMALTRND
 40
0.0
  9
$DIMAZIN
 70
     2
  9
$DIMDSEP
 70
    46
  9
$DIMATFIT
 70
     0
  9
$DIMFRAC
 70
     0
  9
$DIMLDRBLK
  1

  9
$DIMLUNIT
 70
     2
  9
$DIMLWD
 70
    -2
  9
$DIMLWE
 70
    -2
  9
$DIMTMOVE
 70
     0
  9
$DIMFXL
 40
1.0
  9
$DIMFXLON
 70
     0
  9
$DIMJOGANG
 40
0.7853981633974483
  9
$DIMTFILL
 70
     0
  9
$DIMTFILLCLR
 70
     0
  9
$DIMARCSYM
 70
     0
  9
$DIMLTYPE
  6

  9
$DIMLTEX1
  6

  9
$DIMLTEX2
  6

  9
$DIMTXTDIRECTION
 70
     0
  9
$LUNITS
 70
     2
  9
$LUPREC
 70
     4
  9
$SKETCHINC
 40
0.1
  9
$FILLETRAD
 40
0.0
  9
$AUNITS
 70
     0
  9
$AUPREC
 70
     0
  9
$MENU
  1
.
  9
$ELEVATION
 40
0.0
  9
$PELEVATION
 40
0.0
  9
$THICKNESS
 40
0.0
  9
$LIMCHECK
 70
     0
  9
$CHAMFERA
 40
0.0
  9
$CHAMFERB
 40
0.0
  9
$CHAMFERC
 40
0.0
  9
$CHAMFERD
 40
0.0
  9
$SKPOLY
 70
     0
  9
$TDCREATE
 40
2460137.70885184
  9
$TDUCREATE
 40
2460137.58385184
  9
$TDUPDATE
 40
2460137.708852373
  9
$TDUUPDATE
 40
2460137.583852373
  9
$TDINDWG
 40
0.0000000116
  9
$TDUSRTIMER
 40
0.0000000116
  9
$USRTIMER
 70
     1
  9
$ANGBASE
 50
0.0
  9
$ANGDIR
 70
     0
  9
$PDMODE
 70
     0
  9
$PDSIZE
 40
0.0
  9
$PLINEWID
 40
0.0
  9
$SPLFRAME
 70
     0
  9
$SPLINETYPE
 70
     6
  9
$SPLINESEGS
 70
     8
  9
$HANDSEED
  5
3FE
  9
$SURFTAB1
 70
     6
  9
$SURFTAB2
 70
     6
  9
$SURFTYPE
 70
     6
  9
$SURFU
 70
     6
  9
$SURFV
 70
     6
  9
$UCSBASE
  2

  9
$UCSNAME
  2

  9
$UCSORG
 10
0.0
 20
0.0
 30
0.0
  9
$UCSXDIR
 10
1.0
 20
0.0
 30
0.0
  9
$UCSYDIR
 10
0.0
 20
1.0
 30
0.0
  9
$UCSORTHOREF
  2

  9
$UCSORTHOVIEW
 70
     0
  9
$UCSORGTOP
 10
0.0
 20
0.0
 30
0.0
  9
$UCSORGBOTTOM
 10
0.0
 20
0.0
 30
0.0
  9
$UCSORGLEFT
 10
0.0
 20
0.0
 30
0.0
  9
$UCSORGRIGHT
 10
0.0
 20
0.0
 30
0.0
  9
$UCSORGFRONT
 10
0.0
 20
0.0
 30
0.0
  9
$UCSORGBACK
 10
0.0
 20
0.0
 30
0.0
  9
$PUCSBASE
  2

  9
$PUCSNAME
  2

  9
$PUCSORG
 10
0.0
 20
0.0
 30
0.0
  9
$PUCSXDIR
 10
1.0
 20
0.0
 30
0.0
  9
$PUCSYDIR
 10
0.0
 20
1.0
 30
0.0
  9
$PUCSORTHOREF
  2

  9
$PUCSORTHOVIEW
 70
     0
  9
$PUCSORGTOP
 10
0.0
 20
0.0
 30
0.0
  9
$PUCSORGBOTTOM
 10
0.0
 20
0.0
 30
0.0
  9
$PUCSORGLEFT
 10
0.0
 20
0.0
 30
0.0
  9
$PUCSORGRIGHT
 10
0.0
 20
0.0
 30
0.0
  9
$PUCSORGFRONT
 10
0.0
 20
0.0
 30
0.0
  9
$PUCSORGBACK
 10
0.0
 20
0.0
 30
0.0
  9
$USERI1
 70
     0
  9
$USERI2
 70
     0
  9
$USERI3
 70
     0
  9
$USERI4
 70
     0
  9
$USERI5
 70
     0
  9
$USERR1
 40
0.0
  9
$USERR2
 40
0.0
  9
$USERR3
 40
0.0
  9
$USERR4
 40
0.0
  9
$USERR5
 40
0.0
  9
$WORLDVIEW
 70
     1
  9
$SHADEDGE
 70
     3
  9
$SHADEDIF
 70
    70
  9
$TILEMODE
 70
     1
  9
$MAXACTVP
 70
    64
  9
$PINSBASE
 10
0.0
 20
0.0
 30
0.0
  9
$PLIMCHECK
 70
     0
  9
$PEXTMIN
 10
0.0
 20
0.0
 30
0.0
  9
$PEXTMAX
 10
0.0
 20
0.0
 30
0.0
  9
$PLIMMIN
 10
-20.0
 20
-7.5
  9
$PLIMMAX
 10
277.0
 20
202.5
  9
$UNITMODE
 70
     0
  9
$VISRETAIN
 70
     1
  9
$PLINEGEN
 70
     0
  9
$PSLTSCALE
 70
     1
  9
$TREEDEPTH
 70
  3020
  9
$CMLSTYLE
  2
Standard
  9
$CMLJUST
 70
     0
  9
$CMLSCALE
 40
1.0
  9
$PROXYGRAPHICS
 70
     1
  9
$MEASUREMENT
 70
     1
  9
$CELWEIGHT
370
    -1
  9
$ENDCAPS
280
     0
  9
$JOINSTYLE
280
     0
  9
$LWDISPLAY
290
     0
  9
$INSUNITS
 70
     4
  9
$HYPERLINKBASE
  1

  9
$STYLESHEET
  1

  9
$XEDIT
290
     1
  9
$CEPSNTYPE
380
     0
  9
$PSTYLEMODE
290
     1
  9
$FINGERPRINTGUID
  2
{b3c5d898-5bd6-44c3-ac3c-1e8ce70e61d3}
  9
$VERSIONGUID
  2
{FAEB1C32-E019-11D5-929B-00C0DF256EC4}
  9
$EXTNAMES
290
     1
  9
$PSVPSCALE
 40
0.0
  9
$OLESTARTUP
290
     0
  9
$SORTENTS
280
   127
  9
$INDEXCTL
280
     0
  9
$HIDETEXT
280
     1
  9
$XCLIPFRAME
280
     2
  9
$HALOGAP
280
     0
  9
$OBSCOLOR
 70
   257
  9
$OBSLTYPE
280
     0
  9
$INTERSECTIONDISPLAY
280
     0
  9
$INTERSECTIONCOLOR
 70
   257
  9
$DIMASSOC
280
     2
  9
$PROJECTNAME
  1

  9
$CAMERADISPLAY
290
     0
  9
$LENSLENGTH
 40
50.0
  9
$CAMERAHEIGHT
 40
0.0
  9
$STEPSPERSEC
 40
2.0
  9
$STEPSIZE
 40
6.0
  9
$3DDWFPREC
 40
2.0
  9
$PSOLWIDTH
 40
0.25
  9
$PSOLHEIGHT
 40
4.0
  9
$LOFTANG1
 40
1.570796326794897
  9
$LOFTANG2
 40
1.570796326794897
  9
$LOFTMAG1
 40
0.0
  9
$LOFTMAG2
 40
0.0
  9
$LOFTPARAM
 70
     7
  9
$LOFTNORMALS
280
     1
  9
$LATITUDE
 40
37.795
  9
$LONGITUDE
 40
-122.394
  9
$NORTHDIRECTION
 40
0.0
  9
$TIMEZONE
 70
 -8000
  9
$LIGHTGLYPHDISPLAY
280
     1
  9
$TILEMODELIGHTSYNCH
280
     1
  9
$CMATERIAL
347
36D
  9
$SOLIDHIST
280
     0
  9
$SHOWHIST
280
     1
  9
$DWFFRAME
280
     2
  9
$DGNFRAME
280
     2
  9
$REALWORLDSCALE
290
     1
  9
$INTERFERECOLOR
 62
   256
  9
$CSHADOW
280
     0
  9
$SHADOWPLANELOCATION
 40
0.0
  0
ENDSEC
  0
SECTION
  2
CLASSES
  0
CLASS
  1
ACDBDICTIONARYWDFLT
  2
AcDbDictionaryWithDefault
  3
ObjectDBX Classes
 90
        0
 91
        3
280
     0
281
     0
  0
CLASS
  1
VISUALSTYLE
  2
AcDbVisualStyle
  3
ObjectDBX Classes
 90
     4095
 91
        3
280
     0
281
     0
  0
CLASS
  1
MATERIAL
  2
AcDbMaterial
  3
ObjectDBX Classes
 90
     1153
 91
        3
280
     0
281
     0
  0
CLASS
  1
SCALE
  2
AcDbScale
  3
ObjectDBX Classes
 90
     1153
 91
        3
280
     0
281
     0
  0
CLASS
  1
TABLESTYLE
  2
AcDbTableStyle
  3
ObjectDBX Classes
 90
     4095
 91
        3
280
     0
281
     0
  0
CLASS
  1
MLEADERSTYLE
  2
AcDbMLeaderStyle
  3
ACDB_MLEADERSTYLE_CLASS
 90
     4095
 91
        3
280
     0
281
     0
  0
CLASS
  1
SUN
  2
AcDbSun
  3
SCENEOE
 90
     1153
 91
        3
280
     0
281
     0
  0
CLASS
  1
DICTIONARYVAR
  2
AcDbDictionaryVar
  3
ObjectDBX Classes
 90
        0
 91
        3
280
     0
281
     0
  0
CLASS
  1
CELLSTYLEMAP
  2
AcDbCellStyleMap
  3
ObjectDBX Classes
 90
     1152
 91
        3
280
     0
281
     0
  0
ENDSEC
  0
SECTION
  2
TABLES
  0
TABLE
  2
VPORT
  5
332
330
0
100
AcDbSymbolTable
 70
     1
  0
VPORT
  5
352
330
332
100
AcDbSymbolTableRecord
100
AcDbViewportTableRecord
  2
*Active
 70
     0
 10
0.0
 20
0.0
 11
1.0
 21
1.0
 12
108.1392562044761
 22
11.31274051299968
 13
0.0
 23
0.0
 14
0.5
 24
0.5
 15
0.5
 25
0.5
 16
0.0
 26
0.0
 36
1.0
 17
0.0
 27
0.0
 37
0.0
 40
129.640367296007
 41
1.506702412868633
 42
50.0
 43
0.0
 44
0.0
 50
0.0
 51
0.0
 71
     0
 72
   100
 73
     1
 74
     3
 75
     0
 76
     0
 77
     0
 78
     0
281
     0
 65
     1
110
0.0
120
0.0
130
0.0
111
1.0
121
0.0
131
0.0
112
0.0
122
1.0
132
0.0
 79
     0
146
0.0
348
358
 60
     3
 61
     5
292
     1
282
     1
141
0.0
142
0.0
 63
   250
361
386
  0
ENDTAB
  0
TABLE
  2
LTYPE
  5
32F
330
0
100
AcDbSymbolTable
 70
    48
  0
LTYPE
  5
33D
330
32F
100
AcDbSymbolTableRecord
100
AcDbLinetypeTableRecord
  2
ByBlock
 70
     0
  3

 72
    65
 73
     0
 40
0.0
  0
LTYPE
  5
33E
330
32F
100
AcDbSymbolTableRecord
100
AcDbLinetypeTableRecord
  2
ByLayer
 70
     0
  3

 72
    65
 73
     0
 40
0.0
  0
LTYPE
  5
33F
330
32F
100
AcDbSymbolTableRecord
100
AcDbLinetypeTableRecord
  2
Continuous
 70
     0
  3
Solid line
 72
    65
 73
     0
 40
0.0
  0
LTYPE
  5
3C0
330
32F
100
AcDbSymbolTableRecord
100
AcDbLinetypeTableRecord
  2
CENTER2
 70
     0
  3
Center (.5x) ___ _ ___ _ ___ _ ___ _ ___ _ ___
 72
    65
 73
     4
 40
28.575
 49
19.05
 74
     0
 49
-3.175
 74
     0
 49
3.175
 74
     0
 49
-3.175
 74
     0
  0
LTYPE
  5
3C1
330
32F
100
AcDbSymbolTableRecord
100
AcDbLinetypeTableRecord
  2
CENTER
 70
     0
  3
Center ____ _ ____ _ ____ _ ____ _ ____ _ ____
 72
    65
 73
     4
 40
50.8
 49
31.75
 74
     0
 49
-6.35
 74
     0
 49
6.35
 74
     0
 49
-6.35
 74
     0
  0
LTYPE
  5
3C2
330
32F
100
AcDbSymbolTableRecord
100
AcDbLinetypeTableRecord
  2
ACAD_ISO07W100
 70
     0
  3
ISO dot . . . . . . . . . . . . . . . . . . . . 
 72
    65
 73
     2
 40
3.0
 49
0.0
 74
     0
 49
-3.0
 74
     0
  0
LTYPE
  5
3C3
330
32F
100
AcDbSymbolTableRecord
100
AcDbLinetypeTableRecord
  2
ACAD_ISO06W100
 70
     0
  3
ISO long-dash triple-dot ____ ... ____ ... ____
 72
    65
 73
     8
 40
36.0
 49
24.0
 74
     0
 49
-3.0
 74
     0
 49
0.0
 74
     0
 49
-3.0
 74
     0
 49
0.0
 74
     0
 49
-3.0
 74
     0
 49
0.0
 74
     0
 49
-3.0
 74
     0
  0
LTYPE
  5
3C4
330
32F
100
AcDbSymbolTableRecord
100
AcDbLinetypeTableRecord
  2
ACAD_ISO09W100
 70
     0
  3
ISO long-dash double-short-dash ____ __ __ ____
 72
    65
 73
     6
 40
45.0
 49
24.0
 74
     0
 49
-3.0
 74
     0
 49
6.0
 74
     0
 49
-3.0
 74
     0
 49
6.0
 74
     0
 49
-3.0
 74
     0
  0
LTYPE
  5
3C5
330
32F
100
AcDbSymbolTableRecord
100
AcDbLinetypeTableRecord
  2
ACAD_ISO08W100
 70
     0
  3
ISO long-dash short-dash ____ __ ____ __ ____ _
 72
    65
 73
     4
 40
36.0
 49
24.0
 74
     0
 49
-3.0
 74
     0
 49
6.0
 74
     0
 49
-3.0
 74
     0
  0
LTYPE
  5
3C6
330
32F
100
AcDbSymbolTableRecord
100
AcDbLinetypeTableRecord
  2
ACAD_ISO03W100
 70
     0
  3
ISO dash space __    __    __    __    __    __
 72
    65
 73
     2
 40
30.0
 49
12.0
 74
     0
 49
-18.0
 74
     0
  0
LTYPE
  5
3C7
330
32F
100
AcDbSymbolTableRecord
100
AcDbLinetypeTableRecord
  2
ACAD_ISO02W100
 70
     0
  3
ISO dash __ __ __ __ __ __ __ __ __ __ __ __ __
 72
    65
 73
     2
 40
15.0
 49
12.0
 74
     0
 49
-3.0
 74
     0
  0
LTYPE
  5
3C8
330
32F
100
AcDbSymbolTableRecord
100
AcDbLinetypeTableRecord
  2
ACAD_ISO05W100
 70
     0
  3
ISO long-dash double-dot ____ .. ____ .. ____ . 
 72
    65
 73
     6
 40
33.0
 49
24.0
 74
     0
 49
-3.0
 74
     0
 49
0.0
 74
     0
 49
-3.0
 74
     0
 49
0.0
 74
     0
 49
-3.0
 74
     0
  0
LTYPE
  5
3C9
330
32F
100
AcDbSymbolTableRecord
100
AcDbLinetypeTableRecord
  2
ACAD_ISO04W100
 70
     0
  3
ISO long-dash dot ____ . ____ . ____ . ____ . _
 72
    65
 73
     4
 40
30.0
 49
24.0
 74
     0
 49
-3.0
 74
     0
 49
0.0
 74
     0
 49
-3.0
 74
     0
  0
LTYPE
  5
3CB
330
32F
100
AcDbSymbolTableRecord
100
AcDbLinetypeTableRecord
  2
TRACKS
 70
     0
  3
Tracks -|-|-|-|-|-|-|-|-|-|-|-|-|-|-|-|-|-|-|-|-|-|-|-|-
 72
    65
 73
     2
 40
7.62
 49
3.81
 74
     2
 75
     0
340
3CA
 46
6.35
 50
0.0
 44
0.0
 45
0.0
  9
TRACK1
 49
3.81
 74
     0
  0
LTYPE
  5
3CC
330
32F
100
AcDbSymbolTableRecord
100
AcDbLinetypeTableRecord
  2
PHANTOMX2
 70
     0
  3
Phantom (2x) ____________    ____    ____   _
 72
    65
 73
     6
 40
127.0
 49
63.5
 74
     0
 49
-12.7
 74
     0
 49
12.7
 74
     0
 49
-12.7
 74
     0
 49
12.7
 74
     0
 49
-12.7
 74
     0
  0
LTYPE
  5
3CD
330
32F
100
AcDbSymbolTableRecord
100
AcDbLinetypeTableRecord
  2
ZIGZAG
 70
     0
  3
Zig zag /\/\/\/\/\/\/\/\/\/\/\/\/\/\/\/\/\/\/\/\/\/\/\/
 72
    65
 73
     4
 40
20.32254
 49
0.00254
 74
     0
 49
-5.08
 74
     2
 75
     0
340
3CA
 46
5.08
 50
0.0
 44
-5.08
 45
0.0
  9
ZIG
 49
-10.16
 74
     2
 75
     0
340
3CA
 46
5.08
 50
180.0
 44
5.08
 45
0.0
  9
ZIG
 49
-5.08
 74
     0
  0
LTYPE
  5
3CF
330
32F
100
AcDbSymbolTableRecord
100
AcDbLinetypeTableRecord
  2
HOT_WATER_SUPPLY
 70
     0
  3
Hot water supply ---- HW ---- HW ---- HW ----
 72
    65
 73
     3
 40
22.86
 49
12.7
 74
     0
 49
-5.08
 74
     2
 75
     0
340
3CE
 46
2.54
 50
0.0
 44
-2.54
 45
-1.27
  9
HW
 49
-5.08
 74
     0
  0
LTYPE
  5
3D0
330
32F
100
AcDbSymbolTableRecord
100
AcDbLinetypeTableRecord
  2
HIDDENX2
 70
     0
  3
Hidden (2x) ____ ____ ____ ____ ____ ____ ____ 
 72
    65
 73
     2
 40
19.05
 49
12.7
 74
     0
 49
-6.35
 74
     0
  0
LTYPE
  5
3D1
330
32F
100
AcDbSymbolTableRecord
100
AcDbLinetypeTableRecord
  2
PHANTOM2
 70
     0
  3
Phantom (.5x) ___ _ _ ___ _ _ ___ _ _ ___ _ _
 72
    65
 73
     6
 40
31.75
 49
15.875
 74
     0
 49
-3.175
 74
     0
 49
3.175
 74
     0
 49
-3.175
 74
     0
 49
3.175
 74
     0
 49
-3.175
 74
     0
  0
LTYPE
  5
3D2
330
32F
100
AcDbSymbolTableRecord
100
AcDbLinetypeTableRecord
  2
PHANTOM
 70
     0
  3
Phantom ______  __  __  ______  __  __  ______ 
 72
    65
 73
     6
 40
63.50000000000001
 49
31.75
 74
     0
 49
-6.35
 74
     0
 49
6.35
 74
     0
 49
-6.35
 74
     0
 49
6.35
 74
     0
 49
-6.35
 74
     0
  0
LTYPE
  5
3D3
330
32F
100
AcDbSymbolTableRecord
100
AcDbLinetypeTableRecord
  2
DIVIDEX2
 70
     0
  3
Divide (2x) ________  .  .  ________  .  .  _
 72
    65
 73
     6
 40
63.5
 49
25.4
 74
     0
 49
-12.7
 74
     0
 49
0.0
 74
     0
 49
-12.7
 74
     0
 49
0.0
 74
     0
 49
-12.7
 74
     0
  0
LTYPE
  5
3D4
330
32F
100
AcDbSymbolTableRecord
100
AcDbLinetypeTableRecord
  2
DIVIDE2
 70
     0
  3
Divide (.5x) __..__..__..__..__..__..__..__.._
 72
    65
 73
     6
 40
15.875
 49
6.35
 74
     0
 49
-3.175
 74
     0
 49
0.0
 74
     0
 49
-3.175
 74
     0
 49
0.0
 74
     0
 49
-3.175
 74
     0
  0
LTYPE
  5
3D5
330
32F
100
AcDbSymbolTableRecord
100
AcDbLinetypeTableRecord
  2
DOT2
 70
     0
  3
Dot (.5x) ........................................
 72
    65
 73
     2
 40
3.175
 49
0.0
 74
     0
 49
-3.175
 74
     0
  0
LTYPE
  5
3D6
330
32F
100
AcDbSymbolTableRecord
100
AcDbLinetypeTableRecord
  2
DOT
 70
     0
  3
Dot . . . . . . . . . . . . . . . . . . . . . . . .
 72
    65
 73
     2
 40
6.35
 49
0.0
 74
     0
 49
-6.35
 74
     0
  0
LTYPE
  5
3D7
330
32F
100
AcDbSymbolTableRecord
100
AcDbLinetypeTableRecord
  2
DASHED2
 70
     0
  3
Dashed (.5x) _ _ _ _ _ _ _ _ _ _ _ _ _ _ _ _ _ 
 72
    65
 73
     2
 40
9.524999999999999
 49
6.35
 74
     0
 49
-3.175
 74
     0
  0
LTYPE
  5
3D8
330
32F
100
AcDbSymbolTableRecord
100
AcDbLinetypeTableRecord
  2
DASHED
 70
     0
  3
Dashed __ __ __ __ __ __ __ __ __ __ __ __ __ _
 72
    65
 73
     2
 40
19.05
 49
12.7
 74
     0
 49
-6.35
 74
     0
  0
LTYPE
  5
3D9
330
32F
100
AcDbSymbolTableRecord
100
AcDbLinetypeTableRecord
  2
DIVIDE
 70
     0
  3
Divide ____ . . ____ . . ____ . . ____ . . ____
 72
    65
 73
     6
 40
31.75
 49
12.7
 74
     0
 49
-6.35
 74
     0
 49
0.0
 74
     0
 49
-6.35
 74
     0
 49
0.0
 74
     0
 49
-6.35
 74
     0
  0
LTYPE
  5
3DA
330
32F
100
AcDbSymbolTableRecord
100
AcDbLinetypeTableRecord
  2
DASHEDX2
 70
     0
  3
Dashed (2x) ____  ____  ____  ____  ____  ___
 72
    65
 73
     2
 40
38.09999999999999
 49
25.4
 74
     0
 49
-12.7
 74
     0
  0
LTYPE
  5
3DB
330
32F
100
AcDbSymbolTableRecord
100
AcDbLinetypeTableRecord
  2
GAS_LINE
 70
     0
  3
Gas line ----GAS----GAS----GAS----GAS----GAS----GAS--
 72
    65
 73
     3
 40
24.13
 49
12.7
 74
     0
 49
-5.08
 74
     2
 75
     0
340
3CE
 46
2.54
 50
0.0
 44
-2.54
 45
-1.27
  9
GAS
 49
-6.35
 74
     0
  0
LTYPE
  5
3DC
330
32F
100
AcDbSymbolTableRecord
100
AcDbLinetypeTableRecord
  2
FENCELINE2
 70
     0
  3
Fenceline square ----[]-----[]----[]-----[]----[]---
 72
    65
 73
     4
 40
36.83
 49
6.35
 74
     0
 49
-2.54
 74
     2
 75
     0
340
3CA
 46
2.54
 50
0.0
 44
-2.54
 45
0.0
  9
BOX
 49
-2.54
 74
     0
 49
25.4
 74
     0
  0
LTYPE
  5
3DD
330
32F
100
AcDbSymbolTableRecord
100
AcDbLinetypeTableRecord
  2
HIDDEN2
 70
     0
  3
Hidden (.5x) _ _ _ _ _ _ _ _ _ _ _ _ _ _ _ _ _ 
 72
    65
 73
     2
 40
4.762499999999999
 49
3.175
 74
     0
 49
-1.5875
 74
     0
  0
LTYPE
  5
3DE
330
32F
100
AcDbSymbolTableRecord
100
AcDbLinetypeTableRecord
  2
HIDDEN
 70
     0
  3
Hidden __ __ __ __ __ __ __ __ __ __ __ __ __ __
 72
    65
 73
     2
 40
9.524999999999999
 49
6.35
 74
     0
 49
-3.175
 74
     0
  0
LTYPE
  5
3E0
330
32F
100
AcDbSymbolTableRecord
100
AcDbLinetypeTableRecord
  2
DRAINAGE
 70
     0
  3
Drainage ---->---->---->----
 72
    65
 73
     2
 40
10.16
 49
5.08
 74
     2
 75
     0
340
3DF
 46
2.54
 50
180.0
 44
0.0
 45
0.0
  9
RIGHT_ARROW
 49
5.08
 74
     0
  0
LTYPE
  5
3E1
330
32F
100
AcDbSymbolTableRecord
100
AcDbLinetypeTableRecord
  2
DOTX2
 70
     0
  3
Dot (2x) .  .  .  .  .  .  .  .  .  .  .  .  .  .
 72
    65
 73
     2
 40
12.7
 49
0.0
 74
     0
 49
-12.7
 74
     0
  0
LTYPE
  5
3E2
330
32F
100
AcDbSymbolTableRecord
100
AcDbLinetypeTableRecord
  2
FENCELINE1
 70
     0
  3
Fenceline circle ----0-----0----0-----0----0-----0--
 72
    65
 73
     4
 40
36.83
 49
6.35
 74
     0
 49
-2.54
 74
     2
 75
     0
340
3CA
 46
2.54
 50
0.0
 44
-2.54
 45
0.0
  9
CIRC1
 49
-2.54
 74
     0
 49
25.4
 74
     0
  0
LTYPE
  5
3E3
330
32F
100
AcDbSymbolTableRecord
100
AcDbLinetypeTableRecord
  2
DRAINAGE2
 70
     0
  3
Drainage reversed----<----<----<----
 72
    65
 73
     2
 40
10.16
 49
5.08
 74
     2
 75
     0
340
3DF
 46
2.54
 50
0.0
 44
0.0
 45
0.0
  9
RIGHT_ARROW
 49
5.08
 74
     0
  0
LTYPE
  5
3E4
330
32F
100
AcDbSymbolTableRecord
100
AcDbLinetypeTableRecord
  2
ACAD_ISO15W100
 70
     0
  3
ISO double-dash triple-dot __ __ . . . __ __ . .
 72
    65
 73
    10
 40
39.0
 49
12.0
 74
     0
 49
-3.0
 74
     0
 49
12.0
 74
     0
 49
-3.0
 74
     0
 49
0.0
 74
     0
 49
-3.0
 74
     0
 49
0.0
 74
     0
 49
-3.0
 74
     0
 49
0.0
 74
     0
 49
-3.0
 74
     0
  0
LTYPE
  5
3E5
330
32F
100
AcDbSymbolTableRecord
100
AcDbLinetypeTableRecord
  2
ACAD_ISO14W100
 70
     0
  3
ISO dash triple-dot __ . . . __ . . . __ . . . _
 72
    65
 73
     8
 40
24.0
 49
12.0
 74
     0
 49
-3.0
 74
     0
 49
0.0
 74
     0
 49
-3.0
 74
     0
 49
0.0
 74
     0
 49
-3.0
 74
     0
 49
0.0
 74
     0
 49
-3.0
 74
     0
  0
LTYPE
  5
3E6
330
32F
100
AcDbSymbolTableRecord
100
AcDbLinetypeTableRecord
  2
BORDER
 70
     0
  3
Border __ __ . __ __ . __ __ . __ __ . __ __ .
 72
    65
 73
     6
 40
44.45
 49
12.7
 74
     0
 49
-6.35
 74
     0
 49
12.7
 74
     0
 49
-6.35
 74
     0
 49
0.0
 74
     0
 49
-6.35
 74
     0
  0
LTYPE
  5
3E7
330
32F
100
AcDbSymbolTableRecord
100
AcDbLinetypeTableRecord
  2
BATTING
 70
     0
  3
Batting SSSSSSSSSSSSSSSSSSSSSSSSSSSSSSSSSSSSSSSSSSSSSSS
 72
    65
 73
     4
 40
10.16254
 49
0.00254
 74
     0
 49
-2.54
 74
     2
 75
     0
340
3CA
 46
2.54
 50
0.0
 44
-2.54
 45
0.0
  9
BAT
 49
-5.08
 74
     2
 75
     0
340
3CA
 46
2.54
 50
180.0
 44
2.54
 45
0.0
  9
BAT
 49
-2.54
 74
     0
  0
LTYPE
  5
3E8
330
32F
100
AcDbSymbolTableRecord
100
AcDbLinetypeTableRecord
  2
ACAD_ISO11W100
 70
     0
  3
ISO double-dash dot __ __ . __ __ . __ __ . __ _
 72
    65
 73
     6
 40
33.0
 49
12.0
 74
     0
 49
-3.0
 74
     0
 49
12.0
 74
     0
 49
-3.0
 74
     0
 49
0.0
 74
     0
 49
-3.0
 74
     0
  0
LTYPE
  5
3E9
330
32F
100
AcDbSymbolTableRecord
100
AcDbLinetypeTableRecord
  2
ACAD_ISO10W100
 70
     0
  3
ISO dash dot __ . __ . __ . __ . __ . __ . __ . 
 72
    65
 73
     4
 40
18.0
 49
12.0
 74
     0
 49
-3.0
 74
     0
 49
0.0
 74
     0
 49
-3.0
 74
     0
  0
LTYPE
  5
3EA
330
32F
100
AcDbSymbolTableRecord
100
AcDbLinetypeTableRecord
  2
ACAD_ISO13W100
 70
     0
  3
ISO double-dash double-dot __ __ . . __ __ . . _
 72
    65
 73
     8
 40
36.0
 49
12.0
 74
     0
 49
-3.0
 74
     0
 49
12.0
 74
     0
 49
-3.0
 74
     0
 49
0.0
 74
     0
 49
-3.0
 74
     0
 49
0.0
 74
     0
 49
-3.0
 74
     0
  0
LTYPE
  5
3EB
330
32F
100
AcDbSymbolTableRecord
100
AcDbLinetypeTableRecord
  2
ACAD_ISO12W100
 70
     0
  3
ISO dash double-dot __ . . __ . . __ . . __ . . 
 72
    65
 73
     6
 40
21.0
 49
12.0
 74
     0
 49
-3.0
 74
     0
 49
0.0
 74
     0
 49
-3.0
 74
     0
 49
0.0
 74
     0
 49
-3.0
 74
     0
  0
LTYPE
  5
3EC
330
32F
100
AcDbSymbolTableRecord
100
AcDbLinetypeTableRecord
  2
DASHDOT
 70
     0
  3
Dash dot __ . __ . __ . __ . __ . __ . __ . __
 72
    65
 73
     4
 40
25.4
 49
12.7
 74
     0
 49
-6.35
 74
     0
 49
0.0
 74
     0
 49
-6.35
 74
     0
  0
LTYPE
  5
3ED
330
32F
100
AcDbSymbolTableRecord
100
AcDbLinetypeTableRecord
  2
CENTERX2
 70
     0
  3
Center (2x) ________  __  ________  __  _____
 72
    65
 73
     4
 40
101.6
 49
63.5
 74
     0
 49
-12.7
 74
     0
 49
12.7
 74
     0
 49
-12.7
 74
     0
  0
LTYPE
  5
3EE
330
32F
100
AcDbSymbolTableRecord
100
AcDbLinetypeTableRecord
  2
DASHDOTX2
 70
     0
  3
Dash dot (2x) ____  .  ____  .  ____  .  ___
 72
    65
 73
     4
 40
50.8
 49
25.4
 74
     0
 49
-12.7
 74
     0
 49
0.0
 74
     0
 49
-12.7
 74
     0
  0
LTYPE
  5
3EF
330
32F
100
AcDbSymbolTableRecord
100
AcDbLinetypeTableRecord
  2
DASHDOT2
 70
     0
  3
Dash dot (.5x) _._._._._._._._._._._._._._._.
 72
    65
 73
     4
 40
12.7
 49
6.35
 74
     0
 49
-3.175
 74
     0
 49
0.0
 74
     0
 49
-3.175
 74
     0
  0
LTYPE
  5
3F0
330
32F
100
AcDbSymbolTableRecord
100
AcDbLinetypeTableRecord
  2
BORDERX2
 70
     0
  3
Border (2x) ____  ____  .  ____  ____  .  ___
 72
    65
 73
     6
 40
88.89999999999999
 49
25.4
 74
     0
 49
-12.7
 74
     0
 49
25.4
 74
     0
 49
-12.7
 74
     0
 49
0.0
 74
     0
 49
-12.7
 74
     0
  0
LTYPE
  5
3F1
330
32F
100
AcDbSymbolTableRecord
100
AcDbLinetypeTableRecord
  2
BORDER2
 70
     0
  3
Border (.5x) __.__.__.__.__.__.__.__.__.__.__.
 72
    65
 73
     6
 40
22.225
 49
6.35
 74
     0
 49
-3.175
 74
     0
 49
6.35
 74
     0
 49
-3.175
 74
     0
 49
0.0
 74
     0
 49
-3.175
 74
     0
  0
ENDTAB
  0
TABLE
  2
LAYER
  5
32D
330
0
100
AcDbSymbolTable
 70
     2
  0
LAYER
  5
33A
330
32D
100
AcDbSymbolTableRecord
100
AcDbLayerTableRecord
  2
0
 70
     0
 62
    18
420
        0
  6
Continuous
370
    25
390
339
347
36F
348
0
  0
LAYER
  5
3F2
330
32D
100
AcDbSymbolTableRecord
100
AcDbLayerTableRecord
  2
Defpoints
 70
     0
 62
     7
  6
Continuous
290
     0
370
    -3
390
339
347
36F
348
0
  0
ENDTAB
  0
TABLE
  2
STYLE
  5
32E
330
0
100
AcDbSymbolTable
 70
     4
  0
STYLE
  5
33B
330
32E
100
AcDbSymbolTableRecord
100
AcDbTextStyleTableRecord
  2
Standard
 70
     0
 40
0.0
 41
1.0
 50
0.0
 71
     0
 42
0.2
  3
txt
  4

  0
STYLE
  5
3CA
330
32E
100
AcDbSymbolTableRecord
100
AcDbTextStyleTableRecord
  2
textstyle0
 70
     0
 40
0.0
 41
1.0
 50
0.0
 71
     0
 42
0.2
  3
ltypeshp.shx
  4

  0
STYLE
  5
3CE
330
32E
100
AcDbSymbolTableRecord
100
AcDbTextStyleTableRecord
  2
textstyle1
 70
     0
 40
0.0
 41
1.0
 50
0.0
 71
     0
 42
0.2
  3
STANDARD
  4

  0
STYLE
  5
3DF
330
32E
100
AcDbSymbolTableRecord
100
AcDbTextStyleTableRecord
  2
textstyle2
 70
     0
 40
0.0
 41
1.0
 50
0.0
 71
     0
 42
0.2
  3
qcadshp.shx
  4

  0
ENDTAB
  0
TABLE
  2
VIEW
  5
330
330
0
100
AcDbSymbolTable
 70
     0
  0
ENDTAB
  0
TABLE
  2
UCS
  5
331
330
0
100
AcDbSymbolTable
 70
     0
  0
ENDTAB
  0
TABLE
  2
APPID
  5
333
330
0
100
AcDbSymbolTable
 70
     2
  0
APPID
  5
33C
330
333
100
AcDbSymbolTableRecord
100
AcDbRegAppTableRecord
  2
ACAD
 70
     0
  0
APPID
  5
387
330
333
100
AcDbSymbolTableRecord
100
AcDbRegAppTableRecord
  2
QCAD
 70
     0
  0
ENDTAB
  0
TABLE
  2
DIMSTYLE
  5
334
330
0
100
AcDbSymbolTable
 70
     2
100
AcDbDimStyleTable
  0
DIMSTYLE
105
350
330
334
100
AcDbSymbolTableRecord
100
AcDbDimStyleTableRecord
  2
Standard
 70
     0
178
     0
340
33B
  0
DIMSTYLE
105
3BF
102
{ACAD_REACTORS
330
24F
330
250
330
251
330
252
330
254
330
255
330
256
102
}
330
334
100
AcDbSymbolTableRecord
100
AcDbDimStyleTableRecord
  2
QCADDimStyle
 70
     0
 41
2.5
 42
0.625
 43
5.0
 44
1.25
 73
     0
 77
     1
 78
     8
 79
     2
140
2.5
147
0.625
178
     0
279
     2
340
33B
  0
ENDTAB
  0
TABLE
  2
BLOCK_RECORD
  5
32C
330
0
100
AcDbSymbolTable
 70
     0
  0
BLOCK_RECORD
  5
348
330
32C
100
AcDbSymbolTableRecord
100
AcDbBlockTableRecord
  2
*Model_Space
340
34B
 70
     0
280
     1
281
     0
  0
BLOCK_RECORD
  5
344
330
32C
100
AcDbSymbolTableRecord
100
AcDbBlockTableRecord
  2
*Paper_Space
340
347
 70
     0
280
     1
281
     0
  0
ENDTAB
  0
ENDSEC
  0
SECTION
  2
BLOCKS
  0
BLOCK
  5
349
330
348
100
AcDbEntity
  8
0
100
AcDbBlockBegin
  2
*Model_Space
 70
     0
 10
0.0
 20
0.0
 30
0.0
  3
*Model_Space
  1

  0
ENDBLK
  5
34A
330
348
100
AcDbEntity
  8
0
100
AcDbBlockEnd
  0
BLOCK
  5
345
330
344
100
AcDbEntity
 67
     1
  8
0
100
AcDbBlockBegin
  2
*Paper_Space
 70
     0
 10
0.0
 20
0.0
 30
0.0
  3
*Paper_Space
  1

  0
ENDBLK
  5
346
330
344
100
AcDbEntity
 67
     1
  8
0
100
AcDbBlockEnd
  0
ENDSEC
  0
SECTION
  2
ENTITIES
  0
LINE
  5
39
330
348
100
AcDbEntity
  8
0
100
AcDbLine
 10
0.0
 20
0.0
 30
0.0
 11
0.0
 21
26.0
 31
0.0
  0
LINE
  5
248
330
348
100
AcDbEntity
  8
0
100
AcDbLine
 10
111.41808887808
 20
26.0
 30
0.0
 11
200.0
 21
26.0
 31
0.0
  0
LINE
  5
24D
330
348
100
AcDbEntity
  8
0
100
AcDbLine
 10
0.0
 20
26.0
 30
0.0
 11
110.1846012237589
 21
26.00147890946502
 31
0.0
  0
LINE
  5
3B
330
348
100
AcDbEntity
  8
0
100
AcDbLine
 10
200.0
 20
26.0
 30
0.0
 11
200.0
 21
0.0
 31
0.0
  0
LINE
  5
23F
330
348
100
AcDbEntity
  8
0
100
AcDbLine
 10
200.0
 20
0.0
 30
0.0
 11
104.5102626574269
 21
0.0
 31
0.0
  0
LINE
  5
240
330
348
100
AcDbEntity
  8
0
100
AcDbLine
 10
104.5102626574269
 20
0.0
 30
0.0
 11
105.0
 21
0.0
 31
0.0
  0
LINE
  5
242
330
348
100
AcDbEntity
  8
0
100
AcDbLine
 10
101.3528111003021
 20
0.0
 30
0.0
 11
0.0
 21
0.0
 31
0.0
  0
LINE
  5
243
330
348
100
AcDbEntity
  8
0
100
AcDbLine
 10
105.0
 20
0.0
 30
0.0
 11
103.67201286144
 21
0.0
 31
0.0
  0
LINE
  5
3D
330
348
100
AcDbEntity
  8
0
  6
CENTER
100
AcDbLine
 10
-6.0
 20
13.0
 30
0.0
 11
210.0
 21
13.0
 31
0.0
  0
CIRCLE
  5
3E
330
348
100
AcDbEntity
  8
0
100
AcDbCircle
 10
190.0
 20
13.0
 30
0.0
 40
3.0
  0
CIRCLE
  5
3F
330
348
100
AcDbEntity
  8
0
100
AcDbCircle
 10
150.0
 20
13.0
 30
0.0
 40
3.0
  0
LINE
  5
47
330
348
100
AcDbEntity
  8
0
100
AcDbLine
 10
250.0
 20
0.0
 30
0.0
 11
276.0
 21
0.0
 31
0.0
  0
LINE
  5
61
330
348
100
AcDbEntity
  8
0
100
AcDbLine
 10
276.0
 20
16.0
 30
0.0
 11
276.0
 21
26.0
 31
0.0
  0
LINE
  5
62
330
348
100
AcDbEntity
  8
0
100
AcDbLine
 10
276.0
 20
0.0
 30
0.0
 11
276.0
 21
10.0
 31
0.0
  0
LINE
  5
63
330
348
100
AcDbEntity
  8
0
100
AcDbLine
 10
276.0
 20
10.0
 30
0.0
 11
276.0
 21
16.0
 31
0.0
  0
LINE
  5
49
330
348
100
AcDbEntity
  8
0
100
AcDbLine
 10
276.0
 20
26.0
 30
0.0
 11
250.0
 21
26.0
 31
0.0
  0
LINE
  5
64
330
348
100
AcDbEntity
  8
0
100
AcDbLine
 10
250.0
 20
26.0
 30
0.0
 11
250.0
 21
16.0
 31
0.0
  0
LINE
  5
66
330
348
100
AcDbEntity
  8
0
100
AcDbLine
 10
250.0
 20
16.0
 30
0.0
 11
250.0
 21
10.0
 31
0.0
  0
LINE
  5
67
330
348
100
AcDbEntity
  8
0
100
AcDbLine
 10
250.0
 20
10.0
 30
0.0
 11
250.0
 21
0.0
 31
0.0
  0
LINE
  5
4B
330
348
100
AcDbEntity
  8
0
100
AcDbLine
 10
253.0
 20
3.0
 30
0.0
 11
273.0
 21
3.0
 31
0.0
  0
LINE
  5
5C
330
348
100
AcDbEntity
  8
0
100
AcDbLine
 10
273.0
 20
3.0
 30
0.0
 11
273.0
 21
10.0
 31
0.0
  0
LINE
  5
5E
330
348
100
AcDbEntity
  8
0
100
AcDbLine
 10
273.0
 20
10.0
 30
0.0
 11
273.0
 21
16.0
 31
0.0
  0
LINE
  5
5F
330
348
100
AcDbEntity
  8
0
100
AcDbLine
 10
273.0
 20
16.0
 30
0.0
 11
273.0
 21
23.0
 31
0.0
  0
LINE
  5
4D
330
348
100
AcDbEntity
  8
0
100
AcDbLine
 10
273.0
 20
23.0
 30
0.0
 11
253.0
 21
23.0
 31
0.0
  0
LINE
  5
57
330
348
100
AcDbEntity
  8
0
100
AcDbLine
 10
253.0
 20
23.0
 30
0.0
 11
253.0
 21
16.0
 31
0.0
  0
LINE
  5
5A
330
348
100
AcDbEntity
  8
0
100
AcDbLine
 10
253.0
 20
16.0
 30
0.0
 11
253.0
 21
10.0
 31
0.0
  0
LINE
  5
5B
330
348
100
AcDbEntity
  8
0
100
AcDbLine
 10
253.0
 20
10.0
 30
0.0
 11
253.0
 21
3.0
 31
0.0
  0
LINE
  5
4F
330
348
100
AcDbEntity
  8
0
  6
CENTER
100
AcDbLine
 10
245.0
 20
13.0
 30
0.0
 11
280.8354319703704
 21
13.0
 31
0.0
  0
LINE
  5
50
330
348
100
AcDbEntity
  8
0
  6
CENTER
100
AcDbLine
 10
263.0
 20
-4.0
 30
0.0
 11
263.0
 21
30.76892654320986
 31
0.0
  0
LINE
  5
51
330
348
100
AcDbEntity
  8
0
100
AcDbLine
 10
253.0
 20
16.0
 30
0.0
 11
250.0
 21
16.0
 31
0.0
  0
LINE
  5
52
330
348
100
AcDbEntity
  8
0
100
AcDbLine
 10
250.0
 20
16.0
 30
0.0
 11
250.0
 21
10.0
 31
0.0
  0
LINE
  5
53
330
348
100
AcDbEntity
  8
0
100
AcDbLine
 10
250.0
 20
10.0
 30
0.0
 11
253.0
 21
10.0
 31
0.0
  0
LINE
  5
54
330
348
100
AcDbEntity
  8
0
100
AcDbLine
 10
273.0
 20
16.0
 30
0.0
 11
276.0
 21
16.0
 31
0.0
  0
LINE
  5
55
330
348
100
AcDbEntity
  8
0
100
AcDbLine
 10
276.0
 20
16.0
 30
0.0
 11
276.0
 21
10.0
 31
0.0
  0
LINE
  5
56
330
348
100
AcDbEntity
  8
0
100
AcDbLine
 10
276.0
 20
10.0
 30
0.0
 11
273.0
 21
10.0
 31
0.0
  0
HATCH
  5
68
330
348
100
AcDbEntity
  8
0
440
 33554687
100
AcDbHatch
 10
0.0
 20
0.0
 30
0.0
210
0.0
220
0.0
230
1.0
  2
ANSI31
 70
     0
 71
     0
 91
        1
 92
        0
 93
       10
 72
     1
 10
273.0
 20
3.0
 11
273.0
 21
10.0
 72
     1
 10
273.0
 20
10.0
 11
276.0
 21
10.0
 72
     1
 10
276.0
 20
10.0
 11
276.0
 21
0.0
 72
     1
 10
276.0
 20
0.0
 11
263.0
 21
0.0
 72
     1
 10
263.0
 20
0.0
 11
250.0
 21
0.0
 72
     1
 10
250.0
 20
0.0
 11
250.0
 21
10.0
 72
     1
 10
250.0
 20
10.0
 11
253.0
 21
10.0
 72
     1
 10
253.0
 20
10.0
 11
253.0
 21
3.0
 72
     1
 10
253.0
 20
3.0
 11
263.0
 21
3.0
 72
     1
 10
263.0
 20
3.0
 11
273.0
 21
3.0
 97
        0
 75
     0
 76
     0
 52
0.0
 41
0.5
 77
     0
 78
     1
 53
45.0
 43
0.0
 44
0.0
 45
-1.122532015133644
 46
1.122532015133644
 79
     0
 98
        0
1001
ACAD
1010
0.0
1020
0.0
1030
0.0
  0
HATCH
  5
69
330
348
100
AcDbEntity
  8
0
440
 33554687
100
AcDbHatch
 10
0.0
 20
0.0
 30
0.0
210
0.0
220
0.0
230
1.0
  2
ANSI31
 70
     0
 71
     0
 91
        1
 92
        0
 93
       10
 72
     1
 10
273.0
 20
16.0
 11
273.0
 21
23.0
 72
     1
 10
273.0
 20
23.0
 11
263.0
 21
23.0
 72
     1
 10
263.0
 20
23.0
 11
253.0
 21
23.0
 72
     1
 10
253.0
 20
23.0
 11
253.0
 21
16.0
 72
     1
 10
253.0
 20
16.0
 11
250.0
 21
16.0
 72
     1
 10
250.0
 20
16.0
 11
250.0
 21
26.0
 72
     1
 10
250.0
 20
26.0
 11
263.0
 21
26.0
 72
     1
 10
263.0
 20
26.0
 11
276.0
 21
26.0
 72
     1
 10
276.0
 20
26.0
 11
276.0
 21
16.0
 72
     1
 10
276.0
 20
16.0
 11
273.0
 21
16.0
 97
        0
 75
     0
 76
     0
 52
0.0
 41
0.5
 77
     0
 78
     1
 53
45.0
 43
0.0
 44
0.0
 45
-1.122532015133644
 46
1.122532015133644
 79
     0
 98
        0
1001
ACAD
1010
0.0
1020
0.0
1030
0.0
  0
LINE
  5
6A
330
348
100
AcDbEntity
  8
0
100
AcDbLine
 10
104.33808887808
 20
-4.758228049920003
 30
0.0
 11
104.33808887808
 21
-4.638228049920006
 31
0.0
  0
LINE
  5
6B
330
348
100
AcDbEntity
  8
0
100
AcDbLine
 10
104.33808887808
 20
-4.638228049920006
 30
0.0
 11
104.21808887808
 21
-4.518228049920001
 31
0.0
  0
LINE
  5
6C
330
348
100
AcDbEntity
  8
0
100
AcDbLine
 10
104.21808887808
 20
-4.518228049920001
 30
0.0
 11
104.21808887808
 21
-4.518228049920001
 31
0.0
  0
LINE
  5
6D
330
348
100
AcDbEntity
  8
0
100
AcDbLine
 10
104.21808887808
 20
-4.518228049920001
 30
0.0
 11
104.21808887808
 21
-4.278228049920006
 31
0.0
  0
LINE
  5
6E
330
348
100
AcDbEntity
  8
0
100
AcDbLine
 10
104.21808887808
 20
-4.278228049920006
 30
0.0
 11
104.21808887808
 21
-4.158228049920002
 31
0.0
  0
LINE
  5
6F
330
348
100
AcDbEntity
  8
0
100
AcDbLine
 10
104.21808887808
 20
-4.158228049920002
 30
0.0
 11
104.09808887808
 21
-3.798228049920002
 31
0.0
  0
LINE
  5
70
330
348
100
AcDbEntity
  8
0
100
AcDbLine
 10
104.09808887808
 20
-3.798228049920002
 30
0.0
 11
104.09808887808
 21
-3.678228049920005
 31
0.0
  0
LINE
  5
71
330
348
100
AcDbEntity
  8
0
100
AcDbLine
 10
104.09808887808
 20
-3.678228049920005
 30
0.0
 11
103.97808887808
 21
-3.438228049920003
 31
0.0
  0
LINE
  5
72
330
348
100
AcDbEntity
  8
0
100
AcDbLine
 10
103.97808887808
 20
-3.438228049920003
 30
0.0
 11
103.85808887808
 21
-3.078228049920003
 31
0.0
  0
LINE
  5
73
330
348
100
AcDbEntity
  8
0
100
AcDbLine
 10
103.85808887808
 20
-3.078228049920003
 30
0.0
 11
103.85808887808
 21
-2.838228049920001
 31
0.0
  0
LINE
  5
74
330
348
100
AcDbEntity
  8
0
100
AcDbLine
 10
103.85808887808
 20
-2.838228049920001
 30
0.0
 11
103.85808887808
 21
-2.598228049920007
 31
0.0
  0
LINE
  5
75
330
348
100
AcDbEntity
  8
0
100
AcDbLine
 10
103.85808887808
 20
-2.598228049920007
 30
0.0
 11
103.85808887808
 21
-2.358228049920005
 31
0.0
  0
LINE
  5
76
330
348
100
AcDbEntity
  8
0
100
AcDbLine
 10
103.85808887808
 20
-2.358228049920005
 30
0.0
 11
103.85808887808
 21
-1.998228049920005
 31
0.0
  0
LINE
  5
77
330
348
100
AcDbEntity
  8
0
100
AcDbLine
 10
103.85808887808
 20
-1.998228049920005
 30
0.0
 11
103.85808887808
 21
-1.758228049920003
 31
0.0
  0
LINE
  5
78
330
348
100
AcDbEntity
  8
0
100
AcDbLine
 10
103.85808887808
 20
-1.758228049920003
 30
0.0
 11
103.73808887808
 21
-1.638228049920006
 31
0.0
  0
LINE
  5
79
330
348
100
AcDbEntity
  8
0
100
AcDbLine
 10
103.73808887808
 20
-1.638228049920006
 30
0.0
 11
103.73808887808
 21
-1.278228049920006
 31
0.0
  0
LINE
  5
7A
330
348
100
AcDbEntity
  8
0
100
AcDbLine
 10
103.73808887808
 20
-1.278228049920006
 30
0.0
 11
103.73808887808
 21
-1.038228049920004
 31
0.0
  0
LINE
  5
7B
330
348
100
AcDbEntity
  8
0
100
AcDbLine
 10
103.73808887808
 20
-1.038228049920004
 30
0.0
 11
103.73808887808
 21
-0.9182280499200033
 31
0.0
  0
LINE
  5
7C
330
348
100
AcDbEntity
  8
0
100
AcDbLine
 10
103.73808887808
 20
-0.9182280499200033
 30
0.0
 11
103.73808887808
 21
-0.5582280499200039
 31
0.0
  0
LINE
  5
7D
330
348
100
AcDbEntity
  8
0
100
AcDbLine
 10
103.73808887808
 20
-0.5582280499200039
 30
0.0
 11
103.73808887808
 21
-0.4382280499200064
 31
0.0
  0
LINE
  5
7E
330
348
100
AcDbEntity
  8
0
100
AcDbLine
 10
103.73808887808
 20
-0.4382280499200064
 30
0.0
 11
103.73808887808
 21
-0.1982280499200044
 31
0.0
  0
LINE
  5
7F
330
348
100
AcDbEntity
  8
0
100
AcDbLine
 10
103.73808887808
 20
-0.1982280499200044
 30
0.0
 11
103.61808887808
 21
0.161771950079995
 31
0.0
  0
LINE
  5
80
330
348
100
AcDbEntity
  8
0
100
AcDbLine
 10
103.61808887808
 20
0.161771950079995
 30
0.0
 11
103.73808887808
 21
0.5217719500799944
 31
0.0
  0
LINE
  5
81
330
348
100
AcDbEntity
  8
0
100
AcDbLine
 10
103.73808887808
 20
0.5217719500799944
 30
0.0
 11
103.73808887808
 21
0.8817719500799939
 31
0.0
  0
LINE
  5
82
330
348
100
AcDbEntity
  8
0
100
AcDbLine
 10
103.73808887808
 20
0.8817719500799939
 30
0.0
 11
103.73808887808
 21
1.241771950079993
 31
0.0
  0
LINE
  5
83
330
348
100
AcDbEntity
  8
0
100
AcDbLine
 10
103.73808887808
 20
1.241771950079993
 30
0.0
 11
103.73808887808
 21
1.601771950079996
 31
0.0
  0
LINE
  5
84
330
348
100
AcDbEntity
  8
0
100
AcDbLine
 10
103.73808887808
 20
1.601771950079996
 30
0.0
 11
103.73808887808
 21
1.961771950079996
 31
0.0
  0
LINE
  5
85
330
348
100
AcDbEntity
  8
0
100
AcDbLine
 10
103.73808887808
 20
1.961771950079996
 30
0.0
 11
103.73808887808
 21
2.321771950079995
 31
0.0
  0
LINE
  5
86
330
348
100
AcDbEntity
  8
0
100
AcDbLine
 10
103.73808887808
 20
2.321771950079995
 30
0.0
 11
103.73808887808
 21
2.441771950079993
 31
0.0
  0
LINE
  5
87
330
348
100
AcDbEntity
  8
0
100
AcDbLine
 10
103.73808887808
 20
2.441771950079993
 30
0.0
 11
103.73808887808
 21
2.681771950079995
 31
0.0
  0
LINE
  5
88
330
348
100
AcDbEntity
  8
0
100
AcDbLine
 10
103.73808887808
 20
2.681771950079995
 30
0.0
 11
103.73808887808
 21
2.801771950079996
 31
0.0
  0
LINE
  5
89
330
348
100
AcDbEntity
  8
0
100
AcDbLine
 10
103.73808887808
 20
2.801771950079996
 30
0.0
 11
103.85808887808
 21
3.041771950079994
 31
0.0
  0
LINE
  5
8A
330
348
100
AcDbEntity
  8
0
100
AcDbLine
 10
103.85808887808
 20
3.041771950079994
 30
0.0
 11
103.85808887808
 21
3.281771950079992
 31
0.0
  0
LINE
  5
8B
330
348
100
AcDbEntity
  8
0
100
AcDbLine
 10
103.85808887808
 20
3.281771950079992
 30
0.0
 11
103.85808887808
 21
3.401771950079993
 31
0.0
  0
LINE
  5
8C
330
348
100
AcDbEntity
  8
0
100
AcDbLine
 10
103.85808887808
 20
3.401771950079993
 30
0.0
 11
103.97808887808
 21
3.521771950079994
 31
0.0
  0
LINE
  5
8D
330
348
100
AcDbEntity
  8
0
100
AcDbLine
 10
103.97808887808
 20
3.521771950079994
 30
0.0
 11
103.97808887808
 21
3.641771950079995
 31
0.0
  0
LINE
  5
8E
330
348
100
AcDbEntity
  8
0
100
AcDbLine
 10
103.97808887808
 20
3.641771950079995
 30
0.0
 11
103.97808887808
 21
3.761771950079993
 31
0.0
  0
LINE
  5
8F
330
348
100
AcDbEntity
  8
0
100
AcDbLine
 10
103.97808887808
 20
3.761771950079993
 30
0.0
 11
103.97808887808
 21
3.881771950079994
 31
0.0
  0
LINE
  5
90
330
348
100
AcDbEntity
  8
0
100
AcDbLine
 10
103.97808887808
 20
3.881771950079994
 30
0.0
 11
104.09808887808
 21
4.121771950079992
 31
0.0
  0
LINE
  5
91
330
348
100
AcDbEntity
  8
0
100
AcDbLine
 10
104.09808887808
 20
4.121771950079992
 30
0.0
 11
104.09808887808
 21
4.241771950079993
 31
0.0
  0
LINE
  5
92
330
348
100
AcDbEntity
  8
0
100
AcDbLine
 10
104.09808887808
 20
4.241771950079993
 30
0.0
 11
104.09808887808
 21
4.481771950079995
 31
0.0
  0
LINE
  5
93
330
348
100
AcDbEntity
  8
0
100
AcDbLine
 10
104.09808887808
 20
4.481771950079995
 30
0.0
 11
104.09808887808
 21
4.601771950079993
 31
0.0
  0
LINE
  5
94
330
348
100
AcDbEntity
  8
0
100
AcDbLine
 10
104.09808887808
 20
4.601771950079993
 30
0.0
 11
104.09808887808
 21
4.841771950079995
 31
0.0
  0
LINE
  5
95
330
348
100
AcDbEntity
  8
0
100
AcDbLine
 10
104.09808887808
 20
4.841771950079995
 30
0.0
 11
104.21808887808
 21
4.961771950079992
 31
0.0
  0
LINE
  5
96
330
348
100
AcDbEntity
  8
0
100
AcDbLine
 10
104.21808887808
 20
4.961771950079992
 30
0.0
 11
104.33808887808
 21
5.201771950079994
 31
0.0
  0
LINE
  5
97
330
348
100
AcDbEntity
  8
0
100
AcDbLine
 10
104.33808887808
 20
5.201771950079994
 30
0.0
 11
104.45808887808
 21
5.321771950079995
 31
0.0
  0
LINE
  5
98
330
348
100
AcDbEntity
  8
0
100
AcDbLine
 10
104.45808887808
 20
5.321771950079995
 30
0.0
 11
104.45808887808
 21
5.441771950079993
 31
0.0
  0
LINE
  5
99
330
348
100
AcDbEntity
  8
0
100
AcDbLine
 10
104.45808887808
 20
5.441771950079993
 30
0.0
 11
104.45808887808
 21
5.561771950079994
 31
0.0
  0
LINE
  5
9A
330
348
100
AcDbEntity
  8
0
100
AcDbLine
 10
104.45808887808
 20
5.561771950079994
 30
0.0
 11
104.69808887808
 21
5.921771950079993
 31
0.0
  0
LINE
  5
9B
330
348
100
AcDbEntity
  8
0
100
AcDbLine
 10
104.69808887808
 20
5.921771950079993
 30
0.0
 11
104.81808887808
 21
6.041771950079994
 31
0.0
  0
LINE
  5
9C
330
348
100
AcDbEntity
  8
0
100
AcDbLine
 10
104.81808887808
 20
6.041771950079994
 30
0.0
 11
104.81808887808
 21
6.281771950079992
 31
0.0
  0
LINE
  5
9D
330
348
100
AcDbEntity
  8
0
100
AcDbLine
 10
104.81808887808
 20
6.281771950079992
 30
0.0
 11
104.93808887808
 21
6.401771950079993
 31
0.0
  0
LINE
  5
9E
330
348
100
AcDbEntity
  8
0
100
AcDbLine
 10
104.93808887808
 20
6.401771950079993
 30
0.0
 11
105.17808887808
 21
6.641771950079992
 31
0.0
  0
LINE
  5
9F
330
348
100
AcDbEntity
  8
0
100
AcDbLine
 10
105.17808887808
 20
6.641771950079992
 30
0.0
 11
105.17808887808
 21
6.881771950079994
 31
0.0
  0
LINE
  5
A0
330
348
100
AcDbEntity
  8
0
100
AcDbLine
 10
105.17808887808
 20
6.881771950079994
 30
0.0
 11
105.41808887808
 21
7.121771950079992
 31
0.0
  0
LINE
  5
A1
330
348
100
AcDbEntity
  8
0
100
AcDbLine
 10
105.41808887808
 20
7.121771950079992
 30
0.0
 11
105.53808887808
 21
7.481771950079992
 31
0.0
  0
LINE
  5
A2
330
348
100
AcDbEntity
  8
0
100
AcDbLine
 10
105.53808887808
 20
7.481771950079992
 30
0.0
 11
105.77808887808
 21
7.721771950079994
 31
0.0
  0
LINE
  5
A3
330
348
100
AcDbEntity
  8
0
100
AcDbLine
 10
105.77808887808
 20
7.721771950079994
 30
0.0
 11
105.89808887808
 21
8.081771950079993
 31
0.0
  0
LINE
  5
A4
330
348
100
AcDbEntity
  8
0
100
AcDbLine
 10
105.89808887808
 20
8.081771950079993
 30
0.0
 11
106.25808887808
 21
8.441771950079993
 31
0.0
  0
LINE
  5
A5
330
348
100
AcDbEntity
  8
0
100
AcDbLine
 10
106.25808887808
 20
8.441771950079993
 30
0.0
 11
106.25808887808
 21
8.681771950079991
 31
0.0
  0
LINE
  5
A6
330
348
100
AcDbEntity
  8
0
100
AcDbLine
 10
106.25808887808
 20
8.681771950079991
 30
0.0
 11
106.73808887808
 21
9.161771950079991
 31
0.0
  0
LINE
  5
A7
330
348
100
AcDbEntity
  8
0
100
AcDbLine
 10
106.73808887808
 20
9.161771950079991
 30
0.0
 11
106.85808887808
 21
9.401771950079993
 31
0.0
  0
LINE
  5
A8
330
348
100
AcDbEntity
  8
0
100
AcDbLine
 10
106.85808887808
 20
9.401771950079993
 30
0.0
 11
107.09808887808
 21
9.52177195007999
 31
0.0
  0
LINE
  5
A9
330
348
100
AcDbEntity
  8
0
100
AcDbLine
 10
107.09808887808
 20
9.52177195007999
 30
0.0
 11
107.33808887808
 21
10.00177195007999
 31
0.0
  0
LINE
  5
AA
330
348
100
AcDbEntity
  8
0
100
AcDbLine
 10
107.33808887808
 20
10.00177195007999
 30
0.0
 11
107.57808887808
 21
10.24177195007999
 31
0.0
  0
LINE
  5
AB
330
348
100
AcDbEntity
  8
0
100
AcDbLine
 10
107.57808887808
 20
10.24177195007999
 30
0.0
 11
107.69808887808
 21
10.36177195007999
 31
0.0
  0
LINE
  5
AC
330
348
100
AcDbEntity
  8
0
100
AcDbLine
 10
107.69808887808
 20
10.36177195007999
 30
0.0
 11
107.81808887808
 21
10.60177195007999
 31
0.0
  0
LINE
  5
AD
330
348
100
AcDbEntity
  8
0
100
AcDbLine
 10
107.81808887808
 20
10.60177195007999
 30
0.0
 11
108.05808887808
 21
11.20177195007999
 31
0.0
  0
LINE
  5
AE
330
348
100
AcDbEntity
  8
0
100
AcDbLine
 10
108.05808887808
 20
11.20177195007999
 30
0.0
 11
108.29808887808
 21
11.44177195007999
 31
0.0
  0
LINE
  5
AF
330
348
100
AcDbEntity
  8
0
100
AcDbLine
 10
108.29808887808
 20
11.44177195007999
 30
0.0
 11
108.65808887808
 21
12.04177195007999
 31
0.0
  0
LINE
  5
B0
330
348
100
AcDbEntity
  8
0
100
AcDbLine
 10
108.65808887808
 20
12.04177195007999
 30
0.0
 11
108.89808887808
 21
12.40177195007999
 31
0.0
  0
LINE
  5
B1
330
348
100
AcDbEntity
  8
0
100
AcDbLine
 10
108.89808887808
 20
12.40177195007999
 30
0.0
 11
109.01808887808
 21
12.76177195007999
 31
0.0
  0
LINE
  5
B2
330
348
100
AcDbEntity
  8
0
100
AcDbLine
 10
109.01808887808
 20
12.76177195007999
 30
0.0
 11
109.13808887808
 21
13.00177195007999
 31
0.0
  0
LINE
  5
B3
330
348
100
AcDbEntity
  8
0
100
AcDbLine
 10
109.13808887808
 20
13.00177195007999
 30
0.0
 11
109.49808887808
 21
13.48177195007999
 31
0.0
  0
LINE
  5
B4
330
348
100
AcDbEntity
  8
0
100
AcDbLine
 10
109.49808887808
 20
13.48177195007999
 30
0.0
 11
109.49808887808
 21
13.72177195007999
 31
0.0
  0
LINE
  5
B5
330
348
100
AcDbEntity
  8
0
100
AcDbLine
 10
109.49808887808
 20
13.72177195007999
 30
0.0
 11
109.61808887808
 21
13.84177195007999
 31
0.0
  0
LINE
  5
B6
330
348
100
AcDbEntity
  8
0
100
AcDbLine
 10
109.61808887808
 20
13.84177195007999
 30
0.0
 11
109.85808887808
 21
14.32177195007999
 31
0.0
  0
LINE
  5
B7
330
348
100
AcDbEntity
  8
0
100
AcDbLine
 10
109.85808887808
 20
14.32177195007999
 30
0.0
 11
109.97808887808
 21
14.56177195007999
 31
0.0
  0
LINE
  5
B8
330
348
100
AcDbEntity
  8
0
100
AcDbLine
 10
109.97808887808
 20
14.56177195007999
 30
0.0
 11
110.21808887808
 21
15.28177195007999
 31
0.0
  0
LINE
  5
B9
330
348
100
AcDbEntity
  8
0
100
AcDbLine
 10
110.21808887808
 20
15.28177195007999
 30
0.0
 11
110.33808887808
 21
15.64177195007999
 31
0.0
  0
LINE
  5
BA
330
348
100
AcDbEntity
  8
0
100
AcDbLine
 10
110.33808887808
 20
15.64177195007999
 30
0.0
 11
110.57808887808
 21
16.36177195007999
 31
0.0
  0
LINE
  5
BB
330
348
100
AcDbEntity
  8
0
100
AcDbLine
 10
110.57808887808
 20
16.36177195007999
 30
0.0
 11
110.69808887808
 21
16.96177195007999
 31
0.0
  0
LINE
  5
BC
330
348
100
AcDbEntity
  8
0
100
AcDbLine
 10
110.69808887808
 20
16.96177195007999
 30
0.0
 11
110.81808887808
 21
17.32177195007999
 31
0.0
  0
LINE
  5
BD
330
348
100
AcDbEntity
  8
0
100
AcDbLine
 10
110.81808887808
 20
17.32177195007999
 30
0.0
 11
110.93808887808
 21
18.16177195007999
 31
0.0
  0
LINE
  5
BE
330
348
100
AcDbEntity
  8
0
100
AcDbLine
 10
110.93808887808
 20
18.16177195007999
 30
0.0
 11
111.05808887808
 21
18.40177195007999
 31
0.0
  0
LINE
  5
BF
330
348
100
AcDbEntity
  8
0
100
AcDbLine
 10
111.05808887808
 20
18.40177195007999
 30
0.0
 11
111.17808887808
 21
19.00177195007999
 31
0.0
  0
LINE
  5
C0
330
348
100
AcDbEntity
  8
0
100
AcDbLine
 10
111.17808887808
 20
19.00177195007999
 30
0.0
 11
111.17808887808
 21
19.36177195007999
 31
0.0
  0
LINE
  5
C1
330
348
100
AcDbEntity
  8
0
100
AcDbLine
 10
111.17808887808
 20
19.36177195007999
 30
0.0
 11
111.29808887808
 21
20.08177195007999
 31
0.0
  0
LINE
  5
C2
330
348
100
AcDbEntity
  8
0
100
AcDbLine
 10
111.29808887808
 20
20.08177195007999
 30
0.0
 11
111.29808887808
 21
20.68177195007999
 31
0.0
  0
LINE
  5
C3
330
348
100
AcDbEntity
  8
0
100
AcDbLine
 10
111.29808887808
 20
20.68177195007999
 30
0.0
 11
111.41808887808
 21
21.04177195007999
 31
0.0
  0
LINE
  5
C4
330
348
100
AcDbEntity
  8
0
100
AcDbLine
 10
111.41808887808
 20
21.04177195007999
 30
0.0
 11
111.53808887808
 21
21.76177195007999
 31
0.0
  0
LINE
  5
C5
330
348
100
AcDbEntity
  8
0
100
AcDbLine
 10
111.53808887808
 20
21.76177195007999
 30
0.0
 11
111.53808887808
 21
22.12177195007999
 31
0.0
  0
LINE
  5
C6
330
348
100
AcDbEntity
  8
0
100
AcDbLine
 10
111.53808887808
 20
22.12177195007999
 30
0.0
 11
111.65808887808
 21
22.84177195007999
 31
0.0
  0
LINE
  5
C7
330
348
100
AcDbEntity
  8
0
100
AcDbLine
 10
111.65808887808
 20
22.84177195007999
 30
0.0
 11
111.65808887808
 21
23.56177195007999
 31
0.0
  0
LINE
  5
C8
330
348
100
AcDbEntity
  8
0
100
AcDbLine
 10
111.65808887808
 20
23.56177195007999
 30
0.0
 11
111.65808887808
 21
23.80177195007999
 31
0.0
  0
LINE
  5
C9
330
348
100
AcDbEntity
  8
0
100
AcDbLine
 10
111.65808887808
 20
23.80177195007999
 30
0.0
 11
111.53808887808
 21
24.28177195007999
 31
0.0
  0
LINE
  5
CA
330
348
100
AcDbEntity
  8
0
100
AcDbLine
 10
111.53808887808
 20
24.28177195007999
 30
0.0
 11
111.53808887808
 21
24.88177195007999
 31
0.0
  0
LINE
  5
CB
330
348
100
AcDbEntity
  8
0
100
AcDbLine
 10
111.53808887808
 20
24.88177195007999
 30
0.0
 11
111.41808887808
 21
25.00177195007999
 31
0.0
  0
LINE
  5
CC
330
348
100
AcDbEntity
  8
0
100
AcDbLine
 10
111.41808887808
 20
25.00177195007999
 30
0.0
 11
111.41808887808
 21
25.60177195007999
 31
0.0
  0
LINE
  5
CD
330
348
100
AcDbEntity
  8
0
100
AcDbLine
 10
111.41808887808
 20
25.60177195007999
 30
0.0
 11
111.41808887808
 21
26.08177195007999
 31
0.0
  0
LINE
  5
CE
330
348
100
AcDbEntity
  8
0
100
AcDbLine
 10
111.41808887808
 20
26.08177195007999
 30
0.0
 11
111.29808887808
 21
26.56177195007999
 31
0.0
  0
LINE
  5
CF
330
348
100
AcDbEntity
  8
0
100
AcDbLine
 10
111.29808887808
 20
26.56177195007999
 30
0.0
 11
111.17808887808
 21
26.92177195007999
 31
0.0
  0
LINE
  5
D0
330
348
100
AcDbEntity
  8
0
100
AcDbLine
 10
111.17808887808
 20
26.92177195007999
 30
0.0
 11
111.05808887808
 21
27.16177195007999
 31
0.0
  0
LINE
  5
D1
330
348
100
AcDbEntity
  8
0
100
AcDbLine
 10
111.05808887808
 20
27.16177195007999
 30
0.0
 11
111.05808887808
 21
27.52177195007999
 31
0.0
  0
LINE
  5
D2
330
348
100
AcDbEntity
  8
0
100
AcDbLine
 10
111.05808887808
 20
27.52177195007999
 30
0.0
 11
110.93808887808
 21
27.88177195007999
 31
0.0
  0
LINE
  5
D3
330
348
100
AcDbEntity
  8
0
100
AcDbLine
 10
110.93808887808
 20
27.88177195007999
 30
0.0
 11
110.69808887808
 21
28.12177195007999
 31
0.0
  0
LINE
  5
D4
330
348
100
AcDbEntity
  8
0
100
AcDbLine
 10
110.69808887808
 20
28.12177195007999
 30
0.0
 11
110.69808887808
 21
28.36177195007999
 31
0.0
  0
LINE
  5
D5
330
348
100
AcDbEntity
  8
0
100
AcDbLine
 10
110.69808887808
 20
28.36177195007999
 30
0.0
 11
110.45808887808
 21
28.60177195007999
 31
0.0
  0
LINE
  5
D6
330
348
100
AcDbEntity
  8
0
100
AcDbLine
 10
110.45808887808
 20
28.60177195007999
 30
0.0
 11
110.21808887808
 21
29.20177195007999
 31
0.0
  0
LINE
  5
D7
330
348
100
AcDbEntity
  8
0
100
AcDbLine
 10
110.21808887808
 20
29.20177195007999
 30
0.0
 11
109.97808887808
 21
29.44177195007999
 31
0.0
  0
LINE
  5
D8
330
348
100
AcDbEntity
  8
0
100
AcDbLine
 10
109.97808887808
 20
29.44177195007999
 30
0.0
 11
109.85808887808
 21
29.68177195007999
 31
0.0
  0
LINE
  5
D9
330
348
100
AcDbEntity
  8
0
100
AcDbLine
 10
109.85808887808
 20
29.68177195007999
 30
0.0
 11
109.61808887808
 21
29.80177195007999
 31
0.0
  0
LINE
  5
DA
330
348
100
AcDbEntity
  8
0
100
AcDbLine
 10
109.61808887808
 20
29.80177195007999
 30
0.0
 11
109.61808887808
 21
30.04177195007999
 31
0.0
  0
LINE
  5
DB
330
348
100
AcDbEntity
  8
0
100
AcDbLine
 10
109.61808887808
 20
30.04177195007999
 30
0.0
 11
109.49808887808
 21
30.04177195007999
 31
0.0
  0
LINE
  5
DC
330
348
100
AcDbEntity
  8
0
100
AcDbLine
 10
109.49808887808
 20
30.04177195007999
 30
0.0
 11
109.49808887808
 21
30.04177195007999
 31
0.0
  0
LINE
  5
DD
330
348
100
AcDbEntity
  8
0
100
AcDbLine
 10
102.4361444336355
 20
-4.627762962962965
 30
0.0
 11
102.4361444336355
 21
-4.627762962962965
 31
0.0
  0
LINE
  5
DE
330
348
100
AcDbEntity
  8
0
100
AcDbLine
 10
102.4361444336355
 20
-4.627762962962965
 30
0.0
 11
102.4361444336355
 21
-4.544429629629629
 31
0.0
  0
LINE
  5
DF
330
348
100
AcDbEntity
  8
0
100
AcDbLine
 10
102.4361444336355
 20
-4.544429629629629
 30
0.0
 11
102.4361444336355
 21
-4.461096296296297
 31
0.0
  0
LINE
  5
E0
330
348
100
AcDbEntity
  8
0
100
AcDbLine
 10
102.4361444336355
 20
-4.461096296296297
 30
0.0
 11
102.4361444336355
 21
-4.377762962962965
 31
0.0
  0
LINE
  5
E1
330
348
100
AcDbEntity
  8
0
100
AcDbLine
 10
102.4361444336355
 20
-4.377762962962965
 30
0.0
 11
102.4361444336355
 21
-4.294429629629629
 31
0.0
  0
LINE
  5
E2
330
348
100
AcDbEntity
  8
0
100
AcDbLine
 10
102.4361444336355
 20
-4.294429629629629
 30
0.0
 11
102.4361444336355
 21
-4.127762962962965
 31
0.0
  0
LINE
  5
E3
330
348
100
AcDbEntity
  8
0
100
AcDbLine
 10
102.4361444336355
 20
-4.127762962962965
 30
0.0
 11
102.3528111003021
 21
-4.044429629629629
 31
0.0
  0
LINE
  5
E4
330
348
100
AcDbEntity
  8
0
100
AcDbLine
 10
102.3528111003021
 20
-4.044429629629629
 30
0.0
 11
102.3528111003021
 21
-3.877762962962965
 31
0.0
  0
LINE
  5
E5
330
348
100
AcDbEntity
  8
0
100
AcDbLine
 10
102.3528111003021
 20
-3.877762962962965
 30
0.0
 11
102.3528111003021
 21
-3.794429629629629
 31
0.0
  0
LINE
  5
E6
330
348
100
AcDbEntity
  8
0
100
AcDbLine
 10
102.3528111003021
 20
-3.794429629629629
 30
0.0
 11
102.2694777669688
 21
-3.711096296296297
 31
0.0
  0
LINE
  5
E7
330
348
100
AcDbEntity
  8
0
100
AcDbLine
 10
102.2694777669688
 20
-3.711096296296297
 30
0.0
 11
102.2694777669688
 21
-3.627762962962965
 31
0.0
  0
LINE
  5
E8
330
348
100
AcDbEntity
  8
0
100
AcDbLine
 10
102.2694777669688
 20
-3.627762962962965
 30
0.0
 11
102.2694777669688
 21
-3.461096296296297
 31
0.0
  0
LINE
  5
E9
330
348
100
AcDbEntity
  8
0
100
AcDbLine
 10
102.2694777669688
 20
-3.461096296296297
 30
0.0
 11
102.2694777669688
 21
-3.294429629629629
 31
0.0
  0
LINE
  5
EA
330
348
100
AcDbEntity
  8
0
100
AcDbLine
 10
102.2694777669688
 20
-3.294429629629629
 30
0.0
 11
102.1861444336355
 21
-3.127762962962965
 31
0.0
  0
LINE
  5
EB
330
348
100
AcDbEntity
  8
0
100
AcDbLine
 10
102.1861444336355
 20
-3.127762962962965
 30
0.0
 11
102.1861444336355
 21
-2.877762962962965
 31
0.0
  0
LINE
  5
EC
330
348
100
AcDbEntity
  8
0
100
AcDbLine
 10
102.1861444336355
 20
-2.877762962962965
 30
0.0
 11
102.1028111003021
 21
-2.794429629629629
 31
0.0
  0
LINE
  5
ED
330
348
100
AcDbEntity
  8
0
100
AcDbLine
 10
102.1028111003021
 20
-2.794429629629629
 30
0.0
 11
102.0194777669688
 21
-2.627762962962965
 31
0.0
  0
LINE
  5
EE
330
348
100
AcDbEntity
  8
0
100
AcDbLine
 10
102.0194777669688
 20
-2.627762962962965
 30
0.0
 11
102.0194777669688
 21
-2.377762962962965
 31
0.0
  0
LINE
  5
EF
330
348
100
AcDbEntity
  8
0
100
AcDbLine
 10
102.0194777669688
 20
-2.377762962962965
 30
0.0
 11
101.9361444336355
 21
-2.211096296296297
 31
0.0
  0
LINE
  5
F0
330
348
100
AcDbEntity
  8
0
100
AcDbLine
 10
101.9361444336355
 20
-2.211096296296297
 30
0.0
 11
101.7694777669688
 21
-1.961096296296297
 31
0.0
  0
LINE
  5
F1
330
348
100
AcDbEntity
  8
0
100
AcDbLine
 10
101.7694777669688
 20
-1.961096296296297
 30
0.0
 11
101.7694777669688
 21
-1.877762962962965
 31
0.0
  0
LINE
  5
F2
330
348
100
AcDbEntity
  8
0
100
AcDbLine
 10
101.7694777669688
 20
-1.877762962962965
 30
0.0
 11
101.7694777669688
 21
-1.627762962962965
 31
0.0
  0
LINE
  5
F3
330
348
100
AcDbEntity
  8
0
100
AcDbLine
 10
101.7694777669688
 20
-1.627762962962965
 30
0.0
 11
101.7694777669688
 21
-1.544429629629633
 31
0.0
  0
LINE
  5
F4
330
348
100
AcDbEntity
  8
0
100
AcDbLine
 10
101.7694777669688
 20
-1.544429629629633
 30
0.0
 11
101.7694777669688
 21
-1.377762962962965
 31
0.0
  0
LINE
  5
F5
330
348
100
AcDbEntity
  8
0
100
AcDbLine
 10
101.7694777669688
 20
-1.377762962962965
 30
0.0
 11
101.6861444336355
 21
-1.377762962962965
 31
0.0
  0
LINE
  5
F6
330
348
100
AcDbEntity
  8
0
100
AcDbLine
 10
101.6861444336355
 20
-1.377762962962965
 30
0.0
 11
101.6861444336355
 21
-1.211096296296297
 31
0.0
  0
LINE
  5
F7
330
348
100
AcDbEntity
  8
0
100
AcDbLine
 10
101.6861444336355
 20
-1.211096296296297
 30
0.0
 11
101.6861444336355
 21
-1.127762962962965
 31
0.0
  0
LINE
  5
F8
330
348
100
AcDbEntity
  8
0
100
AcDbLine
 10
101.6861444336355
 20
-1.127762962962965
 30
0.0
 11
101.6028111003021
 21
-1.044429629629633
 31
0.0
  0
LINE
  5
F9
330
348
100
AcDbEntity
  8
0
100
AcDbLine
 10
101.6028111003021
 20
-1.044429629629633
 30
0.0
 11
101.6028111003021
 21
-0.8777629629629651
 31
0.0
  0
LINE
  5
FA
330
348
100
AcDbEntity
  8
0
100
AcDbLine
 10
101.6028111003021
 20
-0.8777629629629651
 30
0.0
 11
101.5194777669688
 21
-0.8777629629629651
 31
0.0
  0
LINE
  5
FB
330
348
100
AcDbEntity
  8
0
100
AcDbLine
 10
101.5194777669688
 20
-0.8777629629629651
 30
0.0
 11
101.5194777669688
 21
-0.7944296296296329
 31
0.0
  0
LINE
  5
FC
330
348
100
AcDbEntity
  8
0
100
AcDbLine
 10
101.5194777669688
 20
-0.7944296296296329
 30
0.0
 11
101.5194777669688
 21
-0.7110962962962972
 31
0.0
  0
LINE
  5
FD
330
348
100
AcDbEntity
  8
0
100
AcDbLine
 10
101.5194777669688
 20
-0.7110962962962972
 30
0.0
 11
101.5194777669688
 21
-0.6277629629629651
 31
0.0
  0
LINE
  5
FE
330
348
100
AcDbEntity
  8
0
100
AcDbLine
 10
101.5194777669688
 20
-0.6277629629629651
 30
0.0
 11
101.5194777669688
 21
-0.5444296296296329
 31
0.0
  0
LINE
  5
FF
330
348
100
AcDbEntity
  8
0
100
AcDbLine
 10
101.5194777669688
 20
-0.5444296296296329
 30
0.0
 11
101.4361444336355
 21
-0.4610962962962972
 31
0.0
  0
LINE
  5
100
330
348
100
AcDbEntity
  8
0
100
AcDbLine
 10
101.4361444336355
 20
-0.4610962962962972
 30
0.0
 11
101.4361444336355
 21
-0.3777629629629651
 31
0.0
  0
LINE
  5
101
330
348
100
AcDbEntity
  8
0
100
AcDbLine
 10
101.4361444336355
 20
-0.3777629629629651
 30
0.0
 11
101.4361444336355
 21
-0.2944296296296329
 31
0.0
  0
LINE
  5
102
330
348
100
AcDbEntity
  8
0
100
AcDbLine
 10
101.4361444336355
 20
-0.2944296296296329
 30
0.0
 11
101.4361444336355
 21
-0.2110962962962972
 31
0.0
  0
LINE
  5
103
330
348
100
AcDbEntity
  8
0
100
AcDbLine
 10
101.4361444336355
 20
-0.2110962962962972
 30
0.0
 11
101.3528111003021
 21
-0.1277629629629651
 31
0.0
  0
LINE
  5
104
330
348
100
AcDbEntity
  8
0
100
AcDbLine
 10
101.3528111003021
 20
-0.1277629629629651
 30
0.0
 11
101.3528111003021
 21
-0.1277629629629651
 31
0.0
  0
LINE
  5
105
330
348
100
AcDbEntity
  8
0
100
AcDbLine
 10
101.3528111003021
 20
-0.1277629629629651
 30
0.0
 11
101.3528111003021
 21
-0.0444296296296329
 31
0.0
  0
LINE
  5
106
330
348
100
AcDbEntity
  8
0
100
AcDbLine
 10
101.3528111003021
 20
-0.0444296296296329
 30
0.0
 11
101.3528111003021
 21
0.0389037037037028
 31
0.0
  0
LINE
  5
107
330
348
100
AcDbEntity
  8
0
100
AcDbLine
 10
101.3528111003021
 20
0.0389037037037028
 30
0.0
 11
101.3528111003021
 21
0.1222370370370349
 31
0.0
  0
LINE
  5
108
330
348
100
AcDbEntity
  8
0
100
AcDbLine
 10
101.3528111003021
 20
0.1222370370370349
 30
0.0
 11
101.3528111003021
 21
0.1222370370370349
 31
0.0
  0
LINE
  5
109
330
348
100
AcDbEntity
  8
0
100
AcDbLine
 10
101.3528111003021
 20
0.1222370370370349
 30
0.0
 11
101.3528111003021
 21
0.2055703703703671
 31
0.0
  0
LINE
  5
10A
330
348
100
AcDbEntity
  8
0
100
AcDbLine
 10
101.3528111003021
 20
0.2055703703703671
 30
0.0
 11
101.3528111003021
 21
0.2889037037037028
 31
0.0
  0
LINE
  5
10B
330
348
100
AcDbEntity
  8
0
100
AcDbLine
 10
101.3528111003021
 20
0.2889037037037028
 30
0.0
 11
101.3528111003021
 21
0.3722370370370349
 31
0.0
  0
LINE
  5
10C
330
348
100
AcDbEntity
  8
0
100
AcDbLine
 10
101.3528111003021
 20
0.3722370370370349
 30
0.0
 11
101.3528111003021
 21
0.4555703703703671
 31
0.0
  0
LINE
  5
10D
330
348
100
AcDbEntity
  8
0
100
AcDbLine
 10
101.3528111003021
 20
0.4555703703703671
 30
0.0
 11
101.3528111003021
 21
0.5389037037037028
 31
0.0
  0
LINE
  5
10E
330
348
100
AcDbEntity
  8
0
100
AcDbLine
 10
101.3528111003021
 20
0.5389037037037028
 30
0.0
 11
101.4361444336355
 21
0.6222370370370349
 31
0.0
  0
LINE
  5
10F
330
348
100
AcDbEntity
  8
0
100
AcDbLine
 10
101.4361444336355
 20
0.6222370370370349
 30
0.0
 11
101.4361444336355
 21
0.7889037037037028
 31
0.0
  0
LINE
  5
110
330
348
100
AcDbEntity
  8
0
100
AcDbLine
 10
101.4361444336355
 20
0.7889037037037028
 30
0.0
 11
101.4361444336355
 21
0.8722370370370349
 31
0.0
  0
LINE
  5
111
330
348
100
AcDbEntity
  8
0
100
AcDbLine
 10
101.4361444336355
 20
0.8722370370370349
 30
0.0
 11
101.4361444336355
 21
0.9555703703703688
 31
0.0
  0
LINE
  5
112
330
348
100
AcDbEntity
  8
0
100
AcDbLine
 10
101.4361444336355
 20
0.9555703703703688
 30
0.0
 11
101.4361444336355
 21
1.038903703703701
 31
0.0
  0
LINE
  5
113
330
348
100
AcDbEntity
  8
0
100
AcDbLine
 10
101.4361444336355
 20
1.038903703703701
 30
0.0
 11
101.4361444336355
 21
1.205570370370369
 31
0.0
  0
LINE
  5
114
330
348
100
AcDbEntity
  8
0
100
AcDbLine
 10
101.4361444336355
 20
1.205570370370369
 30
0.0
 11
101.4361444336355
 21
1.372237037037035
 31
0.0
  0
LINE
  5
115
330
348
100
AcDbEntity
  8
0
100
AcDbLine
 10
101.4361444336355
 20
1.372237037037035
 30
0.0
 11
101.4361444336355
 21
1.372237037037035
 31
0.0
  0
LINE
  5
116
330
348
100
AcDbEntity
  8
0
100
AcDbLine
 10
101.4361444336355
 20
1.372237037037035
 30
0.0
 11
101.5194777669688
 21
1.455570370370369
 31
0.0
  0
LINE
  5
117
330
348
100
AcDbEntity
  8
0
100
AcDbLine
 10
101.5194777669688
 20
1.455570370370369
 30
0.0
 11
101.5194777669688
 21
1.538903703703701
 31
0.0
  0
LINE
  5
118
330
348
100
AcDbEntity
  8
0
100
AcDbLine
 10
101.5194777669688
 20
1.538903703703701
 30
0.0
 11
101.5194777669688
 21
1.622237037037035
 31
0.0
  0
LINE
  5
119
330
348
100
AcDbEntity
  8
0
100
AcDbLine
 10
101.5194777669688
 20
1.622237037037035
 30
0.0
 11
101.5194777669688
 21
1.788903703703701
 31
0.0
  0
LINE
  5
11A
330
348
100
AcDbEntity
  8
0
100
AcDbLine
 10
101.5194777669688
 20
1.788903703703701
 30
0.0
 11
101.6028111003021
 21
1.872237037037035
 31
0.0
  0
LINE
  5
11B
330
348
100
AcDbEntity
  8
0
100
AcDbLine
 10
101.6028111003021
 20
1.872237037037035
 30
0.0
 11
101.6861444336355
 21
2.038903703703701
 31
0.0
  0
LINE
  5
11C
330
348
100
AcDbEntity
  8
0
100
AcDbLine
 10
101.6861444336355
 20
2.038903703703701
 30
0.0
 11
101.6861444336355
 21
2.122237037037035
 31
0.0
  0
LINE
  5
11D
330
348
100
AcDbEntity
  8
0
100
AcDbLine
 10
101.6861444336355
 20
2.122237037037035
 30
0.0
 11
101.6861444336355
 21
2.205570370370367
 31
0.0
  0
LINE
  5
11E
330
348
100
AcDbEntity
  8
0
100
AcDbLine
 10
101.6861444336355
 20
2.205570370370367
 30
0.0
 11
101.6861444336355
 21
2.288903703703701
 31
0.0
  0
LINE
  5
11F
330
348
100
AcDbEntity
  8
0
100
AcDbLine
 10
101.6861444336355
 20
2.288903703703701
 30
0.0
 11
101.7694777669688
 21
2.622237037037035
 31
0.0
  0
LINE
  5
120
330
348
100
AcDbEntity
  8
0
100
AcDbLine
 10
101.7694777669688
 20
2.622237037037035
 30
0.0
 11
101.8528111003021
 21
2.622237037037035
 31
0.0
  0
LINE
  5
121
330
348
100
AcDbEntity
  8
0
100
AcDbLine
 10
101.8528111003021
 20
2.622237037037035
 30
0.0
 11
101.8528111003021
 21
2.788903703703701
 31
0.0
  0
LINE
  5
122
330
348
100
AcDbEntity
  8
0
100
AcDbLine
 10
101.8528111003021
 20
2.788903703703701
 30
0.0
 11
101.9361444336355
 21
2.872237037037035
 31
0.0
  0
LINE
  5
123
330
348
100
AcDbEntity
  8
0
100
AcDbLine
 10
101.9361444336355
 20
2.872237037037035
 30
0.0
 11
101.9361444336355
 21
2.955570370370367
 31
0.0
  0
LINE
  5
124
330
348
100
AcDbEntity
  8
0
100
AcDbLine
 10
101.9361444336355
 20
2.955570370370367
 30
0.0
 11
101.9361444336355
 21
3.038903703703701
 31
0.0
  0
LINE
  5
125
330
348
100
AcDbEntity
  8
0
100
AcDbLine
 10
101.9361444336355
 20
3.038903703703701
 30
0.0
 11
101.9361444336355
 21
3.038903703703701
 31
0.0
  0
LINE
  5
126
330
348
100
AcDbEntity
  8
0
100
AcDbLine
 10
101.9361444336355
 20
3.038903703703701
 30
0.0
 11
101.9361444336355
 21
3.205570370370367
 31
0.0
  0
LINE
  5
127
330
348
100
AcDbEntity
  8
0
100
AcDbLine
 10
101.9361444336355
 20
3.205570370370367
 30
0.0
 11
102.0194777669688
 21
3.288903703703701
 31
0.0
  0
LINE
  5
128
330
348
100
AcDbEntity
  8
0
100
AcDbLine
 10
102.0194777669688
 20
3.288903703703701
 30
0.0
 11
102.0194777669688
 21
3.372237037037035
 31
0.0
  0
LINE
  5
129
330
348
100
AcDbEntity
  8
0
100
AcDbLine
 10
102.0194777669688
 20
3.372237037037035
 30
0.0
 11
102.1028111003021
 21
3.538903703703701
 31
0.0
  0
LINE
  5
12A
330
348
100
AcDbEntity
  8
0
100
AcDbLine
 10
102.1028111003021
 20
3.538903703703701
 30
0.0
 11
102.1028111003021
 21
3.622237037037035
 31
0.0
  0
LINE
  5
12B
330
348
100
AcDbEntity
  8
0
100
AcDbLine
 10
102.1028111003021
 20
3.622237037037035
 30
0.0
 11
102.1028111003021
 21
3.622237037037035
 31
0.0
  0
LINE
  5
12C
330
348
100
AcDbEntity
  8
0
100
AcDbLine
 10
102.1028111003021
 20
3.622237037037035
 30
0.0
 11
102.1861444336355
 21
3.705570370370367
 31
0.0
  0
LINE
  5
12D
330
348
100
AcDbEntity
  8
0
100
AcDbLine
 10
102.1861444336355
 20
3.705570370370367
 30
0.0
 11
102.1861444336355
 21
3.872237037037035
 31
0.0
  0
LINE
  5
12E
330
348
100
AcDbEntity
  8
0
100
AcDbLine
 10
102.1861444336355
 20
3.872237037037035
 30
0.0
 11
102.2694777669688
 21
3.955570370370367
 31
0.0
  0
LINE
  5
12F
330
348
100
AcDbEntity
  8
0
100
AcDbLine
 10
102.2694777669688
 20
3.955570370370367
 30
0.0
 11
102.3528111003021
 21
4.122237037037035
 31
0.0
  0
LINE
  5
130
330
348
100
AcDbEntity
  8
0
100
AcDbLine
 10
102.3528111003021
 20
4.122237037037035
 30
0.0
 11
102.4361444336355
 21
4.288903703703701
 31
0.0
  0
LINE
  5
131
330
348
100
AcDbEntity
  8
0
100
AcDbLine
 10
102.4361444336355
 20
4.288903703703701
 30
0.0
 11
102.4361444336355
 21
4.372237037037035
 31
0.0
  0
LINE
  5
132
330
348
100
AcDbEntity
  8
0
100
AcDbLine
 10
102.4361444336355
 20
4.372237037037035
 30
0.0
 11
102.4361444336355
 21
4.622237037037035
 31
0.0
  0
LINE
  5
133
330
348
100
AcDbEntity
  8
0
100
AcDbLine
 10
102.4361444336355
 20
4.622237037037035
 30
0.0
 11
102.5194777669688
 21
4.705570370370367
 31
0.0
  0
LINE
  5
134
330
348
100
AcDbEntity
  8
0
100
AcDbLine
 10
102.5194777669688
 20
4.705570370370367
 30
0.0
 11
102.6861444336355
 21
5.038903703703701
 31
0.0
  0
LINE
  5
135
330
348
100
AcDbEntity
  8
0
100
AcDbLine
 10
102.6861444336355
 20
5.038903703703701
 30
0.0
 11
102.6861444336355
 21
5.205570370370367
 31
0.0
  0
LINE
  5
136
330
348
100
AcDbEntity
  8
0
100
AcDbLine
 10
102.6861444336355
 20
5.205570370370367
 30
0.0
 11
102.7694777669688
 21
5.288903703703701
 31
0.0
  0
LINE
  5
137
330
348
100
AcDbEntity
  8
0
100
AcDbLine
 10
102.7694777669688
 20
5.288903703703701
 30
0.0
 11
102.7694777669688
 21
5.372237037037033
 31
0.0
  0
LINE
  5
138
330
348
100
AcDbEntity
  8
0
100
AcDbLine
 10
102.7694777669688
 20
5.372237037037033
 30
0.0
 11
102.8528111003021
 21
5.372237037037033
 31
0.0
  0
LINE
  5
139
330
348
100
AcDbEntity
  8
0
100
AcDbLine
 10
102.8528111003021
 20
5.372237037037033
 30
0.0
 11
102.8528111003021
 21
5.455570370370367
 31
0.0
  0
LINE
  5
13A
330
348
100
AcDbEntity
  8
0
100
AcDbLine
 10
102.8528111003021
 20
5.455570370370367
 30
0.0
 11
102.9361444336355
 21
5.622237037037033
 31
0.0
  0
LINE
  5
13B
330
348
100
AcDbEntity
  8
0
100
AcDbLine
 10
102.9361444336355
 20
5.622237037037033
 30
0.0
 11
102.9361444336355
 21
5.788903703703701
 31
0.0
  0
LINE
  5
13C
330
348
100
AcDbEntity
  8
0
100
AcDbLine
 10
102.9361444336355
 20
5.788903703703701
 30
0.0
 11
102.9361444336355
 21
5.955570370370367
 31
0.0
  0
LINE
  5
13D
330
348
100
AcDbEntity
  8
0
100
AcDbLine
 10
102.9361444336355
 20
5.955570370370367
 30
0.0
 11
103.0194777669688
 21
6.122237037037033
 31
0.0
  0
LINE
  5
13E
330
348
100
AcDbEntity
  8
0
100
AcDbLine
 10
103.0194777669688
 20
6.122237037037033
 30
0.0
 11
103.1028111003021
 21
6.205570370370367
 31
0.0
  0
LINE
  5
13F
330
348
100
AcDbEntity
  8
0
100
AcDbLine
 10
103.1028111003021
 20
6.205570370370367
 30
0.0
 11
103.1861444336355
 21
6.372237037037033
 31
0.0
  0
LINE
  5
140
330
348
100
AcDbEntity
  8
0
100
AcDbLine
 10
103.1861444336355
 20
6.372237037037033
 30
0.0
 11
103.1861444336355
 21
6.372237037037033
 31
0.0
  0
LINE
  5
141
330
348
100
AcDbEntity
  8
0
100
AcDbLine
 10
103.1861444336355
 20
6.372237037037033
 30
0.0
 11
103.2694777669688
 21
6.622237037037033
 31
0.0
  0
LINE
  5
142
330
348
100
AcDbEntity
  8
0
100
AcDbLine
 10
103.2694777669688
 20
6.622237037037033
 30
0.0
 11
103.4361444336355
 21
6.788903703703701
 31
0.0
  0
LINE
  5
143
330
348
100
AcDbEntity
  8
0
100
AcDbLine
 10
103.4361444336355
 20
6.788903703703701
 30
0.0
 11
103.4361444336355
 21
6.955570370370367
 31
0.0
  0
LINE
  5
144
330
348
100
AcDbEntity
  8
0
100
AcDbLine
 10
103.4361444336355
 20
6.955570370370367
 30
0.0
 11
103.4361444336355
 21
7.038903703703701
 31
0.0
  0
LINE
  5
145
330
348
100
AcDbEntity
  8
0
100
AcDbLine
 10
103.4361444336355
 20
7.038903703703701
 30
0.0
 11
103.5194777669688
 21
7.122237037037033
 31
0.0
  0
LINE
  5
146
330
348
100
AcDbEntity
  8
0
100
AcDbLine
 10
103.5194777669688
 20
7.122237037037033
 30
0.0
 11
103.6861444336355
 21
7.372237037037033
 31
0.0
  0
LINE
  5
147
330
348
100
AcDbEntity
  8
0
100
AcDbLine
 10
103.6861444336355
 20
7.372237037037033
 30
0.0
 11
103.6861444336355
 21
7.538903703703699
 31
0.0
  0
LINE
  5
148
330
348
100
AcDbEntity
  8
0
100
AcDbLine
 10
103.6861444336355
 20
7.538903703703699
 30
0.0
 11
103.7694777669688
 21
7.622237037037033
 31
0.0
  0
LINE
  5
149
330
348
100
AcDbEntity
  8
0
100
AcDbLine
 10
103.7694777669688
 20
7.622237037037033
 30
0.0
 11
103.9361444336355
 21
8.0389037037037
 31
0.0
  0
LINE
  5
14A
330
348
100
AcDbEntity
  8
0
100
AcDbLine
 10
103.9361444336355
 20
8.0389037037037
 30
0.0
 11
104.0194777669688
 21
8.122237037037033
 31
0.0
  0
LINE
  5
14B
330
348
100
AcDbEntity
  8
0
100
AcDbLine
 10
104.0194777669688
 20
8.122237037037033
 30
0.0
 11
104.1028111003021
 21
8.205570370370367
 31
0.0
  0
LINE
  5
14C
330
348
100
AcDbEntity
  8
0
100
AcDbLine
 10
104.1028111003021
 20
8.205570370370367
 30
0.0
 11
104.1861444336355
 21
8.372237037037033
 31
0.0
  0
LINE
  5
14D
330
348
100
AcDbEntity
  8
0
100
AcDbLine
 10
104.1861444336355
 20
8.372237037037033
 30
0.0
 11
104.2694777669688
 21
8.455570370370367
 31
0.0
  0
LINE
  5
14E
330
348
100
AcDbEntity
  8
0
100
AcDbLine
 10
104.2694777669688
 20
8.455570370370367
 30
0.0
 11
104.4361444336355
 21
8.622237037037033
 31
0.0
  0
LINE
  5
14F
330
348
100
AcDbEntity
  8
0
100
AcDbLine
 10
104.4361444336355
 20
8.622237037037033
 30
0.0
 11
104.5194777669688
 21
8.872237037037033
 31
0.0
  0
LINE
  5
150
330
348
100
AcDbEntity
  8
0
100
AcDbLine
 10
104.5194777669688
 20
8.872237037037033
 30
0.0
 11
104.6861444336355
 21
9.0389037037037
 31
0.0
  0
LINE
  5
151
330
348
100
AcDbEntity
  8
0
100
AcDbLine
 10
104.6861444336355
 20
9.0389037037037
 30
0.0
 11
104.9361444336355
 21
9.2889037037037
 31
0.0
  0
LINE
  5
152
330
348
100
AcDbEntity
  8
0
100
AcDbLine
 10
104.9361444336355
 20
9.2889037037037
 30
0.0
 11
104.9361444336355
 21
9.455570370370367
 31
0.0
  0
LINE
  5
153
330
348
100
AcDbEntity
  8
0
100
AcDbLine
 10
104.9361444336355
 20
9.455570370370367
 30
0.0
 11
105.1028111003021
 21
9.622237037037033
 31
0.0
  0
LINE
  5
154
330
348
100
AcDbEntity
  8
0
100
AcDbLine
 10
105.1028111003021
 20
9.622237037037033
 30
0.0
 11
105.1861444336355
 21
9.705570370370367
 31
0.0
  0
LINE
  5
155
330
348
100
AcDbEntity
  8
0
100
AcDbLine
 10
105.1861444336355
 20
9.705570370370367
 30
0.0
 11
105.3528111003021
 21
9.872237037037033
 31
0.0
  0
LINE
  5
156
330
348
100
AcDbEntity
  8
0
100
AcDbLine
 10
105.3528111003021
 20
9.872237037037033
 30
0.0
 11
105.4361444336355
 21
10.0389037037037
 31
0.0
  0
LINE
  5
157
330
348
100
AcDbEntity
  8
0
100
AcDbLine
 10
105.4361444336355
 20
10.0389037037037
 30
0.0
 11
105.6861444336355
 21
10.20557037037037
 31
0.0
  0
LINE
  5
158
330
348
100
AcDbEntity
  8
0
100
AcDbLine
 10
105.6861444336355
 20
10.20557037037037
 30
0.0
 11
105.8528111003021
 21
10.37223703703703
 31
0.0
  0
LINE
  5
159
330
348
100
AcDbEntity
  8
0
100
AcDbLine
 10
105.8528111003021
 20
10.37223703703703
 30
0.0
 11
105.9361444336355
 21
10.45557037037037
 31
0.0
  0
LINE
  5
15A
330
348
100
AcDbEntity
  8
0
100
AcDbLine
 10
105.9361444336355
 20
10.45557037037037
 30
0.0
 11
106.1028111003021
 21
10.62223703703703
 31
0.0
  0
LINE
  5
15B
330
348
100
AcDbEntity
  8
0
100
AcDbLine
 10
106.1028111003021
 20
10.62223703703703
 30
0.0
 11
106.1861444336355
 21
10.70557037037037
 31
0.0
  0
LINE
  5
15C
330
348
100
AcDbEntity
  8
0
100
AcDbLine
 10
106.1861444336355
 20
10.70557037037037
 30
0.0
 11
106.2694777669688
 21
10.87223703703703
 31
0.0
  0
LINE
  5
15D
330
348
100
AcDbEntity
  8
0
100
AcDbLine
 10
106.2694777669688
 20
10.87223703703703
 30
0.0
 11
106.4361444336355
 21
11.12223703703703
 31
0.0
  0
LINE
  5
15E
330
348
100
AcDbEntity
  8
0
100
AcDbLine
 10
106.4361444336355
 20
11.12223703703703
 30
0.0
 11
106.6861444336355
 21
11.2889037037037
 31
0.0
  0
LINE
  5
15F
330
348
100
AcDbEntity
  8
0
100
AcDbLine
 10
106.6861444336355
 20
11.2889037037037
 30
0.0
 11
106.7694777669688
 21
11.37223703703703
 31
0.0
  0
LINE
  5
160
330
348
100
AcDbEntity
  8
0
100
AcDbLine
 10
106.7694777669688
 20
11.37223703703703
 30
0.0
 11
106.9361444336355
 21
11.62223703703703
 31
0.0
  0
LINE
  5
161
330
348
100
AcDbEntity
  8
0
100
AcDbLine
 10
106.9361444336355
 20
11.62223703703703
 30
0.0
 11
107.0194777669688
 21
11.70557037037037
 31
0.0
  0
LINE
  5
162
330
348
100
AcDbEntity
  8
0
100
AcDbLine
 10
107.0194777669688
 20
11.70557037037037
 30
0.0
 11
107.1861444336355
 21
11.95557037037037
 31
0.0
  0
LINE
  5
163
330
348
100
AcDbEntity
  8
0
100
AcDbLine
 10
107.1861444336355
 20
11.95557037037037
 30
0.0
 11
107.2694777669688
 21
12.12223703703703
 31
0.0
  0
LINE
  5
164
330
348
100
AcDbEntity
  8
0
100
AcDbLine
 10
107.2694777669688
 20
12.12223703703703
 30
0.0
 11
107.4361444336355
 21
12.2889037037037
 31
0.0
  0
LINE
  5
165
330
348
100
AcDbEntity
  8
0
100
AcDbLine
 10
107.4361444336355
 20
12.2889037037037
 30
0.0
 11
107.5194777669688
 21
12.5389037037037
 31
0.0
  0
LINE
  5
166
330
348
100
AcDbEntity
  8
0
100
AcDbLine
 10
107.5194777669688
 20
12.5389037037037
 30
0.0
 11
107.6861444336355
 21
12.87223703703703
 31
0.0
  0
LINE
  5
167
330
348
100
AcDbEntity
  8
0
100
AcDbLine
 10
107.6861444336355
 20
12.87223703703703
 30
0.0
 11
107.7694777669688
 21
13.0389037037037
 31
0.0
  0
LINE
  5
168
330
348
100
AcDbEntity
  8
0
100
AcDbLine
 10
107.7694777669688
 20
13.0389037037037
 30
0.0
 11
107.8528111003021
 21
13.12223703703703
 31
0.0
  0
LINE
  5
169
330
348
100
AcDbEntity
  8
0
100
AcDbLine
 10
107.8528111003021
 20
13.12223703703703
 30
0.0
 11
107.9361444336355
 21
13.20557037037037
 31
0.0
  0
LINE
  5
16A
330
348
100
AcDbEntity
  8
0
100
AcDbLine
 10
107.9361444336355
 20
13.20557037037037
 30
0.0
 11
107.9361444336355
 21
13.45557037037037
 31
0.0
  0
LINE
  5
16B
330
348
100
AcDbEntity
  8
0
100
AcDbLine
 10
107.9361444336355
 20
13.45557037037037
 30
0.0
 11
108.0194777669688
 21
13.62223703703703
 31
0.0
  0
LINE
  5
16C
330
348
100
AcDbEntity
  8
0
100
AcDbLine
 10
108.0194777669688
 20
13.62223703703703
 30
0.0
 11
108.1861444336355
 21
13.87223703703703
 31
0.0
  0
LINE
  5
16D
330
348
100
AcDbEntity
  8
0
100
AcDbLine
 10
108.1861444336355
 20
13.87223703703703
 30
0.0
 11
108.1861444336355
 21
14.12223703703703
 31
0.0
  0
LINE
  5
16E
330
348
100
AcDbEntity
  8
0
100
AcDbLine
 10
108.1861444336355
 20
14.12223703703703
 30
0.0
 11
108.2694777669688
 21
14.37223703703703
 31
0.0
  0
LINE
  5
16F
330
348
100
AcDbEntity
  8
0
100
AcDbLine
 10
108.2694777669688
 20
14.37223703703703
 30
0.0
 11
108.3528111003021
 21
14.37223703703703
 31
0.0
  0
LINE
  5
170
330
348
100
AcDbEntity
  8
0
100
AcDbLine
 10
108.3528111003021
 20
14.37223703703703
 30
0.0
 11
108.3528111003021
 21
14.45557037037037
 31
0.0
  0
LINE
  5
171
330
348
100
AcDbEntity
  8
0
100
AcDbLine
 10
108.3528111003021
 20
14.45557037037037
 30
0.0
 11
108.3528111003021
 21
14.62223703703703
 31
0.0
  0
LINE
  5
172
330
348
100
AcDbEntity
  8
0
100
AcDbLine
 10
108.3528111003021
 20
14.62223703703703
 30
0.0
 11
108.4361444336355
 21
14.7889037037037
 31
0.0
  0
LINE
  5
173
330
348
100
AcDbEntity
  8
0
100
AcDbLine
 10
108.4361444336355
 20
14.7889037037037
 30
0.0
 11
108.5194777669688
 21
14.95557037037037
 31
0.0
  0
LINE
  5
174
330
348
100
AcDbEntity
  8
0
100
AcDbLine
 10
108.5194777669688
 20
14.95557037037037
 30
0.0
 11
108.5194777669688
 21
15.0389037037037
 31
0.0
  0
LINE
  5
175
330
348
100
AcDbEntity
  8
0
100
AcDbLine
 10
108.5194777669688
 20
15.0389037037037
 30
0.0
 11
108.5194777669688
 21
15.12223703703703
 31
0.0
  0
LINE
  5
176
330
348
100
AcDbEntity
  8
0
100
AcDbLine
 10
108.5194777669688
 20
15.12223703703703
 30
0.0
 11
108.5194777669688
 21
15.12223703703703
 31
0.0
  0
LINE
  5
177
330
348
100
AcDbEntity
  8
0
100
AcDbLine
 10
108.7378419644997
 20
15.0733024691358
 30
0.0
 11
108.7378419644997
 21
15.0733024691358
 31
0.0
  0
LINE
  5
178
330
348
100
AcDbEntity
  8
0
100
AcDbLine
 10
108.7378419644997
 20
15.0733024691358
 30
0.0
 11
108.7780297217013
 21
15.11349022633745
 31
0.0
  0
LINE
  5
179
330
348
100
AcDbEntity
  8
0
100
AcDbLine
 10
108.7780297217013
 20
15.11349022633745
 30
0.0
 11
108.7780297217013
 21
15.1536779835391
 31
0.0
  0
LINE
  5
17A
330
348
100
AcDbEntity
  8
0
100
AcDbLine
 10
108.7780297217013
 20
15.1536779835391
 30
0.0
 11
108.818217478903
 21
15.19386574074074
 31
0.0
  0
LINE
  5
17B
330
348
100
AcDbEntity
  8
0
100
AcDbLine
 10
108.818217478903
 20
15.19386574074074
 30
0.0
 11
108.818217478903
 21
15.19386574074074
 31
0.0
  0
LINE
  5
17C
330
348
100
AcDbEntity
  8
0
100
AcDbLine
 10
108.818217478903
 20
15.19386574074074
 30
0.0
 11
108.818217478903
 21
15.23405349794239
 31
0.0
  0
LINE
  5
17D
330
348
100
AcDbEntity
  8
0
100
AcDbLine
 10
108.818217478903
 20
15.23405349794239
 30
0.0
 11
108.818217478903
 21
15.27424125514403
 31
0.0
  0
LINE
  5
17E
330
348
100
AcDbEntity
  8
0
100
AcDbLine
 10
108.818217478903
 20
15.27424125514403
 30
0.0
 11
108.818217478903
 21
15.31442901234568
 31
0.0
  0
LINE
  5
17F
330
348
100
AcDbEntity
  8
0
100
AcDbLine
 10
108.818217478903
 20
15.31442901234568
 30
0.0
 11
108.8584052361046
 21
15.39480452674897
 31
0.0
  0
LINE
  5
180
330
348
100
AcDbEntity
  8
0
100
AcDbLine
 10
108.8584052361046
 20
15.39480452674897
 30
0.0
 11
108.8584052361046
 21
15.43499228395062
 31
0.0
  0
LINE
  5
181
330
348
100
AcDbEntity
  8
0
100
AcDbLine
 10
108.8584052361046
 20
15.43499228395062
 30
0.0
 11
108.8985929933063
 21
15.47518004115226
 31
0.0
  0
LINE
  5
182
330
348
100
AcDbEntity
  8
0
100
AcDbLine
 10
108.8985929933063
 20
15.47518004115226
 30
0.0
 11
108.8985929933063
 21
15.55555555555556
 31
0.0
  0
LINE
  5
183
330
348
100
AcDbEntity
  8
0
100
AcDbLine
 10
108.8985929933063
 20
15.55555555555556
 30
0.0
 11
108.9387807505079
 21
15.5957433127572
 31
0.0
  0
LINE
  5
184
330
348
100
AcDbEntity
  8
0
100
AcDbLine
 10
108.9387807505079
 20
15.5957433127572
 30
0.0
 11
108.9789685077096
 21
15.6761188271605
 31
0.0
  0
LINE
  5
185
330
348
100
AcDbEntity
  8
0
100
AcDbLine
 10
108.9789685077096
 20
15.6761188271605
 30
0.0
 11
109.0191562649112
 21
15.79668209876543
 31
0.0
  0
LINE
  5
186
330
348
100
AcDbEntity
  8
0
100
AcDbLine
 10
109.0191562649112
 20
15.79668209876543
 30
0.0
 11
109.0593440221129
 21
15.91724537037037
 31
0.0
  0
LINE
  5
187
330
348
100
AcDbEntity
  8
0
100
AcDbLine
 10
109.0593440221129
 20
15.91724537037037
 30
0.0
 11
109.1397195365161
 21
16.03780864197531
 31
0.0
  0
LINE
  5
188
330
348
100
AcDbEntity
  8
0
100
AcDbLine
 10
109.1397195365161
 20
16.03780864197531
 30
0.0
 11
109.1799072937178
 21
16.1181841563786
 31
0.0
  0
LINE
  5
189
330
348
100
AcDbEntity
  8
0
100
AcDbLine
 10
109.1799072937178
 20
16.1181841563786
 30
0.0
 11
109.1799072937178
 21
16.15837191358025
 31
0.0
  0
LINE
  5
18A
330
348
100
AcDbEntity
  8
0
100
AcDbLine
 10
109.1799072937178
 20
16.15837191358025
 30
0.0
 11
109.2200950509194
 21
16.23874742798354
 31
0.0
  0
LINE
  5
18B
330
348
100
AcDbEntity
  8
0
100
AcDbLine
 10
109.2200950509194
 20
16.23874742798354
 30
0.0
 11
109.2602828081211
 21
16.31912294238683
 31
0.0
  0
LINE
  5
18C
330
348
100
AcDbEntity
  8
0
100
AcDbLine
 10
109.2602828081211
 20
16.31912294238683
 30
0.0
 11
109.3004705653227
 21
16.43968621399177
 31
0.0
  0
LINE
  5
18D
330
348
100
AcDbEntity
  8
0
100
AcDbLine
 10
109.3004705653227
 20
16.43968621399177
 30
0.0
 11
109.3004705653227
 21
16.56024948559671
 31
0.0
  0
LINE
  5
18E
330
348
100
AcDbEntity
  8
0
100
AcDbLine
 10
109.3004705653227
 20
16.56024948559671
 30
0.0
 11
109.3406583225244
 21
16.68081275720165
 31
0.0
  0
LINE
  5
18F
330
348
100
AcDbEntity
  8
0
100
AcDbLine
 10
109.3406583225244
 20
16.68081275720165
 30
0.0
 11
109.380846079726
 21
16.76118827160494
 31
0.0
  0
LINE
  5
190
330
348
100
AcDbEntity
  8
0
100
AcDbLine
 10
109.380846079726
 20
16.76118827160494
 30
0.0
 11
109.4210338369277
 21
16.84156378600823
 31
0.0
  0
LINE
  5
191
330
348
100
AcDbEntity
  8
0
100
AcDbLine
 10
109.4210338369277
 20
16.84156378600823
 30
0.0
 11
109.4210338369277
 21
16.92193930041152
 31
0.0
  0
LINE
  5
192
330
348
100
AcDbEntity
  8
0
100
AcDbLine
 10
109.4210338369277
 20
16.92193930041152
 30
0.0
 11
109.4210338369277
 21
17.00231481481482
 31
0.0
  0
LINE
  5
193
330
348
100
AcDbEntity
  8
0
100
AcDbLine
 10
109.4210338369277
 20
17.00231481481482
 30
0.0
 11
109.4612215941293
 21
17.00231481481482
 31
0.0
  0
LINE
  5
194
330
348
100
AcDbEntity
  8
0
100
AcDbLine
 10
109.4612215941293
 20
17.00231481481482
 30
0.0
 11
109.4612215941293
 21
17.08269032921811
 31
0.0
  0
LINE
  5
195
330
348
100
AcDbEntity
  8
0
100
AcDbLine
 10
109.4612215941293
 20
17.08269032921811
 30
0.0
 11
109.501409351331
 21
17.12287808641975
 31
0.0
  0
LINE
  5
196
330
348
100
AcDbEntity
  8
0
100
AcDbLine
 10
109.501409351331
 20
17.12287808641975
 30
0.0
 11
109.5415971085326
 21
17.1630658436214
 31
0.0
  0
LINE
  5
197
330
348
100
AcDbEntity
  8
0
100
AcDbLine
 10
109.5415971085326
 20
17.1630658436214
 30
0.0
 11
109.5415971085326
 21
17.20325360082305
 31
0.0
  0
LINE
  5
198
330
348
100
AcDbEntity
  8
0
100
AcDbLine
 10
109.5415971085326
 20
17.20325360082305
 30
0.0
 11
109.5415971085326
 21
17.24344135802469
 31
0.0
  0
LINE
  5
199
330
348
100
AcDbEntity
  8
0
100
AcDbLine
 10
109.5415971085326
 20
17.24344135802469
 30
0.0
 11
109.5415971085326
 21
17.28362911522634
 31
0.0
  0
LINE
  5
19A
330
348
100
AcDbEntity
  8
0
100
AcDbLine
 10
109.5415971085326
 20
17.28362911522634
 30
0.0
 11
109.5415971085326
 21
17.32381687242798
 31
0.0
  0
LINE
  5
19B
330
348
100
AcDbEntity
  8
0
100
AcDbLine
 10
109.5415971085326
 20
17.32381687242798
 30
0.0
 11
109.5415971085326
 21
17.36400462962963
 31
0.0
  0
LINE
  5
19C
330
348
100
AcDbEntity
  8
0
100
AcDbLine
 10
109.5415971085326
 20
17.36400462962963
 30
0.0
 11
109.5817848657342
 21
17.40419238683128
 31
0.0
  0
LINE
  5
19D
330
348
100
AcDbEntity
  8
0
100
AcDbLine
 10
109.5817848657342
 20
17.40419238683128
 30
0.0
 11
109.5817848657342
 21
17.48456790123457
 31
0.0
  0
LINE
  5
19E
330
348
100
AcDbEntity
  8
0
100
AcDbLine
 10
109.5817848657342
 20
17.48456790123457
 30
0.0
 11
109.6219726229359
 21
17.56494341563786
 31
0.0
  0
LINE
  5
19F
330
348
100
AcDbEntity
  8
0
100
AcDbLine
 10
109.6219726229359
 20
17.56494341563786
 30
0.0
 11
109.6219726229359
 21
17.64531893004115
 31
0.0
  0
LINE
  5
1A0
330
348
100
AcDbEntity
  8
0
100
AcDbLine
 10
109.6219726229359
 20
17.64531893004115
 30
0.0
 11
109.6621603801375
 21
17.72569444444445
 31
0.0
  0
LINE
  5
1A1
330
348
100
AcDbEntity
  8
0
100
AcDbLine
 10
109.6621603801375
 20
17.72569444444445
 30
0.0
 11
109.6621603801375
 21
17.84625771604938
 31
0.0
  0
LINE
  5
1A2
330
348
100
AcDbEntity
  8
0
100
AcDbLine
 10
109.6621603801375
 20
17.84625771604938
 30
0.0
 11
109.6621603801375
 21
17.96682098765432
 31
0.0
  0
LINE
  5
1A3
330
348
100
AcDbEntity
  8
0
100
AcDbLine
 10
109.6621603801375
 20
17.96682098765432
 30
0.0
 11
109.6621603801375
 21
18.04719650205762
 31
0.0
  0
LINE
  5
1A4
330
348
100
AcDbEntity
  8
0
100
AcDbLine
 10
109.6621603801375
 20
18.04719650205762
 30
0.0
 11
109.7023481373392
 21
18.2079475308642
 31
0.0
  0
LINE
  5
1A5
330
348
100
AcDbEntity
  8
0
100
AcDbLine
 10
109.7023481373392
 20
18.2079475308642
 30
0.0
 11
109.7425358945408
 21
18.24813528806585
 31
0.0
  0
LINE
  5
1A6
330
348
100
AcDbEntity
  8
0
100
AcDbLine
 10
109.7425358945408
 20
18.24813528806585
 30
0.0
 11
109.7425358945408
 21
18.28832304526749
 31
0.0
  0
LINE
  5
1A7
330
348
100
AcDbEntity
  8
0
100
AcDbLine
 10
109.7425358945408
 20
18.28832304526749
 30
0.0
 11
109.7425358945408
 21
18.32851080246914
 31
0.0
  0
LINE
  5
1A8
330
348
100
AcDbEntity
  8
0
100
AcDbLine
 10
109.7425358945408
 20
18.32851080246914
 30
0.0
 11
109.7827236517425
 21
18.40888631687243
 31
0.0
  0
LINE
  5
1A9
330
348
100
AcDbEntity
  8
0
100
AcDbLine
 10
109.7827236517425
 20
18.40888631687243
 30
0.0
 11
109.7827236517425
 21
18.52944958847737
 31
0.0
  0
LINE
  5
1AA
330
348
100
AcDbEntity
  8
0
100
AcDbLine
 10
109.7827236517425
 20
18.52944958847737
 30
0.0
 11
109.7827236517425
 21
18.56963734567901
 31
0.0
  0
LINE
  5
1AB
330
348
100
AcDbEntity
  8
0
100
AcDbLine
 10
109.7827236517425
 20
18.56963734567901
 30
0.0
 11
109.7827236517425
 21
18.69020061728395
 31
0.0
  0
LINE
  5
1AC
330
348
100
AcDbEntity
  8
0
100
AcDbLine
 10
109.7827236517425
 20
18.69020061728395
 30
0.0
 11
109.8229114089441
 21
18.7303883744856
 31
0.0
  0
LINE
  5
1AD
330
348
100
AcDbEntity
  8
0
100
AcDbLine
 10
109.8229114089441
 20
18.7303883744856
 30
0.0
 11
109.8229114089441
 21
18.85095164609054
 31
0.0
  0
LINE
  5
1AE
330
348
100
AcDbEntity
  8
0
100
AcDbLine
 10
109.8229114089441
 20
18.85095164609054
 30
0.0
 11
109.8630991661458
 21
18.93132716049383
 31
0.0
  0
LINE
  5
1AF
330
348
100
AcDbEntity
  8
0
100
AcDbLine
 10
109.8630991661458
 20
18.93132716049383
 30
0.0
 11
109.8630991661458
 21
18.97151491769547
 31
0.0
  0
LINE
  5
1B0
330
348
100
AcDbEntity
  8
0
100
AcDbLine
 10
109.8630991661458
 20
18.97151491769547
 30
0.0
 11
109.9032869233474
 21
19.05189043209877
 31
0.0
  0
LINE
  5
1B1
330
348
100
AcDbEntity
  8
0
100
AcDbLine
 10
109.9032869233474
 20
19.05189043209877
 30
0.0
 11
109.9032869233474
 21
19.17245370370371
 31
0.0
  0
LINE
  5
1B2
330
348
100
AcDbEntity
  8
0
100
AcDbLine
 10
109.9032869233474
 20
19.17245370370371
 30
0.0
 11
109.9836624377507
 21
19.252829218107
 31
0.0
  0
LINE
  5
1B3
330
348
100
AcDbEntity
  8
0
100
AcDbLine
 10
109.9836624377507
 20
19.252829218107
 30
0.0
 11
109.9836624377507
 21
19.33320473251029
 31
0.0
  0
LINE
  5
1B4
330
348
100
AcDbEntity
  8
0
100
AcDbLine
 10
109.9836624377507
 20
19.33320473251029
 30
0.0
 11
110.0238501949524
 21
19.41358024691358
 31
0.0
  0
LINE
  5
1B5
330
348
100
AcDbEntity
  8
0
100
AcDbLine
 10
110.0238501949524
 20
19.41358024691358
 30
0.0
 11
110.0238501949524
 21
19.53414351851852
 31
0.0
  0
LINE
  5
1B6
330
348
100
AcDbEntity
  8
0
100
AcDbLine
 10
110.0238501949524
 20
19.53414351851852
 30
0.0
 11
110.064037952154
 21
19.57433127572017
 31
0.0
  0
LINE
  5
1B7
330
348
100
AcDbEntity
  8
0
100
AcDbLine
 10
110.064037952154
 20
19.57433127572017
 30
0.0
 11
110.064037952154
 21
19.65470679012346
 31
0.0
  0
LINE
  5
1B8
330
348
100
AcDbEntity
  8
0
100
AcDbLine
 10
110.064037952154
 20
19.65470679012346
 30
0.0
 11
110.1042257093556
 21
19.7752700617284
 31
0.0
  0
LINE
  5
1B9
330
348
100
AcDbEntity
  8
0
100
AcDbLine
 10
110.1042257093556
 20
19.7752700617284
 30
0.0
 11
110.1042257093556
 21
19.85564557613169
 31
0.0
  0
LINE
  5
1BA
330
348
100
AcDbEntity
  8
0
100
AcDbLine
 10
110.1042257093556
 20
19.85564557613169
 30
0.0
 11
110.1444134665573
 21
20.01639660493827
 31
0.0
  0
LINE
  5
1BB
330
348
100
AcDbEntity
  8
0
100
AcDbLine
 10
110.1444134665573
 20
20.01639660493827
 30
0.0
 11
110.1444134665573
 21
20.01639660493827
 31
0.0
  0
LINE
  5
1BC
330
348
100
AcDbEntity
  8
0
100
AcDbLine
 10
110.1444134665573
 20
20.01639660493827
 30
0.0
 11
110.1444134665573
 21
20.13695987654321
 31
0.0
  0
LINE
  5
1BD
330
348
100
AcDbEntity
  8
0
100
AcDbLine
 10
110.1444134665573
 20
20.13695987654321
 30
0.0
 11
110.1444134665573
 21
20.2173353909465
 31
0.0
  0
LINE
  5
1BE
330
348
100
AcDbEntity
  8
0
100
AcDbLine
 10
110.1444134665573
 20
20.2173353909465
 30
0.0
 11
110.1846012237589
 21
20.37808641975309
 31
0.0
  0
LINE
  5
1BF
330
348
100
AcDbEntity
  8
0
100
AcDbLine
 10
110.1846012237589
 20
20.37808641975309
 30
0.0
 11
110.2649767381622
 21
20.53883744855967
 31
0.0
  0
LINE
  5
1C0
330
348
100
AcDbEntity
  8
0
100
AcDbLine
 10
110.2649767381622
 20
20.53883744855967
 30
0.0
 11
110.2649767381622
 21
20.61921296296297
 31
0.0
  0
LINE
  5
1C1
330
348
100
AcDbEntity
  8
0
100
AcDbLine
 10
110.2649767381622
 20
20.61921296296297
 30
0.0
 11
110.2649767381622
 21
20.69958847736626
 31
0.0
  0
LINE
  5
1C2
330
348
100
AcDbEntity
  8
0
100
AcDbLine
 10
110.2649767381622
 20
20.69958847736626
 30
0.0
 11
110.2649767381622
 21
20.7397762345679
 31
0.0
  0
LINE
  5
1C3
330
348
100
AcDbEntity
  8
0
100
AcDbLine
 10
110.2649767381622
 20
20.7397762345679
 30
0.0
 11
110.2649767381622
 21
20.90052726337449
 31
0.0
  0
LINE
  5
1C4
330
348
100
AcDbEntity
  8
0
100
AcDbLine
 10
110.2649767381622
 20
20.90052726337449
 30
0.0
 11
110.3051644953639
 21
21.06127829218107
 31
0.0
  0
LINE
  5
1C5
330
348
100
AcDbEntity
  8
0
100
AcDbLine
 10
110.3051644953639
 20
21.06127829218107
 30
0.0
 11
110.3051644953639
 21
21.10146604938272
 31
0.0
  0
LINE
  5
1C6
330
348
100
AcDbEntity
  8
0
100
AcDbLine
 10
110.3051644953639
 20
21.10146604938272
 30
0.0
 11
110.3453522525655
 21
21.2622170781893
 31
0.0
  0
LINE
  5
1C7
330
348
100
AcDbEntity
  8
0
100
AcDbLine
 10
110.3453522525655
 20
21.2622170781893
 30
0.0
 11
110.3453522525655
 21
21.3425925925926
 31
0.0
  0
LINE
  5
1C8
330
348
100
AcDbEntity
  8
0
100
AcDbLine
 10
110.3453522525655
 20
21.3425925925926
 30
0.0
 11
110.3453522525655
 21
21.42296810699589
 31
0.0
  0
LINE
  5
1C9
330
348
100
AcDbEntity
  8
0
100
AcDbLine
 10
110.3453522525655
 20
21.42296810699589
 30
0.0
 11
110.3855400097672
 21
21.58371913580247
 31
0.0
  0
LINE
  5
1CA
330
348
100
AcDbEntity
  8
0
100
AcDbLine
 10
110.3855400097672
 20
21.58371913580247
 30
0.0
 11
110.3855400097672
 21
21.70428240740741
 31
0.0
  0
LINE
  5
1CB
330
348
100
AcDbEntity
  8
0
100
AcDbLine
 10
110.3855400097672
 20
21.70428240740741
 30
0.0
 11
110.3855400097672
 21
21.7846579218107
 31
0.0
  0
LINE
  5
1CC
330
348
100
AcDbEntity
  8
0
100
AcDbLine
 10
110.3855400097672
 20
21.7846579218107
 30
0.0
 11
110.3855400097672
 21
21.90522119341564
 31
0.0
  0
LINE
  5
1CD
330
348
100
AcDbEntity
  8
0
100
AcDbLine
 10
110.3855400097672
 20
21.90522119341564
 30
0.0
 11
110.3855400097672
 21
22.02578446502058
 31
0.0
  0
LINE
  5
1CE
330
348
100
AcDbEntity
  8
0
100
AcDbLine
 10
110.3855400097672
 20
22.02578446502058
 30
0.0
 11
110.3855400097672
 21
22.14634773662551
 31
0.0
  0
LINE
  5
1CF
330
348
100
AcDbEntity
  8
0
100
AcDbLine
 10
110.3855400097672
 20
22.14634773662551
 30
0.0
 11
110.3855400097672
 21
22.18653549382716
 31
0.0
  0
LINE
  5
1D0
330
348
100
AcDbEntity
  8
0
100
AcDbLine
 10
110.3855400097672
 20
22.18653549382716
 30
0.0
 11
110.3855400097672
 21
22.34728652263374
 31
0.0
  0
LINE
  5
1D1
330
348
100
AcDbEntity
  8
0
100
AcDbLine
 10
110.3855400097672
 20
22.34728652263374
 30
0.0
 11
110.4257277669688
 21
22.46784979423868
 31
0.0
  0
LINE
  5
1D2
330
348
100
AcDbEntity
  8
0
100
AcDbLine
 10
110.4257277669688
 20
22.46784979423868
 30
0.0
 11
110.4257277669688
 21
22.54822530864198
 31
0.0
  0
LINE
  5
1D3
330
348
100
AcDbEntity
  8
0
100
AcDbLine
 10
110.4257277669688
 20
22.54822530864198
 30
0.0
 11
110.4257277669688
 21
22.66878858024691
 31
0.0
  0
LINE
  5
1D4
330
348
100
AcDbEntity
  8
0
100
AcDbLine
 10
110.4257277669688
 20
22.66878858024691
 30
0.0
 11
110.4257277669688
 21
22.78935185185185
 31
0.0
  0
LINE
  5
1D5
330
348
100
AcDbEntity
  8
0
100
AcDbLine
 10
110.4257277669688
 20
22.78935185185185
 30
0.0
 11
110.4257277669688
 21
22.90991512345679
 31
0.0
  0
LINE
  5
1D6
330
348
100
AcDbEntity
  8
0
100
AcDbLine
 10
110.4257277669688
 20
22.90991512345679
 30
0.0
 11
110.4257277669688
 21
23.03047839506173
 31
0.0
  0
LINE
  5
1D7
330
348
100
AcDbEntity
  8
0
100
AcDbLine
 10
110.4257277669688
 20
23.03047839506173
 30
0.0
 11
110.4257277669688
 21
23.15104166666667
 31
0.0
  0
LINE
  5
1D8
330
348
100
AcDbEntity
  8
0
100
AcDbLine
 10
110.4257277669688
 20
23.15104166666667
 30
0.0
 11
110.4257277669688
 21
23.31179269547325
 31
0.0
  0
LINE
  5
1D9
330
348
100
AcDbEntity
  8
0
100
AcDbLine
 10
110.4257277669688
 20
23.31179269547325
 30
0.0
 11
110.4257277669688
 21
23.39216820987654
 31
0.0
  0
LINE
  5
1DA
330
348
100
AcDbEntity
  8
0
100
AcDbLine
 10
110.4257277669688
 20
23.39216820987654
 30
0.0
 11
110.4257277669688
 21
23.43235596707819
 31
0.0
  0
LINE
  5
1DB
330
348
100
AcDbEntity
  8
0
100
AcDbLine
 10
110.4257277669688
 20
23.43235596707819
 30
0.0
 11
110.3855400097672
 21
23.59310699588477
 31
0.0
  0
LINE
  5
1DC
330
348
100
AcDbEntity
  8
0
100
AcDbLine
 10
110.3855400097672
 20
23.59310699588477
 30
0.0
 11
110.3453522525655
 21
23.67348251028807
 31
0.0
  0
LINE
  5
1DD
330
348
100
AcDbEntity
  8
0
100
AcDbLine
 10
110.3453522525655
 20
23.67348251028807
 30
0.0
 11
110.3453522525655
 21
23.794045781893
 31
0.0
  0
LINE
  5
1DE
330
348
100
AcDbEntity
  8
0
100
AcDbLine
 10
110.3453522525655
 20
23.794045781893
 30
0.0
 11
110.3453522525655
 21
23.83423353909465
 31
0.0
  0
LINE
  5
1DF
330
348
100
AcDbEntity
  8
0
100
AcDbLine
 10
110.3453522525655
 20
23.83423353909465
 30
0.0
 11
110.3453522525655
 21
23.95479681069959
 31
0.0
  0
LINE
  5
1E0
330
348
100
AcDbEntity
  8
0
100
AcDbLine
 10
110.3453522525655
 20
23.95479681069959
 30
0.0
 11
110.3453522525655
 21
23.99498456790124
 31
0.0
  0
LINE
  5
1E1
330
348
100
AcDbEntity
  8
0
100
AcDbLine
 10
110.3453522525655
 20
23.99498456790124
 30
0.0
 11
110.3051644953639
 21
24.11554783950617
 31
0.0
  0
LINE
  5
1E2
330
348
100
AcDbEntity
  8
0
100
AcDbLine
 10
110.3051644953639
 20
24.11554783950617
 30
0.0
 11
110.3051644953639
 21
24.19592335390947
 31
0.0
  0
LINE
  5
1E3
330
348
100
AcDbEntity
  8
0
100
AcDbLine
 10
110.3051644953639
 20
24.19592335390947
 30
0.0
 11
110.3051644953639
 21
24.23611111111111
 31
0.0
  0
LINE
  5
1E4
330
348
100
AcDbEntity
  8
0
100
AcDbLine
 10
110.3051644953639
 20
24.23611111111111
 30
0.0
 11
110.3051644953639
 21
24.3164866255144
 31
0.0
  0
LINE
  5
1E5
330
348
100
AcDbEntity
  8
0
100
AcDbLine
 10
110.3051644953639
 20
24.3164866255144
 30
0.0
 11
110.3051644953639
 21
24.35667438271605
 31
0.0
  0
LINE
  5
1E6
330
348
100
AcDbEntity
  8
0
100
AcDbLine
 10
110.3051644953639
 20
24.35667438271605
 30
0.0
 11
110.3051644953639
 21
24.35667438271605
 31
0.0
  0
LINE
  5
1E7
330
348
100
AcDbEntity
  8
0
100
AcDbLine
 10
110.5061032813721
 20
24.43415637860083
 30
0.0
 11
110.5061032813721
 21
24.47434413580247
 31
0.0
  0
LINE
  5
1E8
330
348
100
AcDbEntity
  8
0
100
AcDbLine
 10
110.5061032813721
 20
24.47434413580247
 30
0.0
 11
110.5061032813721
 21
24.51453189300412
 31
0.0
  0
LINE
  5
1E9
330
348
100
AcDbEntity
  8
0
100
AcDbLine
 10
110.5061032813721
 20
24.51453189300412
 30
0.0
 11
110.4659155241705
 21
24.55471965020576
 31
0.0
  0
LINE
  5
1EA
330
348
100
AcDbEntity
  8
0
100
AcDbLine
 10
110.4659155241705
 20
24.55471965020576
 30
0.0
 11
110.4659155241705
 21
24.55471965020576
 31
0.0
  0
LINE
  5
1EB
330
348
100
AcDbEntity
  8
0
100
AcDbLine
 10
110.4659155241705
 20
24.55471965020576
 30
0.0
 11
110.4659155241705
 21
24.59490740740741
 31
0.0
  0
LINE
  5
1EC
330
348
100
AcDbEntity
  8
0
100
AcDbLine
 10
110.4659155241705
 20
24.59490740740741
 30
0.0
 11
110.4659155241705
 21
24.6752829218107
 31
0.0
  0
LINE
  5
1ED
330
348
100
AcDbEntity
  8
0
100
AcDbLine
 10
110.4659155241705
 20
24.6752829218107
 30
0.0
 11
110.4257277669688
 21
24.71547067901235
 31
0.0
  0
LINE
  5
1EE
330
348
100
AcDbEntity
  8
0
100
AcDbLine
 10
110.4257277669688
 20
24.71547067901235
 30
0.0
 11
110.4257277669688
 21
24.79584619341564
 31
0.0
  0
LINE
  5
1EF
330
348
100
AcDbEntity
  8
0
100
AcDbLine
 10
110.4257277669688
 20
24.79584619341564
 30
0.0
 11
110.4257277669688
 21
24.87622170781893
 31
0.0
  0
LINE
  5
1F0
330
348
100
AcDbEntity
  8
0
100
AcDbLine
 10
110.4257277669688
 20
24.87622170781893
 30
0.0
 11
110.3855400097672
 21
24.91640946502058
 31
0.0
  0
LINE
  5
1F1
330
348
100
AcDbEntity
  8
0
100
AcDbLine
 10
110.3855400097672
 20
24.91640946502058
 30
0.0
 11
110.3855400097672
 21
24.99678497942387
 31
0.0
  0
LINE
  5
1F2
330
348
100
AcDbEntity
  8
0
100
AcDbLine
 10
110.3855400097672
 20
24.99678497942387
 30
0.0
 11
110.3453522525655
 21
25.03697273662551
 31
0.0
  0
LINE
  5
1F3
330
348
100
AcDbEntity
  8
0
100
AcDbLine
 10
110.3453522525655
 20
25.03697273662551
 30
0.0
 11
110.3453522525655
 21
25.07716049382716
 31
0.0
  0
LINE
  5
1F4
330
348
100
AcDbEntity
  8
0
100
AcDbLine
 10
110.3453522525655
 20
25.07716049382716
 30
0.0
 11
110.3453522525655
 21
25.15753600823045
 31
0.0
  0
LINE
  5
1F5
330
348
100
AcDbEntity
  8
0
100
AcDbLine
 10
110.3453522525655
 20
25.15753600823045
 30
0.0
 11
110.3051644953639
 21
25.23791152263374
 31
0.0
  0
LINE
  5
1F6
330
348
100
AcDbEntity
  8
0
100
AcDbLine
 10
110.3051644953639
 20
25.23791152263374
 30
0.0
 11
110.3051644953639
 21
25.27809927983539
 31
0.0
  0
LINE
  5
1F7
330
348
100
AcDbEntity
  8
0
100
AcDbLine
 10
110.3051644953639
 20
25.27809927983539
 30
0.0
 11
110.3051644953639
 21
25.39866255144033
 31
0.0
  0
LINE
  5
1F8
330
348
100
AcDbEntity
  8
0
100
AcDbLine
 10
110.3051644953639
 20
25.39866255144033
 30
0.0
 11
110.3051644953639
 21
25.47903806584362
 31
0.0
  0
LINE
  5
1F9
330
348
100
AcDbEntity
  8
0
100
AcDbLine
 10
110.3051644953639
 20
25.47903806584362
 30
0.0
 11
110.2649767381622
 21
25.55941358024691
 31
0.0
  0
LINE
  5
1FA
330
348
100
AcDbEntity
  8
0
100
AcDbLine
 10
110.2649767381622
 20
25.55941358024691
 30
0.0
 11
110.2649767381622
 21
25.63978909465021
 31
0.0
  0
LINE
  5
1FB
330
348
100
AcDbEntity
  8
0
100
AcDbLine
 10
110.2649767381622
 20
25.63978909465021
 30
0.0
 11
110.2649767381622
 21
25.7201646090535
 31
0.0
  0
LINE
  5
1FC
330
348
100
AcDbEntity
  8
0
100
AcDbLine
 10
110.2649767381622
 20
25.7201646090535
 30
0.0
 11
110.2247889809606
 21
25.76035236625514
 31
0.0
  0
LINE
  5
1FD
330
348
100
AcDbEntity
  8
0
100
AcDbLine
 10
110.2247889809606
 20
25.76035236625514
 30
0.0
 11
110.1846012237589
 21
25.84072788065844
 31
0.0
  0
LINE
  5
1FE
330
348
100
AcDbEntity
  8
0
100
AcDbLine
 10
110.1846012237589
 20
25.84072788065844
 30
0.0
 11
110.1846012237589
 21
25.92110339506173
 31
0.0
  0
LINE
  5
245
330
348
100
AcDbEntity
  8
0
100
AcDbLine
 10
110.1846012237589
 20
25.92110339506173
 30
0.0
 11
110.1846012237589
 21
26.00549136605775
 31
0.0
  0
LINE
  5
246
330
348
100
AcDbEntity
  8
0
100
AcDbLine
 10
110.1846012237589
 20
26.00549136605775
 30
0.0
 11
110.1846012237589
 21
26.00147890946502
 31
0.0
  0
LINE
  5
249
330
348
100
AcDbEntity
  8
0
100
AcDbLine
 10
110.1846012237589
 20
26.00147890946502
 30
0.0
 11
110.1846012237589
 21
26.0
 31
0.0
  0
LINE
  5
24B
330
348
100
AcDbEntity
  8
0
100
AcDbLine
 10
110.1846012237589
 20
26.0
 30
0.0
 11
110.1846012237589
 21
26.0
 31
0.0
  0
LINE
  5
24C
330
348
100
AcDbEntity
  8
0
100
AcDbLine
 10
110.1846012237589
 20
26.0
 30
0.0
 11
110.1846012237589
 21
26.12204218106996
 31
0.0
  0
LINE
  5
201
330
348
100
AcDbEntity
  8
0
100
AcDbLine
 10
110.1846012237589
 20
26.12204218106996
 30
0.0
 11
110.1444134665573
 21
26.20241769547325
 31
0.0
  0
LINE
  5
202
330
348
100
AcDbEntity
  8
0
100
AcDbLine
 10
110.1444134665573
 20
26.20241769547325
 30
0.0
 11
110.1042257093556
 21
26.28279320987654
 31
0.0
  0
LINE
  5
203
330
348
100
AcDbEntity
  8
0
100
AcDbLine
 10
110.1042257093556
 20
26.28279320987654
 30
0.0
 11
110.1042257093556
 21
26.36316872427984
 31
0.0
  0
LINE
  5
204
330
348
100
AcDbEntity
  8
0
100
AcDbLine
 10
110.1042257093556
 20
26.36316872427984
 30
0.0
 11
110.064037952154
 21
26.48373199588477
 31
0.0
  0
LINE
  5
205
330
348
100
AcDbEntity
  8
0
100
AcDbLine
 10
110.064037952154
 20
26.48373199588477
 30
0.0
 11
110.064037952154
 21
26.56410751028807
 31
0.0
  0
LINE
  5
206
330
348
100
AcDbEntity
  8
0
100
AcDbLine
 10
110.064037952154
 20
26.56410751028807
 30
0.0
 11
110.0238501949524
 21
26.64448302469136
 31
0.0
  0
LINE
  5
207
330
348
100
AcDbEntity
  8
0
100
AcDbLine
 10
110.0238501949524
 20
26.64448302469136
 30
0.0
 11
110.0238501949524
 21
26.72485853909465
 31
0.0
  0
LINE
  5
208
330
348
100
AcDbEntity
  8
0
100
AcDbLine
 10
110.0238501949524
 20
26.72485853909465
 30
0.0
 11
109.9836624377507
 21
26.7650462962963
 31
0.0
  0
LINE
  5
209
330
348
100
AcDbEntity
  8
0
100
AcDbLine
 10
109.9836624377507
 20
26.7650462962963
 30
0.0
 11
109.9836624377507
 21
26.84542181069959
 31
0.0
  0
LINE
  5
20A
330
348
100
AcDbEntity
  8
0
100
AcDbLine
 10
109.9836624377507
 20
26.84542181069959
 30
0.0
 11
109.9434746805491
 21
26.88560956790123
 31
0.0
  0
LINE
  5
20B
330
348
100
AcDbEntity
  8
0
100
AcDbLine
 10
109.9434746805491
 20
26.88560956790123
 30
0.0
 11
109.9434746805491
 21
26.96598508230453
 31
0.0
  0
LINE
  5
20C
330
348
100
AcDbEntity
  8
0
100
AcDbLine
 10
109.9434746805491
 20
26.96598508230453
 30
0.0
 11
109.9434746805491
 21
27.00617283950617
 31
0.0
  0
LINE
  5
20D
330
348
100
AcDbEntity
  8
0
100
AcDbLine
 10
109.9434746805491
 20
27.00617283950617
 30
0.0
 11
109.9434746805491
 21
27.08654835390947
 31
0.0
  0
LINE
  5
20E
330
348
100
AcDbEntity
  8
0
100
AcDbLine
 10
109.9434746805491
 20
27.08654835390947
 30
0.0
 11
109.9032869233474
 21
27.16692386831276
 31
0.0
  0
LINE
  5
20F
330
348
100
AcDbEntity
  8
0
100
AcDbLine
 10
109.9032869233474
 20
27.16692386831276
 30
0.0
 11
109.8630991661458
 21
27.2071116255144
 31
0.0
  0
LINE
  5
210
330
348
100
AcDbEntity
  8
0
100
AcDbLine
 10
109.8630991661458
 20
27.2071116255144
 30
0.0
 11
109.8229114089441
 21
27.32767489711934
 31
0.0
  0
LINE
  5
211
330
348
100
AcDbEntity
  8
0
100
AcDbLine
 10
109.8229114089441
 20
27.32767489711934
 30
0.0
 11
109.8229114089441
 21
27.36786265432099
 31
0.0
  0
LINE
  5
212
330
348
100
AcDbEntity
  8
0
100
AcDbLine
 10
109.8229114089441
 20
27.36786265432099
 30
0.0
 11
109.7827236517425
 21
27.40805041152263
 31
0.0
  0
LINE
  5
213
330
348
100
AcDbEntity
  8
0
100
AcDbLine
 10
109.7827236517425
 20
27.40805041152263
 30
0.0
 11
109.7425358945408
 21
27.44823816872428
 31
0.0
  0
LINE
  5
214
330
348
100
AcDbEntity
  8
0
100
AcDbLine
 10
109.7425358945408
 20
27.44823816872428
 30
0.0
 11
109.7425358945408
 21
27.48842592592593
 31
0.0
  0
LINE
  5
215
330
348
100
AcDbEntity
  8
0
100
AcDbLine
 10
109.7425358945408
 20
27.48842592592593
 30
0.0
 11
109.7023481373392
 21
27.52861368312757
 31
0.0
  0
LINE
  5
216
330
348
100
AcDbEntity
  8
0
100
AcDbLine
 10
109.7023481373392
 20
27.52861368312757
 30
0.0
 11
109.7023481373392
 21
27.56880144032922
 31
0.0
  0
LINE
  5
217
330
348
100
AcDbEntity
  8
0
100
AcDbLine
 10
109.7023481373392
 20
27.56880144032922
 30
0.0
 11
109.6621603801375
 21
27.64917695473251
 31
0.0
  0
LINE
  5
218
330
348
100
AcDbEntity
  8
0
100
AcDbLine
 10
109.6621603801375
 20
27.64917695473251
 30
0.0
 11
109.6621603801375
 21
27.68936471193416
 31
0.0
  0
LINE
  5
219
330
348
100
AcDbEntity
  8
0
100
AcDbLine
 10
109.6621603801375
 20
27.68936471193416
 30
0.0
 11
109.6219726229359
 21
27.7295524691358
 31
0.0
  0
LINE
  5
21A
330
348
100
AcDbEntity
  8
0
100
AcDbLine
 10
109.6219726229359
 20
27.7295524691358
 30
0.0
 11
109.6219726229359
 21
27.76974022633745
 31
0.0
  0
LINE
  5
21B
330
348
100
AcDbEntity
  8
0
100
AcDbLine
 10
109.6219726229359
 20
27.76974022633745
 30
0.0
 11
109.5817848657342
 21
27.8099279835391
 31
0.0
  0
LINE
  5
21C
330
348
100
AcDbEntity
  8
0
100
AcDbLine
 10
109.5817848657342
 20
27.8099279835391
 30
0.0
 11
109.5415971085326
 21
27.93049125514403
 31
0.0
  0
LINE
  5
21D
330
348
100
AcDbEntity
  8
0
100
AcDbLine
 10
109.5415971085326
 20
27.93049125514403
 30
0.0
 11
109.501409351331
 21
27.97067901234568
 31
0.0
  0
LINE
  5
21E
330
348
100
AcDbEntity
  8
0
100
AcDbLine
 10
109.501409351331
 20
27.97067901234568
 30
0.0
 11
109.501409351331
 21
28.01086676954733
 31
0.0
  0
LINE
  5
21F
330
348
100
AcDbEntity
  8
0
100
AcDbLine
 10
109.501409351331
 20
28.01086676954733
 30
0.0
 11
109.4612215941293
 21
28.13143004115226
 31
0.0
  0
LINE
  5
220
330
348
100
AcDbEntity
  8
0
100
AcDbLine
 10
109.4612215941293
 20
28.13143004115226
 30
0.0
 11
109.4210338369277
 21
28.17161779835391
 31
0.0
  0
LINE
  5
221
330
348
100
AcDbEntity
  8
0
100
AcDbLine
 10
109.4210338369277
 20
28.17161779835391
 30
0.0
 11
109.380846079726
 21
28.29218106995885
 31
0.0
  0
LINE
  5
222
330
348
100
AcDbEntity
  8
0
100
AcDbLine
 10
109.380846079726
 20
28.29218106995885
 30
0.0
 11
109.3004705653227
 21
28.37255658436214
 31
0.0
  0
LINE
  5
223
330
348
100
AcDbEntity
  8
0
100
AcDbLine
 10
109.3004705653227
 20
28.37255658436214
 30
0.0
 11
109.2602828081211
 21
28.41274434156379
 31
0.0
  0
LINE
  5
224
330
348
100
AcDbEntity
  8
0
100
AcDbLine
 10
109.2602828081211
 20
28.41274434156379
 30
0.0
 11
109.2200950509194
 21
28.49311985596708
 31
0.0
  0
LINE
  5
225
330
348
100
AcDbEntity
  8
0
100
AcDbLine
 10
109.2200950509194
 20
28.49311985596708
 30
0.0
 11
109.2200950509194
 21
28.57349537037037
 31
0.0
  0
LINE
  5
226
330
348
100
AcDbEntity
  8
0
100
AcDbLine
 10
109.2200950509194
 20
28.57349537037037
 30
0.0
 11
109.1799072937178
 21
28.65387088477366
 31
0.0
  0
LINE
  5
227
330
348
100
AcDbEntity
  8
0
100
AcDbLine
 10
109.1799072937178
 20
28.65387088477366
 30
0.0
 11
109.0995317793145
 21
28.73424639917696
 31
0.0
  0
LINE
  5
228
330
348
100
AcDbEntity
  8
0
100
AcDbLine
 10
109.0995317793145
 20
28.73424639917696
 30
0.0
 11
109.0995317793145
 21
28.7744341563786
 31
0.0
  0
LINE
  5
229
330
348
100
AcDbEntity
  8
0
100
AcDbLine
 10
109.0995317793145
 20
28.7744341563786
 30
0.0
 11
109.0995317793145
 21
28.7744341563786
 31
0.0
  0
LINE
  5
22A
330
348
100
AcDbEntity
  8
0
100
AcDbLine
 10
109.0995317793145
 20
28.7744341563786
 30
0.0
 11
109.0593440221129
 21
28.85480967078189
 31
0.0
  0
LINE
  5
22B
330
348
100
AcDbEntity
  8
0
100
AcDbLine
 10
109.0593440221129
 20
28.85480967078189
 30
0.0
 11
109.0191562649112
 21
28.89499742798354
 31
0.0
  0
LINE
  5
22C
330
348
100
AcDbEntity
  8
0
100
AcDbLine
 10
109.0191562649112
 20
28.89499742798354
 30
0.0
 11
109.0191562649112
 21
28.89499742798354
 31
0.0
  0
LINE
  5
22D
330
348
100
AcDbEntity
  8
0
100
AcDbLine
 10
109.0191562649112
 20
28.89499742798354
 30
0.0
 11
108.9789685077096
 21
28.97537294238683
 31
0.0
  0
LINE
  5
22E
330
348
100
AcDbEntity
  8
0
100
AcDbLine
 10
108.9789685077096
 20
28.97537294238683
 30
0.0
 11
108.9789685077096
 21
29.01556069958848
 31
0.0
  0
LINE
  5
22F
330
348
100
AcDbEntity
  8
0
100
AcDbLine
 10
108.9789685077096
 20
29.01556069958848
 30
0.0
 11
108.9789685077096
 21
29.01556069958848
 31
0.0
  0
LINE
  5
230
330
348
100
AcDbEntity
  8
0
100
AcDbLine
 10
108.9789685077096
 20
29.01556069958848
 30
0.0
 11
108.9789685077096
 21
29.09593621399177
 31
0.0
  0
LINE
  5
231
330
348
100
AcDbEntity
  8
0
100
AcDbLine
 10
108.9789685077096
 20
29.09593621399177
 30
0.0
 11
108.9387807505079
 21
29.13612397119342
 31
0.0
  0
LINE
  5
232
330
348
100
AcDbEntity
  8
0
100
AcDbLine
 10
108.9387807505079
 20
29.13612397119342
 30
0.0
 11
108.8985929933063
 21
29.13612397119342
 31
0.0
  0
LINE
  5
233
330
348
100
AcDbEntity
  8
0
100
AcDbLine
 10
108.8985929933063
 20
29.13612397119342
 30
0.0
 11
108.8584052361046
 21
29.17631172839506
 31
0.0
  0
LINE
  5
234
330
348
100
AcDbEntity
  8
0
100
AcDbLine
 10
108.8584052361046
 20
29.17631172839506
 30
0.0
 11
108.8584052361046
 21
29.21649948559671
 31
0.0
  0
LINE
  5
235
330
348
100
AcDbEntity
  8
0
100
AcDbLine
 10
108.8584052361046
 20
29.21649948559671
 30
0.0
 11
108.818217478903
 21
29.25668724279836
 31
0.0
  0
LINE
  5
236
330
348
100
AcDbEntity
  8
0
100
AcDbLine
 10
108.818217478903
 20
29.25668724279836
 30
0.0
 11
108.7780297217013
 21
29.33706275720165
 31
0.0
  0
LINE
  5
237
330
348
100
AcDbEntity
  8
0
100
AcDbLine
 10
108.7780297217013
 20
29.33706275720165
 30
0.0
 11
108.7378419644997
 21
29.37725051440329
 31
0.0
  0
LINE
  5
238
330
348
100
AcDbEntity
  8
0
100
AcDbLine
 10
108.7378419644997
 20
29.37725051440329
 30
0.0
 11
108.7378419644997
 21
29.41743827160494
 31
0.0
  0
LINE
  5
239
330
348
100
AcDbEntity
  8
0
100
AcDbLine
 10
108.7378419644997
 20
29.41743827160494
 30
0.0
 11
108.697654207298
 21
29.45762602880659
 31
0.0
  0
LINE
  5
23A
330
348
100
AcDbEntity
  8
0
100
AcDbLine
 10
108.697654207298
 20
29.45762602880659
 30
0.0
 11
108.6574664500964
 21
29.49781378600823
 31
0.0
  0
LINE
  5
23B
330
348
100
AcDbEntity
  8
0
100
AcDbLine
 10
108.6574664500964
 20
29.49781378600823
 30
0.0
 11
108.6172786928947
 21
29.49781378600823
 31
0.0
  0
LINE
  5
23C
330
348
100
AcDbEntity
  8
0
100
AcDbLine
 10
108.6172786928947
 20
29.49781378600823
 30
0.0
 11
108.6172786928947
 21
29.53800154320988
 31
0.0
  0
DIMENSION
  5
24F
330
348
100
AcDbEntity
  8
0
100
AcDbDimension
280
     0
 10
250.0
 20
40.0
 30
0.0
 11
263.0
 21
41.875
 31
0.0
 70
    32
  1
25
 71
     5
 42
-1.0
 73
     0
 74
     0
 75
     0
  3
QCADDimStyle
100
AcDbAlignedDimension
 13
250.0
 23
26.0
 33
0.0
 14
276.0
 24
26.0
 34
0.0
100
AcDbRotatedDimension
1001
ACAD
1000
DSTYLE
1002
{
1070
   289
1070
     0
1002
}
  0
DIMENSION
  5
250
330
348
100
AcDbEntity
  8
0
100
AcDbDimension
280
     0
 10
300.0
 20
26.0
 30
0.0
 11
298.125
 21
13.0
 31
0.0
 70
    32
  1
25
 71
     5
 42
-1.0
 73
     0
 74
     0
 75
     0
  3
QCADDimStyle
100
AcDbAlignedDimension
 13
276.0
 23
26.0
 33
0.0
 14
276.0
 24
0.0
 34
0.0
 50
90.0
100
AcDbRotatedDimension
1001
ACAD
1000
DSTYLE
1002
{
1070
   289
1070
     0
1002
}
  0
DIMENSION
  5
251
330
348
100
AcDbEntity
  8
0
100
AcDbDimension
280
     0
 10
200.0
 20
50.0
 30
0.0
 11
195.0
 21
51.875
 31
0.0
 70
    32
 71
     5
 42
-1.0
 73
     0
 74
     0
 75
     0
  3
QCADDimStyle
100
AcDbAlignedDimension
 13
200.0
 23
13.0
 33
0.0
 14
190.0
 24
13.0
 34
0.0
100
AcDbRotatedDimension
1001
ACAD
1000
DSTYLE
1002
{
1070
   289
1070
     0
1002
}
  0
DIMENSION
  5
252
330
348
100
AcDbEntity
  8
0
100
AcDbDimension
280
     0
 10
190.0
 20
50.0
 30
0.0
 11
170.0
 21
51.875
 31
0.0
 70
    32
  1
\A1;<>\S+0.2^ -0.2;
 71
     5
 42
-1.0
 73
     0
 74
     0
 75
     0
  3
QCADDimStyle
100
AcDbAlignedDimension
 13
190.0
 23
13.0
 33
0.0
 14
150.0
 24
13.0
 34
0.0
100
AcDbRotatedDimension
1001
ACAD
1000
DSTYLE
1002
{
1070
   289
1070
     0
1002
}
  0
DIMENSION
  5
254
330
348
100
AcDbEntity
  8
0
100
AcDbDimension
280
     0
 10
147.0
 20
-10.0
 30
0.0
 11
157.0694369068539
 21
-8.125
 31
0.0
 70
    32
  1
\A1;<>\S+0.6^ +0.4;
 71
     5
 42
-1.0
 73
     0
 74
     0
 75
     0
  3
QCADDimStyle
100
AcDbAlignedDimension
 13
147.0
 23
13.0
 33
0.0
 14
153.0
 24
13.0
 34
0.0
100
AcDbRotatedDimension
1001
ACAD
1000
DSTYLE
1002
{
1070
   289
1070
     0
1002
}
  0
DIMENSION
  5
255
330
348
100
AcDbEntity
  8
0
100
AcDbDimension
280
     0
 10
187.0
 20
-9.999999999999824
 30
0.0
 11
183.0
 21
-8.0
 31
0.0
 70
   160
  1
\A1;<>\S+0.6^ +0.4;
 71
     5
 42
-1.0
 73
     0
 74
     0
 75
     0
  3
QCADDimStyle
100
AcDbAlignedDimension
 13
187.0
 23
12.99999999999993
 33
0.0
 14
193.0
 24
12.99999999999982
 34
0.0
100
AcDbRotatedDimension
1001
ACAD
1000
DSTYLE
1002
{
1070
   289
1070
     0
1002
}
  0
DIMENSION
  5
256
330
348
100
AcDbEntity
  8
0
100
AcDbDimension
280
     0
 10
200.0
 20
-40.0
 30
0.0
 11
100.0
 21
-38.125
 31
0.0
 70
    32
  1
1000
 71
     5
 42
-1.0
 73
     0
 74
     0
 75
     0
  3
QCADDimStyle
100
AcDbAlignedDimension
 13
200.0
 23
0.0
 33
0.0
 14
0.0
 24
0.0
 34
0.0
100
AcDbRotatedDimension
1001
ACAD
1000
DSTYLE
1002
{
1070
   289
1070
     0
1002
}
  0
VIEWPORT
  5
3F3
330
344
100
AcDbEntity
 67
     1
  8
0
100
AcDbViewport
 10
128.5
 20
97.5
 30
0.0
 40
314.226
 41
222.18
 68
     1
 69
     1
 12
128.5
 22
97.5
 13
0.0
 23
0.0
 14
10.0
 24
10.0
 15
10.0
 25
10.0
 16
0.0
 26
0.0
 36
1.0
 17
0.0
 27
0.0
 37
0.0
 42
50.0
 43
0.0
 44
0.0
 45
222.18
 50
0.0
 51
0.0
 72
   100
 90
   557152
  1

281
     0
 71
     1
 74
     0
110
0.0
120
0.0
130
0.0
111
1.0
121
0.0
131
0.0
112
0.0
122
1.0
132
0.0
 79
     0
146
0.0
170
     0
 61
     5
348
358
292
     1
282
     1
141
0.0
142
0.0
 63
   256
361
3F4
  0
ENDSEC
  0
SECTION
  2
OBJECTS
  0
DICTIONARY
  5
336
330
0
100
AcDbDictionary
281
     1
  3
ACAD_DETAILVIEWSTYLE
350
3FC
  3
ACAD_GROUP
350
337
  3
ACAD_LAYOUT
350
343
  3
ACAD_MATERIAL
350
36C
  3
ACAD_MLEADERSTYLE
350
384
  3
ACAD_MLINESTYLE
350
340
  3
ACAD_PLOTSETTINGS
350
342
  3
ACAD_PLOTSTYLENAME
350
338
  3
ACAD_SCALELIST
350
370
  3
ACAD_SECTIONVIEWSTYLE
350
3FD
  3
ACAD_TABLESTYLE
350
382
  3
ACAD_VISUALSTYLE
350
353
  3
ACDB_RECOMPOSE_DATA
350
3F9
  3
AcDbVariableDictionary
350
3F5
  3
QCAD_OBJECTS
350
388
  0
SUN
  5
386
330
352
100
AcDbSun
 90
        1
290
     0
 63
     7
421
 16777215
 40
1.0
291
     1
 91
  2455826
 92
 54000000
292
     0
 70
     2
 71
   256
280
     1
  0
SUN
  5
3F4
330
3F3
100
AcDbSun
 90
        1
290
     0
 63
     7
421
 16777215
 40
1.0
291
     1
 91
  2455826
 92
 54000000
292
     0
 70
     2
 71
   256
280
     1
  0
DICTIONARY
  5
3FC
102
{ACAD_REACTORS
330
336
102
}
330
336
100
AcDbDictionary
281
     1
  0
DICTIONARY
  5
337
102
{ACAD_REACTORS
330
336
102
}
330
336
100
AcDbDictionary
281
     1
  0
DICTIONARY
  5
343
102
{ACAD_REACTORS
330
336
102
}
330
336
100
AcDbDictionary
281
     1
  3
Layout1
350
347
  3
Model
350
34B
  0
DICTIONARY
  5
36C
102
{ACAD_REACTORS
330
336
102
}
330
336
100
AcDbDictionary
281
     1
  3
ByBlock
350
36E
  3
ByLayer
350
36D
  3
Global
350
36F
  0
DICTIONARY
  5
384
102
{ACAD_REACTORS
330
336
102
}
330
336
100
AcDbDictionary
281
     1
  3
Standard
350
385
  0
DICTIONARY
  5
340
102
{ACAD_REACTORS
330
336
102
}
330
336
100
AcDbDictionary
281
     1
  3
Standard
350
341
  0
DICTIONARY
  5
342
102
{ACAD_REACTORS
330
336
102
}
330
336
100
AcDbDictionary
281
     1
  0
ACDBDICTIONARYWDFLT
  5
338
102
{ACAD_REACTORS
330
336
102
}
330
336
100
AcDbDictionary
281
     1
  3
Normal
350
339
100
AcDbDictionaryWithDefault
340
339
  0
DICTIONARY
  5
370
102
{ACAD_REACTORS
330
336
102
}
330
336
100
AcDbDictionary
281
     1
  3
A0
350
371
  3
A1
350
372
  3
A2
350
373
  3
A3
350
374
  3
A4
350
375
  3
A5
350
376
  3
A6
350
377
  3
A7
350
378
  3
A8
350
379
  3
A9
350
37A
  3
B1
350
37B
  3
B2
350
37C
  3
B3
350
37D
  3
B4
350
37E
  3
B5
350
37F
  3
B6
350
380
  3
B7
350
381
  0
DICTIONARY
  5
3FD
102
{ACAD_REACTORS
330
336
102
}
330
336
100
AcDbDictionary
281
     1
  0
DICTIONARY
  5
382
102
{ACAD_REACTORS
330
336
102
}
330
336
100
AcDbDictionary
281
     1
  3
Standard
350
383
  0
DICTIONARY
  5
353
102
{ACAD_REACTORS
330
336
102
}
330
336
100
AcDbDictionary
281
     1
  3
2dWireframe
350
358
  3
Basic
350
35B
  3
Brighten
350
35F
  3
ColorChange
350
363
  3
Conceptual
350
35D
  3
Dim
350
35E
  3
EdgeColorOff
350
366
  3
Facepattern
350
362
  3
Flat
350
354
  3
FlatWithEdges
350
355
  3
Gouraud
350
356
  3
GouraudWithEdges
350
357
  3
Hidden
350
35A
  3
JitterOff
350
364
  3
Linepattern
350
361
  3
OverhangOff
350
365
  3
Realistic
350
35C
  3
Shaded
350
36B
  3
Shaded with edges
350
36A
  3
Shades of Gray
350
367
  3
Sketchy
350
368
  3
Thicken
350
360
  3
Wireframe
350
359
  3
X-Ray
350
369
  0
XRECORD
  5
3F9
102
{ACAD_REACTORS
330
336
102
}
330
336
100
AcDbXrecord
280
     1
 90
        1
330
383
  0
DICTIONARY
  5
3F5
102
{ACAD_REACTORS
330
336
102
}
330
336
100
AcDbDictionary
281
     1
  3
CANNOSCALE
350
3F6
  3
CMLEADERSTYLE
350
3FB
  3
CTABLESTYLE
350
3FA
  0
DICTIONARY
  5
388
102
{ACAD_REACTORS
330
336
102
}
330
336
100
AcDbDictionary
281
     1
  3
ColorSettings/BackgroundColor
350
38A
  3
ColorSettings/ColorMode
350
38B
  3
Grid/DisplayGrid00
350
38C
  3
Grid/DisplayGrid01
350
38D
  3
Grid/DisplayGrid02
350
38E
  3
Grid/DisplayGrid03
350
38F
  3
Grid/GridSpacingX00
350
390
  3
Grid/GridSpacingX01
350
391
  3
Grid/GridSpacingX02
350
392
  3
Grid/GridSpacingX03
350
393
  3
Grid/GridSpacingY00
350
394
  3
Grid/GridSpacingY01
350
395
  3
Grid/GridSpacingY02
350
396
  3
Grid/GridSpacingY03
350
397
  3
Grid/IsometricGrid00
350
398
  3
Grid/IsometricGrid01
350
399
  3
Grid/IsometricGrid02
350
39A
  3
Grid/IsometricGrid03
350
39B
  3
Grid/IsometricProjection00
350
39C
  3
Grid/IsometricProjection01
350
39D
  3
Grid/IsometricProjection02
350
39E
  3
Grid/IsometricProjection03
350
39F
  3
Grid/MetaGridSpacingX00
350
3A0
  3
Grid/MetaGridSpacingX01
350
3A1
  3
Grid/MetaGridSpacingX02
350
3A2
  3
Grid/MetaGridSpacingX03
350
3A3
  3
Grid/MetaGridSpacingY00
350
3A4
  3
Grid/MetaGridSpacingY01
350
3A5
  3
Grid/MetaGridSpacingY02
350
3A6
  3
Grid/MetaGridSpacingY03
350
3A7
  3
MultiPageSettings/Columns
350
3A8
  3
MultiPageSettings/GlueMarginsBottom
350
3A9
  3
MultiPageSettings/GlueMarginsLeft
350
3AA
  3
MultiPageSettings/GlueMarginsRight
350
3AB
  3
MultiPageSettings/GlueMarginsTop
350
3AC
  3
MultiPageSettings/PrintCropMarks
350
3AD
  3
MultiPageSettings/Rows
350
3AE
  3
PageSettings/OffsetX
350
3AF
  3
PageSettings/OffsetY
350
3B0
  3
PageSettings/PageOrientation
350
3B1
  3
PageSettings/PaperHeight
350
3B2
  3
PageSettings/PaperWidth
350
3B3
  3
PageSettings/Scale
350
3B4
  3
PageSettings/ShowPaperBorders
350
3B5
  3
PageTagSettings/EnablePageTags
350
3B6
  3
PageTagSettings/TagAlignment
350
3B7
  3
PageTagSettings/TagFont
350
3B8
  3
PageTagSettings/TagPosition
350
3B9
  3
QCADVersion
350
3BA
  3
UnitSettings/PaperUnit
350
3BB
  3
ViewportCenter
350
3BC
  3
ViewportHeight
350
3BD
  3
ViewportWidth
350
3BE
  0
LAYOUT
  5
347
102
{ACAD_REACTORS
330
343
102
}
330
343
100
AcDbPlotSettings
  1

  2
none_device
  4
ISO_A4_(210.00_x_297.00_MM)
  6

 40
7.5
 41
20.0
 42
7.5
 43
20.0
 44
210.0
 45
297.0
 46
0.0
 47
0.0
 48
0.0
 49
0.0
140
0.0
141
0.0
142
1.0
143
1.0
 70
   688
 72
     1
 73
     1
 74
     5
  7

 75
     0
 76
     0
 77
     2
 78
   300
147
1.0
148
0.0
149
0.0
100
AcDbLayout
  1
Layout1
 70
     1
 71
     0
 10
-20.0
 20
-7.5
 11
277.0
 21
202.5
 12
0.0
 22
0.0
 32
0.0
 14
0.0
 24
0.0
 34
0.0
 15
0.0
 25
0.0
 35
0.0
146
0.0
 13
0.0
 23
0.0
 33
0.0
 16
1.0
 26
0.0
 36
0.0
 17
0.0
 27
1.0
 37
0.0
 76
     0
330
344
331
3F3
  0
LAYOUT
  5
34B
102
{ACAD_REACTORS
330
343
102
}
330
343
100
AcDbPlotSettings
  1

  2
none_device
  4
Letter_(8.50_x_11.00_Inches)
  6

 40
6.35
 41
6.35
 42
6.35000508
 43
6.35000508
 44
215.9
 45
279.4
 46
0.0
 47
0.0
 48
0.0
 49
0.0
140
0.0
141
0.0
142
1.0
143
1.0
 70
  1712
 72
     0
 73
     0
 74
     0
  7

 75
     0
 76
     0
 77
     2
 78
   300
147
1.0
148
0.0
149
0.0
100
AcDbLayout
  1
Model
 70
     1
 71
     0
 10
0.0
 20
0.0
 11
12.0
 21
9.0
 12
0.0
 22
0.0
 32
0.0
 14
-6.0
 24
-41.25
 34
0.0
 15
301.25
 25
53.12522283923217
 35
0.0
146
0.0
 13
0.0
 23
0.0
 33
0.0
 16
1.0
 26
0.0
 36
0.0
 17
0.0
 27
1.0
 37
0.0
 76
     0
330
348
331
352
  0
MATERIAL
  5
36E
102
{ACAD_REACTORS
330
36C
102
}
330
36C
100
AcDbMaterial
  1
ByBlock
 72
     1
 94
      127
  0
MATERIAL
  5
36D
102
{ACAD_REACTORS
330
36C
102
}
330
36C
100
AcDbMaterial
  1
ByLayer
 72
     1
 94
      127
  0
MATERIAL
  5
36F
102
{ACAD_REACTORS
330
36C
102
}
330
36C
100
AcDbMaterial
  1
Global
 72
     1
 94
      127
  0
MLEADERSTYLE
  5
385
102
{ACAD_REACTORS
330
384
102
}
330
384
100
AcDbMLeaderStyle
179
     2
170
     2
171
     1
172
     0
 90
        2
 40
0.0
 41
0.0
173
     1
 91
-1056964608
340
33D
 92
       -2
290
     1
 42
0.09
291
     1
 43
0.36
  3
Standard
341
0
 44
0.18
300

342
33B
174
     1
178
     6
175
     1
176
     0
 93
-1056964608
 45
0.18
292
     0
297
     0
 46
0.18
343
0
 94
-1056964608
 47
1.0
 49
1.0
140
1.0
293
     1
141
0.0
294
     1
177
     0
142
1.0
295
     0
296
     0
143
0.125
271
     0
272
     9
273
     9
298
     0
  0
MLINESTYLE
  5
341
102
{ACAD_REACTORS
330
340
102
}
330
340
100
AcDbMlineStyle
  2
Standard
 70
     0
  3

 62
   256
 51
90.0
 52
90.0
 71
     2
 49
0.5
 62
   256
  6
BYLAYER
 49
-0.5
 62
   256
  6
BYLAYER
  0
ACDBPLACEHOLDER
  5
339
102
{ACAD_REACTORS
330
338
102
}
330
338
  0
SCALE
  5
371
102
{ACAD_REACTORS
330
370
102
}
330
370
100
AcDbScale
 70
     0
300
1:1
140
1.0
141
1.0
290
     1
  0
SCALE
  5
372
102
{ACAD_REACTORS
330
370
102
}
330
370
100
AcDbScale
 70
     0
300
1/128" = 1'-0"
140
0.0078125
141
12.0
290
     0
  0
SCALE
  5
373
102
{ACAD_REACTORS
330
370
102
}
330
370
100
AcDbScale
 70
     0
300
1/64" = 1'-0"
140
0.015625
141
12.0
290
     0
  0
SCALE
  5
374
102
{ACAD_REACTORS
330
370
102
}
330
370
100
AcDbScale
 70
     0
300
1/32" = 1'-0"
140
0.03125
141
12.0
290
     0
  0
SCALE
  5
375
102
{ACAD_REACTORS
330
370
102
}
330
370
100
AcDbScale
 70
     0
300
1/16" = 1'-0"
140
0.0625
141
12.0
290
     0
  0
SCALE
  5
376
102
{ACAD_REACTORS
330
370
102
}
330
370
100
AcDbScale
 70
     0
300
3/32" = 1'-0"
140
0.09375
141
12.0
290
     0
  0
SCALE
  5
377
102
{ACAD_REACTORS
330
370
102
}
330
370
100
AcDbScale
 70
     0
300
1/8" = 1'-0"
140
0.125
141
12.0
290
     0
  0
SCALE
  5
378
102
{ACAD_REACTORS
330
370
102
}
330
370
100
AcDbScale
 70
     0
300
3/16" = 1'-0"
140
0.1875
141
12.0
290
     0
  0
SCALE
  5
379
102
{ACAD_REACTORS
330
370
102
}
330
370
100
AcDbScale
 70
     0
300
1/4" = 1'-0"
140
0.25
141
12.0
290
     0
  0
SCALE
  5
37A
102
{ACAD_REACTORS
330
370
102
}
330
370
100
AcDbScale
 70
     0
300
3/8" = 1'-0"
140
0.375
141
12.0
290
     0
  0
SCALE
  5
37B
102
{ACAD_REACTORS
330
370
102
}
330
370
100
AcDbScale
 70
     0
300
1/2" = 1'-0"
140
0.5
141
12.0
290
     0
  0
SCALE
  5
37C
102
{ACAD_REACTORS
330
370
102
}
330
370
100
AcDbScale
 70
     0
300
3/4" = 1'-0"
140
0.75
141
12.0
290
     0
  0
SCALE
  5
37D
102
{ACAD_REACTORS
330
370
102
}
330
370
100
AcDbScale
 70
     0
300
1" = 1'-0"
140
1.0
141
12.0
290
     0
  0
SCALE
  5
37E
102
{ACAD_REACTORS
330
370
102
}
330
370
100
AcDbScale
 70
     0
300
1-1/2" = 1'-0"
140
1.5
141
12.0
290
     0
  0
SCALE
  5
37F
102
{ACAD_REACTORS
330
370
102
}
330
370
100
AcDbScale
 70
     0
300
3" = 1'-0"
140
3.0
141
12.0
290
     0
  0
SCALE
  5
380
102
{ACAD_REACTORS
330
370
102
}
330
370
100
AcDbScale
 70
     0
300
6" = 1'-0"
140
6.0
141
12.0
290
     0
  0
SCALE
  5
381
102
{ACAD_REACTORS
330
370
102
}
330
370
100
AcDbScale
 70
     0
300
1'-0" = 1'-0"
140
12.0
141
12.0
290
     0
  0
TABLESTYLE
  5
383
102
{ACAD_REACTORS
330
382
102
}
102
{ACAD_XDICTIONARY
360
3F7
102
}
330
382
100
AcDbTableStyle
  3
Standard
 70
     0
 71
     0
 40
0.06
 41
0.06
280
     0
281
     0
  7
Standard
140
0.18
170
     2
 62
     0
 63
   257
283
     0
 90
        4
 91
        0
  1

274
    -2
284
     1
 64
     0
275
    -2
285
     1
 65
     0
276
    -2
286
     1
 66
     0
277
    -2
287
     1
 67
     0
278
    -2
288
     1
 68
     0
279
    -2
289
     1
 69
     0
  7
Standard
140
0.25
170
     5
 62
     0
 63
   257
283
     0
 90
        4
 91
        0
  1

274
    -2
284
     1
 64
     0
275
    -2
285
     1
 65
     0
276
    -2
286
     1
 66
     0
277
    -2
287
     1
 67
     0
278
    -2
288
     1
 68
     0
279
    -2
289
     1
 69
     0
  7
Standard
140
0.18
170
     5
 62
     0
 63
   257
283
     0
 90
        4
 91
        0
  1

274
    -2
284
     1
 64
     0
275
    -2
285
     1
 65
     0
276
    -2
286
     1
 66
     0
277
    -2
287
     1
 67
     0
278
    -2
288
     1
 68
     0
279
    -2
289
     1
 69
     0
  0
VISUALSTYLE
  5
358
102
{ACAD_REACTORS
330
353
102
}
330
353
100
AcDbVisualStyle
  2
2dWireframe
 70
     4
177
     3
291
     0
 70
    58
 90
        0
176
     1
 90
        2
176
     1
 90
        0
176
     1
 90
        0
176
     1
 40
0.6
176
     1
 40
30.0
176
     1
 62
     7
420
 16777215
176
     1
 90
        1
176
     1
 90
        4
176
     1
 62
     7
176
     1
 62
   257
176
     1
 90
        1
176
     1
 90
        1
176
     1
 40
1.0
176
     1
 90
        0
176
     1
 62
   257
176
     1
 40
1.0
176
     1
 90
        1
176
     1
 90
        6
176
     1
 90
        2
176
     1
 62
     7
176
     1
 90
        5
176
     1
 90
        0
176
     1
 90
        0
176
     1
290
     0
176
     1
 90
        1
176
     1
 40
0.0
176
     1
 90
        0
176
     1
290
     1
176
     1
290
     1
176
     1
290
     0
176
     1
290
     0
176
     1
290
     0
176
     1
290
     0
176
     1
290
     0
176
     1
290
     0
176
     1
290
     0
176
     1
 90
       50
176
     1
 40
0.0
176
     1
 40
1.0
176
     1
 90
        0
176
     1
 62
    18
420
        0
176
     1
 90
       50
176
     1
 90
        3
176
     1
 62
     5
420
      255
176
     1
290
     0
176
     1
 90
       50
176
     1
 90
       50
176
     1
 90
       50
176
     1
290
     0
176
     1
 90
       50
176
     1
 62
   256
176
     0
 40
1.0
176
     0
 90
        2
176
     1
  1
strokes_ogs.tif
176
     1
290
     0
176
     1
 40
1.0
176
     1
 40
1.0
176
     1
  0
VISUALSTYLE
  5
35B
102
{ACAD_REACTORS
330
353
102
}
330
353
100
AcDbVisualStyle
  2
Basic
 70
     7
177
     3
291
     1
 70
    58
 90
        1
176
     1
 90
        0
176
     1
 90
        1
176
     1
 90
        0
176
     1
 40
0.6
176
     1
 40
30.0
176
     1
 62
     7
420
 16777215
176
     1
 90
        0
176
     1
 90
        4
176
     1
 62
     7
176
     1
 62
   257
176
     1
 90
        1
176
     1
 90
        1
176
     1
 40
1.0
176
     1
 90
        8
176
     1
 62
     7
176
     1
 40
1.0
176
     1
 90
        1
176
     1
 90
        6
176
     1
 90
        2
176
     1
 62
     7
176
     1
 90
        5
176
     1
 90
        0
176
     1
 90
        0
176
     1
290
     0
176
     1
 90
        1
176
     1
 40
0.0
176
     1
 90
        0
176
     1
290
     0
176
     1
290
     1
176
     1
290
     1
176
     1
290
     0
176
     1
290
     0
176
     1
290
     0
176
     1
290
     0
176
     1
290
     0
176
     1
290
     0
176
     1
 90
       50
176
     1
 40
0.0
176
     1
 40
1.0
176
     1
 90
        0
176
     1
 62
    18
420
        0
176
     1
 90
       50
176
     1
 90
        3
176
     1
 62
     5
420
      255
176
     1
290
     0
176
     1
 90
       50
176
     1
 90
       50
176
     1
 90
       50
176
     1
290
     0
176
     1
 90
       50
176
     1
 62
   256
176
     0
 40
1.0
176
     0
 90
        2
176
     1
  1
strokes_ogs.tif
176
     1
290
     0
176
     1
 40
1.0
176
     1
 40
1.0
176
     1
  0
VISUALSTYLE
  5
35F
102
{ACAD_REACTORS
330
353
102
}
330
353
100
AcDbVisualStyle
  2
Brighten
 70
    12
177
     3
291
     1
 70
    58
 90
        2
176
     1
 90
        2
176
     1
 90
        0
176
     1
 90
        0
176
     1
 40
0.6
176
     1
 40
30.0
176
     1
 62
     7
420
 16777215
176
     1
 90
        1
176
     1
 90
        4
176
     1
 62
     7
176
     1
 62
   257
176
     1
 90
        1
176
     1
 90
        1
176
     1
 40
1.0
176
     1
 90
        8
176
     1
 62
     7
176
     1
 40
1.0
176
     1
 90
        1
176
     1
 90
        6
176
     1
 90
        2
176
     1
 62
     7
176
     1
 90
        5
176
     1
 90
        0
176
     1
 90
        0
176
     1
290
     0
176
     1
 90
        1
176
     1
 40
50.0
176
     1
 90
        0
176
     1
290
     0
176
     1
290
     1
176
     1
290
     1
176
     1
290
     0
176
     1
290
     0
176
     1
290
     0
176
     1
290
     0
176
     1
290
     0
176
     1
290
     0
176
     1
 90
       50
176
     1
 40
0.0
176
     1
 40
1.0
176
     1
 90
        0
176
     1
 62
    18
420
        0
176
     1
 90
       50
176
     1
 90
        3
176
     1
 62
     5
420
      255
176
     1
290
     0
176
     1
 90
       50
176
     1
 90
       50
176
     1
 90
       50
176
     1
290
     0
176
     1
 90
       50
176
     1
 62
   256
176
     0
 40
1.0
176
     0
 90
        2
176
     1
  1
strokes_ogs.tif
176
     1
290
     0
176
     1
 40
1.0
176
     1
 40
1.0
176
     1
  0
VISUALSTYLE
  5
363
102
{ACAD_REACTORS
330
353
102
}
330
353
100
AcDbVisualStyle
  2
ColorChange
 70
    16
177
     3
291
     1
 70
    58
 90
        2
176
     1
 90
        2
176
     1
 90
        3
176
     1
 90
        0
176
     1
 40
0.6
176
     1
 40
30.0
176
     1
 62
     8
420
  8421504
176
     1
 90
        1
176
     1
 90
        4
176
     1
 62
     7
176
     1
 62
   257
176
     1
 90
        1
176
     1
 90
        1
176
     1
 40
1.0
176
     1
 90
        8
176
     1
 62
     8
420
  8421504
176
     1
 40
1.0
176
     1
 90
        1
176
     1
 90
        6
176
     1
 90
        2
176
     1
 62
     7
176
     1
 90
        5
176
     1
 90
        0
176
     1
 90
        0
176
     1
290
     0
176
     1
 90
        1
176
     1
 40
0.0
176
     1
 90
        0
176
     1
290
     0
176
     1
290
     1
176
     1
290
     1
176
     1
290
     0
176
     1
290
     0
176
     1
290
     0
176
     1
290
     0
176
     1
290
     0
176
     1
290
     0
176
     1
 90
       50
176
     1
 40
0.0
176
     1
 40
1.0
176
     1
 90
        0
176
     1
 62
    18
420
        0
176
     1
 90
       50
176
     1
 90
        3
176
     1
 62
     5
420
      255
176
     1
290
     0
176
     1
 90
       50
176
     1
 90
       50
176
     1
 90
       50
176
     1
290
     0
176
     1
 90
       50
176
     1
 62
   256
176
     0
 40
1.0
176
     0
 90
        2
176
     1
  1
strokes_ogs.tif
176
     1
290
     0
176
     1
 40
1.0
176
     1
 40
1.0
176
     1
  0
VISUALSTYLE
  5
35D
102
{ACAD_REACTORS
330
353
102
}
330
353
100
AcDbVisualStyle
  2
Conceptual
 70
     9
177
     3
291
     0
 70
    58
 90
        3
176
     1
 90
        2
176
     1
 90
        0
176
     1
 90
        0
176
     1
 40
0.6
176
     1
 40
30.0
176
     1
 62
     7
420
 16777215
176
     1
 90
        2
176
     1
 90
        2
176
     1
 62
     7
176
     1
 62
   257
176
     1
 90
        1
176
     1
 90
        1
176
     1
 40
179.0
176
     1
 90
        8
176
     1
 62
     7
176
     1
 40
1.0
176
     1
 90
        1
176
     1
 90
        6
176
     1
 90
        2
176
     1
 62
     7
176
     1
 90
        3
176
     1
 90
        0
176
     1
 90
        0
176
     1
290
     0
176
     1
 90
        1
176
     1
 40
0.0
176
     1
 90
        0
176
     1
290
     0
176
     1
290
     1
176
     1
290
     1
176
     1
290
     0
176
     1
290
     0
176
     1
290
     0
176
     1
290
     0
176
     1
290
     0
176
     1
290
     0
176
     1
 90
       50
176
     1
 40
0.0
176
     1
 40
1.0
176
     1
 90
        0
176
     1
 62
    18
420
        0
176
     1
 90
       50
176
     1
 90
        3
176
     1
 62
     5
420
      255
176
     1
290
     0
176
     1
 90
       50
176
     1
 90
       50
176
     1
 90
       50
176
     1
290
     0
176
     1
 90
       50
176
     1
 62
   256
176
     0
 40
1.0
176
     0
 90
        2
176
     1
  1
strokes_ogs.tif
176
     1
290
     0
176
     1
 40
1.0
176
     1
 40
1.0
176
     1
  0
VISUALSTYLE
  5
35E
102
{ACAD_REACTORS
330
353
102
}
330
353
100
AcDbVisualStyle
  2
Dim
 70
    11
177
     3
291
     1
 70
    58
 90
        2
176
     1
 90
        2
176
     1
 90
        0
176
     1
 90
        0
176
     1
 40
0.6
176
     1
 40
30.0
176
     1
 62
     7
420
 16777215
176
     1
 90
        1
176
     1
 90
        4
176
     1
 62
     7
176
     1
 62
   257
176
     1
 90
        1
176
     1
 90
        1
176
     1
 40
1.0
176
     1
 90
        8
176
     1
 62
     7
176
     1
 40
1.0
176
     1
 90
        1
176
     1
 90
        6
176
     1
 90
        2
176
     1
 62
     7
176
     1
 90
        5
176
     1
 90
        0
176
     1
 90
        0
176
     1
290
     0
176
     1
 90
        1
176
     1
 40
-50.0
176
     1
 90
        0
176
     1
290
     0
176
     1
290
     1
176
     1
290
     1
176
     1
290
     0
176
     1
290
     0
176
     1
290
     0
176
     1
290
     0
176
     1
290
     0
176
     1
290
     0
176
     1
 90
       50
176
     1
 40
0.0
176
     1
 40
1.0
176
     1
 90
        0
176
     1
 62
    18
420
        0
176
     1
 90
       50
176
     1
 90
        3
176
     1
 62
     5
420
      255
176
     1
290
     0
176
     1
 90
       50
176
     1
 90
       50
176
     1
 90
       50
176
     1
290
     0
176
     1
 90
       50
176
     1
 62
   256
176
     0
 40
1.0
176
     0
 90
        2
176
     1
  1
strokes_ogs.tif
176
     1
290
     0
176
     1
 40
1.0
176
     1
 40
1.0
176
     1
  0
VISUALSTYLE
  5
366
102
{ACAD_REACTORS
330
353
102
}
330
353
100
AcDbVisualStyle
  2
EdgeColorOff
 70
    22
177
     3
291
     1
 70
    58
 90
        2
176
     0
 90
        2
176
     0
 90
        0
176
     0
 90
        0
176
     0
 40
0.6
176
     0
 40
30.0
176
     0
 62
     7
420
 16777215
176
     0
 90
        1
176
     0
 90
        4
176
     0
 62
     7
176
     0
 62
   257
176
     0
 90
        1
176
     0
 90
        1
176
     0
 40
1.0
176
     0
 90
        8
176
     2
 62
     7
176
     0
 40
1.0
176
     0
 90
        1
176
     0
 90
        6
176
     0
 90
        2
176
     0
 62
     7
176
     0
 90
        5
176
     0
 90
        0
176
     0
 90
        0
176
     0
290
     0
176
     0
 90
        1
176
     0
 40
0.0
176
     0
 90
        0
176
     0
290
     0
176
     0
290
     1
176
     0
290
     1
176
     0
290
     0
176
     0
290
     0
176
     0
290
     0
176
     0
290
     0
176
     0
290
     0
176
     0
290
     0
176
     0
 90
       50
176
     0
 40
0.0
176
     0
 40
1.0
176
     0
 90
        0
176
     0
 62
    18
420
        0
176
     0
 90
       50
176
     0
 90
        3
176
     0
 62
     5
420
      255
176
     0
290
     0
176
     0
 90
       50
176
     0
 90
       50
176
     0
 90
       50
176
     0
290
     0
176
     0
 90
       50
176
     0
 62
   256
176
     0
 40
1.0
176
     0
 90
        2
176
     0
  1
strokes_ogs.tif
176
     0
290
     0
176
     0
 40
1.0
176
     0
 40
1.0
176
     0
  0
VISUALSTYLE
  5
362
102
{ACAD_REACTORS
330
353
102
}
330
353
100
AcDbVisualStyle
  2
Facepattern
 70
    15
177
     3
291
     1
 70
    58
 90
        2
176
     1
 90
        2
176
     1
 90
        0
176
     1
 90
        0
176
     1
 40
0.6
176
     1
 40
30.0
176
     1
 62
     7
420
 16777215
176
     1
 90
        1
176
     1
 90
        4
176
     1
 62
     7
176
     1
 62
   257
176
     1
 90
        1
176
     1
 90
        1
176
     1
 40
1.0
176
     1
 90
        8
176
     1
 62
     7
176
     1
 40
1.0
176
     1
 90
        1
176
     1
 90
        6
176
     1
 90
        2
176
     1
 62
     7
176
     1
 90
        5
176
     1
 90
        0
176
     1
 90
        0
176
     1
290
     0
176
     1
 90
        1
176
     1
 40
0.0
176
     1
 90
        0
176
     1
290
     0
176
     1
290
     1
176
     1
290
     1
176
     1
290
     0
176
     1
290
     0
176
     1
290
     0
176
     1
290
     0
176
     1
290
     0
176
     1
290
     0
176
     1
 90
       50
176
     1
 40
0.0
176
     1
 40
1.0
176
     1
 90
        0
176
     1
 62
    18
420
        0
176
     1
 90
       50
176
     1
 90
        3
176
     1
 62
     5
420
      255
176
     1
290
     0
176
     1
 90
       50
176
     1
 90
       50
176
     1
 90
       50
176
     1
290
     0
176
     1
 90
       50
176
     1
 62
   256
176
     0
 40
1.0
176
     0
 90
        2
176
     1
  1
strokes_ogs.tif
176
     1
290
     0
176
     1
 40
1.0
176
     1
 40
1.0
176
     1
  0
VISUALSTYLE
  5
354
102
{ACAD_REACTORS
330
353
102
}
330
353
100
AcDbVisualStyle
  2
Flat
 70
     0
177
     3
291
     1
 70
    58
 90
        2
176
     1
 90
        1
176
     1
 90
        1
176
     1
 90
        2
176
     1
 40
0.6
176
     1
 40
30.0
176
     1
 62
     7
420
 16777215
176
     1
 90
        0
176
     1
 90
        0
176
     1
 62
     7
176
     1
 62
   257
176
     1
 90
        1
176
     1
 90
        1
176
     1
 40
1.0
176
     1
 90
        8
176
     1
 62
     7
176
     1
 40
1.0
176
     1
 90
        1
176
     1
 90
        6
176
     1
 90
        2
176
     1
 62
     7
176
     1
 90
        5
176
     1
 90
        0
176
     1
 90
        0
176
     1
290
     0
176
     1
 90
       13
176
     1
 40
0.0
176
     1
 90
        0
176
     1
290
     0
176
     1
290
     1
176
     1
290
     1
176
     1
290
     0
176
     1
290
     0
176
     1
290
     0
176
     1
290
     0
176
     1
290
     0
176
     1
290
     0
176
     1
 90
       50
176
     1
 40
0.0
176
     1
 40
1.0
176
     1
 90
        0
176
     1
 62
    18
420
        0
176
     1
 90
       50
176
     1
 90
        3
176
     1
 62
     5
420
      255
176
     1
290
     0
176
     1
 90
       50
176
     1
 90
       50
176
     1
 90
       50
176
     1
290
     0
176
     1
 90
       50
176
     1
 62
   256
176
     0
 40
1.0
176
     0
 90
        2
176
     1
  1
strokes_ogs.tif
176
     1
290
     0
176
     1
 40
1.0
176
     1
 40
1.0
176
     1
  0
VISUALSTYLE
  5
355
102
{ACAD_REACTORS
330
353
102
}
330
353
100
AcDbVisualStyle
  2
FlatWithEdges
 70
     1
177
     3
291
     1
 70
    58
 90
        2
176
     1
 90
        1
176
     1
 90
        1
176
     1
 90
        2
176
     1
 40
0.6
176
     1
 40
30.0
176
     1
 62
     7
420
 16777215
176
     1
 90
        1
176
     1
 90
        0
176
     1
 62
     7
176
     1
 62
   257
176
     1
 90
        1
176
     1
 90
        1
176
     1
 40
1.0
176
     1
 90
        0
176
     1
 62
   257
176
     1
 40
1.0
176
     1
 90
        1
176
     1
 90
        6
176
     1
 90
        2
176
     1
 62
     7
176
     1
 90
        5
176
     1
 90
        0
176
     1
 90
        0
176
     1
290
     0
176
     1
 90
       13
176
     1
 40
0.0
176
     1
 90
        0
176
     1
290
     0
176
     1
290
     1
176
     1
290
     1
176
     1
290
     0
176
     1
290
     0
176
     1
290
     0
176
     1
290
     0
176
     1
290
     0
176
     1
290
     0
176
     1
 90
       50
176
     1
 40
0.0
176
     1
 40
1.0
176
     1
 90
        0
176
     1
 62
    18
420
        0
176
     1
 90
       50
176
     1
 90
        3
176
     1
 62
     5
420
      255
176
     1
290
     0
176
     1
 90
       50
176
     1
 90
       50
176
     1
 90
       50
176
     1
290
     0
176
     1
 90
       50
176
     1
 62
   256
176
     0
 40
1.0
176
     0
 90
        2
176
     1
  1
strokes_ogs.tif
176
     1
290
     0
176
     1
 40
1.0
176
     1
 40
1.0
176
     1
  0
VISUALSTYLE
  5
356
102
{ACAD_REACTORS
330
353
102
}
330
353
100
AcDbVisualStyle
  2
Gouraud
 70
     2
177
     3
291
     1
 70
    58
 90
        2
176
     1
 90
        2
176
     1
 90
        1
176
     1
 90
        2
176
     1
 40
0.6
176
     1
 40
30.0
176
     1
 62
     7
420
 16777215
176
     1
 90
        0
176
     1
 90
        0
176
     1
 62
     7
176
     1
 62
   257
176
     1
 90
        1
176
     1
 90
        1
176
     1
 40
1.0
176
     1
 90
        0
176
     1
 62
     7
176
     1
 40
1.0
176
     1
 90
        1
176
     1
 90
        6
176
     1
 90
        2
176
     1
 62
     7
176
     1
 90
        5
176
     1
 90
        0
176
     1
 90
        0
176
     1
290
     0
176
     1
 90
       13
176
     1
 40
0.0
176
     1
 90
        0
176
     1
290
     0
176
     1
290
     1
176
     1
290
     1
176
     1
290
     0
176
     1
290
     0
176
     1
290
     0
176
     1
290
     0
176
     1
290
     0
176
     1
290
     0
176
     1
 90
       50
176
     1
 40
0.0
176
     1
 40
1.0
176
     1
 90
        0
176
     1
 62
    18
420
        0
176
     1
 90
       50
176
     1
 90
        3
176
     1
 62
     5
420
      255
176
     1
290
     0
176
     1
 90
       50
176
     1
 90
       50
176
     1
 90
       50
176
     1
290
     0
176
     1
 90
       50
176
     1
 62
   256
176
     0
 40
1.0
176
     0
 90
        2
176
     1
  1
strokes_ogs.tif
176
     1
290
     0
176
     1
 40
1.0
176
     1
 40
1.0
176
     1
  0
VISUALSTYLE
  5
357
102
{ACAD_REACTORS
330
353
102
}
330
353
100
AcDbVisualStyle
  2
GouraudWithEdges
 70
     3
177
     3
291
     1
 70
    58
 90
        2
176
     1
 90
        2
176
     1
 90
        1
176
     1
 90
        2
176
     1
 40
0.6
176
     1
 40
30.0
176
     1
 62
     7
420
 16777215
176
     1
 90
        1
176
     1
 90
        0
176
     1
 62
     7
176
     1
 62
   257
176
     1
 90
        1
176
     1
 90
        1
176
     1
 40
1.0
176
     1
 90
        0
176
     1
 62
   257
176
     1
 40
1.0
176
     1
 90
        1
176
     1
 90
        6
176
     1
 90
        2
176
     1
 62
     7
176
     1
 90
        5
176
     1
 90
        0
176
     1
 90
        0
176
     1
290
     0
176
     1
 90
       13
176
     1
 40
0.0
176
     1
 90
        0
176
     1
290
     0
176
     1
290
     1
176
     1
290
     1
176
     1
290
     0
176
     1
290
     0
176
     1
290
     0
176
     1
290
     0
176
     1
290
     0
176
     1
290
     0
176
     1
 90
       50
176
     1
 40
0.0
176
     1
 40
1.0
176
     1
 90
        0
176
     1
 62
    18
420
        0
176
     1
 90
       50
176
     1
 90
        3
176
     1
 62
     5
420
      255
176
     1
290
     0
176
     1
 90
       50
176
     1
 90
       50
176
     1
 90
       50
176
     1
290
     0
176
     1
 90
       50
176
     1
 62
   256
176
     0
 40
1.0
176
     0
 90
        2
176
     1
  1
strokes_ogs.tif
176
     1
290
     0
176
     1
 40
1.0
176
     1
 40
1.0
176
     1
  0
VISUALSTYLE
  5
35A
102
{ACAD_REACTORS
330
353
102
}
330
353
100
AcDbVisualStyle
  2
Hidden
 70
     6
177
     3
291
     0
 70
    58
 90
        1
176
     1
 90
        2
176
     1
 90
        2
176
     1
 90
        0
176
     1
 40
0.6
176
     1
 40
30.0
176
     1
 62
     7
420
 16777215
176
     1
 90
        2
176
     1
 90
        2
176
     1
 62
     7
176
     1
 62
   257
176
     1
 90
        2
176
     1
 90
        1
176
     1
 40
40.0
176
     1
 90
        0
176
     1
 62
   257
176
     1
 40
1.0
176
     1
 90
        1
176
     1
 90
        6
176
     1
 90
        2
176
     1
 62
     7
176
     1
 90
        3
176
     1
 90
        0
176
     1
 90
        0
176
     1
290
     0
176
     1
 90
        1
176
     1
 40
0.0
176
     1
 90
        0
176
     1
290
     0
176
     1
290
     1
176
     1
290
     1
176
     1
290
     0
176
     1
290
     0
176
     1
290
     0
176
     1
290
     0
176
     1
290
     0
176
     1
290
     0
176
     1
 90
       50
176
     1
 40
0.0
176
     1
 40
1.0
176
     1
 90
        0
176
     1
 62
    18
420
        0
176
     1
 90
       50
176
     1
 90
        3
176
     1
 62
     5
420
      255
176
     1
290
     0
176
     1
 90
       50
176
     1
 90
       50
176
     1
 90
       50
176
     1
290
     0
176
     1
 90
       50
176
     1
 62
   256
176
     0
 40
1.0
176
     0
 90
        2
176
     1
  1
strokes_ogs.tif
176
     1
290
     0
176
     1
 40
1.0
176
     1
 40
1.0
176
     1
  0
VISUALSTYLE
  5
364
102
{ACAD_REACTORS
330
353
102
}
330
353
100
AcDbVisualStyle
  2
JitterOff
 70
    20
177
     3
291
     1
 70
    58
 90
        2
176
     0
 90
        2
176
     0
 90
        0
176
     0
 90
        0
176
     0
 40
0.6
176
     0
 40
30.0
176
     0
 62
     7
420
 16777215
176
     0
 90
        1
176
     0
 90
        4
176
     0
 62
     7
176
     0
 62
   257
176
     0
 90
        1
176
     0
 90
        1
176
     0
 40
1.0
176
     0
 90
       10
176
     2
 62
     7
176
     0
 40
1.0
176
     0
 90
        1
176
     0
 90
        6
176
     0
 90
        2
176
     0
 62
     7
176
     0
 90
        5
176
     0
 90
        0
176
     0
 90
        0
176
     0
290
     0
176
     0
 90
        1
176
     0
 40
0.0
176
     0
 90
        0
176
     0
290
     0
176
     0
290
     1
176
     0
290
     1
176
     0
290
     0
176
     0
290
     0
176
     0
290
     0
176
     0
290
     0
176
     0
290
     0
176
     0
290
     0
176
     0
 90
       50
176
     0
 40
0.0
176
     0
 40
1.0
176
     0
 90
        0
176
     0
 62
    18
420
        0
176
     0
 90
       50
176
     0
 90
        3
176
     0
 62
     5
420
      255
176
     0
290
     0
176
     0
 90
       50
176
     0
 90
       50
176
     0
 90
       50
176
     0
290
     0
176
     0
 90
       50
176
     0
 62
   256
176
     0
 40
1.0
176
     0
 90
        2
176
     0
  1
strokes_ogs.tif
176
     0
290
     0
176
     0
 40
1.0
176
     0
 40
1.0
176
     0
  0
VISUALSTYLE
  5
361
102
{ACAD_REACTORS
330
353
102
}
330
353
100
AcDbVisualStyle
  2
Linepattern
 70
    14
177
     3
291
     1
 70
    58
 90
        2
176
     1
 90
        2
176
     1
 90
        0
176
     1
 90
        0
176
     1
 40
0.6
176
     1
 40
30.0
176
     1
 62
     7
420
 16777215
176
     1
 90
        1
176
     1
 90
        4
176
     1
 62
     7
176
     1
 62
   257
176
     1
 90
        7
176
     1
 90
        7
176
     1
 40
1.0
176
     1
 90
        8
176
     1
 62
     7
176
     1
 40
1.0
176
     1
 90
        1
176
     1
 90
        6
176
     1
 90
        2
176
     1
 62
     7
176
     1
 90
        5
176
     1
 90
        0
176
     1
 90
        0
176
     1
290
     0
176
     1
 90
        1
176
     1
 40
0.0
176
     1
 90
        0
176
     1
290
     0
176
     1
290
     1
176
     1
290
     1
176
     1
290
     0
176
     1
290
     0
176
     1
290
     0
176
     1
290
     0
176
     1
290
     0
176
     1
290
     0
176
     1
 90
       50
176
     1
 40
0.0
176
     1
 40
1.0
176
     1
 90
        0
176
     1
 62
    18
420
        0
176
     1
 90
       50
176
     1
 90
        3
176
     1
 62
     5
420
      255
176
     1
290
     0
176
     1
 90
       50
176
     1
 90
       50
176
     1
 90
       50
176
     1
290
     0
176
     1
 90
       50
176
     1
 62
   256
176
     0
 40
1.0
176
     0
 90
        2
176
     1
  1
strokes_ogs.tif
176
     1
290
     0
176
     1
 40
1.0
176
     1
 40
1.0
176
     1
  0
VISUALSTYLE
  5
365
102
{ACAD_REACTORS
330
353
102
}
330
353
100
AcDbVisualStyle
  2
OverhangOff
 70
    21
177
     3
291
     1
 70
    58
 90
        2
176
     0
 90
        2
176
     0
 90
        0
176
     0
 90
        0
176
     0
 40
0.6
176
     0
 40
30.0
176
     0
 62
     7
420
 16777215
176
     0
 90
        1
176
     0
 90
        4
176
     0
 62
     7
176
     0
 62
   257
176
     0
 90
        1
176
     0
 90
        1
176
     0
 40
1.0
176
     0
 90
        9
176
     2
 62
     7
176
     0
 40
1.0
176
     0
 90
        1
176
     0
 90
        6
176
     0
 90
        2
176
     0
 62
     7
176
     0
 90
        5
176
     0
 90
        0
176
     0
 90
        0
176
     0
290
     0
176
     0
 90
        1
176
     0
 40
0.0
176
     0
 90
        0
176
     0
290
     0
176
     0
290
     1
176
     0
290
     1
176
     0
290
     0
176
     0
290
     0
176
     0
290
     0
176
     0
290
     0
176
     0
290
     0
176
     0
290
     0
176
     0
 90
       50
176
     0
 40
0.0
176
     0
 40
1.0
176
     0
 90
        0
176
     0
 62
    18
420
        0
176
     0
 90
       50
176
     0
 90
        3
176
     0
 62
     5
420
      255
176
     0
290
     0
176
     0
 90
       50
176
     0
 90
       50
176
     0
 90
       50
176
     0
290
     0
176
     0
 90
       50
176
     0
 62
   256
176
     0
 40
1.0
176
     0
 90
        2
176
     0
  1
strokes_ogs.tif
176
     0
290
     0
176
     0
 40
1.0
176
     0
 40
1.0
176
     0
  0
VISUALSTYLE
  5
35C
102
{ACAD_REACTORS
330
353
102
}
330
353
100
AcDbVisualStyle
  2
Realistic
 70
     8
177
     3
291
     0
 70
    58
 90
        2
176
     1
 90
        3
176
     1
 90
        0
176
     1
 90
        2
176
     1
 40
0.6
176
     1
 40
30.0
176
     1
 62
     7
420
 16777215
176
     1
 90
        0
176
     1
 90
        0
176
     1
 62
     7
176
     1
 62
   257
176
     1
 90
        1
176
     1
 90
        1
176
     1
 40
1.0
176
     1
 90
        8
176
     1
 62
   257
176
     1
 40
1.0
176
     1
 90
        1
176
     1
 90
        6
176
     1
 90
        2
176
     1
 62
     7
176
     1
 90
        3
176
     1
 90
        0
176
     1
 90
        0
176
     1
290
     0
176
     1
 90
       13
176
     1
 40
0.0
176
     1
 90
        0
176
     1
290
     0
176
     1
290
     1
176
     1
290
     1
176
     1
290
     0
176
     1
290
     0
176
     1
290
     0
176
     1
290
     0
176
     1
290
     0
176
     1
290
     0
176
     1
 90
       50
176
     1
 40
0.0
176
     1
 40
1.0
176
     1
 90
        0
176
     1
 62
    18
420
        0
176
     1
 90
       50
176
     1
 90
        3
176
     1
 62
     5
420
      255
176
     1
290
     0
176
     1
 90
       50
176
     1
 90
       50
176
     1
 90
       50
176
     1
290
     0
176
     1
 90
       50
176
     1
 62
   256
176
     0
 40
1.0
176
     0
 90
        2
176
     1
  1
strokes_ogs.tif
176
     1
290
     0
176
     1
 40
1.0
176
     1
 40
1.0
176
     1
  0
VISUALSTYLE
  5
36B
102
{ACAD_REACTORS
330
353
102
}
330
353
100
AcDbVisualStyle
  2
Shaded
 70
    27
177
     3
291
     0
 70
    58
 90
        2
176
     1
 90
        2
176
     1
 90
        1
176
     1
 90
        2
176
     1
 40
0.6
176
     1
 40
30.0
176
     1
 62
     7
420
 16777215
176
     1
 90
        0
176
     1
 90
        4
176
     1
 62
     7
176
     1
 62
   257
176
     1
 90
        1
176
     1
 90
        1
176
     1
 40
1.0
176
     1
 90
        8
176
     1
 62
   257
176
     1
 40
1.0
176
     1
 90
        1
176
     1
 90
        6
176
     1
 90
        2
176
     1
 62
     8
420
  7895160
176
     1
 90
        3
176
     1
 90
        0
176
     1
 90
        0
176
     1
290
     0
176
     1
 90
        5
176
     1
 40
0.0
176
     1
 90
        0
176
     1
290
     0
176
     1
290
     1
176
     1
290
     1
176
     1
290
     0
176
     1
290
     0
176
     1
290
     0
176
     1
290
     0
176
     1
290
     0
176
     1
290
     0
176
     1
 90
       50
176
     1
 40
0.0
176
     1
 40
1.0
176
     1
 90
        0
176
     1
 62
    18
420
        0
176
     1
 90
       50
176
     1
 90
        3
176
     1
 62
     5
420
      255
176
     1
290
     0
176
     1
 90
       50
176
     1
 90
       50
176
     1
 90
       50
176
     1
290
     0
176
     1
 90
       50
176
     1
 62
   256
176
     0
 40
1.0
176
     0
 90
        2
176
     1
  1
strokes_ogs.tif
176
     1
290
     0
176
     1
 40
1.0
176
     1
 40
1.0
176
     1
  0
VISUALSTYLE
  5
36A
102
{ACAD_REACTORS
330
353
102
}
330
353
100
AcDbVisualStyle
  2
Shaded with edges
 70
    26
177
     3
291
     0
 70
    58
 90
        2
176
     1
 90
        2
176
     1
 90
        1
176
     1
 90
        2
176
     1
 40
0.6
176
     1
 40
30.0
176
     1
 62
     7
420
 16777215
176
     1
 90
        1
176
     1
 90
       10
176
     1
 62
     7
176
     1
 62
   257
176
     1
 90
        2
176
     1
 90
        1
176
     1
 40
1.0
176
     1
 90
        8
176
     1
 62
   257
176
     1
 40
1.0
176
     1
 90
        1
176
     1
 90
        6
176
     1
 90
        2
176
     1
 62
     7
176
     1
 90
        3
176
     1
 90
        0
176
     1
 90
        0
176
     1
290
     0
176
     1
 90
        5
176
     1
 40
0.0
176
     1
 90
        0
176
     1
290
     0
176
     1
290
     1
176
     1
290
     1
176
     1
290
     0
176
     1
290
     0
176
     1
290
     0
176
     1
290
     0
176
     1
290
     0
176
     1
290
     0
176
     1
 90
       50
176
     1
 40
0.0
176
     1
 40
1.0
176
     1
 90
        0
176
     1
 62
    18
420
        0
176
     1
 90
       50
176
     1
 90
        3
176
     1
 62
     5
420
      255
176
     1
290
     0
176
     1
 90
       50
176
     1
 90
       50
176
     1
 90
       50
176
     1
290
     0
176
     1
 90
       50
176
     1
 62
   256
176
     0
 40
1.0
176
     0
 90
        2
176
     1
  1
strokes_ogs.tif
176
     1
290
     0
176
     1
 40
1.0
176
     1
 40
1.0
176
     1
  0
VISUALSTYLE
  5
367
102
{ACAD_REACTORS
330
353
102
}
330
353
100
AcDbVisualStyle
  2
Shades of Gray
 70
    23
177
     3
291
     0
 70
    58
 90
        2
176
     1
 90
        2
176
     1
 90
        3
176
     1
 90
        0
176
     1
 40
0.6
176
     1
 40
30.0
176
     1
 62
     7
420
 16777215
176
     1
 90
        2
176
     1
 90
        2
176
     1
 62
     7
176
     1
 62
     7
176
     1
 90
        1
176
     1
 90
        1
176
     1
 40
40.0
176
     1
 90
        8
176
     1
 62
     7
176
     1
 40
1.0
176
     1
 90
        1
176
     1
 90
        6
176
     1
 90
        2
176
     1
 62
     7
176
     1
 90
        3
176
     1
 90
        0
176
     1
 90
        0
176
     1
290
     0
176
     1
 90
        1
176
     1
 40
0.0
176
     1
 90
        0
176
     1
290
     0
176
     1
290
     1
176
     1
290
     1
176
     1
290
     0
176
     1
290
     0
176
     1
290
     0
176
     1
290
     0
176
     1
290
     0
176
     1
290
     0
176
     1
 90
       50
176
     1
 40
0.0
176
     1
 40
1.0
176
     1
 90
        0
176
     1
 62
    18
420
        0
176
     1
 90
       50
176
     1
 90
        3
176
     1
 62
     5
420
      255
176
     1
290
     0
176
     1
 90
       50
176
     1
 90
       50
176
     1
 90
       50
176
     1
290
     0
176
     1
 90
       50
176
     1
 62
   256
176
     0
 40
1.0
176
     0
 90
        2
176
     1
  1
strokes_ogs.tif
176
     1
290
     0
176
     1
 40
1.0
176
     1
 40
1.0
176
     1
  0
VISUALSTYLE
  5
368
102
{ACAD_REACTORS
330
353
102
}
330
353
100
AcDbVisualStyle
  2
Sketchy
 70
    24
177
     3
291
     0
 70
    58
 90
        1
176
     1
 90
        2
176
     1
 90
        2
176
     1
 90
        0
176
     1
 40
0.6
176
     1
 40
30.0
176
     1
 62
     7
420
 16777215
176
     1
 90
        2
176
     1
 90
        2
176
     1
 62
     7
176
     1
 62
     7
176
     1
 90
        1
176
     1
 90
        1
176
     1
 40
40.0
176
     1
 90
       11
176
     1
 62
     7
176
     1
 40
1.0
176
     1
 90
        1
176
     1
 90
        6
176
     1
 90
        2
176
     1
 62
     7
176
     1
 90
        6
176
     1
 90
        0
176
     1
 90
        0
176
     1
290
     0
176
     1
 90
        1
176
     1
 40
0.0
176
     1
 90
        0
176
     1
290
     0
176
     1
290
     1
176
     1
290
     1
176
     1
290
     0
176
     1
290
     0
176
     1
290
     0
176
     1
290
     0
176
     1
290
     0
176
     1
290
     0
176
     1
 90
       50
176
     1
 40
0.0
176
     1
 40
1.0
176
     1
 90
        0
176
     1
 62
    18
420
        0
176
     1
 90
       50
176
     1
 90
        3
176
     1
 62
     5
420
      255
176
     1
290
     0
176
     1
 90
       50
176
     1
 90
       50
176
     1
 90
       50
176
     1
290
     0
176
     1
 90
       50
176
     1
 62
   256
176
     0
 40
1.0
176
     0
 90
        2
176
     1
  1
strokes_ogs.tif
176
     1
290
     0
176
     1
 40
1.0
176
     1
 40
1.0
176
     1
  0
VISUALSTYLE
  5
360
102
{ACAD_REACTORS
330
353
102
}
330
353
100
AcDbVisualStyle
  2
Thicken
 70
    13
177
     3
291
     1
 70
    58
 90
        2
176
     1
 90
        2
176
     1
 90
        0
176
     1
 90
        0
176
     1
 40
0.6
176
     1
 40
30.0
176
     1
 62
     7
420
 16777215
176
     1
 90
        1
176
     1
 90
        4
176
     1
 62
     7
176
     1
 62
   257
176
     1
 90
        1
176
     1
 90
        1
176
     1
 40
1.0
176
     1
 90
       12
176
     1
 62
     7
176
     1
 40
1.0
176
     1
 90
        1
176
     1
 90
        6
176
     1
 90
        2
176
     1
 62
     7
176
     1
 90
        5
176
     1
 90
        0
176
     1
 90
        0
176
     1
290
     0
176
     1
 90
        1
176
     1
 40
0.0
176
     1
 90
        0
176
     1
290
     0
176
     1
290
     1
176
     1
290
     1
176
     1
290
     0
176
     1
290
     0
176
     1
290
     0
176
     1
290
     0
176
     1
290
     0
176
     1
290
     0
176
     1
 90
       50
176
     1
 40
0.0
176
     1
 40
1.0
176
     1
 90
        0
176
     1
 62
    18
420
        0
176
     1
 90
       50
176
     1
 90
        3
176
     1
 62
     5
420
      255
176
     1
290
     0
176
     1
 90
       50
176
     1
 90
       50
176
     1
 90
       50
176
     1
290
     0
176
     1
 90
       50
176
     1
 62
   256
176
     0
 40
1.0
176
     0
 90
        2
176
     1
  1
strokes_ogs.tif
176
     1
290
     0
176
     1
 40
1.0
176
     1
 40
1.0
176
     1
  0
VISUALSTYLE
  5
359
102
{ACAD_REACTORS
330
353
102
}
330
353
100
AcDbVisualStyle
  2
Wireframe
 70
     5
177
     3
291
     0
 70
    58
 90
        0
176
     1
 90
        2
176
     1
 90
        0
176
     1
 90
        0
176
     1
 40
0.6
176
     1
 40
30.0
176
     1
 62
     7
420
 16777215
176
     1
 90
        1
176
     1
 90
        4
176
     1
 62
     7
176
     1
 62
   257
176
     1
 90
        1
176
     1
 90
        1
176
     1
 40
1.0
176
     1
 90
        0
176
     1
 62
   257
176
     1
 40
1.0
176
     1
 90
        1
176
     1
 90
        6
176
     1
 90
        2
176
     1
 62
     7
176
     1
 90
        3
176
     1
 90
        0
176
     1
 90
        0
176
     1
290
     0
176
     1
 90
        1
176
     1
 40
0.0
176
     1
 90
        0
176
     1
290
     0
176
     1
290
     1
176
     1
290
     1
176
     1
290
     0
176
     1
290
     0
176
     1
290
     0
176
     1
290
     0
176
     1
290
     0
176
     1
290
     0
176
     1
 90
       50
176
     1
 40
0.0
176
     1
 40
1.0
176
     1
 90
        0
176
     1
 62
    18
420
        0
176
     1
 90
       50
176
     1
 90
        3
176
     1
 62
     5
420
      255
176
     1
290
     0
176
     1
 90
       50
176
     1
 90
       50
176
     1
 90
       50
176
     1
290
     0
176
     1
 90
       50
176
     1
 62
   256
176
     0
 40
1.0
176
     0
 90
        2
176
     1
  1
strokes_ogs.tif
176
     1
290
     0
176
     1
 40
1.0
176
     1
 40
1.0
176
     1
  0
VISUALSTYLE
  5
369
102
{ACAD_REACTORS
330
353
102
}
330
353
100
AcDbVisualStyle
  2
X-Ray
 70
    25
177
     3
291
     0
 70
    58
 90
        2
176
     1
 90
        2
176
     1
 90
        1
176
     1
 90
        1
176
     1
 40
0.5
176
     1
 40
30.0
176
     1
 62
     7
420
 16777215
176
     1
 90
        1
176
     1
 90
        0
176
     1
 62
     7
176
     1
 62
   257
176
     1
 90
        1
176
     1
 90
        1
176
     1
 40
1.0
176
     1
 90
        8
176
     1
 62
     7
176
     1
 40
1.0
176
     1
 90
        1
176
     1
 90
        6
176
     1
 90
        2
176
     1
 62
     7
176
     1
 90
        3
176
     1
 90
        0
176
     1
 90
        0
176
     1
290
     0
176
     1
 90
       13
176
     1
 40
0.0
176
     1
 90
        0
176
     1
290
     0
176
     1
290
     1
176
     1
290
     1
176
     1
290
     0
176
     1
290
     0
176
     1
290
     0
176
     1
290
     0
176
     1
290
     0
176
     1
290
     0
176
     1
 90
       50
176
     1
 40
0.0
176
     1
 40
1.0
176
     1
 90
        0
176
     1
 62
    18
420
        0
176
     1
 90
       50
176
     1
 90
        3
176
     1
 62
     5
420
      255
176
     1
290
     0
176
     1
 90
       50
176
     1
 90
       50
176
     1
 90
       50
176
     1
290
     0
176
     1
 90
       50
176
     1
 62
   256
176
     0
 40
1.0
176
     0
 90
        2
176
     1
  1
strokes_ogs.tif
176
     1
290
     0
176
     1
 40
1.0
176
     1
 40
1.0
176
     1
  0
DICTIONARYVAR
  5
3F6
102
{ACAD_REACTORS
330
3F5
102
}
330
3F5
100
DictionaryVariables
280
     0
  1
1:1
  0
DICTIONARYVAR
  5
3FB
102
{ACAD_REACTORS
330
3F5
102
}
330
3F5
100
DictionaryVariables
280
     0
  1
Standard
  0
DICTIONARYVAR
  5
3FA
102
{ACAD_REACTORS
330
3F5
102
}
330
3F5
100
DictionaryVariables
280
     0
  1
Standard
  0
XRECORD
  5
38A
102
{ACAD_REACTORS
330
388
102
}
330
388
100
AcDbXrecord
280
     1
1000
#ffffff
  0
XRECORD
  5
38B
102
{ACAD_REACTORS
330
388
102
}
330
388
100
AcDbXrecord
280
     1
1000
FullColor
  0
XRECORD
  5
38C
102
{ACAD_REACTORS
330
388
102
}
330
388
100
AcDbXrecord
280
     1
290
     1
  0
XRECORD
  5
38D
102
{ACAD_REACTORS
330
388
102
}
330
388
100
AcDbXrecord
280
     1
290
     1
  0
XRECORD
  5
38E
102
{ACAD_REACTORS
330
388
102
}
330
388
100
AcDbXrecord
280
     1
290
     1
  0
XRECORD
  5
38F
102
{ACAD_REACTORS
330
388
102
}
330
388
100
AcDbXrecord
280
     1
290
     1
  0
XRECORD
  5
390
102
{ACAD_REACTORS
330
388
102
}
330
388
100
AcDbXrecord
280
     1
1000
auto
  0
XRECORD
  5
391
102
{ACAD_REACTORS
330
388
102
}
330
388
100
AcDbXrecord
280
     1
1000
auto
  0
XRECORD
  5
392
102
{ACAD_REACTORS
330
388
102
}
330
388
100
AcDbXrecord
280
     1
1000
auto
  0
XRECORD
  5
393
102
{ACAD_REACTORS
330
388
102
}
330
388
100
AcDbXrecord
280
     1
1000
auto
  0
XRECORD
  5
394
102
{ACAD_REACTORS
330
388
102
}
330
388
100
AcDbXrecord
280
     1
1000
auto
  0
XRECORD
  5
395
102
{ACAD_REACTORS
330
388
102
}
330
388
100
AcDbXrecord
280
     1
1000
auto
  0
XRECORD
  5
396
102
{ACAD_REACTORS
330
388
102
}
330
388
100
AcDbXrecord
280
     1
1000
auto
  0
XRECORD
  5
397
102
{ACAD_REACTORS
330
388
102
}
330
388
100
AcDbXrecord
280
     1
1000
auto
  0
XRECORD
  5
398
102
{ACAD_REACTORS
330
388
102
}
330
388
100
AcDbXrecord
280
     1
290
     0
  0
XRECORD
  5
399
102
{ACAD_REACTORS
330
388
102
}
330
388
100
AcDbXrecord
280
     1
290
     0
  0
XRECORD
  5
39A
102
{ACAD_REACTORS
330
388
102
}
330
388
100
AcDbXrecord
280
     1
290
     0
  0
XRECORD
  5
39B
102
{ACAD_REACTORS
330
388
102
}
330
388
100
AcDbXrecord
280
     1
290
     0
  0
XRECORD
  5
39C
102
{ACAD_REACTORS
330
388
102
}
330
388
100
AcDbXrecord
280
     1
 90
    65537
  0
XRECORD
  5
39D
102
{ACAD_REACTORS
330
388
102
}
330
388
100
AcDbXrecord
280
     1
 90
    65537
  0
XRECORD
  5
39E
102
{ACAD_REACTORS
330
388
102
}
330
388
100
AcDbXrecord
280
     1
 90
    65537
  0
XRECORD
  5
39F
102
{ACAD_REACTORS
330
388
102
}
330
388
100
AcDbXrecord
280
     1
 90
    65537
  0
XRECORD
  5
3A0
102
{ACAD_REACTORS
330
388
102
}
330
388
100
AcDbXrecord
280
     1
1000
auto
  0
XRECORD
  5
3A1
102
{ACAD_REACTORS
330
388
102
}
330
388
100
AcDbXrecord
280
     1
1000
auto
  0
XRECORD
  5
3A2
102
{ACAD_REACTORS
330
388
102
}
330
388
100
AcDbXrecord
280
     1
1000
auto
  0
XRECORD
  5
3A3
102
{ACAD_REACTORS
330
388
102
}
330
388
100
AcDbXrecord
280
     1
1000
auto
  0
XRECORD
  5
3A4
102
{ACAD_REACTORS
330
388
102
}
330
388
100
AcDbXrecord
280
     1
1000
auto
  0
XRECORD
  5
3A5
102
{ACAD_REACTORS
330
388
102
}
330
388
100
AcDbXrecord
280
     1
1000
auto
  0
XRECORD
  5
3A6
102
{ACAD_REACTORS
330
388
102
}
330
388
100
AcDbXrecord
280
     1
1000
auto
  0
XRECORD
  5
3A7
102
{ACAD_REACTORS
330
388
102
}
330
388
100
AcDbXrecord
280
     1
1000
auto
  0
XRECORD
  5
3A8
102
{ACAD_REACTORS
330
388
102
}
330
388
100
AcDbXrecord
280
     1
 90
        1
  0
XRECORD
  5
3A9
102
{ACAD_REACTORS
330
388
102
}
330
388
100
AcDbXrecord
280
     1
 40
10.0
  0
XRECORD
  5
3AA
102
{ACAD_REACTORS
330
388
102
}
330
388
100
AcDbXrecord
280
     1
 40
10.0
  0
XRECORD
  5
3AB
102
{ACAD_REACTORS
330
388
102
}
330
388
100
AcDbXrecord
280
     1
 40
10.0
  0
XRECORD
  5
3AC
102
{ACAD_REACTORS
330
388
102
}
330
388
100
AcDbXrecord
280
     1
 40
10.0
  0
XRECORD
  5
3AD
102
{ACAD_REACTORS
330
388
102
}
330
388
100
AcDbXrecord
280
     1
290
     0
  0
XRECORD
  5
3AE
102
{ACAD_REACTORS
330
388
102
}
330
388
100
AcDbXrecord
280
     1
 90
        1
  0
XRECORD
  5
3AF
102
{ACAD_REACTORS
330
388
102
}
330
388
100
AcDbXrecord
280
     1
 40
0.0
  0
XRECORD
  5
3B0
102
{ACAD_REACTORS
330
388
102
}
330
388
100
AcDbXrecord
280
     1
 40
0.0
  0
XRECORD
  5
3B1
102
{ACAD_REACTORS
330
388
102
}
330
388
100
AcDbXrecord
280
     1
1000
Portrait
  0
XRECORD
  5
3B2
102
{ACAD_REACTORS
330
388
102
}
330
388
100
AcDbXrecord
280
     1
 40
297.0
  0
XRECORD
  5
3B3
102
{ACAD_REACTORS
330
388
102
}
330
388
100
AcDbXrecord
280
     1
 40
210.0
  0
XRECORD
  5
3B4
102
{ACAD_REACTORS
330
388
102
}
330
388
100
AcDbXrecord
280
     1
1000
1:1
  0
XRECORD
  5
3B5
102
{ACAD_REACTORS
330
388
102
}
330
388
100
AcDbXrecord
280
     1
290
     1
  0
XRECORD
  5
3B6
102
{ACAD_REACTORS
330
388
102
}
330
388
100
AcDbXrecord
280
     1
290
     0
  0
XRECORD
  5
3B7
102
{ACAD_REACTORS
330
388
102
}
330
388
100
AcDbXrecord
280
     1
1000
Inside
  0
XRECORD
  5
3B8
102
{ACAD_REACTORS
330
388
102
}
330
388
100
AcDbXrecord
280
     1
1000
Arial,10,-1,5,50,0,0,0,0,0
  0
XRECORD
  5
3B9
102
{ACAD_REACTORS
330
388
102
}
330
388
100
AcDbXrecord
280
     1
1000
TopLeft
  0
XRECORD
  5
3BA
102
{ACAD_REACTORS
330
388
102
}
330
388
100
AcDbXrecord
280
     1
1000
3.27.8
  0
XRECORD
  5
3BB
102
{ACAD_REACTORS
330
388
102
}
330
388
100
AcDbXrecord
280
     1
 90
        4
  0
XRECORD
  5
3BC
102
{ACAD_REACTORS
330
388
102
}
330
388
100
AcDbXrecord
280
     1
  0
XRECORD
  5
3BD
102
{ACAD_REACTORS
330
388
102
}
330
388
100
AcDbXrecord
280
     1
 40
129.640367296007
  0
XRECORD
  5
3BE
102
{ACAD_REACTORS
330
388
102
}
330
388
100
AcDbXrecord
280
     1
 40
195.3294542100695
  0
DICTIONARY
  5
3F7
330
383
100
AcDbDictionary
280
     1
281
     1
  3
ACAD_ROUNDTRIP_2008_TABLESTYLE_CELLSTYLEMAP
360
3F8
  0
CELLSTYLEMAP
  5
3F8
102
{ACAD_REACTORS
330
3F7
102
}
330
3F7
100
AcDbCellStyleMap
 90
        3
300
CELLSTYLE
  1
TABLEFORMAT_BEGIN
 90
        5
170
     1
 91
        0
 92
    32768
 62
   257
 93
        1
300
CONTENTFORMAT
  1
CONTENTFORMAT_BEGIN
 90
        0
 91
        0
 92
        4
 93
        0
300

 40
0.0
140
1.0
 94
        5
 62
     0
340
33B
144
0.25
309
CONTENTFORMAT_END
171
     1
301
MARGIN
  1
CELLMARGIN_BEGIN
 40
0.06
 40
0.06
 40
0.06
 40
0.06
 40
0.06
 40
0.06
309
CELLMARGIN_END
 94
        6
 95
        1
302
GRIDFORMAT
  1
GRIDFORMAT_BEGIN
 90
        0
 91
        1
 62
     0
 92
       -2
340
33D
 93
        0
 40
0.045
309
GRIDFORMAT_END
 95
        2
302
GRIDFORMAT
  1
GRIDFORMAT_BEGIN
 90
        0
 91
        1
 62
     0
 92
       -2
340
33D
 93
        0
 40
0.045
309
GRIDFORMAT_END
 95
        4
302
GRIDFORMAT
  1
GRIDFORMAT_BEGIN
 90
        0
 91
        1
 62
     0
 92
       -2
340
33D
 93
        0
 40
0.045
309
GRIDFORMAT_END
 95
        8
302
GRIDFORMAT
  1
GRIDFORMAT_BEGIN
 90
        0
 91
        1
 62
     0
 92
       -2
340
33D
 93
        0
 40
0.045
309
GRIDFORMAT_END
 95
       16
302
GRIDFORMAT
  1
GRIDFORMAT_BEGIN
 90
        0
 91
        1
 62
     0
 92
       -2
340
33D
 93
        0
 40
0.045
309
GRIDFORMAT_END
 95
       32
302
GRIDFORMAT
  1
GRIDFORMAT_BEGIN
 90
        0
 91
        1
 62
     0
 92
       -2
340
33D
 93
        0
 40
0.045
309
GRIDFORMAT_END
309
TABLEFORMAT_END
  1
CELLSTYLE_BEGIN
 90
        1
 91
        1
300
_TITLE
309
CELLSTYLE_END
300
CELLSTYLE
  1
TABLEFORMAT_BEGIN
 90
        5
170
     1
 91
        0
 92
        0
 62
   257
 93
        1
300
CONTENTFORMAT
  1
CONTENTFORMAT_BEGIN
 90
        0
 91
        0
 92
        4
 93
        0
300

 40
0.0
140
1.0
 94
        5
 62
     0
340
33B
144
0.18
309
CONTENTFORMAT_END
171
     1
301
MARGIN
  1
CELLMARGIN_BEGIN
 40
0.06
 40
0.06
 40
0.06
 40
0.06
 40
0.06
 40
0.06
309
CELLMARGIN_END
 94
        6
 95
        1
302
GRIDFORMAT
  1
GRIDFORMAT_BEGIN
 90
        0
 91
        1
 62
     0
 92
       -2
340
33D
 93
        0
 40
0.045
309
GRIDFORMAT_END
 95
        2
302
GRIDFORMAT
  1
GRIDFORMAT_BEGIN
 90
        0
 91
        1
 62
     0
 92
       -2
340
33D
 93
        0
 40
0.045
309
GRIDFORMAT_END
 95
        4
302
GRIDFORMAT
  1
GRIDFORMAT_BEGIN
 90
        0
 91
        1
 62
     0
 92
       -2
340
33D
 93
        0
 40
0.045
309
GRIDFORMAT_END
 95
        8
302
GRIDFORMAT
  1
GRIDFORMAT_BEGIN
 90
        0
 91
        1
 62
     0
 92
       -2
340
33D
 93
        0
 40
0.045
309
GRIDFORMAT_END
 95
       16
302
GRIDFORMAT
  1
GRIDFORMAT_BEGIN
 90
        0
 91
        1
 62
     0
 92
       -2
340
33D
 93
        0
 40
0.045
309
GRIDFORMAT_END
 95
       32
302
GRIDFORMAT
  1
GRIDFORMAT_BEGIN
 90
        0
 91
        1
 62
     0
 92
       -2
340
33D
 93
        0
 40
0.045
309
GRIDFORMAT_END
309
TABLEFORMAT_END
  1
CELLSTYLE_BEGIN
 90
        2
 91
        1
300
_HEADER
309
CELLSTYLE_END
300
CELLSTYLE
  1
TABLEFORMAT_BEGIN
 90
        5
170
     1
 91
        0
 92
        0
 62
   257
 93
        1
300
CONTENTFORMAT
  1
CONTENTFORMAT_BEGIN
 90
        0
 91
        0
 92
        4
 93
        0
300

 40
0.0
140
1.0
 94
        2
 62
     0
340
33B
144
0.18
309
CONTENTFORMAT_END
171
     1
301
MARGIN
  1
CELLMARGIN_BEGIN
 40
0.06
 40
0.06
 40
0.06
 40
0.06
 40
0.06
 40
0.06
309
CELLMARGIN_END
 94
        6
 95
        1
302
GRIDFORMAT
  1
GRIDFORMAT_BEGIN
 90
        0
 91
        1
 62
     0
 92
       -2
340
33D
 93
        0
 40
0.045
309
GRIDFORMAT_END
 95
        2
302
GRIDFORMAT
  1
GRIDFORMAT_BEGIN
 90
        0
 91
        1
 62
     0
 92
       -2
340
33D
 93
        0
 40
0.045
309
GRIDFORMAT_END
 95
        4
302
GRIDFORMAT
  1
GRIDFORMAT_BEGIN
 90
        0
 91
        1
 62
     0
 92
       -2
340
33D
 93
        0
 40
0.045
309
GRIDFORMAT_END
 95
        8
302
GRIDFORMAT
  1
GRIDFORMAT_BEGIN
 90
        0
 91
        1
 62
     0
 92
       -2
340
33D
 93
        0
 40
0.045
309
GRIDFORMAT_END
 95
       16
302
GRIDFORMAT
  1
GRIDFORMAT_BEGIN
 90
        0
 91
        1
 62
     0
 92
       -2
340
33D
 93
        0
 40
0.045
309
GRIDFORMAT_END
 95
       32
302
GRIDFORMAT
  1
GRIDFORMAT_BEGIN
 90
        0
 91
        1
 62
     0
 92
       -2
340
33D
 93
        0
 40
0.045
309
GRIDFORMAT_END
309
TABLEFORMAT_END
  1
CELLSTYLE_BEGIN
 90
        3
 91
        2
300
_DATA
309
CELLSTYLE_END
  0
ENDSEC
  0
EOF
