<?xml version="1.0" encoding="UTF-8"?>
<svg xmlns="http://www.w3.org/2000/svg" width="800.000" height="600.000" viewBox="0.0 0.0 800.000 600.000" version="1.1">
  <title>Produce by Acme CAD Converter</title>
  <desc>Produce by Acme CAD Converter</desc>
<path d="M62.57 311L62.57 278.84"
fill="none" stroke="black" stroke-width="0.5"/>
<path d="M64.87 276.54L772.46 276.54"
fill="none" stroke="black" stroke-width="0.5"/>
<path d="M774.76 278.84L774.76 311"
fill="none" stroke="black" stroke-width="0.5"/>
<path d="M772.46 313.3L64.87 313.3"
fill="none" stroke="black" stroke-width="0.5"/>
<path d="M62.57 278.84L64.87 276.54"
fill="none" stroke="black" stroke-width="0.5"/>
<path d="M62.57 311L64.87 313.3"
fill="none" stroke="black" stroke-width="0.5"/>
<path d="M772.46 276.54L774.76 278.84"
fill="none" stroke="black" stroke-width="0.5"/>
<path d="M772.46 313.3L774.76 311"
fill="none" stroke="black" stroke-width="0.5"/>
<path d="M64.87 313.3L64.87 276.54"
fill="none" stroke="black" stroke-width="0.5"/>
<path d="M772.46 313.3L772.46 276.54"
fill="none" stroke="black" stroke-width="0.5"/>
<path d="M62 313.3L10.88 313.3"
fill="none" stroke="black" stroke-width="0.5"/>
<path d="M62 276.54L10.88 276.54"
fill="none" stroke="black" stroke-width="0.5"/>
<path d="M16.62 301.81L16.62 288.03"
fill="none" stroke="black" stroke-width="0.5"/>
<path d="M14.71 301.81L16.62 313.3 16.62 313.3 18.54 301.81 14.71 301.81Z"
fill-rule="evenodd" fill="black"/>
<path d="M18.54 288.03L16.62 276.54 16.62 276.54 14.71 288.03 18.54 288.03Z"
fill-rule="evenodd" fill="black"/>
<path d="M13.75 302.58L13.75 298.75M13.75 298.75L11.84 296.83M11.84 296.83L8.01 296.83M8.01 296.83L6.09 298.75M6.09 298.75L6.09 302.58M6.09 302.58L8.01 304.49M8.01 304.49L11.84 304.49M11.84 304.49L13.75 302.58M13.75 304.49L6.09 296.83M13.75 291.09L11.84 293.01M11.84 293.01L9.92 293.01M9.92 293.01L8.01 291.09M8.01 291.09L8.01 287.26M8.01 287.26L6.09 285.35M6.09 285.35L4.18 285.35M4.18 285.35L2.26 287.26M2.26 287.26L2.26 291.09M2.26 291.09L4.18 293.01M4.18 293.01L6.09 293.01M6.09 293.01L8.01 291.09M8.01 287.26L9.92 285.35M9.92 285.35L11.84 285.35M11.84 285.35L13.75 287.26M13.75 287.26L13.75 291.09"
fill="none" stroke="black" stroke-width="0.5"/>
<path d="M64.87 313.3L64.87 313.3"
fill="none" stroke="black" stroke-width="0.5"/>
<path d="M64.87 276.54L64.87 276.54"
fill="none" stroke="black" stroke-width="0.5"/>
<path d="M16.62 276.54L16.62 276.54"
fill="none" stroke="black" stroke-width="0.5"/>
<path d="M62.57 275.97L62.57 194.12"
fill="none" stroke="black" stroke-width="0.5"/>
<path d="M774.76 275.97L774.76 194.12"
fill="none" stroke="black" stroke-width="0.5"/>
<path d="M74.06 199.87L763.28 199.87"
fill="none" stroke="black" stroke-width="0.5"/>
<path d="M74.06 197.95L62.57 199.87 62.57 199.87 74.06 201.78 74.06 197.95Z"
fill-rule="evenodd" fill="black"/>
<path d="M763.28 201.78L774.76 199.87 774.76 199.87 763.28 197.95 763.28 201.78Z"
fill-rule="evenodd" fill="black"/>
<path d="M384.21 179.76L386.12 177.85M386.12 177.85L386.12 189.34M384.21 189.34L388.03 189.34M391.86 187.42L393.78 189.34M393.78 189.34L397.61 189.34M397.61 189.34L399.52 187.42M399.52 187.42L399.52 183.59M399.52 183.59L397.61 181.68M397.61 181.68L391.86 181.68M391.86 181.68L391.86 177.85M391.86 177.85L399.52 177.85M403.35 187.42L405.26 189.34M405.26 189.34L409.09 189.34M409.09 189.34L411.01 187.42M411.01 187.42L411.01 183.59M411.01 183.59L409.09 181.68M409.09 181.68L403.35 181.68M403.35 181.68L403.35 177.85M403.35 177.85L411.01 177.85M418.67 179.76L418.67 172.1M422.5 175.93L414.84 175.93M428.24 181.68L426.32 179.76M426.32 179.76L426.32 172.1M426.32 172.1L428.24 170.19M428.24 170.19L430.15 170.19M430.15 170.19L432.07 172.1M432.07 172.1L432.07 179.76M432.07 179.76L430.15 181.68M430.15 181.68L428.24 181.68M435.9 181.68L435.9 179.76M441.64 181.68L439.73 179.76M439.73 179.76L439.73 172.1M439.73 172.1L441.64 170.19M441.64 170.19L443.55 170.19M443.55 170.19L445.47 172.1M445.47 172.1L445.47 179.76M445.47 179.76L443.55 181.68M443.55 181.68L441.64 181.68M449.3 172.1L451.21 170.19M451.21 170.19L451.21 181.68M449.3 181.68L453.13 181.68M414.84 191.25L422.5 191.25M428.24 196.99L426.32 195.08M426.32 195.08L426.32 187.42M426.32 187.42L428.24 185.51M428.24 185.51L430.15 185.51M430.15 185.51L432.07 187.42M432.07 187.42L432.07 195.08M432.07 195.08L430.15 196.99M430.15 196.99L428.24 196.99M435.9 196.99L435.9 195.08M441.64 196.99L439.73 195.08M439.73 195.08L439.73 187.42M439.73 187.42L441.64 185.51M441.64 185.51L443.55 185.51M443.55 185.51L445.47 187.42M445.47 187.42L445.47 195.08M445.47 195.08L443.55 196.99M443.55 196.99L441.64 196.99M449.3 187.42L451.21 185.51M451.21 185.51L451.21 196.99M449.3 196.99L453.13 196.99"
fill="none" stroke="black" stroke-width="0.5"/>
<path d="M62.57 278.84L62.57 278.84"
fill="none" stroke="black" stroke-width="0.5"/>
<path d="M774.76 278.84L774.76 278.84"
fill="none" stroke="black" stroke-width="0.5"/>
<path d="M774.76 199.87L774.76 199.87"
fill="none" stroke="black" stroke-width="0.5"/>
<path d="M62.57 275.97L62.57 238.63"
fill="none" stroke="black" stroke-width="0.5"/>
<path d="M64.87 273.67L64.87 238.63"
fill="none" stroke="black" stroke-width="0.5"/>
<path d="M51.08 244.38L39.6 244.38"
fill="none" stroke="black" stroke-width="0.5"/>
<path d="M76.35 244.38L87.84 244.38"
fill="none" stroke="black" stroke-width="0.5"/>
<path d="M51.08 246.29L62.57 244.38 62.57 244.38 51.08 242.46 51.08 246.29Z"
fill-rule="evenodd" fill="black"/>
<path d="M76.35 242.46L64.87 244.38 64.87 244.38 76.35 246.29 76.35 242.46Z"
fill-rule="evenodd" fill="black"/>
<path d="M74.25 240.93L72.33 239.02M72.33 239.02L72.33 231.36M72.33 231.36L74.25 229.44M74.25 229.44L76.16 229.44M76.16 229.44L78.08 231.36M78.08 231.36L78.08 239.02M78.08 239.02L76.16 240.93M76.16 240.93L74.25 240.93M81.91 240.93L81.91 239.02M85.74 239.02L87.65 240.93M87.65 240.93L91.48 240.93M91.48 240.93L93.39 239.02M93.39 239.02L93.39 235.19M93.39 235.19L91.48 233.27M91.48 233.27L85.74 233.27M85.74 233.27L85.74 229.44M85.74 229.44L93.39 229.44M97.22 240.93L104.88 233.27M97.22 233.27L104.88 240.93M116.37 237.1L108.71 237.1M108.71 237.1L114.45 229.44M114.45 229.44L114.45 240.93M120.2 239.02L122.11 240.93M122.11 240.93L125.94 240.93M125.94 240.93L127.85 239.02M127.85 239.02L127.85 235.19M127.85 235.19L125.94 233.27M125.94 233.27L120.2 233.27M120.2 233.27L120.2 229.44M120.2 229.44L127.85 229.44M131.68 231.36L133.6 229.44M133.6 229.44L135.51 231.36M135.51 231.36L133.6 233.27M133.6 233.27L131.68 231.36"
fill="none" stroke="black" stroke-width="0.5"/>
<path d="M62.57 278.84L62.57 278.84"
fill="none" stroke="black" stroke-width="0.5"/>
<path d="M64.87 276.54L64.87 276.54"
fill="none" stroke="black" stroke-width="0.5"/>
<path d="M64.87 244.38L64.87 244.38"
fill="none" stroke="black" stroke-width="0.5"/>
<path d="M772.46 275.39L772.46 238.06"
fill="none" stroke="black" stroke-width="0.5"/>
<path d="M774.76 275.97L774.76 238.06"
fill="none" stroke="black" stroke-width="0.5"/>
<path d="M760.98 243.8L749.49 243.8"
fill="none" stroke="black" stroke-width="0.5"/>
<path d="M786.25 243.8L797.74 243.8"
fill="none" stroke="black" stroke-width="0.5"/>
<path d="M760.98 245.72L772.46 243.8 772.46 243.8 760.98 241.89 760.98 245.72Z"
fill-rule="evenodd" fill="black"/>
<path d="M786.25 241.89L774.76 243.8 774.76 243.8 786.25 245.72 786.25 241.89Z"
fill-rule="evenodd" fill="black"/>
<path d="M712.92 240.93L711.01 239.02M711.01 239.02L711.01 231.36M711.01 231.36L712.92 229.44M712.92 229.44L714.84 229.44M714.84 229.44L716.75 231.36M716.75 231.36L716.75 239.02M716.75 239.02L714.84 240.93M714.84 240.93L712.92 240.93M720.58 240.93L720.58 239.02M724.41 239.02L726.33 240.93M726.33 240.93L730.15 240.93M730.15 240.93L732.07 239.02M732.07 239.02L732.07 235.19M732.07 235.19L730.15 233.27M730.15 233.27L724.41 233.27M724.41 233.27L724.41 229.44M724.41 229.44L732.07 229.44M735.9 240.93L743.56 233.27M735.9 233.27L743.56 240.93M755.04 237.1L747.39 237.1M747.39 237.1L753.13 229.44M753.13 229.44L753.13 240.93M758.87 239.02L760.79 240.93M760.79 240.93L764.62 240.93M764.62 240.93L766.53 239.02M766.53 239.02L766.53 235.19M766.53 235.19L764.62 233.27M764.62 233.27L758.87 233.27M758.87 233.27L758.87 229.44M758.87 229.44L766.53 229.44M770.36 231.36L772.27 229.44M772.27 229.44L774.19 231.36M774.19 231.36L772.27 233.27M772.27 233.27L770.36 231.36"
fill="none" stroke="black" stroke-width="0.5"/>
<path d="M772.46 278.26L772.46 278.26"
fill="none" stroke="black" stroke-width="0.5"/>
<path d="M774.76 278.84L774.76 278.84"
fill="none" stroke="black" stroke-width="0.5"/>
<path d="M774.76 243.8L774.76 243.8"
fill="none" stroke="black" stroke-width="0.5"/>
<path d="M292.31 425.87L292.31 405.19M292.31 405.19L306.09 405.19M306.09 405.19L306.09 425.87M325.79 425.87L325.79 405.19M325.79 405.19L314.96 405.19M314.96 405.19L314.96 421.93M314.96 421.93L313.97 423.9M313.97 423.9L312.99 424.89M312.99 424.89L311.02 425.87M346.46 405.19L333.66 405.19M333.66 405.19L333.66 425.87M333.66 425.87L346.46 425.87M345.48 415.04L333.66 415.04M351.39 405.19L351.39 413.07M351.39 413.07L352.37 416.03M352.37 416.03L353.35 417.01M353.35 417.01L356.31 417.99M356.31 417.99L365.17 417.99M365.17 405.19L365.17 425.87M385.85 405.19L373.05 405.19M373.05 405.19L373.05 425.87M373.05 425.87L385.85 425.87M384.86 415.04L373.05 415.04M428.18 429.81L428.18 425.87M428.18 425.87L408.49 425.87M408.49 425.87L408.49 429.81M410.46 425.87L413.42 422.92M413.42 422.92L414.4 420.95M414.4 420.95L415.38 417.01M415.38 417.01L415.38 405.19M415.38 405.19L426.21 405.19M426.21 405.19L426.21 425.87M434.09 405.19L434.09 425.87M434.09 425.87L447.88 405.19M447.88 405.19L447.88 425.87M455.75 425.87L455.75 405.19M455.75 405.19L469.54 405.19M469.54 405.19L469.54 425.87M482.34 405.19L486.28 405.19M486.28 405.19L488.24 406.18M488.24 406.18L490.21 408.15M490.21 408.15L491.2 410.12M491.2 410.12L492.18 413.07M492.18 413.07L492.18 417.99M492.18 417.99L491.2 420.95M491.2 420.95L490.21 422.92M490.21 422.92L488.24 424.89M488.24 424.89L486.28 425.87M486.28 425.87L482.34 425.87M482.34 425.87L480.37 424.89M480.37 424.89L478.4 422.92M478.4 422.92L477.41 420.95M477.41 420.95L476.43 417.99M476.43 417.99L476.43 413.07M476.43 413.07L477.41 410.12M477.41 410.12L478.4 408.15M478.4 408.15L480.37 406.18M480.37 406.18L482.34 405.19M510.89 425.87L510.89 405.19M510.89 405.19L500.06 405.19M500.06 405.19L500.06 421.93M500.06 421.93L499.08 423.9M499.08 423.9L498.09 424.89M498.09 424.89L496.12 425.87M516.8 425.87L523.69 415.04M530.58 425.87L530.58 405.19M530.58 405.19L521.72 405.19M521.72 405.19L518.77 406.18M518.77 406.18L517.78 407.16M517.78 407.16L516.8 409.13M516.8 409.13L516.8 411.1M516.8 411.1L517.78 413.07M517.78 413.07L518.77 414.06M518.77 414.06L521.72 415.04M521.72 415.04L530.58 415.04"
fill="none" stroke="black" stroke-width="0.5"/>
</svg>
